<?xml version="1.0" encoding="UTF-8" standalone="no"?>
<svg
   xmlns:dc="http://purl.org/dc/elements/1.1/"
   xmlns:cc="http://creativecommons.org/ns#"
   xmlns:rdf="http://www.w3.org/1999/02/22-rdf-syntax-ns#"
   xmlns:svg="http://www.w3.org/2000/svg"
   xmlns="http://www.w3.org/2000/svg"
   xmlns:sodipodi="http://sodipodi.sourceforge.net/DTD/sodipodi-0.dtd"
   xmlns:inkscape="http://www.inkscape.org/namespaces/inkscape"
   inkscape:version="1.0beta2 (2b71d25, 2019-12-03)"
   sodipodi:docname="plate.svg"
   id="svg334"
   version="1.1"
   viewBox="0 0 296.99999 210"
   height="210mm"
   width="297mm">
  <metadata
     id="metadata340">
    <rdf:RDF>
      <cc:Work
         rdf:about="">
        <dc:format>image/svg+xml</dc:format>
        <dc:type
           rdf:resource="http://purl.org/dc/dcmitype/StillImage" />
        <dc:title></dc:title>
      </cc:Work>
    </rdf:RDF>
  </metadata>
  <defs
     id="defs338" />
  <sodipodi:namedview
     inkscape:current-layer="svg334"
     inkscape:window-maximized="0"
     inkscape:window-y="23"
     inkscape:window-x="0"
     inkscape:cy="196.93602"
     inkscape:cx="115.12312"
     inkscape:zoom="1.1453086"
     showgrid="true"
     id="namedview336"
     inkscape:window-height="755"
     inkscape:window-width="1280"
     inkscape:pageshadow="2"
     inkscape:pageopacity="0"
     guidetolerance="10"
     gridtolerance="10"
     objecttolerance="10"
     borderopacity="1"
     inkscape:document-rotation="0"
     bordercolor="#666666"
     pagecolor="#ffffff">
    <inkscape:grid
       dotted="true"
       snapvisiblegridlinesonly="false"
       visible="true"
       enabled="true"
       empspacing="4"
       originy="4.9999999"
       originx="5.2999999"
       units="mm"
       spacingy="4.7499999"
       spacingx="4.7499999"
       id="grid342"
       type="xygrid" />
  </sodipodi:namedview>
  <polygon
     transform="matrix(1.0154876,0,0,1.0571828,-2.5507347,-3.097527)"
     id="polygon194"
     style="fill:none;stroke:#ff0000;stroke-width:0.05mm"
     points="288.364,5.737 288.69,5.955 288.999,6.198 289.287,6.465 289.554,6.753 289.797,7.062 290.015,7.388 290.207,7.731 290.371,8.087 290.507,8.455 290.613,8.833 290.69,9.218 290.736,9.608 290.751,10.001 290.752,95.251 290.736,95.644 290.69,96.034 290.613,96.419 290.507,96.797 290.371,97.165 290.207,97.521 290.015,97.864 289.797,98.19 289.554,98.499 289.287,98.787 288.999,99.054 288.69,99.297 288.364,99.515 288.021,99.707 287.665,99.871 287.297,100.007 286.919,100.113 286.534,100.19 286.144,100.236 285.752,100.252 10.001,100.251 9.608,100.236 9.218,100.19 8.833,100.113 8.455,100.007 8.087,99.871 7.731,99.707 7.388,99.515 7.062,99.297 6.753,99.054 6.465,98.787 6.198,98.499 5.955,98.19 5.737,97.864 5.545,97.521 5.381,97.165 5.245,96.797 5.139,96.419 5.062,96.034 5.016,95.644 5,95.251 5.001,10.001 5.016,9.608 5.062,9.218 5.139,8.833 5.245,8.455 5.381,8.087 5.545,7.731 5.737,7.388 5.955,7.062 6.198,6.753 6.465,6.465 6.753,6.198 7.062,5.955 7.388,5.737 7.731,5.545 8.087,5.381 8.455,5.245 8.833,5.139 9.218,5.062 9.608,5.016 10.001,5 285.752,5.001 286.144,5.016 286.534,5.062 286.919,5.139 287.297,5.245 287.665,5.381 288.021,5.545 " />
  <polygon
     id="polygon196"
     style="fill:none;stroke:#ff0000;stroke-width:0.05mm"
     points="269.463,84.726 268.663,84.726 268.663,87.825 269.463,87.825 269.463,93.626 268.663,93.626 268.663,96.726 269.463,96.726 269.463,97.726 283.463,97.726 283.463,96.726 284.263,96.726 284.263,93.626 283.463,93.626 283.463,87.825 284.263,87.825 284.263,84.726 283.463,84.726 283.463,83.726 269.463,83.726 " />
  <polygon
     id="polygon198"
     style="fill:none;stroke:#ff0000;stroke-width:0.05mm"
     points="245.651,84.726 244.851,84.726 244.851,87.825 245.651,87.825 245.651,93.626 244.851,93.626 244.851,96.726 245.651,96.726 245.651,97.726 259.65,97.726 259.65,96.726 260.451,96.726 260.451,93.626 259.65,93.626 259.65,87.825 260.451,87.825 260.451,84.726 259.65,84.726 259.65,83.726 245.651,83.726 " />
  <polygon
     id="polygon200"
     style="fill:none;stroke:#ff0000;stroke-width:0.05mm"
     points="226.601,84.726 225.801,84.726 225.801,87.825 226.601,87.825 226.601,93.626 225.801,93.626 225.801,96.726 226.601,96.726 226.601,97.726 240.601,97.726 240.601,96.726 241.401,96.726 241.401,93.626 240.601,93.626 240.601,87.825 241.401,87.825 241.401,84.726 240.601,84.726 240.601,83.726 226.601,83.726 " />
  <polygon
     id="polygon202"
     style="fill:none;stroke:#ff0000;stroke-width:0.05mm"
     points="207.551,84.726 206.751,84.726 206.751,87.825 207.551,87.825 207.551,93.626 206.751,93.626 206.751,96.726 207.551,96.726 207.551,97.726 221.551,97.726 221.551,96.726 222.351,96.726 222.351,93.626 221.551,93.626 221.551,87.825 222.351,87.825 222.351,84.726 221.551,84.726 221.551,83.726 207.551,83.726 " />
  <polygon
     id="polygon204"
     style="fill:none;stroke:#ff0000;stroke-width:0.05mm"
     points="188.501,84.726 187.701,84.726 187.701,87.825 188.501,87.825 188.501,93.626 187.701,93.626 187.701,96.726 188.501,96.726 188.501,97.726 202.501,97.726 202.501,96.726 203.301,96.726 203.301,93.626 202.501,93.626 202.501,87.825 203.301,87.825 203.301,84.726 202.501,84.726 202.501,83.726 188.501,83.726 " />
  <polygon
     id="polygon206"
     style="fill:none;stroke:#ff0000;stroke-width:0.05mm"
     points="167.069,84.726 166.269,84.726 166.269,87.825 167.069,87.825 167.069,93.626 166.269,93.626 166.269,96.726 167.069,96.726 167.069,97.726 181.069,97.726 181.069,96.726 181.869,96.726 181.869,93.626 181.069,93.626 181.069,87.825 181.869,87.825 181.869,84.726 181.069,84.726 181.069,83.726 167.069,83.726 " />
  <polygon
     id="polygon208"
     style="fill:none;stroke:#ff0000;stroke-width:0.05mm"
     points="140.876,84.726 140.076,84.726 140.076,87.825 140.876,87.825 140.876,93.626 140.076,93.626 140.076,96.726 140.876,96.726 140.876,97.726 154.876,97.726 154.876,96.726 155.676,96.726 155.676,93.626 154.876,93.626 154.876,87.825 155.676,87.825 155.676,84.726 154.876,84.726 154.876,83.726 140.876,83.726 " />
  <polygon
     id="polygon210"
     style="fill:none;stroke:#ff0000;stroke-width:0.05mm"
     points="114.682,84.726 113.882,84.726 113.882,87.825 114.682,87.825 114.682,93.626 113.882,93.626 113.882,96.726 114.682,96.726 114.682,97.726 128.682,97.726 128.682,96.726 129.482,96.726 129.482,93.626 128.682,93.626 128.682,87.825 129.482,87.825 129.482,84.726 128.682,84.726 128.682,83.726 114.682,83.726 " />
  <polygon
     id="polygon212"
     style="fill:none;stroke:#ff0000;stroke-width:0.05mm"
     points="93.251,84.726 92.451,84.726 92.451,87.825 93.251,87.825 93.251,93.626 92.451,93.626 92.451,96.726 93.251,96.726 93.251,97.726 107.251,97.726 107.251,96.726 108.051,96.726 108.051,93.626 107.251,93.626 107.251,87.825 108.051,87.825 108.051,84.726 107.251,84.726 107.251,83.726 93.251,83.726 " />
  <polygon
     id="polygon214"
     style="fill:none;stroke:#ff0000;stroke-width:0.05mm"
     points="74.201,84.726 73.401,84.726 73.401,87.825 74.201,87.825 74.201,93.626 73.401,93.626 73.401,96.726 74.201,96.726 74.201,97.726 88.201,97.726 88.201,96.726 89.001,96.726 89.001,93.626 88.201,93.626 88.201,87.825 89.001,87.825 89.001,84.726 88.201,84.726 88.201,83.726 74.201,83.726 " />
  <polygon
     id="polygon216"
     style="fill:none;stroke:#ff0000;stroke-width:0.05mm"
     points="55.151,84.726 54.351,84.726 54.351,87.825 55.151,87.825 55.151,93.626 54.351,93.626 54.351,96.726 55.151,96.726 55.151,97.726 69.151,97.726 69.151,96.726 69.951,96.726 69.951,93.626 69.151,93.626 69.151,87.825 69.951,87.825 69.951,84.726 69.151,84.726 69.151,83.726 55.151,83.726 " />
  <polygon
     id="polygon218"
     style="fill:none;stroke:#ff0000;stroke-width:0.05mm"
     points="36.101,84.726 35.301,84.726 35.301,87.825 36.101,87.825 36.101,93.626 35.301,93.626 35.301,96.726 36.101,96.726 36.101,97.726 50.101,97.726 50.101,96.726 50.901,96.726 50.901,93.626 50.101,93.626 50.101,87.825 50.901,87.825 50.901,84.726 50.101,84.726 50.101,83.726 36.101,83.726 " />
  <polygon
     id="polygon220"
     style="fill:none;stroke:#ff0000;stroke-width:0.05mm"
     points="12.288,84.726 11.488,84.726 11.488,87.825 12.288,87.825 12.288,93.626 11.488,93.626 11.488,96.726 12.288,96.726 12.288,97.726 26.288,97.726 26.288,96.726 27.088,96.726 27.088,93.626 26.288,93.626 26.288,87.825 27.088,87.825 27.088,84.726 26.288,84.726 26.288,83.726 12.288,83.726 " />
  <polygon
     id="polygon222"
     style="fill:none;stroke:#ff0000;stroke-width:0.05mm"
     points="274.226,65.676 273.426,65.676 273.426,68.775 274.226,68.775 274.226,74.576 273.426,74.576 273.426,77.676 274.226,77.676 274.226,78.676 288.226,78.676 288.226,77.676 289.026,77.676 289.026,74.576 288.226,74.576 288.226,68.775 289.026,68.775 289.026,65.676 288.226,65.676 288.226,64.676 274.226,64.676 " />
  <polygon
     id="polygon224"
     style="fill:none;stroke:#ff0000;stroke-width:0.05mm"
     points="255.176,65.676 254.376,65.676 254.376,68.775 255.176,68.775 255.176,74.576 254.376,74.576 254.376,77.676 255.176,77.676 255.176,78.676 269.176,78.676 269.176,77.676 269.976,77.676 269.976,74.576 269.176,74.576 269.176,68.775 269.976,68.775 269.976,65.676 269.176,65.676 269.176,64.676 255.176,64.676 " />
  <polygon
     id="polygon226"
     style="fill:none;stroke:#ff0000;stroke-width:0.05mm"
     points="236.126,65.676 235.326,65.676 235.326,68.775 236.126,68.775 236.126,74.576 235.326,74.576 235.326,77.676 236.126,77.676 236.126,78.676 250.126,78.676 250.126,77.676 250.926,77.676 250.926,74.576 250.126,74.576 250.126,68.775 250.926,68.775 250.926,65.676 250.126,65.676 250.126,64.676 236.126,64.676 " />
  <polygon
     id="polygon228"
     style="fill:none;stroke:#ff0000;stroke-width:0.05mm"
     points="217.076,65.676 216.276,65.676 216.276,68.775 217.076,68.775 217.076,74.576 216.276,74.576 216.276,77.676 217.076,77.676 217.076,78.676 231.076,78.676 231.076,77.676 231.876,77.676 231.876,74.576 231.076,74.576 231.076,68.775 231.876,68.775 231.876,65.676 231.076,65.676 231.076,64.676 217.076,64.676 " />
  <polygon
     id="polygon230"
     style="fill:none;stroke:#ff0000;stroke-width:0.05mm"
     points="198.026,65.676 197.226,65.676 197.226,68.775 198.026,68.775 198.026,74.576 197.226,74.576 197.226,77.676 198.026,77.676 198.026,78.676 212.026,78.676 212.026,77.676 212.826,77.676 212.826,74.576 212.026,74.576 212.026,68.775 212.826,68.775 212.826,65.676 212.026,65.676 212.026,64.676 198.026,64.676 " />
  <polygon
     id="polygon232"
     style="fill:none;stroke:#ff0000;stroke-width:0.05mm"
     points="178.976,65.676 178.176,65.676 178.176,68.775 178.976,68.775 178.976,74.576 178.176,74.576 178.176,77.676 178.976,77.676 178.976,78.676 192.976,78.676 192.976,77.676 193.776,77.676 193.776,74.576 192.976,74.576 192.976,68.775 193.776,68.775 193.776,65.676 192.976,65.676 192.976,64.676 178.976,64.676 " />
  <polygon
     id="polygon234"
     style="fill:none;stroke:#ff0000;stroke-width:0.05mm"
     points="159.926,65.676 159.126,65.676 159.126,68.775 159.926,68.775 159.926,74.576 159.126,74.576 159.126,77.676 159.926,77.676 159.926,78.676 173.926,78.676 173.926,77.676 174.726,77.676 174.726,74.576 173.926,74.576 173.926,68.775 174.726,68.775 174.726,65.676 173.926,65.676 173.926,64.676 159.926,64.676 " />
  <polygon
     id="polygon236"
     style="fill:none;stroke:#ff0000;stroke-width:0.05mm"
     points="140.876,65.676 140.076,65.676 140.076,68.775 140.876,68.775 140.876,74.576 140.076,74.576 140.076,77.676 140.876,77.676 140.876,78.676 154.876,78.676 154.876,77.676 155.676,77.676 155.676,74.576 154.876,74.576 154.876,68.775 155.676,68.775 155.676,65.676 154.876,65.676 154.876,64.676 140.876,64.676 " />
  <polygon
     id="polygon238"
     style="fill:none;stroke:#ff0000;stroke-width:0.05mm"
     points="121.825,65.676 121.025,65.676 121.025,68.775 121.825,68.775 121.825,74.576 121.025,74.576 121.025,77.676 121.825,77.676 121.825,78.676 135.826,78.676 135.826,77.676 136.626,77.676 136.626,74.576 135.826,74.576 135.826,68.775 136.626,68.775 136.626,65.676 135.826,65.676 135.826,64.676 121.825,64.676 " />
  <polygon
     id="polygon240"
     style="fill:none;stroke:#ff0000;stroke-width:0.05mm"
     points="102.775,65.676 101.976,65.676 101.976,68.775 102.775,68.775 102.775,74.576 101.976,74.576 101.976,77.676 102.775,77.676 102.775,78.676 116.775,78.676 116.775,77.676 117.575,77.676 117.575,74.576 116.775,74.576 116.775,68.775 117.575,68.775 117.575,65.676 116.775,65.676 116.775,64.676 102.775,64.676 " />
  <polygon
     id="polygon242"
     style="fill:none;stroke:#ff0000;stroke-width:0.05mm"
     points="83.726,65.676 82.926,65.676 82.926,68.775 83.726,68.775 83.726,74.576 82.926,74.576 82.926,77.676 83.726,77.676 83.726,78.676 97.726,78.676 97.726,77.676 98.525,77.676 98.525,74.576 97.726,74.576 97.726,68.775 98.525,68.775 98.525,65.676 97.726,65.676 97.726,64.676 83.726,64.676 " />
  <polygon
     id="polygon244"
     style="fill:none;stroke:#ff0000;stroke-width:0.05mm"
     points="64.676,65.676 63.876,65.676 63.876,68.775 64.676,68.775 64.676,74.576 63.876,74.576 63.876,77.676 64.676,77.676 64.676,78.676 78.676,78.676 78.676,77.676 79.476,77.676 79.476,74.576 78.676,74.576 78.676,68.775 79.476,68.775 79.476,65.676 78.676,65.676 78.676,64.676 64.676,64.676 " />
  <polygon
     id="polygon246"
     style="fill:none;stroke:#ff0000;stroke-width:0.05mm"
     points="45.626,65.676 44.826,65.676 44.826,68.775 45.626,68.775 45.626,74.576 44.826,74.576 44.826,77.676 45.626,77.676 45.626,78.676 59.626,78.676 59.626,77.676 60.426,77.676 60.426,74.576 59.626,74.576 59.626,68.775 60.426,68.775 60.426,65.676 59.626,65.676 59.626,64.676 45.626,64.676 " />
  <polygon
     id="polygon248"
     style="fill:none;stroke:#ff0000;stroke-width:0.05mm"
     points="26.576,65.676 25.776,65.676 25.776,68.775 26.576,68.775 26.576,74.576 25.776,74.576 25.776,77.676 26.576,77.676 26.576,78.676 40.576,78.676 40.576,77.676 41.376,77.676 41.376,74.576 40.576,74.576 40.576,68.775 41.376,68.775 41.376,65.676 40.576,65.676 40.576,64.676 26.576,64.676 " />
  <polygon
     id="polygon250"
     style="fill:none;stroke:#ff0000;stroke-width:0.05mm"
     points="7.526,65.676 6.726,65.676 6.726,68.775 7.526,68.775 7.526,74.576 6.726,74.576 6.726,77.676 7.526,77.676 7.526,78.676 21.526,78.676 21.526,77.676 22.326,77.676 22.326,74.576 21.526,74.576 21.526,68.775 22.326,68.775 22.326,65.676 21.526,65.676 21.526,64.676 7.526,64.676 " />
  <polygon
     id="polygon252"
     style="fill:none;stroke:#ff0000;stroke-width:0.05mm"
     points="271.844,46.626 271.044,46.626 271.044,49.726 271.844,49.726 271.844,55.526 271.044,55.526 271.044,58.626 271.844,58.626 271.844,59.626 285.844,59.626 285.844,58.626 286.644,58.626 286.644,55.526 285.844,55.526 285.844,49.726 286.644,49.726 286.644,46.626 285.844,46.626 285.844,45.626 271.844,45.626 " />
  <polygon
     id="polygon254"
     style="fill:none;stroke:#ff0000;stroke-width:0.05mm"
     points="250.413,46.626 249.613,46.626 249.613,49.726 250.413,49.726 250.413,55.526 249.613,55.526 249.613,58.626 250.413,58.626 250.413,59.626 264.413,59.626 264.413,58.626 265.213,58.626 265.213,55.526 264.413,55.526 264.413,49.726 265.213,49.726 265.213,46.626 264.413,46.626 264.413,45.626 250.413,45.626 " />
  <polygon
     id="polygon256"
     style="fill:none;stroke:#ff0000;stroke-width:0.05mm"
     points="231.363,46.626 230.563,46.626 230.563,49.726 231.363,49.726 231.363,55.526 230.563,55.526 230.563,58.626 231.363,58.626 231.363,59.626 245.363,59.626 245.363,58.626 246.163,58.626 246.163,55.526 245.363,55.526 245.363,49.726 246.163,49.726 246.163,46.626 245.363,46.626 245.363,45.626 231.363,45.626 " />
  <polygon
     id="polygon258"
     style="fill:none;stroke:#ff0000;stroke-width:0.05mm"
     points="212.313,46.626 211.513,46.626 211.513,49.726 212.313,49.726 212.313,55.526 211.513,55.526 211.513,58.626 212.313,58.626 212.313,59.626 226.313,59.626 226.313,58.626 227.113,58.626 227.113,55.526 226.313,55.526 226.313,49.726 227.113,49.726 227.113,46.626 226.313,46.626 226.313,45.626 212.313,45.626 " />
  <polygon
     id="polygon260"
     style="fill:none;stroke:#ff0000;stroke-width:0.05mm"
     points="193.263,46.626 192.463,46.626 192.463,49.726 193.263,49.726 193.263,55.526 192.463,55.526 192.463,58.626 193.263,58.626 193.263,59.626 207.263,59.626 207.263,58.626 208.063,58.626 208.063,55.526 207.263,55.526 207.263,49.726 208.063,49.726 208.063,46.626 207.263,46.626 207.263,45.626 193.263,45.626 " />
  <polygon
     id="polygon262"
     style="fill:none;stroke:#ff0000;stroke-width:0.05mm"
     points="174.213,46.626 173.413,46.626 173.413,49.726 174.213,49.726 174.213,55.526 173.413,55.526 173.413,58.626 174.213,58.626 174.213,59.626 188.213,59.626 188.213,58.626 189.013,58.626 189.013,55.526 188.213,55.526 188.213,49.726 189.013,49.726 189.013,46.626 188.213,46.626 188.213,45.626 174.213,45.626 " />
  <polygon
     id="polygon264"
     style="fill:none;stroke:#ff0000;stroke-width:0.05mm"
     points="155.163,46.626 154.363,46.626 154.363,49.726 155.163,49.726 155.163,55.526 154.363,55.526 154.363,58.626 155.163,58.626 155.163,59.626 169.163,59.626 169.163,58.626 169.963,58.626 169.963,55.526 169.163,55.526 169.163,49.726 169.963,49.726 169.963,46.626 169.163,46.626 169.163,45.626 155.163,45.626 " />
  <polygon
     id="polygon266"
     style="fill:none;stroke:#ff0000;stroke-width:0.05mm"
     points="126.588,46.626 125.788,46.626 125.788,49.726 126.588,49.726 126.588,55.526 125.788,55.526 125.788,58.626 126.588,58.626 126.588,59.626 140.588,59.626 140.588,58.626 141.388,58.626 141.388,55.526 140.588,55.526 140.588,49.726 141.388,49.726 141.388,46.626 140.588,46.626 140.588,45.626 126.588,45.626 " />
  <polygon
     id="polygon268"
     style="fill:none;stroke:#ff0000;stroke-width:0.05mm"
     points="107.538,46.626 106.738,46.626 106.738,49.726 107.538,49.726 107.538,55.526 106.738,55.526 106.738,58.626 107.538,58.626 107.538,59.626 121.538,59.626 121.538,58.626 122.338,58.626 122.338,55.526 121.538,55.526 121.538,49.726 122.338,49.726 122.338,46.626 121.538,46.626 121.538,45.626 107.538,45.626 " />
  <polygon
     id="polygon270"
     style="fill:none;stroke:#ff0000;stroke-width:0.05mm"
     points="88.488,46.626 87.688,46.626 87.688,49.726 88.488,49.726 88.488,55.526 87.688,55.526 87.688,58.626 88.488,58.626 88.488,59.626 102.488,59.626 102.488,58.626 103.288,58.626 103.288,55.526 102.488,55.526 102.488,49.726 103.288,49.726 103.288,46.626 102.488,46.626 102.488,45.626 88.488,45.626 " />
  <polygon
     id="polygon272"
     style="fill:none;stroke:#ff0000;stroke-width:0.05mm"
     points="69.438,46.626 68.638,46.626 68.638,49.726 69.438,49.726 69.438,55.526 68.638,55.526 68.638,58.626 69.438,58.626 69.438,59.626 83.438,59.626 83.438,58.626 84.238,58.626 84.238,55.526 83.438,55.526 83.438,49.726 84.238,49.726 84.238,46.626 83.438,46.626 83.438,45.626 69.438,45.626 " />
  <polygon
     id="polygon274"
     style="fill:none;stroke:#ff0000;stroke-width:0.05mm"
     points="50.388,46.626 49.588,46.626 49.588,49.726 50.388,49.726 50.388,55.526 49.588,55.526 49.588,58.626 50.388,58.626 50.388,59.626 64.388,59.626 64.388,58.626 65.188,58.626 65.188,55.526 64.388,55.526 64.388,49.726 65.188,49.726 65.188,46.626 64.388,46.626 64.388,45.626 50.388,45.626 " />
  <polygon
     id="polygon276"
     style="fill:none;stroke:#ff0000;stroke-width:0.05mm"
     points="31.338,46.626 30.538,46.626 30.538,49.726 31.338,49.726 31.338,55.526 30.538,55.526 30.538,58.626 31.338,58.626 31.338,59.626 45.338,59.626 45.338,58.626 46.138,58.626 46.138,55.526 45.338,55.526 45.338,49.726 46.138,49.726 46.138,46.626 45.338,46.626 45.338,45.626 31.338,45.626 " />
  <polygon
     id="polygon278"
     style="fill:none;stroke:#ff0000;stroke-width:0.05mm"
     points="9.907,46.626 9.107,46.626 9.107,49.726 9.907,49.726 9.907,55.526 9.107,55.526 9.107,58.626 9.907,58.626 9.907,59.626 23.907,59.626 23.907,58.626 24.707,58.626 24.707,55.526 23.907,55.526 23.907,49.726 24.707,49.726 24.707,46.626 23.907,46.626 23.907,45.626 9.907,45.626 " />
  <polygon
     id="polygon280"
     style="fill:none;stroke:#ff0000;stroke-width:0.05mm"
     points="269.463,27.576 268.663,27.576 268.663,30.676 269.463,30.676 269.463,36.476 268.663,36.476 268.663,39.576 269.463,39.576 269.463,40.576 283.463,40.576 283.463,39.576 284.263,39.576 284.263,36.476 283.463,36.476 283.463,30.676 284.263,30.676 284.263,27.576 283.463,27.576 283.463,26.576 269.463,26.576 " />
  <polygon
     id="polygon282"
     style="fill:none;stroke:#ff0000;stroke-width:0.05mm"
     points="245.651,27.576 244.851,27.576 244.851,30.676 245.651,30.676 245.651,36.476 244.851,36.476 244.851,39.576 245.651,39.576 245.651,40.576 259.65,40.576 259.65,39.576 260.451,39.576 260.451,36.476 259.65,36.476 259.65,30.676 260.451,30.676 260.451,27.576 259.65,27.576 259.65,26.576 245.651,26.576 " />
  <polygon
     id="polygon284"
     style="fill:none;stroke:#ff0000;stroke-width:0.05mm"
     points="226.601,27.576 225.801,27.576 225.801,30.676 226.601,30.676 226.601,36.476 225.801,36.476 225.801,39.576 226.601,39.576 226.601,40.576 240.601,40.576 240.601,39.576 241.401,39.576 241.401,36.476 240.601,36.476 240.601,30.676 241.401,30.676 241.401,27.576 240.601,27.576 240.601,26.576 226.601,26.576 " />
  <polygon
     id="polygon286"
     style="fill:none;stroke:#ff0000;stroke-width:0.05mm"
     points="207.551,27.576 206.751,27.576 206.751,30.676 207.551,30.676 207.551,36.476 206.751,36.476 206.751,39.576 207.551,39.576 207.551,40.576 221.551,40.576 221.551,39.576 222.351,39.576 222.351,36.476 221.551,36.476 221.551,30.676 222.351,30.676 222.351,27.576 221.551,27.576 221.551,26.576 207.551,26.576 " />
  <polygon
     id="polygon288"
     style="fill:none;stroke:#ff0000;stroke-width:0.05mm"
     points="188.501,27.576 187.701,27.576 187.701,30.676 188.501,30.676 188.501,36.476 187.701,36.476 187.701,39.576 188.501,39.576 188.501,40.576 202.501,40.576 202.501,39.576 203.301,39.576 203.301,36.476 202.501,36.476 202.501,30.676 203.301,30.676 203.301,27.576 202.501,27.576 202.501,26.576 188.501,26.576 " />
  <polygon
     id="polygon290"
     style="fill:none;stroke:#ff0000;stroke-width:0.05mm"
     points="169.451,27.576 168.651,27.576 168.651,30.676 169.451,30.676 169.451,36.476 168.651,36.476 168.651,39.576 169.451,39.576 169.451,40.576 183.451,40.576 183.451,39.576 184.251,39.576 184.251,36.476 183.451,36.476 183.451,30.676 184.251,30.676 184.251,27.576 183.451,27.576 183.451,26.576 169.451,26.576 " />
  <polygon
     id="polygon292"
     style="fill:none;stroke:#ff0000;stroke-width:0.05mm"
     points="150.401,27.576 149.601,27.576 149.601,30.676 150.401,30.676 150.401,36.476 149.601,36.476 149.601,39.576 150.401,39.576 150.401,40.576 164.401,40.576 164.401,39.576 165.201,39.576 165.201,36.476 164.401,36.476 164.401,30.676 165.201,30.676 165.201,27.576 164.401,27.576 164.401,26.576 150.401,26.576 " />
  <polygon
     id="polygon294"
     style="fill:none;stroke:#ff0000;stroke-width:0.05mm"
     points="131.351,27.576 130.55,27.576 130.55,30.676 131.351,30.676 131.351,36.476 130.55,36.476 130.55,39.576 131.351,39.576 131.351,40.576 145.351,40.576 145.351,39.576 146.151,39.576 146.151,36.476 145.351,36.476 145.351,30.676 146.151,30.676 146.151,27.576 145.351,27.576 145.351,26.576 131.351,26.576 " />
  <polygon
     id="polygon296"
     style="fill:none;stroke:#ff0000;stroke-width:0.05mm"
     points="112.301,27.576 111.501,27.576 111.501,30.676 112.301,30.676 112.301,36.476 111.501,36.476 111.501,39.576 112.301,39.576 112.301,40.576 126.301,40.576 126.301,39.576 127.101,39.576 127.101,36.476 126.301,36.476 126.301,30.676 127.101,30.676 127.101,27.576 126.301,27.576 126.301,26.576 112.301,26.576 " />
  <polygon
     id="polygon298"
     style="fill:none;stroke:#ff0000;stroke-width:0.05mm"
     points="93.251,27.576 92.451,27.576 92.451,30.676 93.251,30.676 93.251,36.476 92.451,36.476 92.451,39.576 93.251,39.576 93.251,40.576 107.251,40.576 107.251,39.576 108.051,39.576 108.051,36.476 107.251,36.476 107.251,30.676 108.051,30.676 108.051,27.576 107.251,27.576 107.251,26.576 93.251,26.576 " />
  <polygon
     id="polygon300"
     style="fill:none;stroke:#ff0000;stroke-width:0.05mm"
     points="74.201,27.576 73.401,27.576 73.401,30.676 74.201,30.676 74.201,36.476 73.401,36.476 73.401,39.576 74.201,39.576 74.201,40.576 88.201,40.576 88.201,39.576 89.001,39.576 89.001,36.476 88.201,36.476 88.201,30.676 89.001,30.676 89.001,27.576 88.201,27.576 88.201,26.576 74.201,26.576 " />
  <polygon
     id="polygon302"
     style="fill:none;stroke:#ff0000;stroke-width:0.05mm"
     points="55.151,27.576 54.351,27.576 54.351,30.676 55.151,30.676 55.151,36.476 54.351,36.476 54.351,39.576 55.151,39.576 55.151,40.576 69.151,40.576 69.151,39.576 69.951,39.576 69.951,36.476 69.151,36.476 69.151,30.676 69.951,30.676 69.951,27.576 69.151,27.576 69.151,26.576 55.151,26.576 " />
  <polygon
     id="polygon304"
     style="fill:none;stroke:#ff0000;stroke-width:0.05mm"
     points="36.101,27.576 35.301,27.576 35.301,30.676 36.101,30.676 36.101,36.476 35.301,36.476 35.301,39.576 36.101,39.576 36.101,40.576 50.101,40.576 50.101,39.576 50.901,39.576 50.901,36.476 50.101,36.476 50.101,30.676 50.901,30.676 50.901,27.576 50.101,27.576 50.101,26.576 36.101,26.576 " />
  <polygon
     id="polygon306"
     style="fill:none;stroke:#ff0000;stroke-width:0.05mm"
     points="12.288,27.576 11.488,27.576 11.488,30.676 12.288,30.676 12.288,36.476 11.488,36.476 11.488,39.576 12.288,39.576 12.288,40.576 26.288,40.576 26.288,39.576 27.088,39.576 27.088,36.476 26.288,36.476 26.288,30.676 27.088,30.676 27.088,27.576 26.288,27.576 26.288,26.576 12.288,26.576 " />
  <polygon
     id="polygon308"
     style="fill:none;stroke:#ff0000;stroke-width:0.05mm"
     points="267.082,8.526 266.282,8.526 266.282,11.626 267.082,11.626 267.082,17.426 266.282,17.426 266.282,20.526 267.082,20.526 267.082,21.526 281.082,21.526 281.082,20.526 281.882,20.526 281.882,17.426 281.082,17.426 281.082,11.626 281.882,11.626 281.882,8.526 281.082,8.526 281.082,7.526 267.082,7.526 " />
  <polygon
     id="polygon310"
     style="fill:none;stroke:#ff0000;stroke-width:0.05mm"
     points="240.888,8.526 240.088,8.526 240.088,11.626 240.888,11.626 240.888,17.426 240.088,17.426 240.088,20.526 240.888,20.526 240.888,21.526 254.888,21.526 254.888,20.526 255.688,20.526 255.688,17.426 254.888,17.426 254.888,11.626 255.688,11.626 255.688,8.526 254.888,8.526 254.888,7.526 240.888,7.526 " />
  <polygon
     id="polygon312"
     style="fill:none;stroke:#ff0000;stroke-width:0.05mm"
     points="221.838,8.526 221.038,8.526 221.038,11.626 221.838,11.626 221.838,17.426 221.038,17.426 221.038,20.526 221.838,20.526 221.838,21.526 235.838,21.526 235.838,20.526 236.638,20.526 236.638,17.426 235.838,17.426 235.838,11.626 236.638,11.626 236.638,8.526 235.838,8.526 235.838,7.526 221.838,7.526 " />
  <polygon
     id="polygon314"
     style="fill:none;stroke:#ff0000;stroke-width:0.05mm"
     points="202.788,8.526 201.988,8.526 201.988,11.626 202.788,11.626 202.788,17.426 201.988,17.426 201.988,20.526 202.788,20.526 202.788,21.526 216.788,21.526 216.788,20.526 217.588,20.526 217.588,17.426 216.788,17.426 216.788,11.626 217.588,11.626 217.588,8.526 216.788,8.526 216.788,7.526 202.788,7.526 " />
  <polygon
     id="polygon316"
     style="fill:none;stroke:#ff0000;stroke-width:0.05mm"
     points="183.738,8.526 182.938,8.526 182.938,11.626 183.738,11.626 183.738,17.426 182.938,17.426 182.938,20.526 183.738,20.526 183.738,21.526 197.738,21.526 197.738,20.526 198.538,20.526 198.538,17.426 197.738,17.426 197.738,11.626 198.538,11.626 198.538,8.526 197.738,8.526 197.738,7.526 183.738,7.526 " />
  <polygon
     id="polygon318"
     style="fill:none;stroke:#ff0000;stroke-width:0.05mm"
     points="164.688,8.526 163.888,8.526 163.888,11.626 164.688,11.626 164.688,17.426 163.888,17.426 163.888,20.526 164.688,20.526 164.688,21.526 178.688,21.526 178.688,20.526 179.488,20.526 179.488,17.426 178.688,17.426 178.688,11.626 179.488,11.626 179.488,8.526 178.688,8.526 178.688,7.526 164.688,7.526 " />
  <polygon
     id="polygon320"
     style="fill:none;stroke:#ff0000;stroke-width:0.05mm"
     points="140.876,8.526 140.076,8.526 140.076,11.626 140.876,11.626 140.876,17.426 140.076,17.426 140.076,20.526 140.876,20.526 140.876,21.526 154.876,21.526 154.876,20.526 155.676,20.526 155.676,17.426 154.876,17.426 154.876,11.626 155.676,11.626 155.676,8.526 154.876,8.526 154.876,7.526 140.876,7.526 " />
  <polygon
     id="polygon322"
     style="fill:none;stroke:#ff0000;stroke-width:0.05mm"
     points="117.063,8.526 116.263,8.526 116.263,11.626 117.063,11.626 117.063,17.426 116.263,17.426 116.263,20.526 117.063,20.526 117.063,21.526 131.063,21.526 131.063,20.526 131.863,20.526 131.863,17.426 131.063,17.426 131.063,11.626 131.863,11.626 131.863,8.526 131.063,8.526 131.063,7.526 117.063,7.526 " />
  <polygon
     id="polygon324"
     style="fill:none;stroke:#ff0000;stroke-width:0.05mm"
     points="98.013,8.526 97.213,8.526 97.213,11.626 98.013,11.626 98.013,17.426 97.213,17.426 97.213,20.526 98.013,20.526 98.013,21.526 112.013,21.526 112.013,20.526 112.813,20.526 112.813,17.426 112.013,17.426 112.013,11.626 112.813,11.626 112.813,8.526 112.013,8.526 112.013,7.526 98.013,7.526 " />
  <polygon
     id="polygon326"
     style="fill:none;stroke:#ff0000;stroke-width:0.05mm"
     points="78.963,8.526 78.163,8.526 78.163,11.626 78.963,11.626 78.963,17.426 78.163,17.426 78.163,20.526 78.963,20.526 78.963,21.526 92.963,21.526 92.963,20.526 93.763,20.526 93.763,17.426 92.963,17.426 92.963,11.626 93.763,11.626 93.763,8.526 92.963,8.526 92.963,7.526 78.963,7.526 " />
  <polygon
     id="polygon328"
     style="fill:none;stroke:#ff0000;stroke-width:0.05mm"
     points="59.913,8.526 59.113,8.526 59.113,11.626 59.913,11.626 59.913,17.426 59.113,17.426 59.113,20.526 59.913,20.526 59.913,21.526 73.913,21.526 73.913,20.526 74.713,20.526 74.713,17.426 73.913,17.426 73.913,11.626 74.713,11.626 74.713,8.526 73.913,8.526 73.913,7.526 59.913,7.526 " />
  <polygon
     id="polygon330"
     style="fill:none;stroke:#ff0000;stroke-width:0.05mm"
     points="40.863,8.526 40.063,8.526 40.063,11.626 40.863,11.626 40.863,17.426 40.063,17.426 40.063,20.526 40.863,20.526 40.863,21.526 54.863,21.526 54.863,20.526 55.663,20.526 55.663,17.426 54.863,17.426 54.863,11.626 55.663,11.626 55.663,8.526 54.863,8.526 54.863,7.526 40.863,7.526 " />
  <polygon
     id="polygon332"
     style="fill:none;stroke:#ff0000;stroke-width:0.05mm"
     points="14.669,8.526 13.869,8.526 13.869,11.626 14.669,11.626 14.669,17.426 13.869,17.426 13.869,20.526 14.669,20.526 14.669,21.526 28.669,21.526 28.669,20.526 29.469,20.526 29.469,17.426 28.669,17.426 28.669,11.626 29.469,11.626 29.469,8.526 28.669,8.526 28.669,7.526 14.669,7.526 " />
</svg>
