M48
; DRILL file {KiCad (5.1.6-0-10_14)} date Tuesday, June 23, 2020 at 09:18:24 AM
; FORMAT={-:-/ absolute / inch / decimal}
; #@! TF.CreationDate,2020-06-23T09:18:24+08:00
; #@! TF.GenerationSoftware,Kicad,Pcbnew,(5.1.6-0-10_14)
; #@! TF.FileFunction,Plated,1,2,PTH
FMAT,2
INCH
T1C0.0430
T2C0.0500
%
G90
G05
T1
X0.7679Y-2.6193
X0.7679Y-2.7193
X0.7679Y-2.8193
X0.7679Y-2.9193
X0.7679Y-3.0193
X0.7679Y-3.1193
X0.7679Y-3.2193
X0.7679Y-3.3193
X0.7679Y-3.4193
X0.7679Y-3.5193
X0.7679Y-3.6193
X0.7679Y-3.7193
X1.3679Y-2.6193
X1.3679Y-2.7193
X1.3679Y-2.8193
X1.3679Y-2.9193
X1.3679Y-3.0193
X1.3679Y-3.1193
X1.3679Y-3.2193
X1.3679Y-3.3193
X1.3679Y-3.4193
X1.3679Y-3.5193
X1.3679Y-3.6193
X1.3679Y-3.7193
T2
X3.0217Y-4.3474
X3.2185Y-4.4301
X9.5669Y-3.5994
X9.7638Y-3.6821
X7.5098Y-4.3474
X7.7067Y-4.4301
X6.0138Y-5.0955
X6.2106Y-5.1781
X1.7126Y-3.5994
X1.9094Y-3.6821
X6.7618Y-4.3474
X6.9587Y-4.4301
X2.2736Y-4.3474
X2.4705Y-4.4301
X3.3957Y-2.8514
X3.5925Y-2.9341
X4.5177Y-4.3474
X4.7146Y-4.4301
X3.9567Y-3.5994
X4.1535Y-3.6821
X5.6398Y-2.8514
X5.8366Y-2.9341
X6.0138Y-4.3474
X6.2106Y-4.4301
X6.5748Y-3.5994
X6.7717Y-3.6821
X7.8839Y-2.8514
X8.0807Y-2.9341
X9.3799Y-5.0955
X9.5768Y-5.1781
X4.1437Y-5.0955
X4.3406Y-5.1781
X8.8189Y-3.5994
X9.0157Y-3.6821
X4.9852Y-5.0955
X5.1821Y-5.1781
X10.128Y-2.8514
X10.3248Y-2.9341
X1.5256Y-4.3474
X1.7224Y-4.4301
X8.2579Y-4.3474
X8.4547Y-4.4301
X2.6476Y-2.8514
X2.8445Y-2.9341
X3.3957Y-5.0955
X3.5925Y-5.1781
X3.2087Y-3.5994
X3.4055Y-3.6821
X8.6319Y-5.0955
X8.8287Y-5.1781
X5.2657Y-4.3474
X5.4626Y-4.4301
X4.8917Y-2.8514
X5.0886Y-2.9341
X10.128Y-5.0955
X10.3248Y-5.1781
X5.4528Y-3.5994
X5.6496Y-3.6821
X2.6476Y-5.0955
X2.8445Y-5.1781
X7.1358Y-2.8514
X7.3327Y-2.9341
X8.0709Y-3.5994
X8.2677Y-3.6821
X1.8996Y-5.0955
X2.0965Y-5.1781
X9.3799Y-2.8514
X9.5768Y-2.9341
X10.315Y-3.5994
X10.5118Y-3.6821
X1.8996Y-2.8514
X2.0965Y-2.9341
X2.4606Y-3.5994
X2.6575Y-3.6821
X10.502Y-4.3474
X10.6988Y-4.4301
X9.7539Y-4.3474
X9.9508Y-4.4301
X7.8839Y-5.0955
X8.0807Y-5.1781
X4.1437Y-2.8514
X4.3406Y-2.9341
X4.7047Y-3.5994
X4.9016Y-3.6821
X6.3878Y-2.8514
X6.5846Y-2.9341
X7.0423Y-5.0955
X7.2392Y-5.1781
X3.7697Y-4.3474
X3.9665Y-4.4301
X7.3228Y-3.5994
X7.5197Y-3.6821
X9.0059Y-4.3474
X9.2028Y-4.4301
X8.6319Y-2.8514
X8.8287Y-2.9341
T0
M30
