M48
; DRILL file {KiCad (5.1.6-0-10_14)} date Tuesday, June 23, 2020 at 09:18:24 AM
; FORMAT={-:-/ absolute / inch / decimal}
; #@! TF.CreationDate,2020-06-23T09:18:24+08:00
; #@! TF.GenerationSoftware,Kicad,Pcbnew,(5.1.6-0-10_14)
; #@! TF.FileFunction,NonPlated,1,2,NPTH
FMAT,2
INCH
T1C0.0670
T2C0.1350
%
G90
G05
T1
X5.9941Y-4.1978
X6.4272Y-4.1978
X6.5551Y-3.4498
X6.9882Y-3.4498
X7.8642Y-2.7018
X8.2972Y-2.7018
X9.3602Y-4.9459
X9.7933Y-4.9459
X4.124Y-4.9459
X4.5571Y-4.9459
X8.7992Y-3.4498
X9.2323Y-3.4498
X4.9656Y-4.9459
X5.3986Y-4.9459
X10.1083Y-2.7018
X10.5413Y-2.7018
X1.5059Y-4.1978
X1.939Y-4.1978
X8.2382Y-4.1978
X8.6713Y-4.1978
X2.628Y-2.7018
X3.061Y-2.7018
X3.376Y-4.9459
X3.8091Y-4.9459
X3.189Y-3.4498
X3.622Y-3.4498
X8.6122Y-4.9459
X9.0453Y-4.9459
X5.2461Y-4.1978
X5.6791Y-4.1978
X4.872Y-2.7018
X5.3051Y-2.7018
X10.1083Y-4.9459
X10.5413Y-4.9459
X5.4331Y-3.4498
X5.8661Y-3.4498
X2.628Y-4.9459
X3.061Y-4.9459
X7.1161Y-2.7018
X7.5492Y-2.7018
X8.0512Y-3.4498
X8.4843Y-3.4498
X1.8799Y-4.9459
X2.313Y-4.9459
X9.3602Y-2.7018
X9.7933Y-2.7018
X10.2953Y-3.4498
X10.7283Y-3.4498
X1.8799Y-2.7018
X2.313Y-2.7018
X2.4409Y-3.4498
X2.874Y-3.4498
X10.4823Y-4.1978
X10.9154Y-4.1978
X9.7343Y-4.1978
X10.1673Y-4.1978
X7.8642Y-4.9459
X8.2972Y-4.9459
X4.124Y-2.7018
X4.5571Y-2.7018
X4.685Y-3.4498
X5.1181Y-3.4498
X6.3681Y-2.7018
X6.8012Y-2.7018
X7.0226Y-4.9459
X7.4557Y-4.9459
X3.75Y-4.1978
X4.1831Y-4.1978
X7.3031Y-3.4498
X7.7362Y-3.4498
X8.9862Y-4.1978
X9.4193Y-4.1978
X8.6122Y-2.7018
X9.0453Y-2.7018
X3.002Y-4.1978
X3.435Y-4.1978
X9.5472Y-3.4498
X9.9803Y-3.4498
X7.4902Y-4.1978
X7.9232Y-4.1978
X5.9941Y-4.9459
X6.4272Y-4.9459
X1.6929Y-3.4498
X2.126Y-3.4498
X6.7421Y-4.1978
X7.1752Y-4.1978
X2.2539Y-4.1978
X2.687Y-4.1978
X3.376Y-2.7018
X3.8091Y-2.7018
X4.498Y-4.1978
X4.9311Y-4.1978
X3.937Y-3.4498
X4.3701Y-3.4498
X5.6201Y-2.7018
X6.0531Y-2.7018
T2
X9.5768Y-4.9459
X4.3406Y-4.9459
X9.0157Y-3.4498
X5.1821Y-4.9459
X10.3248Y-2.7018
X1.7224Y-4.1978
X8.4547Y-4.1978
X2.8445Y-2.7018
X3.5925Y-4.9459
X3.4055Y-3.4498
X8.8287Y-4.9459
X5.4626Y-4.1978
X5.0886Y-2.7018
X10.3248Y-4.9459
X5.6496Y-3.4498
X2.8445Y-4.9459
X7.3327Y-2.7018
X8.2677Y-3.4498
X2.0965Y-4.9459
X9.5768Y-2.7018
X10.5118Y-3.4498
X2.0965Y-2.7018
X2.6575Y-3.4498
X10.6988Y-4.1978
X9.9508Y-4.1978
X8.0807Y-4.9459
X4.3406Y-2.7018
X4.9016Y-3.4498
X6.5846Y-2.7018
X7.2392Y-4.9459
X3.9665Y-4.1978
X7.5197Y-3.4498
X9.2028Y-4.1978
X8.8287Y-2.7018
X3.2185Y-4.1978
X9.7638Y-3.4498
X7.7067Y-4.1978
X6.2106Y-4.9459
X1.9094Y-3.4498
X6.9587Y-4.1978
X2.4705Y-4.1978
X3.5925Y-2.7018
X4.7146Y-4.1978
X4.1535Y-3.4498
X5.8366Y-2.7018
X6.2106Y-4.1978
X6.7717Y-3.4498
X8.0807Y-2.7018
T0
M30
