M48
; DRILL file {KiCad (5.1.6-0-10_14)} date Monday, June 22, 2020 at 10:54:46 PM
; FORMAT={-:-/ absolute / inch / decimal}
; #@! TF.CreationDate,2020-06-22T22:54:46+08:00
; #@! TF.GenerationSoftware,Kicad,Pcbnew,(5.1.6-0-10_14)
; #@! TF.FileFunction,Plated,1,2,PTH
FMAT,2
INCH
T1C0.0430
T2C0.0500
%
G90
G05
T1
X0.448Y-2.8161
X0.448Y-2.9161
X0.448Y-3.0161
X0.448Y-3.1161
X0.448Y-3.2161
X0.448Y-3.3161
X0.448Y-3.4161
X0.448Y-3.5161
X0.448Y-3.6161
X0.448Y-3.7161
X0.448Y-3.8161
X0.448Y-3.9161
X1.048Y-2.8161
X1.048Y-2.9161
X1.048Y-3.0161
X1.048Y-3.1161
X1.048Y-3.2161
X1.048Y-3.3161
X1.048Y-3.4161
X1.048Y-3.5161
X1.048Y-3.6161
X1.048Y-3.7161
X1.048Y-3.8161
X1.048Y-3.9161
T2
X7.19Y-4.5443
X7.3868Y-4.627
X5.6939Y-5.2923
X5.8907Y-5.375
X8.686Y-4.5443
X8.8829Y-4.627
X5.3199Y-3.0482
X5.5167Y-3.1309
X9.8081Y-3.0482
X10.0049Y-3.1309
X9.06Y-3.0482
X9.2569Y-3.1309
X7.938Y-4.5443
X8.1348Y-4.627
X10.1821Y-4.5443
X10.3789Y-4.627
X5.6939Y-4.5443
X5.8907Y-4.627
X4.3848Y-3.7963
X4.5817Y-3.8789
X3.6368Y-3.7963
X3.8337Y-3.8789
X6.0679Y-3.0482
X6.2648Y-3.1309
X7.003Y-3.7963
X7.1998Y-3.8789
X2.8888Y-3.7963
X3.0856Y-3.8789
X7.751Y-3.7963
X7.9478Y-3.8789
X7.564Y-3.0482
X7.7608Y-3.1309
X6.4419Y-4.5443
X6.6388Y-4.627
X8.312Y-5.2923
X8.5089Y-5.375
X3.8238Y-5.2923
X4.0207Y-5.375
X2.1407Y-3.7963
X2.3376Y-3.8789
X9.247Y-3.7963
X9.4439Y-3.8789
X4.6654Y-5.2923
X4.8622Y-5.375
X1.5797Y-3.0482
X1.7766Y-3.1309
X4.9459Y-4.5443
X5.1427Y-4.627
X1.2057Y-4.5443
X1.4026Y-4.627
X2.7018Y-4.5443
X2.8986Y-4.627
X9.8081Y-5.2923
X10.0049Y-5.375
X3.0758Y-5.2923
X3.2726Y-5.375
X3.4498Y-4.5443
X3.6467Y-4.627
X2.3278Y-3.0482
X2.5246Y-3.1309
X6.2549Y-3.7963
X6.4518Y-3.8789
X8.499Y-3.7963
X8.6959Y-3.8789
X4.1978Y-4.5443
X4.3947Y-4.627
X1.9537Y-4.5443
X2.1506Y-4.627
X9.06Y-5.2923
X9.2569Y-5.375
X2.3278Y-5.2923
X2.5246Y-5.375
X3.0758Y-3.0482
X3.2726Y-3.1309
X1.5797Y-5.2923
X1.7766Y-5.375
X9.4341Y-4.5443
X9.6309Y-4.627
X8.312Y-3.0482
X8.5089Y-3.1309
X1.3927Y-3.7963
X1.5896Y-3.8789
X7.564Y-5.2923
X7.7608Y-5.375
X6.8159Y-3.0482
X7.0128Y-3.1309
X3.8238Y-3.0482
X4.0207Y-3.1309
X5.1329Y-3.7963
X5.3297Y-3.8789
X6.7224Y-5.2923
X6.9193Y-5.375
X4.5719Y-3.0482
X4.7687Y-3.1309
X9.9951Y-3.7963
X10.1919Y-3.8789
T0
M30
