M48
; DRILL file {KiCad (5.1.6-0-10_14)} date Wednesday, June 17, 2020 at 05:50:56 PM
; FORMAT={-:-/ absolute / inch / decimal}
; #@! TF.CreationDate,2020-06-17T17:50:56+08:00
; #@! TF.GenerationSoftware,Kicad,Pcbnew,(5.1.6-0-10_14)
; #@! TF.FileFunction,NonPlated,1,2,NPTH
FMAT,2
INCH
T1C0.0670
T2C0.1350
%
G90
G05
T1
X1.5929Y-4.4094
X2.026Y-4.4094
X6.4551Y-2.9134
X6.8882Y-2.9134
X2.715Y-2.9134
X3.148Y-2.9134
X8.3252Y-4.4094
X8.7583Y-4.4094
X9.4472Y-2.9134
X9.8803Y-2.9134
X1.9669Y-5.1575
X2.4Y-5.1575
X4.024Y-3.6614
X4.4571Y-3.6614
X7.5772Y-4.4094
X8.0102Y-4.4094
X8.6992Y-5.1575
X9.1323Y-5.1575
X7.3902Y-3.6614
X7.8232Y-3.6614
X3.276Y-3.6614
X3.7091Y-3.6614
X10.3823Y-3.6614
X10.8154Y-3.6614
X3.837Y-4.4094
X4.2701Y-4.4094
X5.0526Y-5.1575
X5.4856Y-5.1575
X5.7071Y-2.9134
X6.1402Y-2.9134
X1.9669Y-2.9134
X2.4Y-2.9134
X10.5693Y-4.4094
X11.0024Y-4.4094
X6.8291Y-4.4094
X7.2622Y-4.4094
X7.9512Y-5.1575
X8.3843Y-5.1575
X3.463Y-5.1575
X3.8961Y-5.1575
X2.528Y-3.6614
X2.961Y-3.6614
X9.6343Y-3.6614
X10.0673Y-3.6614
X10.1953Y-5.1575
X10.6283Y-5.1575
X3.089Y-4.4094
X3.522Y-4.4094
X4.211Y-5.1575
X4.6441Y-5.1575
X8.6992Y-2.9134
X9.1323Y-2.9134
X4.9591Y-2.9134
X5.3921Y-2.9134
X6.0811Y-5.1575
X6.5142Y-5.1575
X7.9512Y-2.9134
X8.3843Y-2.9134
X9.8213Y-4.4094
X10.2543Y-4.4094
X6.6421Y-3.6614
X7.0752Y-3.6614
X4.211Y-2.9134
X4.6441Y-2.9134
X5.3331Y-4.4094
X5.7661Y-4.4094
X7.1096Y-5.1575
X7.5427Y-5.1575
X5.5201Y-3.6614
X5.9531Y-3.6614
X1.7799Y-3.6614
X2.213Y-3.6614
X8.8862Y-3.6614
X9.3193Y-3.6614
X2.3409Y-4.4094
X2.774Y-4.4094
X6.0811Y-4.4094
X6.5142Y-4.4094
X7.2031Y-2.9134
X7.6362Y-2.9134
X3.463Y-2.9134
X3.8961Y-2.9134
X9.0732Y-4.4094
X9.5063Y-4.4094
X4.585Y-4.4094
X5.0181Y-4.4094
X2.715Y-5.1575
X3.148Y-5.1575
X4.772Y-3.6614
X5.2051Y-3.6614
X10.1953Y-2.9134
X10.6283Y-2.9134
X9.4472Y-5.1575
X9.8803Y-5.1575
X8.1382Y-3.6614
X8.5713Y-3.6614
T2
X4.0535Y-4.4094
X5.2691Y-5.1575
X5.9236Y-2.9134
X2.1835Y-2.9134
X10.7858Y-4.4094
X7.0457Y-4.4094
X8.1677Y-5.1575
X3.6795Y-5.1575
X2.7445Y-3.6614
X9.8508Y-3.6614
X10.4118Y-5.1575
X3.3055Y-4.4094
X4.4276Y-5.1575
X8.9157Y-2.9134
X5.1756Y-2.9134
X6.2976Y-5.1575
X8.1677Y-2.9134
X10.0378Y-4.4094
X6.8587Y-3.6614
X4.4276Y-2.9134
X5.5496Y-4.4094
X7.3262Y-5.1575
X5.7366Y-3.6614
X1.9965Y-3.6614
X9.1028Y-3.6614
X2.5575Y-4.4094
X6.2976Y-4.4094
X7.4197Y-2.9134
X3.6795Y-2.9134
X9.2898Y-4.4094
X4.8016Y-4.4094
X2.9315Y-5.1575
X4.9886Y-3.6614
X10.4118Y-2.9134
X9.6638Y-5.1575
X8.3547Y-3.6614
X1.8094Y-4.4094
X6.6717Y-2.9134
X2.9315Y-2.9134
X8.5417Y-4.4094
X9.6638Y-2.9134
X2.1835Y-5.1575
X4.2406Y-3.6614
X7.7937Y-4.4094
X8.9157Y-5.1575
X7.6067Y-3.6614
X3.4925Y-3.6614
X10.5988Y-3.6614
T0
M30
