%TF.GenerationSoftware,KiCad,Pcbnew,(5.1.6-0-10_14)*%
%TF.CreationDate,2020-06-17T17:50:44+08:00*%
%TF.ProjectId,Charming,43686172-6d69-46e6-972e-6b696361645f,v1.0*%
%TF.SameCoordinates,Original*%
%TF.FileFunction,Legend,Top*%
%TF.FilePolarity,Positive*%
%FSLAX46Y46*%
G04 Gerber Fmt 4.6, Leading zero omitted, Abs format (unit mm)*
G04 Created by KiCad (PCBNEW (5.1.6-0-10_14)) date 2020-06-17 17:50:44*
%MOMM*%
%LPD*%
G01*
G04 APERTURE LIST*
%ADD10C,0.150000*%
%ADD11C,0.120000*%
%ADD12C,0.381000*%
G04 APERTURE END LIST*
D10*
%TO.C,SW48*%
X257460000Y-125000000D02*
X257460000Y-124000000D01*
X257460000Y-138000000D02*
X258460000Y-138000000D01*
X258460000Y-124000000D02*
X257460000Y-124000000D01*
X257460000Y-138000000D02*
X257460000Y-137000000D01*
X271460000Y-137000000D02*
X271460000Y-138000000D01*
X271460000Y-124000000D02*
X270460000Y-124000000D01*
X270460000Y-138000000D02*
X271460000Y-138000000D01*
X271460000Y-124000000D02*
X271460000Y-125000000D01*
%TO.C,SW47*%
X238460000Y-125000000D02*
X238460000Y-124000000D01*
X238460000Y-138000000D02*
X239460000Y-138000000D01*
X239460000Y-124000000D02*
X238460000Y-124000000D01*
X238460000Y-138000000D02*
X238460000Y-137000000D01*
X252460000Y-137000000D02*
X252460000Y-138000000D01*
X252460000Y-124000000D02*
X251460000Y-124000000D01*
X251460000Y-138000000D02*
X252460000Y-138000000D01*
X252460000Y-124000000D02*
X252460000Y-125000000D01*
%TO.C,SW46*%
X219460000Y-125000000D02*
X219460000Y-124000000D01*
X219460000Y-138000000D02*
X220460000Y-138000000D01*
X220460000Y-124000000D02*
X219460000Y-124000000D01*
X219460000Y-138000000D02*
X219460000Y-137000000D01*
X233460000Y-137000000D02*
X233460000Y-138000000D01*
X233460000Y-124000000D02*
X232460000Y-124000000D01*
X232460000Y-138000000D02*
X233460000Y-138000000D01*
X233460000Y-124000000D02*
X233460000Y-125000000D01*
%TO.C,SW45*%
X200460000Y-125000000D02*
X200460000Y-124000000D01*
X200460000Y-138000000D02*
X201460000Y-138000000D01*
X201460000Y-124000000D02*
X200460000Y-124000000D01*
X200460000Y-138000000D02*
X200460000Y-137000000D01*
X214460000Y-137000000D02*
X214460000Y-138000000D01*
X214460000Y-124000000D02*
X213460000Y-124000000D01*
X213460000Y-138000000D02*
X214460000Y-138000000D01*
X214460000Y-124000000D02*
X214460000Y-125000000D01*
%TO.C,SW44*%
X179085000Y-125000000D02*
X179085000Y-124000000D01*
X179085000Y-138000000D02*
X180085000Y-138000000D01*
X180085000Y-124000000D02*
X179085000Y-124000000D01*
X179085000Y-138000000D02*
X179085000Y-137000000D01*
X193085000Y-137000000D02*
X193085000Y-138000000D01*
X193085000Y-124000000D02*
X192085000Y-124000000D01*
X192085000Y-138000000D02*
X193085000Y-138000000D01*
X193085000Y-124000000D02*
X193085000Y-125000000D01*
%TO.C,SW43*%
X152960000Y-125000000D02*
X152960000Y-124000000D01*
X152960000Y-138000000D02*
X153960000Y-138000000D01*
X153960000Y-124000000D02*
X152960000Y-124000000D01*
X152960000Y-138000000D02*
X152960000Y-137000000D01*
X166960000Y-137000000D02*
X166960000Y-138000000D01*
X166960000Y-124000000D02*
X165960000Y-124000000D01*
X165960000Y-138000000D02*
X166960000Y-138000000D01*
X166960000Y-124000000D02*
X166960000Y-125000000D01*
%TO.C,SW42*%
X152960000Y-106000000D02*
X152960000Y-105000000D01*
X152960000Y-119000000D02*
X153960000Y-119000000D01*
X153960000Y-105000000D02*
X152960000Y-105000000D01*
X152960000Y-119000000D02*
X152960000Y-118000000D01*
X166960000Y-118000000D02*
X166960000Y-119000000D01*
X166960000Y-105000000D02*
X165960000Y-105000000D01*
X165960000Y-119000000D02*
X166960000Y-119000000D01*
X166960000Y-105000000D02*
X166960000Y-106000000D01*
%TO.C,SW41*%
X126835000Y-125000000D02*
X126835000Y-124000000D01*
X126835000Y-138000000D02*
X127835000Y-138000000D01*
X127835000Y-124000000D02*
X126835000Y-124000000D01*
X126835000Y-138000000D02*
X126835000Y-137000000D01*
X140835000Y-137000000D02*
X140835000Y-138000000D01*
X140835000Y-124000000D02*
X139835000Y-124000000D01*
X139835000Y-138000000D02*
X140835000Y-138000000D01*
X140835000Y-124000000D02*
X140835000Y-125000000D01*
%TO.C,SW40*%
X105460000Y-125000000D02*
X105460000Y-124000000D01*
X105460000Y-138000000D02*
X106460000Y-138000000D01*
X106460000Y-124000000D02*
X105460000Y-124000000D01*
X105460000Y-138000000D02*
X105460000Y-137000000D01*
X119460000Y-137000000D02*
X119460000Y-138000000D01*
X119460000Y-124000000D02*
X118460000Y-124000000D01*
X118460000Y-138000000D02*
X119460000Y-138000000D01*
X119460000Y-124000000D02*
X119460000Y-125000000D01*
%TO.C,SW39*%
X86460000Y-125000000D02*
X86460000Y-124000000D01*
X86460000Y-138000000D02*
X87460000Y-138000000D01*
X87460000Y-124000000D02*
X86460000Y-124000000D01*
X86460000Y-138000000D02*
X86460000Y-137000000D01*
X100460000Y-137000000D02*
X100460000Y-138000000D01*
X100460000Y-124000000D02*
X99460000Y-124000000D01*
X99460000Y-138000000D02*
X100460000Y-138000000D01*
X100460000Y-124000000D02*
X100460000Y-125000000D01*
%TO.C,SW38*%
X67460000Y-125000000D02*
X67460000Y-124000000D01*
X67460000Y-138000000D02*
X68460000Y-138000000D01*
X68460000Y-124000000D02*
X67460000Y-124000000D01*
X67460000Y-138000000D02*
X67460000Y-137000000D01*
X81460000Y-137000000D02*
X81460000Y-138000000D01*
X81460000Y-124000000D02*
X80460000Y-124000000D01*
X80460000Y-138000000D02*
X81460000Y-138000000D01*
X81460000Y-124000000D02*
X81460000Y-125000000D01*
%TO.C,SW37*%
X48460000Y-125000000D02*
X48460000Y-124000000D01*
X48460000Y-138000000D02*
X49460000Y-138000000D01*
X49460000Y-124000000D02*
X48460000Y-124000000D01*
X48460000Y-138000000D02*
X48460000Y-137000000D01*
X62460000Y-137000000D02*
X62460000Y-138000000D01*
X62460000Y-124000000D02*
X61460000Y-124000000D01*
X61460000Y-138000000D02*
X62460000Y-138000000D01*
X62460000Y-124000000D02*
X62460000Y-125000000D01*
%TO.C,SW36*%
X266960000Y-106000000D02*
X266960000Y-105000000D01*
X266960000Y-119000000D02*
X267960000Y-119000000D01*
X267960000Y-105000000D02*
X266960000Y-105000000D01*
X266960000Y-119000000D02*
X266960000Y-118000000D01*
X280960000Y-118000000D02*
X280960000Y-119000000D01*
X280960000Y-105000000D02*
X279960000Y-105000000D01*
X279960000Y-119000000D02*
X280960000Y-119000000D01*
X280960000Y-105000000D02*
X280960000Y-106000000D01*
%TO.C,SW35*%
X247960000Y-106000000D02*
X247960000Y-105000000D01*
X247960000Y-119000000D02*
X248960000Y-119000000D01*
X248960000Y-105000000D02*
X247960000Y-105000000D01*
X247960000Y-119000000D02*
X247960000Y-118000000D01*
X261960000Y-118000000D02*
X261960000Y-119000000D01*
X261960000Y-105000000D02*
X260960000Y-105000000D01*
X260960000Y-119000000D02*
X261960000Y-119000000D01*
X261960000Y-105000000D02*
X261960000Y-106000000D01*
%TO.C,SW34*%
X228960000Y-106000000D02*
X228960000Y-105000000D01*
X228960000Y-119000000D02*
X229960000Y-119000000D01*
X229960000Y-105000000D02*
X228960000Y-105000000D01*
X228960000Y-119000000D02*
X228960000Y-118000000D01*
X242960000Y-118000000D02*
X242960000Y-119000000D01*
X242960000Y-105000000D02*
X241960000Y-105000000D01*
X241960000Y-119000000D02*
X242960000Y-119000000D01*
X242960000Y-105000000D02*
X242960000Y-106000000D01*
%TO.C,SW33*%
X209960000Y-106000000D02*
X209960000Y-105000000D01*
X209960000Y-119000000D02*
X210960000Y-119000000D01*
X210960000Y-105000000D02*
X209960000Y-105000000D01*
X209960000Y-119000000D02*
X209960000Y-118000000D01*
X223960000Y-118000000D02*
X223960000Y-119000000D01*
X223960000Y-105000000D02*
X222960000Y-105000000D01*
X222960000Y-119000000D02*
X223960000Y-119000000D01*
X223960000Y-105000000D02*
X223960000Y-106000000D01*
%TO.C,SW32*%
X190960000Y-106000000D02*
X190960000Y-105000000D01*
X190960000Y-119000000D02*
X191960000Y-119000000D01*
X191960000Y-105000000D02*
X190960000Y-105000000D01*
X190960000Y-119000000D02*
X190960000Y-118000000D01*
X204960000Y-118000000D02*
X204960000Y-119000000D01*
X204960000Y-105000000D02*
X203960000Y-105000000D01*
X203960000Y-119000000D02*
X204960000Y-119000000D01*
X204960000Y-105000000D02*
X204960000Y-106000000D01*
%TO.C,SW31*%
X171960000Y-106000000D02*
X171960000Y-105000000D01*
X171960000Y-119000000D02*
X172960000Y-119000000D01*
X172960000Y-105000000D02*
X171960000Y-105000000D01*
X171960000Y-119000000D02*
X171960000Y-118000000D01*
X185960000Y-118000000D02*
X185960000Y-119000000D01*
X185960000Y-105000000D02*
X184960000Y-105000000D01*
X184960000Y-119000000D02*
X185960000Y-119000000D01*
X185960000Y-105000000D02*
X185960000Y-106000000D01*
%TO.C,SW30*%
X133960000Y-106000000D02*
X133960000Y-105000000D01*
X133960000Y-119000000D02*
X134960000Y-119000000D01*
X134960000Y-105000000D02*
X133960000Y-105000000D01*
X133960000Y-119000000D02*
X133960000Y-118000000D01*
X147960000Y-118000000D02*
X147960000Y-119000000D01*
X147960000Y-105000000D02*
X146960000Y-105000000D01*
X146960000Y-119000000D02*
X147960000Y-119000000D01*
X147960000Y-105000000D02*
X147960000Y-106000000D01*
%TO.C,SW29*%
X114960000Y-106000000D02*
X114960000Y-105000000D01*
X114960000Y-119000000D02*
X115960000Y-119000000D01*
X115960000Y-105000000D02*
X114960000Y-105000000D01*
X114960000Y-119000000D02*
X114960000Y-118000000D01*
X128960000Y-118000000D02*
X128960000Y-119000000D01*
X128960000Y-105000000D02*
X127960000Y-105000000D01*
X127960000Y-119000000D02*
X128960000Y-119000000D01*
X128960000Y-105000000D02*
X128960000Y-106000000D01*
%TO.C,SW28*%
X95960000Y-106000000D02*
X95960000Y-105000000D01*
X95960000Y-119000000D02*
X96960000Y-119000000D01*
X96960000Y-105000000D02*
X95960000Y-105000000D01*
X95960000Y-119000000D02*
X95960000Y-118000000D01*
X109960000Y-118000000D02*
X109960000Y-119000000D01*
X109960000Y-105000000D02*
X108960000Y-105000000D01*
X108960000Y-119000000D02*
X109960000Y-119000000D01*
X109960000Y-105000000D02*
X109960000Y-106000000D01*
%TO.C,SW27*%
X76960000Y-106000000D02*
X76960000Y-105000000D01*
X76960000Y-119000000D02*
X77960000Y-119000000D01*
X77960000Y-105000000D02*
X76960000Y-105000000D01*
X76960000Y-119000000D02*
X76960000Y-118000000D01*
X90960000Y-118000000D02*
X90960000Y-119000000D01*
X90960000Y-105000000D02*
X89960000Y-105000000D01*
X89960000Y-119000000D02*
X90960000Y-119000000D01*
X90960000Y-105000000D02*
X90960000Y-106000000D01*
%TO.C,SW26*%
X57960000Y-106000000D02*
X57960000Y-105000000D01*
X57960000Y-119000000D02*
X58960000Y-119000000D01*
X58960000Y-105000000D02*
X57960000Y-105000000D01*
X57960000Y-119000000D02*
X57960000Y-118000000D01*
X71960000Y-118000000D02*
X71960000Y-119000000D01*
X71960000Y-105000000D02*
X70960000Y-105000000D01*
X70960000Y-119000000D02*
X71960000Y-119000000D01*
X71960000Y-105000000D02*
X71960000Y-106000000D01*
%TO.C,SW25*%
X38960000Y-106000000D02*
X38960000Y-105000000D01*
X38960000Y-119000000D02*
X39960000Y-119000000D01*
X39960000Y-105000000D02*
X38960000Y-105000000D01*
X38960000Y-119000000D02*
X38960000Y-118000000D01*
X52960000Y-118000000D02*
X52960000Y-119000000D01*
X52960000Y-105000000D02*
X51960000Y-105000000D01*
X51960000Y-119000000D02*
X52960000Y-119000000D01*
X52960000Y-105000000D02*
X52960000Y-106000000D01*
%TO.C,SW24*%
X262210000Y-87000000D02*
X262210000Y-86000000D01*
X262210000Y-100000000D02*
X263210000Y-100000000D01*
X263210000Y-86000000D02*
X262210000Y-86000000D01*
X262210000Y-100000000D02*
X262210000Y-99000000D01*
X276210000Y-99000000D02*
X276210000Y-100000000D01*
X276210000Y-86000000D02*
X275210000Y-86000000D01*
X275210000Y-100000000D02*
X276210000Y-100000000D01*
X276210000Y-86000000D02*
X276210000Y-87000000D01*
%TO.C,SW23*%
X243210000Y-87000000D02*
X243210000Y-86000000D01*
X243210000Y-100000000D02*
X244210000Y-100000000D01*
X244210000Y-86000000D02*
X243210000Y-86000000D01*
X243210000Y-100000000D02*
X243210000Y-99000000D01*
X257210000Y-99000000D02*
X257210000Y-100000000D01*
X257210000Y-86000000D02*
X256210000Y-86000000D01*
X256210000Y-100000000D02*
X257210000Y-100000000D01*
X257210000Y-86000000D02*
X257210000Y-87000000D01*
%TO.C,SW22*%
X224210000Y-87000000D02*
X224210000Y-86000000D01*
X224210000Y-100000000D02*
X225210000Y-100000000D01*
X225210000Y-86000000D02*
X224210000Y-86000000D01*
X224210000Y-100000000D02*
X224210000Y-99000000D01*
X238210000Y-99000000D02*
X238210000Y-100000000D01*
X238210000Y-86000000D02*
X237210000Y-86000000D01*
X237210000Y-100000000D02*
X238210000Y-100000000D01*
X238210000Y-86000000D02*
X238210000Y-87000000D01*
%TO.C,SW21*%
X205210000Y-87000000D02*
X205210000Y-86000000D01*
X205210000Y-100000000D02*
X206210000Y-100000000D01*
X206210000Y-86000000D02*
X205210000Y-86000000D01*
X205210000Y-100000000D02*
X205210000Y-99000000D01*
X219210000Y-99000000D02*
X219210000Y-100000000D01*
X219210000Y-86000000D02*
X218210000Y-86000000D01*
X218210000Y-100000000D02*
X219210000Y-100000000D01*
X219210000Y-86000000D02*
X219210000Y-87000000D01*
%TO.C,SW20*%
X186210000Y-87000000D02*
X186210000Y-86000000D01*
X186210000Y-100000000D02*
X187210000Y-100000000D01*
X187210000Y-86000000D02*
X186210000Y-86000000D01*
X186210000Y-100000000D02*
X186210000Y-99000000D01*
X200210000Y-99000000D02*
X200210000Y-100000000D01*
X200210000Y-86000000D02*
X199210000Y-86000000D01*
X199210000Y-100000000D02*
X200210000Y-100000000D01*
X200210000Y-86000000D02*
X200210000Y-87000000D01*
%TO.C,SW19*%
X167210000Y-87000000D02*
X167210000Y-86000000D01*
X167210000Y-100000000D02*
X168210000Y-100000000D01*
X168210000Y-86000000D02*
X167210000Y-86000000D01*
X167210000Y-100000000D02*
X167210000Y-99000000D01*
X181210000Y-99000000D02*
X181210000Y-100000000D01*
X181210000Y-86000000D02*
X180210000Y-86000000D01*
X180210000Y-100000000D02*
X181210000Y-100000000D01*
X181210000Y-86000000D02*
X181210000Y-87000000D01*
%TO.C,SW18*%
X138710000Y-87000000D02*
X138710000Y-86000000D01*
X138710000Y-100000000D02*
X139710000Y-100000000D01*
X139710000Y-86000000D02*
X138710000Y-86000000D01*
X138710000Y-100000000D02*
X138710000Y-99000000D01*
X152710000Y-99000000D02*
X152710000Y-100000000D01*
X152710000Y-86000000D02*
X151710000Y-86000000D01*
X151710000Y-100000000D02*
X152710000Y-100000000D01*
X152710000Y-86000000D02*
X152710000Y-87000000D01*
%TO.C,SW17*%
X119710000Y-87000000D02*
X119710000Y-86000000D01*
X119710000Y-100000000D02*
X120710000Y-100000000D01*
X120710000Y-86000000D02*
X119710000Y-86000000D01*
X119710000Y-100000000D02*
X119710000Y-99000000D01*
X133710000Y-99000000D02*
X133710000Y-100000000D01*
X133710000Y-86000000D02*
X132710000Y-86000000D01*
X132710000Y-100000000D02*
X133710000Y-100000000D01*
X133710000Y-86000000D02*
X133710000Y-87000000D01*
%TO.C,SW16*%
X100710000Y-87000000D02*
X100710000Y-86000000D01*
X100710000Y-100000000D02*
X101710000Y-100000000D01*
X101710000Y-86000000D02*
X100710000Y-86000000D01*
X100710000Y-100000000D02*
X100710000Y-99000000D01*
X114710000Y-99000000D02*
X114710000Y-100000000D01*
X114710000Y-86000000D02*
X113710000Y-86000000D01*
X113710000Y-100000000D02*
X114710000Y-100000000D01*
X114710000Y-86000000D02*
X114710000Y-87000000D01*
%TO.C,SW15*%
X81710000Y-87000000D02*
X81710000Y-86000000D01*
X81710000Y-100000000D02*
X82710000Y-100000000D01*
X82710000Y-86000000D02*
X81710000Y-86000000D01*
X81710000Y-100000000D02*
X81710000Y-99000000D01*
X95710000Y-99000000D02*
X95710000Y-100000000D01*
X95710000Y-86000000D02*
X94710000Y-86000000D01*
X94710000Y-100000000D02*
X95710000Y-100000000D01*
X95710000Y-86000000D02*
X95710000Y-87000000D01*
%TO.C,SW14*%
X62710000Y-87000000D02*
X62710000Y-86000000D01*
X62710000Y-100000000D02*
X63710000Y-100000000D01*
X63710000Y-86000000D02*
X62710000Y-86000000D01*
X62710000Y-100000000D02*
X62710000Y-99000000D01*
X76710000Y-99000000D02*
X76710000Y-100000000D01*
X76710000Y-86000000D02*
X75710000Y-86000000D01*
X75710000Y-100000000D02*
X76710000Y-100000000D01*
X76710000Y-86000000D02*
X76710000Y-87000000D01*
%TO.C,SW13*%
X43710000Y-87000000D02*
X43710000Y-86000000D01*
X43710000Y-100000000D02*
X44710000Y-100000000D01*
X44710000Y-86000000D02*
X43710000Y-86000000D01*
X43710000Y-100000000D02*
X43710000Y-99000000D01*
X57710000Y-99000000D02*
X57710000Y-100000000D01*
X57710000Y-86000000D02*
X56710000Y-86000000D01*
X56710000Y-100000000D02*
X57710000Y-100000000D01*
X57710000Y-86000000D02*
X57710000Y-87000000D01*
%TO.C,SW12*%
X257460000Y-68000000D02*
X257460000Y-67000000D01*
X257460000Y-81000000D02*
X258460000Y-81000000D01*
X258460000Y-67000000D02*
X257460000Y-67000000D01*
X257460000Y-81000000D02*
X257460000Y-80000000D01*
X271460000Y-80000000D02*
X271460000Y-81000000D01*
X271460000Y-67000000D02*
X270460000Y-67000000D01*
X270460000Y-81000000D02*
X271460000Y-81000000D01*
X271460000Y-67000000D02*
X271460000Y-68000000D01*
%TO.C,SW11*%
X238460000Y-68000000D02*
X238460000Y-67000000D01*
X238460000Y-81000000D02*
X239460000Y-81000000D01*
X239460000Y-67000000D02*
X238460000Y-67000000D01*
X238460000Y-81000000D02*
X238460000Y-80000000D01*
X252460000Y-80000000D02*
X252460000Y-81000000D01*
X252460000Y-67000000D02*
X251460000Y-67000000D01*
X251460000Y-81000000D02*
X252460000Y-81000000D01*
X252460000Y-67000000D02*
X252460000Y-68000000D01*
%TO.C,SW10*%
X219460000Y-68000000D02*
X219460000Y-67000000D01*
X219460000Y-81000000D02*
X220460000Y-81000000D01*
X220460000Y-67000000D02*
X219460000Y-67000000D01*
X219460000Y-81000000D02*
X219460000Y-80000000D01*
X233460000Y-80000000D02*
X233460000Y-81000000D01*
X233460000Y-67000000D02*
X232460000Y-67000000D01*
X232460000Y-81000000D02*
X233460000Y-81000000D01*
X233460000Y-67000000D02*
X233460000Y-68000000D01*
%TO.C,SW9*%
X200460000Y-68000000D02*
X200460000Y-67000000D01*
X200460000Y-81000000D02*
X201460000Y-81000000D01*
X201460000Y-67000000D02*
X200460000Y-67000000D01*
X200460000Y-81000000D02*
X200460000Y-80000000D01*
X214460000Y-80000000D02*
X214460000Y-81000000D01*
X214460000Y-67000000D02*
X213460000Y-67000000D01*
X213460000Y-81000000D02*
X214460000Y-81000000D01*
X214460000Y-67000000D02*
X214460000Y-68000000D01*
%TO.C,SW8*%
X181460000Y-68000000D02*
X181460000Y-67000000D01*
X181460000Y-81000000D02*
X182460000Y-81000000D01*
X182460000Y-67000000D02*
X181460000Y-67000000D01*
X181460000Y-81000000D02*
X181460000Y-80000000D01*
X195460000Y-80000000D02*
X195460000Y-81000000D01*
X195460000Y-67000000D02*
X194460000Y-67000000D01*
X194460000Y-81000000D02*
X195460000Y-81000000D01*
X195460000Y-67000000D02*
X195460000Y-68000000D01*
%TO.C,SW7*%
X162460000Y-68000000D02*
X162460000Y-67000000D01*
X162460000Y-81000000D02*
X163460000Y-81000000D01*
X163460000Y-67000000D02*
X162460000Y-67000000D01*
X162460000Y-81000000D02*
X162460000Y-80000000D01*
X176460000Y-80000000D02*
X176460000Y-81000000D01*
X176460000Y-67000000D02*
X175460000Y-67000000D01*
X175460000Y-81000000D02*
X176460000Y-81000000D01*
X176460000Y-67000000D02*
X176460000Y-68000000D01*
%TO.C,SW6*%
X143460000Y-68000000D02*
X143460000Y-67000000D01*
X143460000Y-81000000D02*
X144460000Y-81000000D01*
X144460000Y-67000000D02*
X143460000Y-67000000D01*
X143460000Y-81000000D02*
X143460000Y-80000000D01*
X157460000Y-80000000D02*
X157460000Y-81000000D01*
X157460000Y-67000000D02*
X156460000Y-67000000D01*
X156460000Y-81000000D02*
X157460000Y-81000000D01*
X157460000Y-67000000D02*
X157460000Y-68000000D01*
%TO.C,SW5*%
X124460000Y-68000000D02*
X124460000Y-67000000D01*
X124460000Y-81000000D02*
X125460000Y-81000000D01*
X125460000Y-67000000D02*
X124460000Y-67000000D01*
X124460000Y-81000000D02*
X124460000Y-80000000D01*
X138460000Y-80000000D02*
X138460000Y-81000000D01*
X138460000Y-67000000D02*
X137460000Y-67000000D01*
X137460000Y-81000000D02*
X138460000Y-81000000D01*
X138460000Y-67000000D02*
X138460000Y-68000000D01*
%TO.C,SW4*%
X105460000Y-68000000D02*
X105460000Y-67000000D01*
X105460000Y-81000000D02*
X106460000Y-81000000D01*
X106460000Y-67000000D02*
X105460000Y-67000000D01*
X105460000Y-81000000D02*
X105460000Y-80000000D01*
X119460000Y-80000000D02*
X119460000Y-81000000D01*
X119460000Y-67000000D02*
X118460000Y-67000000D01*
X118460000Y-81000000D02*
X119460000Y-81000000D01*
X119460000Y-67000000D02*
X119460000Y-68000000D01*
%TO.C,SW3*%
X86460000Y-68000000D02*
X86460000Y-67000000D01*
X86460000Y-81000000D02*
X87460000Y-81000000D01*
X87460000Y-67000000D02*
X86460000Y-67000000D01*
X86460000Y-81000000D02*
X86460000Y-80000000D01*
X100460000Y-80000000D02*
X100460000Y-81000000D01*
X100460000Y-67000000D02*
X99460000Y-67000000D01*
X99460000Y-81000000D02*
X100460000Y-81000000D01*
X100460000Y-67000000D02*
X100460000Y-68000000D01*
%TO.C,SW2*%
X67460000Y-68000000D02*
X67460000Y-67000000D01*
X67460000Y-81000000D02*
X68460000Y-81000000D01*
X68460000Y-67000000D02*
X67460000Y-67000000D01*
X67460000Y-81000000D02*
X67460000Y-80000000D01*
X81460000Y-80000000D02*
X81460000Y-81000000D01*
X81460000Y-67000000D02*
X80460000Y-67000000D01*
X80460000Y-81000000D02*
X81460000Y-81000000D01*
X81460000Y-67000000D02*
X81460000Y-68000000D01*
%TO.C,SW1*%
X48460000Y-68000000D02*
X48460000Y-67000000D01*
X48460000Y-81000000D02*
X49460000Y-81000000D01*
X49460000Y-67000000D02*
X48460000Y-67000000D01*
X48460000Y-81000000D02*
X48460000Y-80000000D01*
X62460000Y-80000000D02*
X62460000Y-81000000D01*
X62460000Y-67000000D02*
X61460000Y-67000000D01*
X61460000Y-81000000D02*
X62460000Y-81000000D01*
X62460000Y-67000000D02*
X62460000Y-68000000D01*
D11*
%TO.C,D48*%
X255960000Y-126375000D02*
X255960000Y-130275000D01*
X253960000Y-126375000D02*
X253960000Y-130275000D01*
X255960000Y-126375000D02*
X253960000Y-126375000D01*
%TO.C,D47*%
X236960000Y-126375000D02*
X236960000Y-130275000D01*
X234960000Y-126375000D02*
X234960000Y-130275000D01*
X236960000Y-126375000D02*
X234960000Y-126375000D01*
%TO.C,D46*%
X217960000Y-126375000D02*
X217960000Y-130275000D01*
X215960000Y-126375000D02*
X215960000Y-130275000D01*
X217960000Y-126375000D02*
X215960000Y-126375000D01*
%TO.C,D45*%
X198960000Y-126375000D02*
X198960000Y-130275000D01*
X196960000Y-126375000D02*
X196960000Y-130275000D01*
X198960000Y-126375000D02*
X196960000Y-126375000D01*
%TO.C,D44*%
X177585000Y-126375000D02*
X177585000Y-130275000D01*
X175585000Y-126375000D02*
X175585000Y-130275000D01*
X177585000Y-126375000D02*
X175585000Y-126375000D01*
%TO.C,D43*%
X151460000Y-126375000D02*
X151460000Y-130275000D01*
X149460000Y-126375000D02*
X149460000Y-130275000D01*
X151460000Y-126375000D02*
X149460000Y-126375000D01*
%TO.C,D42*%
X149460000Y-120600000D02*
X149460000Y-116700000D01*
X151460000Y-120600000D02*
X151460000Y-116700000D01*
X149460000Y-120600000D02*
X151460000Y-120600000D01*
%TO.C,D41*%
X122960000Y-126375000D02*
X122960000Y-130275000D01*
X120960000Y-126375000D02*
X120960000Y-130275000D01*
X122960000Y-126375000D02*
X120960000Y-126375000D01*
%TO.C,D40*%
X103960000Y-126375000D02*
X103960000Y-130275000D01*
X101960000Y-126375000D02*
X101960000Y-130275000D01*
X103960000Y-126375000D02*
X101960000Y-126375000D01*
%TO.C,D39*%
X84960000Y-126375000D02*
X84960000Y-130275000D01*
X82960000Y-126375000D02*
X82960000Y-130275000D01*
X84960000Y-126375000D02*
X82960000Y-126375000D01*
%TO.C,D38*%
X65960000Y-126375000D02*
X65960000Y-130275000D01*
X63960000Y-126375000D02*
X63960000Y-130275000D01*
X65960000Y-126375000D02*
X63960000Y-126375000D01*
%TO.C,D37*%
X46960000Y-126375000D02*
X46960000Y-130275000D01*
X44960000Y-126375000D02*
X44960000Y-130275000D01*
X46960000Y-126375000D02*
X44960000Y-126375000D01*
%TO.C,D36*%
X265460000Y-107375000D02*
X265460000Y-111275000D01*
X263460000Y-107375000D02*
X263460000Y-111275000D01*
X265460000Y-107375000D02*
X263460000Y-107375000D01*
%TO.C,D35*%
X246460000Y-107375000D02*
X246460000Y-111275000D01*
X244460000Y-107375000D02*
X244460000Y-111275000D01*
X246460000Y-107375000D02*
X244460000Y-107375000D01*
%TO.C,D34*%
X227460000Y-107375000D02*
X227460000Y-111275000D01*
X225460000Y-107375000D02*
X225460000Y-111275000D01*
X227460000Y-107375000D02*
X225460000Y-107375000D01*
%TO.C,D33*%
X208460000Y-107375000D02*
X208460000Y-111275000D01*
X206460000Y-107375000D02*
X206460000Y-111275000D01*
X208460000Y-107375000D02*
X206460000Y-107375000D01*
%TO.C,D32*%
X189460000Y-107375000D02*
X189460000Y-111275000D01*
X187460000Y-107375000D02*
X187460000Y-111275000D01*
X189460000Y-107375000D02*
X187460000Y-107375000D01*
%TO.C,D31*%
X170460000Y-107375000D02*
X170460000Y-111275000D01*
X168460000Y-107375000D02*
X168460000Y-111275000D01*
X170460000Y-107375000D02*
X168460000Y-107375000D01*
%TO.C,D30*%
X132410000Y-107375000D02*
X132410000Y-111275000D01*
X130410000Y-107375000D02*
X130410000Y-111275000D01*
X132410000Y-107375000D02*
X130410000Y-107375000D01*
%TO.C,D29*%
X113410000Y-107375000D02*
X113410000Y-111275000D01*
X111410000Y-107375000D02*
X111410000Y-111275000D01*
X113410000Y-107375000D02*
X111410000Y-107375000D01*
%TO.C,D28*%
X94410000Y-107375000D02*
X94410000Y-111275000D01*
X92410000Y-107375000D02*
X92410000Y-111275000D01*
X94410000Y-107375000D02*
X92410000Y-107375000D01*
%TO.C,D27*%
X75410000Y-107375000D02*
X75410000Y-111275000D01*
X73410000Y-107375000D02*
X73410000Y-111275000D01*
X75410000Y-107375000D02*
X73410000Y-107375000D01*
%TO.C,D26*%
X56410000Y-107375000D02*
X56410000Y-111275000D01*
X54410000Y-107375000D02*
X54410000Y-111275000D01*
X56410000Y-107375000D02*
X54410000Y-107375000D01*
%TO.C,D25*%
X37410000Y-107375000D02*
X37410000Y-111275000D01*
X35410000Y-107375000D02*
X35410000Y-111275000D01*
X37410000Y-107375000D02*
X35410000Y-107375000D01*
%TO.C,D24*%
X260710000Y-86890000D02*
X260710000Y-90790000D01*
X258710000Y-86890000D02*
X258710000Y-90790000D01*
X260710000Y-86890000D02*
X258710000Y-86890000D01*
%TO.C,D23*%
X241710000Y-86890000D02*
X241710000Y-90790000D01*
X239710000Y-86890000D02*
X239710000Y-90790000D01*
X241710000Y-86890000D02*
X239710000Y-86890000D01*
%TO.C,D22*%
X222710000Y-86890000D02*
X222710000Y-90790000D01*
X220710000Y-86890000D02*
X220710000Y-90790000D01*
X222710000Y-86890000D02*
X220710000Y-86890000D01*
%TO.C,D21*%
X203710000Y-86890000D02*
X203710000Y-90790000D01*
X201710000Y-86890000D02*
X201710000Y-90790000D01*
X203710000Y-86890000D02*
X201710000Y-86890000D01*
%TO.C,D20*%
X184710000Y-86890000D02*
X184710000Y-90790000D01*
X182710000Y-86890000D02*
X182710000Y-90790000D01*
X184710000Y-86890000D02*
X182710000Y-86890000D01*
%TO.C,D19*%
X165710000Y-86890000D02*
X165710000Y-90790000D01*
X163710000Y-86890000D02*
X163710000Y-90790000D01*
X165710000Y-86890000D02*
X163710000Y-86890000D01*
%TO.C,D18*%
X137210000Y-86890000D02*
X137210000Y-90790000D01*
X135210000Y-86890000D02*
X135210000Y-90790000D01*
X137210000Y-86890000D02*
X135210000Y-86890000D01*
%TO.C,D17*%
X118210000Y-86890000D02*
X118210000Y-90790000D01*
X116210000Y-86890000D02*
X116210000Y-90790000D01*
X118210000Y-86890000D02*
X116210000Y-86890000D01*
%TO.C,D16*%
X99210000Y-86890000D02*
X99210000Y-90790000D01*
X97210000Y-86890000D02*
X97210000Y-90790000D01*
X99210000Y-86890000D02*
X97210000Y-86890000D01*
%TO.C,D15*%
X80210000Y-86890000D02*
X80210000Y-90790000D01*
X78210000Y-86890000D02*
X78210000Y-90790000D01*
X80210000Y-86890000D02*
X78210000Y-86890000D01*
%TO.C,D14*%
X61210000Y-86890000D02*
X61210000Y-90790000D01*
X59210000Y-86890000D02*
X59210000Y-90790000D01*
X61210000Y-86890000D02*
X59210000Y-86890000D01*
%TO.C,D13*%
X42210000Y-86890000D02*
X42210000Y-90790000D01*
X40210000Y-86890000D02*
X40210000Y-90790000D01*
X42210000Y-86890000D02*
X40210000Y-86890000D01*
%TO.C,D12*%
X255960000Y-69110000D02*
X255960000Y-73010000D01*
X253960000Y-69110000D02*
X253960000Y-73010000D01*
X255960000Y-69110000D02*
X253960000Y-69110000D01*
%TO.C,D11*%
X236960000Y-69110000D02*
X236960000Y-73010000D01*
X234960000Y-69110000D02*
X234960000Y-73010000D01*
X236960000Y-69110000D02*
X234960000Y-69110000D01*
%TO.C,D10*%
X217960000Y-69110000D02*
X217960000Y-73010000D01*
X215960000Y-69110000D02*
X215960000Y-73010000D01*
X217960000Y-69110000D02*
X215960000Y-69110000D01*
%TO.C,D9*%
X198960000Y-69110000D02*
X198960000Y-73010000D01*
X196960000Y-69110000D02*
X196960000Y-73010000D01*
X198960000Y-69110000D02*
X196960000Y-69110000D01*
%TO.C,D8*%
X179960000Y-69110000D02*
X179960000Y-73010000D01*
X177960000Y-69110000D02*
X177960000Y-73010000D01*
X179960000Y-69110000D02*
X177960000Y-69110000D01*
%TO.C,D7*%
X160960000Y-69110000D02*
X160960000Y-73010000D01*
X158960000Y-69110000D02*
X158960000Y-73010000D01*
X160960000Y-69110000D02*
X158960000Y-69110000D01*
%TO.C,D6*%
X141960000Y-69110000D02*
X141960000Y-73010000D01*
X139960000Y-69110000D02*
X139960000Y-73010000D01*
X141960000Y-69110000D02*
X139960000Y-69110000D01*
%TO.C,D5*%
X122960000Y-69110000D02*
X122960000Y-73010000D01*
X120960000Y-69110000D02*
X120960000Y-73010000D01*
X122960000Y-69110000D02*
X120960000Y-69110000D01*
%TO.C,D4*%
X103960000Y-69110000D02*
X103960000Y-73010000D01*
X101960000Y-69110000D02*
X101960000Y-73010000D01*
X103960000Y-69110000D02*
X101960000Y-69110000D01*
%TO.C,D3*%
X84960000Y-69110000D02*
X84960000Y-73010000D01*
X82960000Y-69110000D02*
X82960000Y-73010000D01*
X84960000Y-69110000D02*
X82960000Y-69110000D01*
%TO.C,D2*%
X65960000Y-69110000D02*
X65960000Y-73010000D01*
X63960000Y-69110000D02*
X63960000Y-73010000D01*
X65960000Y-69110000D02*
X63960000Y-69110000D01*
%TO.C,D1*%
X46660000Y-69110000D02*
X46660000Y-73010000D01*
X44660000Y-69110000D02*
X44660000Y-73010000D01*
X46660000Y-69110000D02*
X44660000Y-69110000D01*
D12*
%TO.C,U1*%
X21530000Y-66280000D02*
X18990000Y-66280000D01*
X18990000Y-63740000D02*
X18990000Y-66280000D01*
X36770000Y-63740000D02*
X18990000Y-63740000D01*
X36770000Y-66280000D02*
X36770000Y-63740000D01*
D10*
G36*
X32811568Y-72759360D02*
G01*
X32811568Y-72959360D01*
X32711568Y-72959360D01*
X32711568Y-72759360D01*
X32811568Y-72759360D01*
G37*
X32811568Y-72759360D02*
X32811568Y-72959360D01*
X32711568Y-72959360D01*
X32711568Y-72759360D01*
X32811568Y-72759360D01*
G36*
X32411568Y-72159360D02*
G01*
X32411568Y-72959360D01*
X32311568Y-72959360D01*
X32311568Y-72159360D01*
X32411568Y-72159360D01*
G37*
X32411568Y-72159360D02*
X32411568Y-72959360D01*
X32311568Y-72959360D01*
X32311568Y-72159360D01*
X32411568Y-72159360D01*
G36*
X32811568Y-72159360D02*
G01*
X32811568Y-72259360D01*
X32311568Y-72259360D01*
X32311568Y-72159360D01*
X32811568Y-72159360D01*
G37*
X32811568Y-72159360D02*
X32811568Y-72259360D01*
X32311568Y-72259360D01*
X32311568Y-72159360D01*
X32811568Y-72159360D01*
G36*
X32611568Y-72559360D02*
G01*
X32611568Y-72659360D01*
X32511568Y-72659360D01*
X32511568Y-72559360D01*
X32611568Y-72559360D01*
G37*
X32611568Y-72559360D02*
X32611568Y-72659360D01*
X32511568Y-72659360D01*
X32511568Y-72559360D01*
X32611568Y-72559360D01*
G36*
X32811568Y-72159360D02*
G01*
X32811568Y-72459360D01*
X32711568Y-72459360D01*
X32711568Y-72159360D01*
X32811568Y-72159360D01*
G37*
X32811568Y-72159360D02*
X32811568Y-72459360D01*
X32711568Y-72459360D01*
X32711568Y-72159360D01*
X32811568Y-72159360D01*
D12*
X21530000Y-68820000D02*
X18990000Y-68820000D01*
X21530000Y-66280000D02*
X21530000Y-68820000D01*
X36770000Y-96760000D02*
X36770000Y-66280000D01*
X18990000Y-96760000D02*
X36770000Y-96760000D01*
X18990000Y-66280000D02*
X18990000Y-96760000D01*
%TO.C,SW48*%
D10*
X262650476Y-123149761D02*
X262793333Y-123197380D01*
X263031428Y-123197380D01*
X263126666Y-123149761D01*
X263174285Y-123102142D01*
X263221904Y-123006904D01*
X263221904Y-122911666D01*
X263174285Y-122816428D01*
X263126666Y-122768809D01*
X263031428Y-122721190D01*
X262840952Y-122673571D01*
X262745714Y-122625952D01*
X262698095Y-122578333D01*
X262650476Y-122483095D01*
X262650476Y-122387857D01*
X262698095Y-122292619D01*
X262745714Y-122245000D01*
X262840952Y-122197380D01*
X263079047Y-122197380D01*
X263221904Y-122245000D01*
X263555238Y-122197380D02*
X263793333Y-123197380D01*
X263983809Y-122483095D01*
X264174285Y-123197380D01*
X264412380Y-122197380D01*
X265221904Y-122530714D02*
X265221904Y-123197380D01*
X264983809Y-122149761D02*
X264745714Y-122864047D01*
X265364761Y-122864047D01*
X265888571Y-122625952D02*
X265793333Y-122578333D01*
X265745714Y-122530714D01*
X265698095Y-122435476D01*
X265698095Y-122387857D01*
X265745714Y-122292619D01*
X265793333Y-122245000D01*
X265888571Y-122197380D01*
X266079047Y-122197380D01*
X266174285Y-122245000D01*
X266221904Y-122292619D01*
X266269523Y-122387857D01*
X266269523Y-122435476D01*
X266221904Y-122530714D01*
X266174285Y-122578333D01*
X266079047Y-122625952D01*
X265888571Y-122625952D01*
X265793333Y-122673571D01*
X265745714Y-122721190D01*
X265698095Y-122816428D01*
X265698095Y-123006904D01*
X265745714Y-123102142D01*
X265793333Y-123149761D01*
X265888571Y-123197380D01*
X266079047Y-123197380D01*
X266174285Y-123149761D01*
X266221904Y-123102142D01*
X266269523Y-123006904D01*
X266269523Y-122816428D01*
X266221904Y-122721190D01*
X266174285Y-122673571D01*
X266079047Y-122625952D01*
%TO.C,SW47*%
X243650476Y-123149761D02*
X243793333Y-123197380D01*
X244031428Y-123197380D01*
X244126666Y-123149761D01*
X244174285Y-123102142D01*
X244221904Y-123006904D01*
X244221904Y-122911666D01*
X244174285Y-122816428D01*
X244126666Y-122768809D01*
X244031428Y-122721190D01*
X243840952Y-122673571D01*
X243745714Y-122625952D01*
X243698095Y-122578333D01*
X243650476Y-122483095D01*
X243650476Y-122387857D01*
X243698095Y-122292619D01*
X243745714Y-122245000D01*
X243840952Y-122197380D01*
X244079047Y-122197380D01*
X244221904Y-122245000D01*
X244555238Y-122197380D02*
X244793333Y-123197380D01*
X244983809Y-122483095D01*
X245174285Y-123197380D01*
X245412380Y-122197380D01*
X246221904Y-122530714D02*
X246221904Y-123197380D01*
X245983809Y-122149761D02*
X245745714Y-122864047D01*
X246364761Y-122864047D01*
X246650476Y-122197380D02*
X247317142Y-122197380D01*
X246888571Y-123197380D01*
%TO.C,SW46*%
X224650476Y-123149761D02*
X224793333Y-123197380D01*
X225031428Y-123197380D01*
X225126666Y-123149761D01*
X225174285Y-123102142D01*
X225221904Y-123006904D01*
X225221904Y-122911666D01*
X225174285Y-122816428D01*
X225126666Y-122768809D01*
X225031428Y-122721190D01*
X224840952Y-122673571D01*
X224745714Y-122625952D01*
X224698095Y-122578333D01*
X224650476Y-122483095D01*
X224650476Y-122387857D01*
X224698095Y-122292619D01*
X224745714Y-122245000D01*
X224840952Y-122197380D01*
X225079047Y-122197380D01*
X225221904Y-122245000D01*
X225555238Y-122197380D02*
X225793333Y-123197380D01*
X225983809Y-122483095D01*
X226174285Y-123197380D01*
X226412380Y-122197380D01*
X227221904Y-122530714D02*
X227221904Y-123197380D01*
X226983809Y-122149761D02*
X226745714Y-122864047D01*
X227364761Y-122864047D01*
X228174285Y-122197380D02*
X227983809Y-122197380D01*
X227888571Y-122245000D01*
X227840952Y-122292619D01*
X227745714Y-122435476D01*
X227698095Y-122625952D01*
X227698095Y-123006904D01*
X227745714Y-123102142D01*
X227793333Y-123149761D01*
X227888571Y-123197380D01*
X228079047Y-123197380D01*
X228174285Y-123149761D01*
X228221904Y-123102142D01*
X228269523Y-123006904D01*
X228269523Y-122768809D01*
X228221904Y-122673571D01*
X228174285Y-122625952D01*
X228079047Y-122578333D01*
X227888571Y-122578333D01*
X227793333Y-122625952D01*
X227745714Y-122673571D01*
X227698095Y-122768809D01*
%TO.C,SW45*%
X205650476Y-123149761D02*
X205793333Y-123197380D01*
X206031428Y-123197380D01*
X206126666Y-123149761D01*
X206174285Y-123102142D01*
X206221904Y-123006904D01*
X206221904Y-122911666D01*
X206174285Y-122816428D01*
X206126666Y-122768809D01*
X206031428Y-122721190D01*
X205840952Y-122673571D01*
X205745714Y-122625952D01*
X205698095Y-122578333D01*
X205650476Y-122483095D01*
X205650476Y-122387857D01*
X205698095Y-122292619D01*
X205745714Y-122245000D01*
X205840952Y-122197380D01*
X206079047Y-122197380D01*
X206221904Y-122245000D01*
X206555238Y-122197380D02*
X206793333Y-123197380D01*
X206983809Y-122483095D01*
X207174285Y-123197380D01*
X207412380Y-122197380D01*
X208221904Y-122530714D02*
X208221904Y-123197380D01*
X207983809Y-122149761D02*
X207745714Y-122864047D01*
X208364761Y-122864047D01*
X209221904Y-122197380D02*
X208745714Y-122197380D01*
X208698095Y-122673571D01*
X208745714Y-122625952D01*
X208840952Y-122578333D01*
X209079047Y-122578333D01*
X209174285Y-122625952D01*
X209221904Y-122673571D01*
X209269523Y-122768809D01*
X209269523Y-123006904D01*
X209221904Y-123102142D01*
X209174285Y-123149761D01*
X209079047Y-123197380D01*
X208840952Y-123197380D01*
X208745714Y-123149761D01*
X208698095Y-123102142D01*
%TO.C,SW44*%
X184275476Y-123149761D02*
X184418333Y-123197380D01*
X184656428Y-123197380D01*
X184751666Y-123149761D01*
X184799285Y-123102142D01*
X184846904Y-123006904D01*
X184846904Y-122911666D01*
X184799285Y-122816428D01*
X184751666Y-122768809D01*
X184656428Y-122721190D01*
X184465952Y-122673571D01*
X184370714Y-122625952D01*
X184323095Y-122578333D01*
X184275476Y-122483095D01*
X184275476Y-122387857D01*
X184323095Y-122292619D01*
X184370714Y-122245000D01*
X184465952Y-122197380D01*
X184704047Y-122197380D01*
X184846904Y-122245000D01*
X185180238Y-122197380D02*
X185418333Y-123197380D01*
X185608809Y-122483095D01*
X185799285Y-123197380D01*
X186037380Y-122197380D01*
X186846904Y-122530714D02*
X186846904Y-123197380D01*
X186608809Y-122149761D02*
X186370714Y-122864047D01*
X186989761Y-122864047D01*
X187799285Y-122530714D02*
X187799285Y-123197380D01*
X187561190Y-122149761D02*
X187323095Y-122864047D01*
X187942142Y-122864047D01*
%TO.C,SW43*%
X158150476Y-123149761D02*
X158293333Y-123197380D01*
X158531428Y-123197380D01*
X158626666Y-123149761D01*
X158674285Y-123102142D01*
X158721904Y-123006904D01*
X158721904Y-122911666D01*
X158674285Y-122816428D01*
X158626666Y-122768809D01*
X158531428Y-122721190D01*
X158340952Y-122673571D01*
X158245714Y-122625952D01*
X158198095Y-122578333D01*
X158150476Y-122483095D01*
X158150476Y-122387857D01*
X158198095Y-122292619D01*
X158245714Y-122245000D01*
X158340952Y-122197380D01*
X158579047Y-122197380D01*
X158721904Y-122245000D01*
X159055238Y-122197380D02*
X159293333Y-123197380D01*
X159483809Y-122483095D01*
X159674285Y-123197380D01*
X159912380Y-122197380D01*
X160721904Y-122530714D02*
X160721904Y-123197380D01*
X160483809Y-122149761D02*
X160245714Y-122864047D01*
X160864761Y-122864047D01*
X161150476Y-122197380D02*
X161769523Y-122197380D01*
X161436190Y-122578333D01*
X161579047Y-122578333D01*
X161674285Y-122625952D01*
X161721904Y-122673571D01*
X161769523Y-122768809D01*
X161769523Y-123006904D01*
X161721904Y-123102142D01*
X161674285Y-123149761D01*
X161579047Y-123197380D01*
X161293333Y-123197380D01*
X161198095Y-123149761D01*
X161150476Y-123102142D01*
%TO.C,SW42*%
X158150476Y-104149761D02*
X158293333Y-104197380D01*
X158531428Y-104197380D01*
X158626666Y-104149761D01*
X158674285Y-104102142D01*
X158721904Y-104006904D01*
X158721904Y-103911666D01*
X158674285Y-103816428D01*
X158626666Y-103768809D01*
X158531428Y-103721190D01*
X158340952Y-103673571D01*
X158245714Y-103625952D01*
X158198095Y-103578333D01*
X158150476Y-103483095D01*
X158150476Y-103387857D01*
X158198095Y-103292619D01*
X158245714Y-103245000D01*
X158340952Y-103197380D01*
X158579047Y-103197380D01*
X158721904Y-103245000D01*
X159055238Y-103197380D02*
X159293333Y-104197380D01*
X159483809Y-103483095D01*
X159674285Y-104197380D01*
X159912380Y-103197380D01*
X160721904Y-103530714D02*
X160721904Y-104197380D01*
X160483809Y-103149761D02*
X160245714Y-103864047D01*
X160864761Y-103864047D01*
X161198095Y-103292619D02*
X161245714Y-103245000D01*
X161340952Y-103197380D01*
X161579047Y-103197380D01*
X161674285Y-103245000D01*
X161721904Y-103292619D01*
X161769523Y-103387857D01*
X161769523Y-103483095D01*
X161721904Y-103625952D01*
X161150476Y-104197380D01*
X161769523Y-104197380D01*
%TO.C,SW41*%
X132025476Y-123149761D02*
X132168333Y-123197380D01*
X132406428Y-123197380D01*
X132501666Y-123149761D01*
X132549285Y-123102142D01*
X132596904Y-123006904D01*
X132596904Y-122911666D01*
X132549285Y-122816428D01*
X132501666Y-122768809D01*
X132406428Y-122721190D01*
X132215952Y-122673571D01*
X132120714Y-122625952D01*
X132073095Y-122578333D01*
X132025476Y-122483095D01*
X132025476Y-122387857D01*
X132073095Y-122292619D01*
X132120714Y-122245000D01*
X132215952Y-122197380D01*
X132454047Y-122197380D01*
X132596904Y-122245000D01*
X132930238Y-122197380D02*
X133168333Y-123197380D01*
X133358809Y-122483095D01*
X133549285Y-123197380D01*
X133787380Y-122197380D01*
X134596904Y-122530714D02*
X134596904Y-123197380D01*
X134358809Y-122149761D02*
X134120714Y-122864047D01*
X134739761Y-122864047D01*
X135644523Y-123197380D02*
X135073095Y-123197380D01*
X135358809Y-123197380D02*
X135358809Y-122197380D01*
X135263571Y-122340238D01*
X135168333Y-122435476D01*
X135073095Y-122483095D01*
%TO.C,SW40*%
X110650476Y-123149761D02*
X110793333Y-123197380D01*
X111031428Y-123197380D01*
X111126666Y-123149761D01*
X111174285Y-123102142D01*
X111221904Y-123006904D01*
X111221904Y-122911666D01*
X111174285Y-122816428D01*
X111126666Y-122768809D01*
X111031428Y-122721190D01*
X110840952Y-122673571D01*
X110745714Y-122625952D01*
X110698095Y-122578333D01*
X110650476Y-122483095D01*
X110650476Y-122387857D01*
X110698095Y-122292619D01*
X110745714Y-122245000D01*
X110840952Y-122197380D01*
X111079047Y-122197380D01*
X111221904Y-122245000D01*
X111555238Y-122197380D02*
X111793333Y-123197380D01*
X111983809Y-122483095D01*
X112174285Y-123197380D01*
X112412380Y-122197380D01*
X113221904Y-122530714D02*
X113221904Y-123197380D01*
X112983809Y-122149761D02*
X112745714Y-122864047D01*
X113364761Y-122864047D01*
X113936190Y-122197380D02*
X114031428Y-122197380D01*
X114126666Y-122245000D01*
X114174285Y-122292619D01*
X114221904Y-122387857D01*
X114269523Y-122578333D01*
X114269523Y-122816428D01*
X114221904Y-123006904D01*
X114174285Y-123102142D01*
X114126666Y-123149761D01*
X114031428Y-123197380D01*
X113936190Y-123197380D01*
X113840952Y-123149761D01*
X113793333Y-123102142D01*
X113745714Y-123006904D01*
X113698095Y-122816428D01*
X113698095Y-122578333D01*
X113745714Y-122387857D01*
X113793333Y-122292619D01*
X113840952Y-122245000D01*
X113936190Y-122197380D01*
%TO.C,SW39*%
X91650476Y-123149761D02*
X91793333Y-123197380D01*
X92031428Y-123197380D01*
X92126666Y-123149761D01*
X92174285Y-123102142D01*
X92221904Y-123006904D01*
X92221904Y-122911666D01*
X92174285Y-122816428D01*
X92126666Y-122768809D01*
X92031428Y-122721190D01*
X91840952Y-122673571D01*
X91745714Y-122625952D01*
X91698095Y-122578333D01*
X91650476Y-122483095D01*
X91650476Y-122387857D01*
X91698095Y-122292619D01*
X91745714Y-122245000D01*
X91840952Y-122197380D01*
X92079047Y-122197380D01*
X92221904Y-122245000D01*
X92555238Y-122197380D02*
X92793333Y-123197380D01*
X92983809Y-122483095D01*
X93174285Y-123197380D01*
X93412380Y-122197380D01*
X93698095Y-122197380D02*
X94317142Y-122197380D01*
X93983809Y-122578333D01*
X94126666Y-122578333D01*
X94221904Y-122625952D01*
X94269523Y-122673571D01*
X94317142Y-122768809D01*
X94317142Y-123006904D01*
X94269523Y-123102142D01*
X94221904Y-123149761D01*
X94126666Y-123197380D01*
X93840952Y-123197380D01*
X93745714Y-123149761D01*
X93698095Y-123102142D01*
X94793333Y-123197380D02*
X94983809Y-123197380D01*
X95079047Y-123149761D01*
X95126666Y-123102142D01*
X95221904Y-122959285D01*
X95269523Y-122768809D01*
X95269523Y-122387857D01*
X95221904Y-122292619D01*
X95174285Y-122245000D01*
X95079047Y-122197380D01*
X94888571Y-122197380D01*
X94793333Y-122245000D01*
X94745714Y-122292619D01*
X94698095Y-122387857D01*
X94698095Y-122625952D01*
X94745714Y-122721190D01*
X94793333Y-122768809D01*
X94888571Y-122816428D01*
X95079047Y-122816428D01*
X95174285Y-122768809D01*
X95221904Y-122721190D01*
X95269523Y-122625952D01*
%TO.C,SW38*%
X72650476Y-123149761D02*
X72793333Y-123197380D01*
X73031428Y-123197380D01*
X73126666Y-123149761D01*
X73174285Y-123102142D01*
X73221904Y-123006904D01*
X73221904Y-122911666D01*
X73174285Y-122816428D01*
X73126666Y-122768809D01*
X73031428Y-122721190D01*
X72840952Y-122673571D01*
X72745714Y-122625952D01*
X72698095Y-122578333D01*
X72650476Y-122483095D01*
X72650476Y-122387857D01*
X72698095Y-122292619D01*
X72745714Y-122245000D01*
X72840952Y-122197380D01*
X73079047Y-122197380D01*
X73221904Y-122245000D01*
X73555238Y-122197380D02*
X73793333Y-123197380D01*
X73983809Y-122483095D01*
X74174285Y-123197380D01*
X74412380Y-122197380D01*
X74698095Y-122197380D02*
X75317142Y-122197380D01*
X74983809Y-122578333D01*
X75126666Y-122578333D01*
X75221904Y-122625952D01*
X75269523Y-122673571D01*
X75317142Y-122768809D01*
X75317142Y-123006904D01*
X75269523Y-123102142D01*
X75221904Y-123149761D01*
X75126666Y-123197380D01*
X74840952Y-123197380D01*
X74745714Y-123149761D01*
X74698095Y-123102142D01*
X75888571Y-122625952D02*
X75793333Y-122578333D01*
X75745714Y-122530714D01*
X75698095Y-122435476D01*
X75698095Y-122387857D01*
X75745714Y-122292619D01*
X75793333Y-122245000D01*
X75888571Y-122197380D01*
X76079047Y-122197380D01*
X76174285Y-122245000D01*
X76221904Y-122292619D01*
X76269523Y-122387857D01*
X76269523Y-122435476D01*
X76221904Y-122530714D01*
X76174285Y-122578333D01*
X76079047Y-122625952D01*
X75888571Y-122625952D01*
X75793333Y-122673571D01*
X75745714Y-122721190D01*
X75698095Y-122816428D01*
X75698095Y-123006904D01*
X75745714Y-123102142D01*
X75793333Y-123149761D01*
X75888571Y-123197380D01*
X76079047Y-123197380D01*
X76174285Y-123149761D01*
X76221904Y-123102142D01*
X76269523Y-123006904D01*
X76269523Y-122816428D01*
X76221904Y-122721190D01*
X76174285Y-122673571D01*
X76079047Y-122625952D01*
%TO.C,SW37*%
X53650476Y-123149761D02*
X53793333Y-123197380D01*
X54031428Y-123197380D01*
X54126666Y-123149761D01*
X54174285Y-123102142D01*
X54221904Y-123006904D01*
X54221904Y-122911666D01*
X54174285Y-122816428D01*
X54126666Y-122768809D01*
X54031428Y-122721190D01*
X53840952Y-122673571D01*
X53745714Y-122625952D01*
X53698095Y-122578333D01*
X53650476Y-122483095D01*
X53650476Y-122387857D01*
X53698095Y-122292619D01*
X53745714Y-122245000D01*
X53840952Y-122197380D01*
X54079047Y-122197380D01*
X54221904Y-122245000D01*
X54555238Y-122197380D02*
X54793333Y-123197380D01*
X54983809Y-122483095D01*
X55174285Y-123197380D01*
X55412380Y-122197380D01*
X55698095Y-122197380D02*
X56317142Y-122197380D01*
X55983809Y-122578333D01*
X56126666Y-122578333D01*
X56221904Y-122625952D01*
X56269523Y-122673571D01*
X56317142Y-122768809D01*
X56317142Y-123006904D01*
X56269523Y-123102142D01*
X56221904Y-123149761D01*
X56126666Y-123197380D01*
X55840952Y-123197380D01*
X55745714Y-123149761D01*
X55698095Y-123102142D01*
X56650476Y-122197380D02*
X57317142Y-122197380D01*
X56888571Y-123197380D01*
%TO.C,SW36*%
X272150476Y-104149761D02*
X272293333Y-104197380D01*
X272531428Y-104197380D01*
X272626666Y-104149761D01*
X272674285Y-104102142D01*
X272721904Y-104006904D01*
X272721904Y-103911666D01*
X272674285Y-103816428D01*
X272626666Y-103768809D01*
X272531428Y-103721190D01*
X272340952Y-103673571D01*
X272245714Y-103625952D01*
X272198095Y-103578333D01*
X272150476Y-103483095D01*
X272150476Y-103387857D01*
X272198095Y-103292619D01*
X272245714Y-103245000D01*
X272340952Y-103197380D01*
X272579047Y-103197380D01*
X272721904Y-103245000D01*
X273055238Y-103197380D02*
X273293333Y-104197380D01*
X273483809Y-103483095D01*
X273674285Y-104197380D01*
X273912380Y-103197380D01*
X274198095Y-103197380D02*
X274817142Y-103197380D01*
X274483809Y-103578333D01*
X274626666Y-103578333D01*
X274721904Y-103625952D01*
X274769523Y-103673571D01*
X274817142Y-103768809D01*
X274817142Y-104006904D01*
X274769523Y-104102142D01*
X274721904Y-104149761D01*
X274626666Y-104197380D01*
X274340952Y-104197380D01*
X274245714Y-104149761D01*
X274198095Y-104102142D01*
X275674285Y-103197380D02*
X275483809Y-103197380D01*
X275388571Y-103245000D01*
X275340952Y-103292619D01*
X275245714Y-103435476D01*
X275198095Y-103625952D01*
X275198095Y-104006904D01*
X275245714Y-104102142D01*
X275293333Y-104149761D01*
X275388571Y-104197380D01*
X275579047Y-104197380D01*
X275674285Y-104149761D01*
X275721904Y-104102142D01*
X275769523Y-104006904D01*
X275769523Y-103768809D01*
X275721904Y-103673571D01*
X275674285Y-103625952D01*
X275579047Y-103578333D01*
X275388571Y-103578333D01*
X275293333Y-103625952D01*
X275245714Y-103673571D01*
X275198095Y-103768809D01*
%TO.C,SW35*%
X253150476Y-104149761D02*
X253293333Y-104197380D01*
X253531428Y-104197380D01*
X253626666Y-104149761D01*
X253674285Y-104102142D01*
X253721904Y-104006904D01*
X253721904Y-103911666D01*
X253674285Y-103816428D01*
X253626666Y-103768809D01*
X253531428Y-103721190D01*
X253340952Y-103673571D01*
X253245714Y-103625952D01*
X253198095Y-103578333D01*
X253150476Y-103483095D01*
X253150476Y-103387857D01*
X253198095Y-103292619D01*
X253245714Y-103245000D01*
X253340952Y-103197380D01*
X253579047Y-103197380D01*
X253721904Y-103245000D01*
X254055238Y-103197380D02*
X254293333Y-104197380D01*
X254483809Y-103483095D01*
X254674285Y-104197380D01*
X254912380Y-103197380D01*
X255198095Y-103197380D02*
X255817142Y-103197380D01*
X255483809Y-103578333D01*
X255626666Y-103578333D01*
X255721904Y-103625952D01*
X255769523Y-103673571D01*
X255817142Y-103768809D01*
X255817142Y-104006904D01*
X255769523Y-104102142D01*
X255721904Y-104149761D01*
X255626666Y-104197380D01*
X255340952Y-104197380D01*
X255245714Y-104149761D01*
X255198095Y-104102142D01*
X256721904Y-103197380D02*
X256245714Y-103197380D01*
X256198095Y-103673571D01*
X256245714Y-103625952D01*
X256340952Y-103578333D01*
X256579047Y-103578333D01*
X256674285Y-103625952D01*
X256721904Y-103673571D01*
X256769523Y-103768809D01*
X256769523Y-104006904D01*
X256721904Y-104102142D01*
X256674285Y-104149761D01*
X256579047Y-104197380D01*
X256340952Y-104197380D01*
X256245714Y-104149761D01*
X256198095Y-104102142D01*
%TO.C,SW34*%
X234150476Y-104149761D02*
X234293333Y-104197380D01*
X234531428Y-104197380D01*
X234626666Y-104149761D01*
X234674285Y-104102142D01*
X234721904Y-104006904D01*
X234721904Y-103911666D01*
X234674285Y-103816428D01*
X234626666Y-103768809D01*
X234531428Y-103721190D01*
X234340952Y-103673571D01*
X234245714Y-103625952D01*
X234198095Y-103578333D01*
X234150476Y-103483095D01*
X234150476Y-103387857D01*
X234198095Y-103292619D01*
X234245714Y-103245000D01*
X234340952Y-103197380D01*
X234579047Y-103197380D01*
X234721904Y-103245000D01*
X235055238Y-103197380D02*
X235293333Y-104197380D01*
X235483809Y-103483095D01*
X235674285Y-104197380D01*
X235912380Y-103197380D01*
X236198095Y-103197380D02*
X236817142Y-103197380D01*
X236483809Y-103578333D01*
X236626666Y-103578333D01*
X236721904Y-103625952D01*
X236769523Y-103673571D01*
X236817142Y-103768809D01*
X236817142Y-104006904D01*
X236769523Y-104102142D01*
X236721904Y-104149761D01*
X236626666Y-104197380D01*
X236340952Y-104197380D01*
X236245714Y-104149761D01*
X236198095Y-104102142D01*
X237674285Y-103530714D02*
X237674285Y-104197380D01*
X237436190Y-103149761D02*
X237198095Y-103864047D01*
X237817142Y-103864047D01*
%TO.C,SW33*%
X215150476Y-104149761D02*
X215293333Y-104197380D01*
X215531428Y-104197380D01*
X215626666Y-104149761D01*
X215674285Y-104102142D01*
X215721904Y-104006904D01*
X215721904Y-103911666D01*
X215674285Y-103816428D01*
X215626666Y-103768809D01*
X215531428Y-103721190D01*
X215340952Y-103673571D01*
X215245714Y-103625952D01*
X215198095Y-103578333D01*
X215150476Y-103483095D01*
X215150476Y-103387857D01*
X215198095Y-103292619D01*
X215245714Y-103245000D01*
X215340952Y-103197380D01*
X215579047Y-103197380D01*
X215721904Y-103245000D01*
X216055238Y-103197380D02*
X216293333Y-104197380D01*
X216483809Y-103483095D01*
X216674285Y-104197380D01*
X216912380Y-103197380D01*
X217198095Y-103197380D02*
X217817142Y-103197380D01*
X217483809Y-103578333D01*
X217626666Y-103578333D01*
X217721904Y-103625952D01*
X217769523Y-103673571D01*
X217817142Y-103768809D01*
X217817142Y-104006904D01*
X217769523Y-104102142D01*
X217721904Y-104149761D01*
X217626666Y-104197380D01*
X217340952Y-104197380D01*
X217245714Y-104149761D01*
X217198095Y-104102142D01*
X218150476Y-103197380D02*
X218769523Y-103197380D01*
X218436190Y-103578333D01*
X218579047Y-103578333D01*
X218674285Y-103625952D01*
X218721904Y-103673571D01*
X218769523Y-103768809D01*
X218769523Y-104006904D01*
X218721904Y-104102142D01*
X218674285Y-104149761D01*
X218579047Y-104197380D01*
X218293333Y-104197380D01*
X218198095Y-104149761D01*
X218150476Y-104102142D01*
%TO.C,SW32*%
X196150476Y-104149761D02*
X196293333Y-104197380D01*
X196531428Y-104197380D01*
X196626666Y-104149761D01*
X196674285Y-104102142D01*
X196721904Y-104006904D01*
X196721904Y-103911666D01*
X196674285Y-103816428D01*
X196626666Y-103768809D01*
X196531428Y-103721190D01*
X196340952Y-103673571D01*
X196245714Y-103625952D01*
X196198095Y-103578333D01*
X196150476Y-103483095D01*
X196150476Y-103387857D01*
X196198095Y-103292619D01*
X196245714Y-103245000D01*
X196340952Y-103197380D01*
X196579047Y-103197380D01*
X196721904Y-103245000D01*
X197055238Y-103197380D02*
X197293333Y-104197380D01*
X197483809Y-103483095D01*
X197674285Y-104197380D01*
X197912380Y-103197380D01*
X198198095Y-103197380D02*
X198817142Y-103197380D01*
X198483809Y-103578333D01*
X198626666Y-103578333D01*
X198721904Y-103625952D01*
X198769523Y-103673571D01*
X198817142Y-103768809D01*
X198817142Y-104006904D01*
X198769523Y-104102142D01*
X198721904Y-104149761D01*
X198626666Y-104197380D01*
X198340952Y-104197380D01*
X198245714Y-104149761D01*
X198198095Y-104102142D01*
X199198095Y-103292619D02*
X199245714Y-103245000D01*
X199340952Y-103197380D01*
X199579047Y-103197380D01*
X199674285Y-103245000D01*
X199721904Y-103292619D01*
X199769523Y-103387857D01*
X199769523Y-103483095D01*
X199721904Y-103625952D01*
X199150476Y-104197380D01*
X199769523Y-104197380D01*
%TO.C,SW31*%
X177150476Y-104149761D02*
X177293333Y-104197380D01*
X177531428Y-104197380D01*
X177626666Y-104149761D01*
X177674285Y-104102142D01*
X177721904Y-104006904D01*
X177721904Y-103911666D01*
X177674285Y-103816428D01*
X177626666Y-103768809D01*
X177531428Y-103721190D01*
X177340952Y-103673571D01*
X177245714Y-103625952D01*
X177198095Y-103578333D01*
X177150476Y-103483095D01*
X177150476Y-103387857D01*
X177198095Y-103292619D01*
X177245714Y-103245000D01*
X177340952Y-103197380D01*
X177579047Y-103197380D01*
X177721904Y-103245000D01*
X178055238Y-103197380D02*
X178293333Y-104197380D01*
X178483809Y-103483095D01*
X178674285Y-104197380D01*
X178912380Y-103197380D01*
X179198095Y-103197380D02*
X179817142Y-103197380D01*
X179483809Y-103578333D01*
X179626666Y-103578333D01*
X179721904Y-103625952D01*
X179769523Y-103673571D01*
X179817142Y-103768809D01*
X179817142Y-104006904D01*
X179769523Y-104102142D01*
X179721904Y-104149761D01*
X179626666Y-104197380D01*
X179340952Y-104197380D01*
X179245714Y-104149761D01*
X179198095Y-104102142D01*
X180769523Y-104197380D02*
X180198095Y-104197380D01*
X180483809Y-104197380D02*
X180483809Y-103197380D01*
X180388571Y-103340238D01*
X180293333Y-103435476D01*
X180198095Y-103483095D01*
%TO.C,SW30*%
X139150476Y-104149761D02*
X139293333Y-104197380D01*
X139531428Y-104197380D01*
X139626666Y-104149761D01*
X139674285Y-104102142D01*
X139721904Y-104006904D01*
X139721904Y-103911666D01*
X139674285Y-103816428D01*
X139626666Y-103768809D01*
X139531428Y-103721190D01*
X139340952Y-103673571D01*
X139245714Y-103625952D01*
X139198095Y-103578333D01*
X139150476Y-103483095D01*
X139150476Y-103387857D01*
X139198095Y-103292619D01*
X139245714Y-103245000D01*
X139340952Y-103197380D01*
X139579047Y-103197380D01*
X139721904Y-103245000D01*
X140055238Y-103197380D02*
X140293333Y-104197380D01*
X140483809Y-103483095D01*
X140674285Y-104197380D01*
X140912380Y-103197380D01*
X141198095Y-103197380D02*
X141817142Y-103197380D01*
X141483809Y-103578333D01*
X141626666Y-103578333D01*
X141721904Y-103625952D01*
X141769523Y-103673571D01*
X141817142Y-103768809D01*
X141817142Y-104006904D01*
X141769523Y-104102142D01*
X141721904Y-104149761D01*
X141626666Y-104197380D01*
X141340952Y-104197380D01*
X141245714Y-104149761D01*
X141198095Y-104102142D01*
X142436190Y-103197380D02*
X142531428Y-103197380D01*
X142626666Y-103245000D01*
X142674285Y-103292619D01*
X142721904Y-103387857D01*
X142769523Y-103578333D01*
X142769523Y-103816428D01*
X142721904Y-104006904D01*
X142674285Y-104102142D01*
X142626666Y-104149761D01*
X142531428Y-104197380D01*
X142436190Y-104197380D01*
X142340952Y-104149761D01*
X142293333Y-104102142D01*
X142245714Y-104006904D01*
X142198095Y-103816428D01*
X142198095Y-103578333D01*
X142245714Y-103387857D01*
X142293333Y-103292619D01*
X142340952Y-103245000D01*
X142436190Y-103197380D01*
%TO.C,SW29*%
X120150476Y-104149761D02*
X120293333Y-104197380D01*
X120531428Y-104197380D01*
X120626666Y-104149761D01*
X120674285Y-104102142D01*
X120721904Y-104006904D01*
X120721904Y-103911666D01*
X120674285Y-103816428D01*
X120626666Y-103768809D01*
X120531428Y-103721190D01*
X120340952Y-103673571D01*
X120245714Y-103625952D01*
X120198095Y-103578333D01*
X120150476Y-103483095D01*
X120150476Y-103387857D01*
X120198095Y-103292619D01*
X120245714Y-103245000D01*
X120340952Y-103197380D01*
X120579047Y-103197380D01*
X120721904Y-103245000D01*
X121055238Y-103197380D02*
X121293333Y-104197380D01*
X121483809Y-103483095D01*
X121674285Y-104197380D01*
X121912380Y-103197380D01*
X122245714Y-103292619D02*
X122293333Y-103245000D01*
X122388571Y-103197380D01*
X122626666Y-103197380D01*
X122721904Y-103245000D01*
X122769523Y-103292619D01*
X122817142Y-103387857D01*
X122817142Y-103483095D01*
X122769523Y-103625952D01*
X122198095Y-104197380D01*
X122817142Y-104197380D01*
X123293333Y-104197380D02*
X123483809Y-104197380D01*
X123579047Y-104149761D01*
X123626666Y-104102142D01*
X123721904Y-103959285D01*
X123769523Y-103768809D01*
X123769523Y-103387857D01*
X123721904Y-103292619D01*
X123674285Y-103245000D01*
X123579047Y-103197380D01*
X123388571Y-103197380D01*
X123293333Y-103245000D01*
X123245714Y-103292619D01*
X123198095Y-103387857D01*
X123198095Y-103625952D01*
X123245714Y-103721190D01*
X123293333Y-103768809D01*
X123388571Y-103816428D01*
X123579047Y-103816428D01*
X123674285Y-103768809D01*
X123721904Y-103721190D01*
X123769523Y-103625952D01*
%TO.C,SW28*%
X101150476Y-104149761D02*
X101293333Y-104197380D01*
X101531428Y-104197380D01*
X101626666Y-104149761D01*
X101674285Y-104102142D01*
X101721904Y-104006904D01*
X101721904Y-103911666D01*
X101674285Y-103816428D01*
X101626666Y-103768809D01*
X101531428Y-103721190D01*
X101340952Y-103673571D01*
X101245714Y-103625952D01*
X101198095Y-103578333D01*
X101150476Y-103483095D01*
X101150476Y-103387857D01*
X101198095Y-103292619D01*
X101245714Y-103245000D01*
X101340952Y-103197380D01*
X101579047Y-103197380D01*
X101721904Y-103245000D01*
X102055238Y-103197380D02*
X102293333Y-104197380D01*
X102483809Y-103483095D01*
X102674285Y-104197380D01*
X102912380Y-103197380D01*
X103245714Y-103292619D02*
X103293333Y-103245000D01*
X103388571Y-103197380D01*
X103626666Y-103197380D01*
X103721904Y-103245000D01*
X103769523Y-103292619D01*
X103817142Y-103387857D01*
X103817142Y-103483095D01*
X103769523Y-103625952D01*
X103198095Y-104197380D01*
X103817142Y-104197380D01*
X104388571Y-103625952D02*
X104293333Y-103578333D01*
X104245714Y-103530714D01*
X104198095Y-103435476D01*
X104198095Y-103387857D01*
X104245714Y-103292619D01*
X104293333Y-103245000D01*
X104388571Y-103197380D01*
X104579047Y-103197380D01*
X104674285Y-103245000D01*
X104721904Y-103292619D01*
X104769523Y-103387857D01*
X104769523Y-103435476D01*
X104721904Y-103530714D01*
X104674285Y-103578333D01*
X104579047Y-103625952D01*
X104388571Y-103625952D01*
X104293333Y-103673571D01*
X104245714Y-103721190D01*
X104198095Y-103816428D01*
X104198095Y-104006904D01*
X104245714Y-104102142D01*
X104293333Y-104149761D01*
X104388571Y-104197380D01*
X104579047Y-104197380D01*
X104674285Y-104149761D01*
X104721904Y-104102142D01*
X104769523Y-104006904D01*
X104769523Y-103816428D01*
X104721904Y-103721190D01*
X104674285Y-103673571D01*
X104579047Y-103625952D01*
%TO.C,SW27*%
X82150476Y-104149761D02*
X82293333Y-104197380D01*
X82531428Y-104197380D01*
X82626666Y-104149761D01*
X82674285Y-104102142D01*
X82721904Y-104006904D01*
X82721904Y-103911666D01*
X82674285Y-103816428D01*
X82626666Y-103768809D01*
X82531428Y-103721190D01*
X82340952Y-103673571D01*
X82245714Y-103625952D01*
X82198095Y-103578333D01*
X82150476Y-103483095D01*
X82150476Y-103387857D01*
X82198095Y-103292619D01*
X82245714Y-103245000D01*
X82340952Y-103197380D01*
X82579047Y-103197380D01*
X82721904Y-103245000D01*
X83055238Y-103197380D02*
X83293333Y-104197380D01*
X83483809Y-103483095D01*
X83674285Y-104197380D01*
X83912380Y-103197380D01*
X84245714Y-103292619D02*
X84293333Y-103245000D01*
X84388571Y-103197380D01*
X84626666Y-103197380D01*
X84721904Y-103245000D01*
X84769523Y-103292619D01*
X84817142Y-103387857D01*
X84817142Y-103483095D01*
X84769523Y-103625952D01*
X84198095Y-104197380D01*
X84817142Y-104197380D01*
X85150476Y-103197380D02*
X85817142Y-103197380D01*
X85388571Y-104197380D01*
%TO.C,SW26*%
X63150476Y-104149761D02*
X63293333Y-104197380D01*
X63531428Y-104197380D01*
X63626666Y-104149761D01*
X63674285Y-104102142D01*
X63721904Y-104006904D01*
X63721904Y-103911666D01*
X63674285Y-103816428D01*
X63626666Y-103768809D01*
X63531428Y-103721190D01*
X63340952Y-103673571D01*
X63245714Y-103625952D01*
X63198095Y-103578333D01*
X63150476Y-103483095D01*
X63150476Y-103387857D01*
X63198095Y-103292619D01*
X63245714Y-103245000D01*
X63340952Y-103197380D01*
X63579047Y-103197380D01*
X63721904Y-103245000D01*
X64055238Y-103197380D02*
X64293333Y-104197380D01*
X64483809Y-103483095D01*
X64674285Y-104197380D01*
X64912380Y-103197380D01*
X65245714Y-103292619D02*
X65293333Y-103245000D01*
X65388571Y-103197380D01*
X65626666Y-103197380D01*
X65721904Y-103245000D01*
X65769523Y-103292619D01*
X65817142Y-103387857D01*
X65817142Y-103483095D01*
X65769523Y-103625952D01*
X65198095Y-104197380D01*
X65817142Y-104197380D01*
X66674285Y-103197380D02*
X66483809Y-103197380D01*
X66388571Y-103245000D01*
X66340952Y-103292619D01*
X66245714Y-103435476D01*
X66198095Y-103625952D01*
X66198095Y-104006904D01*
X66245714Y-104102142D01*
X66293333Y-104149761D01*
X66388571Y-104197380D01*
X66579047Y-104197380D01*
X66674285Y-104149761D01*
X66721904Y-104102142D01*
X66769523Y-104006904D01*
X66769523Y-103768809D01*
X66721904Y-103673571D01*
X66674285Y-103625952D01*
X66579047Y-103578333D01*
X66388571Y-103578333D01*
X66293333Y-103625952D01*
X66245714Y-103673571D01*
X66198095Y-103768809D01*
%TO.C,SW25*%
X44150476Y-104149761D02*
X44293333Y-104197380D01*
X44531428Y-104197380D01*
X44626666Y-104149761D01*
X44674285Y-104102142D01*
X44721904Y-104006904D01*
X44721904Y-103911666D01*
X44674285Y-103816428D01*
X44626666Y-103768809D01*
X44531428Y-103721190D01*
X44340952Y-103673571D01*
X44245714Y-103625952D01*
X44198095Y-103578333D01*
X44150476Y-103483095D01*
X44150476Y-103387857D01*
X44198095Y-103292619D01*
X44245714Y-103245000D01*
X44340952Y-103197380D01*
X44579047Y-103197380D01*
X44721904Y-103245000D01*
X45055238Y-103197380D02*
X45293333Y-104197380D01*
X45483809Y-103483095D01*
X45674285Y-104197380D01*
X45912380Y-103197380D01*
X46245714Y-103292619D02*
X46293333Y-103245000D01*
X46388571Y-103197380D01*
X46626666Y-103197380D01*
X46721904Y-103245000D01*
X46769523Y-103292619D01*
X46817142Y-103387857D01*
X46817142Y-103483095D01*
X46769523Y-103625952D01*
X46198095Y-104197380D01*
X46817142Y-104197380D01*
X47721904Y-103197380D02*
X47245714Y-103197380D01*
X47198095Y-103673571D01*
X47245714Y-103625952D01*
X47340952Y-103578333D01*
X47579047Y-103578333D01*
X47674285Y-103625952D01*
X47721904Y-103673571D01*
X47769523Y-103768809D01*
X47769523Y-104006904D01*
X47721904Y-104102142D01*
X47674285Y-104149761D01*
X47579047Y-104197380D01*
X47340952Y-104197380D01*
X47245714Y-104149761D01*
X47198095Y-104102142D01*
%TO.C,SW24*%
X267400476Y-85149761D02*
X267543333Y-85197380D01*
X267781428Y-85197380D01*
X267876666Y-85149761D01*
X267924285Y-85102142D01*
X267971904Y-85006904D01*
X267971904Y-84911666D01*
X267924285Y-84816428D01*
X267876666Y-84768809D01*
X267781428Y-84721190D01*
X267590952Y-84673571D01*
X267495714Y-84625952D01*
X267448095Y-84578333D01*
X267400476Y-84483095D01*
X267400476Y-84387857D01*
X267448095Y-84292619D01*
X267495714Y-84245000D01*
X267590952Y-84197380D01*
X267829047Y-84197380D01*
X267971904Y-84245000D01*
X268305238Y-84197380D02*
X268543333Y-85197380D01*
X268733809Y-84483095D01*
X268924285Y-85197380D01*
X269162380Y-84197380D01*
X269495714Y-84292619D02*
X269543333Y-84245000D01*
X269638571Y-84197380D01*
X269876666Y-84197380D01*
X269971904Y-84245000D01*
X270019523Y-84292619D01*
X270067142Y-84387857D01*
X270067142Y-84483095D01*
X270019523Y-84625952D01*
X269448095Y-85197380D01*
X270067142Y-85197380D01*
X270924285Y-84530714D02*
X270924285Y-85197380D01*
X270686190Y-84149761D02*
X270448095Y-84864047D01*
X271067142Y-84864047D01*
%TO.C,SW23*%
X248400476Y-85149761D02*
X248543333Y-85197380D01*
X248781428Y-85197380D01*
X248876666Y-85149761D01*
X248924285Y-85102142D01*
X248971904Y-85006904D01*
X248971904Y-84911666D01*
X248924285Y-84816428D01*
X248876666Y-84768809D01*
X248781428Y-84721190D01*
X248590952Y-84673571D01*
X248495714Y-84625952D01*
X248448095Y-84578333D01*
X248400476Y-84483095D01*
X248400476Y-84387857D01*
X248448095Y-84292619D01*
X248495714Y-84245000D01*
X248590952Y-84197380D01*
X248829047Y-84197380D01*
X248971904Y-84245000D01*
X249305238Y-84197380D02*
X249543333Y-85197380D01*
X249733809Y-84483095D01*
X249924285Y-85197380D01*
X250162380Y-84197380D01*
X250495714Y-84292619D02*
X250543333Y-84245000D01*
X250638571Y-84197380D01*
X250876666Y-84197380D01*
X250971904Y-84245000D01*
X251019523Y-84292619D01*
X251067142Y-84387857D01*
X251067142Y-84483095D01*
X251019523Y-84625952D01*
X250448095Y-85197380D01*
X251067142Y-85197380D01*
X251400476Y-84197380D02*
X252019523Y-84197380D01*
X251686190Y-84578333D01*
X251829047Y-84578333D01*
X251924285Y-84625952D01*
X251971904Y-84673571D01*
X252019523Y-84768809D01*
X252019523Y-85006904D01*
X251971904Y-85102142D01*
X251924285Y-85149761D01*
X251829047Y-85197380D01*
X251543333Y-85197380D01*
X251448095Y-85149761D01*
X251400476Y-85102142D01*
%TO.C,SW22*%
X229400476Y-85149761D02*
X229543333Y-85197380D01*
X229781428Y-85197380D01*
X229876666Y-85149761D01*
X229924285Y-85102142D01*
X229971904Y-85006904D01*
X229971904Y-84911666D01*
X229924285Y-84816428D01*
X229876666Y-84768809D01*
X229781428Y-84721190D01*
X229590952Y-84673571D01*
X229495714Y-84625952D01*
X229448095Y-84578333D01*
X229400476Y-84483095D01*
X229400476Y-84387857D01*
X229448095Y-84292619D01*
X229495714Y-84245000D01*
X229590952Y-84197380D01*
X229829047Y-84197380D01*
X229971904Y-84245000D01*
X230305238Y-84197380D02*
X230543333Y-85197380D01*
X230733809Y-84483095D01*
X230924285Y-85197380D01*
X231162380Y-84197380D01*
X231495714Y-84292619D02*
X231543333Y-84245000D01*
X231638571Y-84197380D01*
X231876666Y-84197380D01*
X231971904Y-84245000D01*
X232019523Y-84292619D01*
X232067142Y-84387857D01*
X232067142Y-84483095D01*
X232019523Y-84625952D01*
X231448095Y-85197380D01*
X232067142Y-85197380D01*
X232448095Y-84292619D02*
X232495714Y-84245000D01*
X232590952Y-84197380D01*
X232829047Y-84197380D01*
X232924285Y-84245000D01*
X232971904Y-84292619D01*
X233019523Y-84387857D01*
X233019523Y-84483095D01*
X232971904Y-84625952D01*
X232400476Y-85197380D01*
X233019523Y-85197380D01*
%TO.C,SW21*%
X210400476Y-85149761D02*
X210543333Y-85197380D01*
X210781428Y-85197380D01*
X210876666Y-85149761D01*
X210924285Y-85102142D01*
X210971904Y-85006904D01*
X210971904Y-84911666D01*
X210924285Y-84816428D01*
X210876666Y-84768809D01*
X210781428Y-84721190D01*
X210590952Y-84673571D01*
X210495714Y-84625952D01*
X210448095Y-84578333D01*
X210400476Y-84483095D01*
X210400476Y-84387857D01*
X210448095Y-84292619D01*
X210495714Y-84245000D01*
X210590952Y-84197380D01*
X210829047Y-84197380D01*
X210971904Y-84245000D01*
X211305238Y-84197380D02*
X211543333Y-85197380D01*
X211733809Y-84483095D01*
X211924285Y-85197380D01*
X212162380Y-84197380D01*
X212495714Y-84292619D02*
X212543333Y-84245000D01*
X212638571Y-84197380D01*
X212876666Y-84197380D01*
X212971904Y-84245000D01*
X213019523Y-84292619D01*
X213067142Y-84387857D01*
X213067142Y-84483095D01*
X213019523Y-84625952D01*
X212448095Y-85197380D01*
X213067142Y-85197380D01*
X214019523Y-85197380D02*
X213448095Y-85197380D01*
X213733809Y-85197380D02*
X213733809Y-84197380D01*
X213638571Y-84340238D01*
X213543333Y-84435476D01*
X213448095Y-84483095D01*
%TO.C,SW20*%
X191400476Y-85149761D02*
X191543333Y-85197380D01*
X191781428Y-85197380D01*
X191876666Y-85149761D01*
X191924285Y-85102142D01*
X191971904Y-85006904D01*
X191971904Y-84911666D01*
X191924285Y-84816428D01*
X191876666Y-84768809D01*
X191781428Y-84721190D01*
X191590952Y-84673571D01*
X191495714Y-84625952D01*
X191448095Y-84578333D01*
X191400476Y-84483095D01*
X191400476Y-84387857D01*
X191448095Y-84292619D01*
X191495714Y-84245000D01*
X191590952Y-84197380D01*
X191829047Y-84197380D01*
X191971904Y-84245000D01*
X192305238Y-84197380D02*
X192543333Y-85197380D01*
X192733809Y-84483095D01*
X192924285Y-85197380D01*
X193162380Y-84197380D01*
X193495714Y-84292619D02*
X193543333Y-84245000D01*
X193638571Y-84197380D01*
X193876666Y-84197380D01*
X193971904Y-84245000D01*
X194019523Y-84292619D01*
X194067142Y-84387857D01*
X194067142Y-84483095D01*
X194019523Y-84625952D01*
X193448095Y-85197380D01*
X194067142Y-85197380D01*
X194686190Y-84197380D02*
X194781428Y-84197380D01*
X194876666Y-84245000D01*
X194924285Y-84292619D01*
X194971904Y-84387857D01*
X195019523Y-84578333D01*
X195019523Y-84816428D01*
X194971904Y-85006904D01*
X194924285Y-85102142D01*
X194876666Y-85149761D01*
X194781428Y-85197380D01*
X194686190Y-85197380D01*
X194590952Y-85149761D01*
X194543333Y-85102142D01*
X194495714Y-85006904D01*
X194448095Y-84816428D01*
X194448095Y-84578333D01*
X194495714Y-84387857D01*
X194543333Y-84292619D01*
X194590952Y-84245000D01*
X194686190Y-84197380D01*
%TO.C,SW19*%
X172400476Y-85149761D02*
X172543333Y-85197380D01*
X172781428Y-85197380D01*
X172876666Y-85149761D01*
X172924285Y-85102142D01*
X172971904Y-85006904D01*
X172971904Y-84911666D01*
X172924285Y-84816428D01*
X172876666Y-84768809D01*
X172781428Y-84721190D01*
X172590952Y-84673571D01*
X172495714Y-84625952D01*
X172448095Y-84578333D01*
X172400476Y-84483095D01*
X172400476Y-84387857D01*
X172448095Y-84292619D01*
X172495714Y-84245000D01*
X172590952Y-84197380D01*
X172829047Y-84197380D01*
X172971904Y-84245000D01*
X173305238Y-84197380D02*
X173543333Y-85197380D01*
X173733809Y-84483095D01*
X173924285Y-85197380D01*
X174162380Y-84197380D01*
X175067142Y-85197380D02*
X174495714Y-85197380D01*
X174781428Y-85197380D02*
X174781428Y-84197380D01*
X174686190Y-84340238D01*
X174590952Y-84435476D01*
X174495714Y-84483095D01*
X175543333Y-85197380D02*
X175733809Y-85197380D01*
X175829047Y-85149761D01*
X175876666Y-85102142D01*
X175971904Y-84959285D01*
X176019523Y-84768809D01*
X176019523Y-84387857D01*
X175971904Y-84292619D01*
X175924285Y-84245000D01*
X175829047Y-84197380D01*
X175638571Y-84197380D01*
X175543333Y-84245000D01*
X175495714Y-84292619D01*
X175448095Y-84387857D01*
X175448095Y-84625952D01*
X175495714Y-84721190D01*
X175543333Y-84768809D01*
X175638571Y-84816428D01*
X175829047Y-84816428D01*
X175924285Y-84768809D01*
X175971904Y-84721190D01*
X176019523Y-84625952D01*
%TO.C,SW18*%
X143900476Y-85149761D02*
X144043333Y-85197380D01*
X144281428Y-85197380D01*
X144376666Y-85149761D01*
X144424285Y-85102142D01*
X144471904Y-85006904D01*
X144471904Y-84911666D01*
X144424285Y-84816428D01*
X144376666Y-84768809D01*
X144281428Y-84721190D01*
X144090952Y-84673571D01*
X143995714Y-84625952D01*
X143948095Y-84578333D01*
X143900476Y-84483095D01*
X143900476Y-84387857D01*
X143948095Y-84292619D01*
X143995714Y-84245000D01*
X144090952Y-84197380D01*
X144329047Y-84197380D01*
X144471904Y-84245000D01*
X144805238Y-84197380D02*
X145043333Y-85197380D01*
X145233809Y-84483095D01*
X145424285Y-85197380D01*
X145662380Y-84197380D01*
X146567142Y-85197380D02*
X145995714Y-85197380D01*
X146281428Y-85197380D02*
X146281428Y-84197380D01*
X146186190Y-84340238D01*
X146090952Y-84435476D01*
X145995714Y-84483095D01*
X147138571Y-84625952D02*
X147043333Y-84578333D01*
X146995714Y-84530714D01*
X146948095Y-84435476D01*
X146948095Y-84387857D01*
X146995714Y-84292619D01*
X147043333Y-84245000D01*
X147138571Y-84197380D01*
X147329047Y-84197380D01*
X147424285Y-84245000D01*
X147471904Y-84292619D01*
X147519523Y-84387857D01*
X147519523Y-84435476D01*
X147471904Y-84530714D01*
X147424285Y-84578333D01*
X147329047Y-84625952D01*
X147138571Y-84625952D01*
X147043333Y-84673571D01*
X146995714Y-84721190D01*
X146948095Y-84816428D01*
X146948095Y-85006904D01*
X146995714Y-85102142D01*
X147043333Y-85149761D01*
X147138571Y-85197380D01*
X147329047Y-85197380D01*
X147424285Y-85149761D01*
X147471904Y-85102142D01*
X147519523Y-85006904D01*
X147519523Y-84816428D01*
X147471904Y-84721190D01*
X147424285Y-84673571D01*
X147329047Y-84625952D01*
%TO.C,SW17*%
X124900476Y-85149761D02*
X125043333Y-85197380D01*
X125281428Y-85197380D01*
X125376666Y-85149761D01*
X125424285Y-85102142D01*
X125471904Y-85006904D01*
X125471904Y-84911666D01*
X125424285Y-84816428D01*
X125376666Y-84768809D01*
X125281428Y-84721190D01*
X125090952Y-84673571D01*
X124995714Y-84625952D01*
X124948095Y-84578333D01*
X124900476Y-84483095D01*
X124900476Y-84387857D01*
X124948095Y-84292619D01*
X124995714Y-84245000D01*
X125090952Y-84197380D01*
X125329047Y-84197380D01*
X125471904Y-84245000D01*
X125805238Y-84197380D02*
X126043333Y-85197380D01*
X126233809Y-84483095D01*
X126424285Y-85197380D01*
X126662380Y-84197380D01*
X127567142Y-85197380D02*
X126995714Y-85197380D01*
X127281428Y-85197380D02*
X127281428Y-84197380D01*
X127186190Y-84340238D01*
X127090952Y-84435476D01*
X126995714Y-84483095D01*
X127900476Y-84197380D02*
X128567142Y-84197380D01*
X128138571Y-85197380D01*
%TO.C,SW16*%
X105900476Y-85149761D02*
X106043333Y-85197380D01*
X106281428Y-85197380D01*
X106376666Y-85149761D01*
X106424285Y-85102142D01*
X106471904Y-85006904D01*
X106471904Y-84911666D01*
X106424285Y-84816428D01*
X106376666Y-84768809D01*
X106281428Y-84721190D01*
X106090952Y-84673571D01*
X105995714Y-84625952D01*
X105948095Y-84578333D01*
X105900476Y-84483095D01*
X105900476Y-84387857D01*
X105948095Y-84292619D01*
X105995714Y-84245000D01*
X106090952Y-84197380D01*
X106329047Y-84197380D01*
X106471904Y-84245000D01*
X106805238Y-84197380D02*
X107043333Y-85197380D01*
X107233809Y-84483095D01*
X107424285Y-85197380D01*
X107662380Y-84197380D01*
X108567142Y-85197380D02*
X107995714Y-85197380D01*
X108281428Y-85197380D02*
X108281428Y-84197380D01*
X108186190Y-84340238D01*
X108090952Y-84435476D01*
X107995714Y-84483095D01*
X109424285Y-84197380D02*
X109233809Y-84197380D01*
X109138571Y-84245000D01*
X109090952Y-84292619D01*
X108995714Y-84435476D01*
X108948095Y-84625952D01*
X108948095Y-85006904D01*
X108995714Y-85102142D01*
X109043333Y-85149761D01*
X109138571Y-85197380D01*
X109329047Y-85197380D01*
X109424285Y-85149761D01*
X109471904Y-85102142D01*
X109519523Y-85006904D01*
X109519523Y-84768809D01*
X109471904Y-84673571D01*
X109424285Y-84625952D01*
X109329047Y-84578333D01*
X109138571Y-84578333D01*
X109043333Y-84625952D01*
X108995714Y-84673571D01*
X108948095Y-84768809D01*
%TO.C,SW15*%
X86900476Y-85149761D02*
X87043333Y-85197380D01*
X87281428Y-85197380D01*
X87376666Y-85149761D01*
X87424285Y-85102142D01*
X87471904Y-85006904D01*
X87471904Y-84911666D01*
X87424285Y-84816428D01*
X87376666Y-84768809D01*
X87281428Y-84721190D01*
X87090952Y-84673571D01*
X86995714Y-84625952D01*
X86948095Y-84578333D01*
X86900476Y-84483095D01*
X86900476Y-84387857D01*
X86948095Y-84292619D01*
X86995714Y-84245000D01*
X87090952Y-84197380D01*
X87329047Y-84197380D01*
X87471904Y-84245000D01*
X87805238Y-84197380D02*
X88043333Y-85197380D01*
X88233809Y-84483095D01*
X88424285Y-85197380D01*
X88662380Y-84197380D01*
X89567142Y-85197380D02*
X88995714Y-85197380D01*
X89281428Y-85197380D02*
X89281428Y-84197380D01*
X89186190Y-84340238D01*
X89090952Y-84435476D01*
X88995714Y-84483095D01*
X90471904Y-84197380D02*
X89995714Y-84197380D01*
X89948095Y-84673571D01*
X89995714Y-84625952D01*
X90090952Y-84578333D01*
X90329047Y-84578333D01*
X90424285Y-84625952D01*
X90471904Y-84673571D01*
X90519523Y-84768809D01*
X90519523Y-85006904D01*
X90471904Y-85102142D01*
X90424285Y-85149761D01*
X90329047Y-85197380D01*
X90090952Y-85197380D01*
X89995714Y-85149761D01*
X89948095Y-85102142D01*
%TO.C,SW14*%
X67900476Y-85149761D02*
X68043333Y-85197380D01*
X68281428Y-85197380D01*
X68376666Y-85149761D01*
X68424285Y-85102142D01*
X68471904Y-85006904D01*
X68471904Y-84911666D01*
X68424285Y-84816428D01*
X68376666Y-84768809D01*
X68281428Y-84721190D01*
X68090952Y-84673571D01*
X67995714Y-84625952D01*
X67948095Y-84578333D01*
X67900476Y-84483095D01*
X67900476Y-84387857D01*
X67948095Y-84292619D01*
X67995714Y-84245000D01*
X68090952Y-84197380D01*
X68329047Y-84197380D01*
X68471904Y-84245000D01*
X68805238Y-84197380D02*
X69043333Y-85197380D01*
X69233809Y-84483095D01*
X69424285Y-85197380D01*
X69662380Y-84197380D01*
X70567142Y-85197380D02*
X69995714Y-85197380D01*
X70281428Y-85197380D02*
X70281428Y-84197380D01*
X70186190Y-84340238D01*
X70090952Y-84435476D01*
X69995714Y-84483095D01*
X71424285Y-84530714D02*
X71424285Y-85197380D01*
X71186190Y-84149761D02*
X70948095Y-84864047D01*
X71567142Y-84864047D01*
%TO.C,SW13*%
X48900476Y-85149761D02*
X49043333Y-85197380D01*
X49281428Y-85197380D01*
X49376666Y-85149761D01*
X49424285Y-85102142D01*
X49471904Y-85006904D01*
X49471904Y-84911666D01*
X49424285Y-84816428D01*
X49376666Y-84768809D01*
X49281428Y-84721190D01*
X49090952Y-84673571D01*
X48995714Y-84625952D01*
X48948095Y-84578333D01*
X48900476Y-84483095D01*
X48900476Y-84387857D01*
X48948095Y-84292619D01*
X48995714Y-84245000D01*
X49090952Y-84197380D01*
X49329047Y-84197380D01*
X49471904Y-84245000D01*
X49805238Y-84197380D02*
X50043333Y-85197380D01*
X50233809Y-84483095D01*
X50424285Y-85197380D01*
X50662380Y-84197380D01*
X51567142Y-85197380D02*
X50995714Y-85197380D01*
X51281428Y-85197380D02*
X51281428Y-84197380D01*
X51186190Y-84340238D01*
X51090952Y-84435476D01*
X50995714Y-84483095D01*
X51900476Y-84197380D02*
X52519523Y-84197380D01*
X52186190Y-84578333D01*
X52329047Y-84578333D01*
X52424285Y-84625952D01*
X52471904Y-84673571D01*
X52519523Y-84768809D01*
X52519523Y-85006904D01*
X52471904Y-85102142D01*
X52424285Y-85149761D01*
X52329047Y-85197380D01*
X52043333Y-85197380D01*
X51948095Y-85149761D01*
X51900476Y-85102142D01*
%TO.C,SW12*%
X262650476Y-66149761D02*
X262793333Y-66197380D01*
X263031428Y-66197380D01*
X263126666Y-66149761D01*
X263174285Y-66102142D01*
X263221904Y-66006904D01*
X263221904Y-65911666D01*
X263174285Y-65816428D01*
X263126666Y-65768809D01*
X263031428Y-65721190D01*
X262840952Y-65673571D01*
X262745714Y-65625952D01*
X262698095Y-65578333D01*
X262650476Y-65483095D01*
X262650476Y-65387857D01*
X262698095Y-65292619D01*
X262745714Y-65245000D01*
X262840952Y-65197380D01*
X263079047Y-65197380D01*
X263221904Y-65245000D01*
X263555238Y-65197380D02*
X263793333Y-66197380D01*
X263983809Y-65483095D01*
X264174285Y-66197380D01*
X264412380Y-65197380D01*
X265317142Y-66197380D02*
X264745714Y-66197380D01*
X265031428Y-66197380D02*
X265031428Y-65197380D01*
X264936190Y-65340238D01*
X264840952Y-65435476D01*
X264745714Y-65483095D01*
X265698095Y-65292619D02*
X265745714Y-65245000D01*
X265840952Y-65197380D01*
X266079047Y-65197380D01*
X266174285Y-65245000D01*
X266221904Y-65292619D01*
X266269523Y-65387857D01*
X266269523Y-65483095D01*
X266221904Y-65625952D01*
X265650476Y-66197380D01*
X266269523Y-66197380D01*
%TO.C,SW11*%
X243650476Y-66149761D02*
X243793333Y-66197380D01*
X244031428Y-66197380D01*
X244126666Y-66149761D01*
X244174285Y-66102142D01*
X244221904Y-66006904D01*
X244221904Y-65911666D01*
X244174285Y-65816428D01*
X244126666Y-65768809D01*
X244031428Y-65721190D01*
X243840952Y-65673571D01*
X243745714Y-65625952D01*
X243698095Y-65578333D01*
X243650476Y-65483095D01*
X243650476Y-65387857D01*
X243698095Y-65292619D01*
X243745714Y-65245000D01*
X243840952Y-65197380D01*
X244079047Y-65197380D01*
X244221904Y-65245000D01*
X244555238Y-65197380D02*
X244793333Y-66197380D01*
X244983809Y-65483095D01*
X245174285Y-66197380D01*
X245412380Y-65197380D01*
X246317142Y-66197380D02*
X245745714Y-66197380D01*
X246031428Y-66197380D02*
X246031428Y-65197380D01*
X245936190Y-65340238D01*
X245840952Y-65435476D01*
X245745714Y-65483095D01*
X247269523Y-66197380D02*
X246698095Y-66197380D01*
X246983809Y-66197380D02*
X246983809Y-65197380D01*
X246888571Y-65340238D01*
X246793333Y-65435476D01*
X246698095Y-65483095D01*
%TO.C,SW10*%
X224650476Y-66149761D02*
X224793333Y-66197380D01*
X225031428Y-66197380D01*
X225126666Y-66149761D01*
X225174285Y-66102142D01*
X225221904Y-66006904D01*
X225221904Y-65911666D01*
X225174285Y-65816428D01*
X225126666Y-65768809D01*
X225031428Y-65721190D01*
X224840952Y-65673571D01*
X224745714Y-65625952D01*
X224698095Y-65578333D01*
X224650476Y-65483095D01*
X224650476Y-65387857D01*
X224698095Y-65292619D01*
X224745714Y-65245000D01*
X224840952Y-65197380D01*
X225079047Y-65197380D01*
X225221904Y-65245000D01*
X225555238Y-65197380D02*
X225793333Y-66197380D01*
X225983809Y-65483095D01*
X226174285Y-66197380D01*
X226412380Y-65197380D01*
X227317142Y-66197380D02*
X226745714Y-66197380D01*
X227031428Y-66197380D02*
X227031428Y-65197380D01*
X226936190Y-65340238D01*
X226840952Y-65435476D01*
X226745714Y-65483095D01*
X227936190Y-65197380D02*
X228031428Y-65197380D01*
X228126666Y-65245000D01*
X228174285Y-65292619D01*
X228221904Y-65387857D01*
X228269523Y-65578333D01*
X228269523Y-65816428D01*
X228221904Y-66006904D01*
X228174285Y-66102142D01*
X228126666Y-66149761D01*
X228031428Y-66197380D01*
X227936190Y-66197380D01*
X227840952Y-66149761D01*
X227793333Y-66102142D01*
X227745714Y-66006904D01*
X227698095Y-65816428D01*
X227698095Y-65578333D01*
X227745714Y-65387857D01*
X227793333Y-65292619D01*
X227840952Y-65245000D01*
X227936190Y-65197380D01*
%TO.C,SW9*%
X206126666Y-66149761D02*
X206269523Y-66197380D01*
X206507619Y-66197380D01*
X206602857Y-66149761D01*
X206650476Y-66102142D01*
X206698095Y-66006904D01*
X206698095Y-65911666D01*
X206650476Y-65816428D01*
X206602857Y-65768809D01*
X206507619Y-65721190D01*
X206317142Y-65673571D01*
X206221904Y-65625952D01*
X206174285Y-65578333D01*
X206126666Y-65483095D01*
X206126666Y-65387857D01*
X206174285Y-65292619D01*
X206221904Y-65245000D01*
X206317142Y-65197380D01*
X206555238Y-65197380D01*
X206698095Y-65245000D01*
X207031428Y-65197380D02*
X207269523Y-66197380D01*
X207460000Y-65483095D01*
X207650476Y-66197380D01*
X207888571Y-65197380D01*
X208317142Y-66197380D02*
X208507619Y-66197380D01*
X208602857Y-66149761D01*
X208650476Y-66102142D01*
X208745714Y-65959285D01*
X208793333Y-65768809D01*
X208793333Y-65387857D01*
X208745714Y-65292619D01*
X208698095Y-65245000D01*
X208602857Y-65197380D01*
X208412380Y-65197380D01*
X208317142Y-65245000D01*
X208269523Y-65292619D01*
X208221904Y-65387857D01*
X208221904Y-65625952D01*
X208269523Y-65721190D01*
X208317142Y-65768809D01*
X208412380Y-65816428D01*
X208602857Y-65816428D01*
X208698095Y-65768809D01*
X208745714Y-65721190D01*
X208793333Y-65625952D01*
%TO.C,SW8*%
X187126666Y-66149761D02*
X187269523Y-66197380D01*
X187507619Y-66197380D01*
X187602857Y-66149761D01*
X187650476Y-66102142D01*
X187698095Y-66006904D01*
X187698095Y-65911666D01*
X187650476Y-65816428D01*
X187602857Y-65768809D01*
X187507619Y-65721190D01*
X187317142Y-65673571D01*
X187221904Y-65625952D01*
X187174285Y-65578333D01*
X187126666Y-65483095D01*
X187126666Y-65387857D01*
X187174285Y-65292619D01*
X187221904Y-65245000D01*
X187317142Y-65197380D01*
X187555238Y-65197380D01*
X187698095Y-65245000D01*
X188031428Y-65197380D02*
X188269523Y-66197380D01*
X188460000Y-65483095D01*
X188650476Y-66197380D01*
X188888571Y-65197380D01*
X189412380Y-65625952D02*
X189317142Y-65578333D01*
X189269523Y-65530714D01*
X189221904Y-65435476D01*
X189221904Y-65387857D01*
X189269523Y-65292619D01*
X189317142Y-65245000D01*
X189412380Y-65197380D01*
X189602857Y-65197380D01*
X189698095Y-65245000D01*
X189745714Y-65292619D01*
X189793333Y-65387857D01*
X189793333Y-65435476D01*
X189745714Y-65530714D01*
X189698095Y-65578333D01*
X189602857Y-65625952D01*
X189412380Y-65625952D01*
X189317142Y-65673571D01*
X189269523Y-65721190D01*
X189221904Y-65816428D01*
X189221904Y-66006904D01*
X189269523Y-66102142D01*
X189317142Y-66149761D01*
X189412380Y-66197380D01*
X189602857Y-66197380D01*
X189698095Y-66149761D01*
X189745714Y-66102142D01*
X189793333Y-66006904D01*
X189793333Y-65816428D01*
X189745714Y-65721190D01*
X189698095Y-65673571D01*
X189602857Y-65625952D01*
%TO.C,SW7*%
X168126666Y-66149761D02*
X168269523Y-66197380D01*
X168507619Y-66197380D01*
X168602857Y-66149761D01*
X168650476Y-66102142D01*
X168698095Y-66006904D01*
X168698095Y-65911666D01*
X168650476Y-65816428D01*
X168602857Y-65768809D01*
X168507619Y-65721190D01*
X168317142Y-65673571D01*
X168221904Y-65625952D01*
X168174285Y-65578333D01*
X168126666Y-65483095D01*
X168126666Y-65387857D01*
X168174285Y-65292619D01*
X168221904Y-65245000D01*
X168317142Y-65197380D01*
X168555238Y-65197380D01*
X168698095Y-65245000D01*
X169031428Y-65197380D02*
X169269523Y-66197380D01*
X169460000Y-65483095D01*
X169650476Y-66197380D01*
X169888571Y-65197380D01*
X170174285Y-65197380D02*
X170840952Y-65197380D01*
X170412380Y-66197380D01*
%TO.C,SW6*%
X149126666Y-66149761D02*
X149269523Y-66197380D01*
X149507619Y-66197380D01*
X149602857Y-66149761D01*
X149650476Y-66102142D01*
X149698095Y-66006904D01*
X149698095Y-65911666D01*
X149650476Y-65816428D01*
X149602857Y-65768809D01*
X149507619Y-65721190D01*
X149317142Y-65673571D01*
X149221904Y-65625952D01*
X149174285Y-65578333D01*
X149126666Y-65483095D01*
X149126666Y-65387857D01*
X149174285Y-65292619D01*
X149221904Y-65245000D01*
X149317142Y-65197380D01*
X149555238Y-65197380D01*
X149698095Y-65245000D01*
X150031428Y-65197380D02*
X150269523Y-66197380D01*
X150460000Y-65483095D01*
X150650476Y-66197380D01*
X150888571Y-65197380D01*
X151698095Y-65197380D02*
X151507619Y-65197380D01*
X151412380Y-65245000D01*
X151364761Y-65292619D01*
X151269523Y-65435476D01*
X151221904Y-65625952D01*
X151221904Y-66006904D01*
X151269523Y-66102142D01*
X151317142Y-66149761D01*
X151412380Y-66197380D01*
X151602857Y-66197380D01*
X151698095Y-66149761D01*
X151745714Y-66102142D01*
X151793333Y-66006904D01*
X151793333Y-65768809D01*
X151745714Y-65673571D01*
X151698095Y-65625952D01*
X151602857Y-65578333D01*
X151412380Y-65578333D01*
X151317142Y-65625952D01*
X151269523Y-65673571D01*
X151221904Y-65768809D01*
%TO.C,SW5*%
X130126666Y-66149761D02*
X130269523Y-66197380D01*
X130507619Y-66197380D01*
X130602857Y-66149761D01*
X130650476Y-66102142D01*
X130698095Y-66006904D01*
X130698095Y-65911666D01*
X130650476Y-65816428D01*
X130602857Y-65768809D01*
X130507619Y-65721190D01*
X130317142Y-65673571D01*
X130221904Y-65625952D01*
X130174285Y-65578333D01*
X130126666Y-65483095D01*
X130126666Y-65387857D01*
X130174285Y-65292619D01*
X130221904Y-65245000D01*
X130317142Y-65197380D01*
X130555238Y-65197380D01*
X130698095Y-65245000D01*
X131031428Y-65197380D02*
X131269523Y-66197380D01*
X131460000Y-65483095D01*
X131650476Y-66197380D01*
X131888571Y-65197380D01*
X132745714Y-65197380D02*
X132269523Y-65197380D01*
X132221904Y-65673571D01*
X132269523Y-65625952D01*
X132364761Y-65578333D01*
X132602857Y-65578333D01*
X132698095Y-65625952D01*
X132745714Y-65673571D01*
X132793333Y-65768809D01*
X132793333Y-66006904D01*
X132745714Y-66102142D01*
X132698095Y-66149761D01*
X132602857Y-66197380D01*
X132364761Y-66197380D01*
X132269523Y-66149761D01*
X132221904Y-66102142D01*
%TO.C,SW4*%
X111126666Y-66149761D02*
X111269523Y-66197380D01*
X111507619Y-66197380D01*
X111602857Y-66149761D01*
X111650476Y-66102142D01*
X111698095Y-66006904D01*
X111698095Y-65911666D01*
X111650476Y-65816428D01*
X111602857Y-65768809D01*
X111507619Y-65721190D01*
X111317142Y-65673571D01*
X111221904Y-65625952D01*
X111174285Y-65578333D01*
X111126666Y-65483095D01*
X111126666Y-65387857D01*
X111174285Y-65292619D01*
X111221904Y-65245000D01*
X111317142Y-65197380D01*
X111555238Y-65197380D01*
X111698095Y-65245000D01*
X112031428Y-65197380D02*
X112269523Y-66197380D01*
X112460000Y-65483095D01*
X112650476Y-66197380D01*
X112888571Y-65197380D01*
X113698095Y-65530714D02*
X113698095Y-66197380D01*
X113460000Y-65149761D02*
X113221904Y-65864047D01*
X113840952Y-65864047D01*
%TO.C,SW3*%
X92126666Y-66149761D02*
X92269523Y-66197380D01*
X92507619Y-66197380D01*
X92602857Y-66149761D01*
X92650476Y-66102142D01*
X92698095Y-66006904D01*
X92698095Y-65911666D01*
X92650476Y-65816428D01*
X92602857Y-65768809D01*
X92507619Y-65721190D01*
X92317142Y-65673571D01*
X92221904Y-65625952D01*
X92174285Y-65578333D01*
X92126666Y-65483095D01*
X92126666Y-65387857D01*
X92174285Y-65292619D01*
X92221904Y-65245000D01*
X92317142Y-65197380D01*
X92555238Y-65197380D01*
X92698095Y-65245000D01*
X93031428Y-65197380D02*
X93269523Y-66197380D01*
X93460000Y-65483095D01*
X93650476Y-66197380D01*
X93888571Y-65197380D01*
X94174285Y-65197380D02*
X94793333Y-65197380D01*
X94460000Y-65578333D01*
X94602857Y-65578333D01*
X94698095Y-65625952D01*
X94745714Y-65673571D01*
X94793333Y-65768809D01*
X94793333Y-66006904D01*
X94745714Y-66102142D01*
X94698095Y-66149761D01*
X94602857Y-66197380D01*
X94317142Y-66197380D01*
X94221904Y-66149761D01*
X94174285Y-66102142D01*
%TO.C,SW2*%
X73126666Y-66149761D02*
X73269523Y-66197380D01*
X73507619Y-66197380D01*
X73602857Y-66149761D01*
X73650476Y-66102142D01*
X73698095Y-66006904D01*
X73698095Y-65911666D01*
X73650476Y-65816428D01*
X73602857Y-65768809D01*
X73507619Y-65721190D01*
X73317142Y-65673571D01*
X73221904Y-65625952D01*
X73174285Y-65578333D01*
X73126666Y-65483095D01*
X73126666Y-65387857D01*
X73174285Y-65292619D01*
X73221904Y-65245000D01*
X73317142Y-65197380D01*
X73555238Y-65197380D01*
X73698095Y-65245000D01*
X74031428Y-65197380D02*
X74269523Y-66197380D01*
X74460000Y-65483095D01*
X74650476Y-66197380D01*
X74888571Y-65197380D01*
X75221904Y-65292619D02*
X75269523Y-65245000D01*
X75364761Y-65197380D01*
X75602857Y-65197380D01*
X75698095Y-65245000D01*
X75745714Y-65292619D01*
X75793333Y-65387857D01*
X75793333Y-65483095D01*
X75745714Y-65625952D01*
X75174285Y-66197380D01*
X75793333Y-66197380D01*
%TO.C,SW1*%
X54126666Y-66149761D02*
X54269523Y-66197380D01*
X54507619Y-66197380D01*
X54602857Y-66149761D01*
X54650476Y-66102142D01*
X54698095Y-66006904D01*
X54698095Y-65911666D01*
X54650476Y-65816428D01*
X54602857Y-65768809D01*
X54507619Y-65721190D01*
X54317142Y-65673571D01*
X54221904Y-65625952D01*
X54174285Y-65578333D01*
X54126666Y-65483095D01*
X54126666Y-65387857D01*
X54174285Y-65292619D01*
X54221904Y-65245000D01*
X54317142Y-65197380D01*
X54555238Y-65197380D01*
X54698095Y-65245000D01*
X55031428Y-65197380D02*
X55269523Y-66197380D01*
X55460000Y-65483095D01*
X55650476Y-66197380D01*
X55888571Y-65197380D01*
X56793333Y-66197380D02*
X56221904Y-66197380D01*
X56507619Y-66197380D02*
X56507619Y-65197380D01*
X56412380Y-65340238D01*
X56317142Y-65435476D01*
X56221904Y-65483095D01*
%TO.C,D48*%
X257412380Y-129839285D02*
X256412380Y-129839285D01*
X256412380Y-129601190D01*
X256460000Y-129458333D01*
X256555238Y-129363095D01*
X256650476Y-129315476D01*
X256840952Y-129267857D01*
X256983809Y-129267857D01*
X257174285Y-129315476D01*
X257269523Y-129363095D01*
X257364761Y-129458333D01*
X257412380Y-129601190D01*
X257412380Y-129839285D01*
X256745714Y-128410714D02*
X257412380Y-128410714D01*
X256364761Y-128648809D02*
X257079047Y-128886904D01*
X257079047Y-128267857D01*
X256840952Y-127744047D02*
X256793333Y-127839285D01*
X256745714Y-127886904D01*
X256650476Y-127934523D01*
X256602857Y-127934523D01*
X256507619Y-127886904D01*
X256460000Y-127839285D01*
X256412380Y-127744047D01*
X256412380Y-127553571D01*
X256460000Y-127458333D01*
X256507619Y-127410714D01*
X256602857Y-127363095D01*
X256650476Y-127363095D01*
X256745714Y-127410714D01*
X256793333Y-127458333D01*
X256840952Y-127553571D01*
X256840952Y-127744047D01*
X256888571Y-127839285D01*
X256936190Y-127886904D01*
X257031428Y-127934523D01*
X257221904Y-127934523D01*
X257317142Y-127886904D01*
X257364761Y-127839285D01*
X257412380Y-127744047D01*
X257412380Y-127553571D01*
X257364761Y-127458333D01*
X257317142Y-127410714D01*
X257221904Y-127363095D01*
X257031428Y-127363095D01*
X256936190Y-127410714D01*
X256888571Y-127458333D01*
X256840952Y-127553571D01*
%TO.C,D47*%
X238412380Y-129839285D02*
X237412380Y-129839285D01*
X237412380Y-129601190D01*
X237460000Y-129458333D01*
X237555238Y-129363095D01*
X237650476Y-129315476D01*
X237840952Y-129267857D01*
X237983809Y-129267857D01*
X238174285Y-129315476D01*
X238269523Y-129363095D01*
X238364761Y-129458333D01*
X238412380Y-129601190D01*
X238412380Y-129839285D01*
X237745714Y-128410714D02*
X238412380Y-128410714D01*
X237364761Y-128648809D02*
X238079047Y-128886904D01*
X238079047Y-128267857D01*
X237412380Y-127982142D02*
X237412380Y-127315476D01*
X238412380Y-127744047D01*
%TO.C,D46*%
X219412380Y-129839285D02*
X218412380Y-129839285D01*
X218412380Y-129601190D01*
X218460000Y-129458333D01*
X218555238Y-129363095D01*
X218650476Y-129315476D01*
X218840952Y-129267857D01*
X218983809Y-129267857D01*
X219174285Y-129315476D01*
X219269523Y-129363095D01*
X219364761Y-129458333D01*
X219412380Y-129601190D01*
X219412380Y-129839285D01*
X218745714Y-128410714D02*
X219412380Y-128410714D01*
X218364761Y-128648809D02*
X219079047Y-128886904D01*
X219079047Y-128267857D01*
X218412380Y-127458333D02*
X218412380Y-127648809D01*
X218460000Y-127744047D01*
X218507619Y-127791666D01*
X218650476Y-127886904D01*
X218840952Y-127934523D01*
X219221904Y-127934523D01*
X219317142Y-127886904D01*
X219364761Y-127839285D01*
X219412380Y-127744047D01*
X219412380Y-127553571D01*
X219364761Y-127458333D01*
X219317142Y-127410714D01*
X219221904Y-127363095D01*
X218983809Y-127363095D01*
X218888571Y-127410714D01*
X218840952Y-127458333D01*
X218793333Y-127553571D01*
X218793333Y-127744047D01*
X218840952Y-127839285D01*
X218888571Y-127886904D01*
X218983809Y-127934523D01*
%TO.C,D45*%
X200412380Y-129839285D02*
X199412380Y-129839285D01*
X199412380Y-129601190D01*
X199460000Y-129458333D01*
X199555238Y-129363095D01*
X199650476Y-129315476D01*
X199840952Y-129267857D01*
X199983809Y-129267857D01*
X200174285Y-129315476D01*
X200269523Y-129363095D01*
X200364761Y-129458333D01*
X200412380Y-129601190D01*
X200412380Y-129839285D01*
X199745714Y-128410714D02*
X200412380Y-128410714D01*
X199364761Y-128648809D02*
X200079047Y-128886904D01*
X200079047Y-128267857D01*
X199412380Y-127410714D02*
X199412380Y-127886904D01*
X199888571Y-127934523D01*
X199840952Y-127886904D01*
X199793333Y-127791666D01*
X199793333Y-127553571D01*
X199840952Y-127458333D01*
X199888571Y-127410714D01*
X199983809Y-127363095D01*
X200221904Y-127363095D01*
X200317142Y-127410714D01*
X200364761Y-127458333D01*
X200412380Y-127553571D01*
X200412380Y-127791666D01*
X200364761Y-127886904D01*
X200317142Y-127934523D01*
%TO.C,D44*%
X179037380Y-129839285D02*
X178037380Y-129839285D01*
X178037380Y-129601190D01*
X178085000Y-129458333D01*
X178180238Y-129363095D01*
X178275476Y-129315476D01*
X178465952Y-129267857D01*
X178608809Y-129267857D01*
X178799285Y-129315476D01*
X178894523Y-129363095D01*
X178989761Y-129458333D01*
X179037380Y-129601190D01*
X179037380Y-129839285D01*
X178370714Y-128410714D02*
X179037380Y-128410714D01*
X177989761Y-128648809D02*
X178704047Y-128886904D01*
X178704047Y-128267857D01*
X178370714Y-127458333D02*
X179037380Y-127458333D01*
X177989761Y-127696428D02*
X178704047Y-127934523D01*
X178704047Y-127315476D01*
%TO.C,D43*%
X152912380Y-129839285D02*
X151912380Y-129839285D01*
X151912380Y-129601190D01*
X151960000Y-129458333D01*
X152055238Y-129363095D01*
X152150476Y-129315476D01*
X152340952Y-129267857D01*
X152483809Y-129267857D01*
X152674285Y-129315476D01*
X152769523Y-129363095D01*
X152864761Y-129458333D01*
X152912380Y-129601190D01*
X152912380Y-129839285D01*
X152245714Y-128410714D02*
X152912380Y-128410714D01*
X151864761Y-128648809D02*
X152579047Y-128886904D01*
X152579047Y-128267857D01*
X151912380Y-127982142D02*
X151912380Y-127363095D01*
X152293333Y-127696428D01*
X152293333Y-127553571D01*
X152340952Y-127458333D01*
X152388571Y-127410714D01*
X152483809Y-127363095D01*
X152721904Y-127363095D01*
X152817142Y-127410714D01*
X152864761Y-127458333D01*
X152912380Y-127553571D01*
X152912380Y-127839285D01*
X152864761Y-127934523D01*
X152817142Y-127982142D01*
%TO.C,D42*%
X148912380Y-119564285D02*
X147912380Y-119564285D01*
X147912380Y-119326190D01*
X147960000Y-119183333D01*
X148055238Y-119088095D01*
X148150476Y-119040476D01*
X148340952Y-118992857D01*
X148483809Y-118992857D01*
X148674285Y-119040476D01*
X148769523Y-119088095D01*
X148864761Y-119183333D01*
X148912380Y-119326190D01*
X148912380Y-119564285D01*
X148245714Y-118135714D02*
X148912380Y-118135714D01*
X147864761Y-118373809D02*
X148579047Y-118611904D01*
X148579047Y-117992857D01*
X148007619Y-117659523D02*
X147960000Y-117611904D01*
X147912380Y-117516666D01*
X147912380Y-117278571D01*
X147960000Y-117183333D01*
X148007619Y-117135714D01*
X148102857Y-117088095D01*
X148198095Y-117088095D01*
X148340952Y-117135714D01*
X148912380Y-117707142D01*
X148912380Y-117088095D01*
%TO.C,D41*%
X124412380Y-129839285D02*
X123412380Y-129839285D01*
X123412380Y-129601190D01*
X123460000Y-129458333D01*
X123555238Y-129363095D01*
X123650476Y-129315476D01*
X123840952Y-129267857D01*
X123983809Y-129267857D01*
X124174285Y-129315476D01*
X124269523Y-129363095D01*
X124364761Y-129458333D01*
X124412380Y-129601190D01*
X124412380Y-129839285D01*
X123745714Y-128410714D02*
X124412380Y-128410714D01*
X123364761Y-128648809D02*
X124079047Y-128886904D01*
X124079047Y-128267857D01*
X124412380Y-127363095D02*
X124412380Y-127934523D01*
X124412380Y-127648809D02*
X123412380Y-127648809D01*
X123555238Y-127744047D01*
X123650476Y-127839285D01*
X123698095Y-127934523D01*
%TO.C,D40*%
X105412380Y-129839285D02*
X104412380Y-129839285D01*
X104412380Y-129601190D01*
X104460000Y-129458333D01*
X104555238Y-129363095D01*
X104650476Y-129315476D01*
X104840952Y-129267857D01*
X104983809Y-129267857D01*
X105174285Y-129315476D01*
X105269523Y-129363095D01*
X105364761Y-129458333D01*
X105412380Y-129601190D01*
X105412380Y-129839285D01*
X104745714Y-128410714D02*
X105412380Y-128410714D01*
X104364761Y-128648809D02*
X105079047Y-128886904D01*
X105079047Y-128267857D01*
X104412380Y-127696428D02*
X104412380Y-127601190D01*
X104460000Y-127505952D01*
X104507619Y-127458333D01*
X104602857Y-127410714D01*
X104793333Y-127363095D01*
X105031428Y-127363095D01*
X105221904Y-127410714D01*
X105317142Y-127458333D01*
X105364761Y-127505952D01*
X105412380Y-127601190D01*
X105412380Y-127696428D01*
X105364761Y-127791666D01*
X105317142Y-127839285D01*
X105221904Y-127886904D01*
X105031428Y-127934523D01*
X104793333Y-127934523D01*
X104602857Y-127886904D01*
X104507619Y-127839285D01*
X104460000Y-127791666D01*
X104412380Y-127696428D01*
%TO.C,D39*%
X86412380Y-129839285D02*
X85412380Y-129839285D01*
X85412380Y-129601190D01*
X85460000Y-129458333D01*
X85555238Y-129363095D01*
X85650476Y-129315476D01*
X85840952Y-129267857D01*
X85983809Y-129267857D01*
X86174285Y-129315476D01*
X86269523Y-129363095D01*
X86364761Y-129458333D01*
X86412380Y-129601190D01*
X86412380Y-129839285D01*
X85412380Y-128934523D02*
X85412380Y-128315476D01*
X85793333Y-128648809D01*
X85793333Y-128505952D01*
X85840952Y-128410714D01*
X85888571Y-128363095D01*
X85983809Y-128315476D01*
X86221904Y-128315476D01*
X86317142Y-128363095D01*
X86364761Y-128410714D01*
X86412380Y-128505952D01*
X86412380Y-128791666D01*
X86364761Y-128886904D01*
X86317142Y-128934523D01*
X86412380Y-127839285D02*
X86412380Y-127648809D01*
X86364761Y-127553571D01*
X86317142Y-127505952D01*
X86174285Y-127410714D01*
X85983809Y-127363095D01*
X85602857Y-127363095D01*
X85507619Y-127410714D01*
X85460000Y-127458333D01*
X85412380Y-127553571D01*
X85412380Y-127744047D01*
X85460000Y-127839285D01*
X85507619Y-127886904D01*
X85602857Y-127934523D01*
X85840952Y-127934523D01*
X85936190Y-127886904D01*
X85983809Y-127839285D01*
X86031428Y-127744047D01*
X86031428Y-127553571D01*
X85983809Y-127458333D01*
X85936190Y-127410714D01*
X85840952Y-127363095D01*
%TO.C,D38*%
X67412380Y-129839285D02*
X66412380Y-129839285D01*
X66412380Y-129601190D01*
X66460000Y-129458333D01*
X66555238Y-129363095D01*
X66650476Y-129315476D01*
X66840952Y-129267857D01*
X66983809Y-129267857D01*
X67174285Y-129315476D01*
X67269523Y-129363095D01*
X67364761Y-129458333D01*
X67412380Y-129601190D01*
X67412380Y-129839285D01*
X66412380Y-128934523D02*
X66412380Y-128315476D01*
X66793333Y-128648809D01*
X66793333Y-128505952D01*
X66840952Y-128410714D01*
X66888571Y-128363095D01*
X66983809Y-128315476D01*
X67221904Y-128315476D01*
X67317142Y-128363095D01*
X67364761Y-128410714D01*
X67412380Y-128505952D01*
X67412380Y-128791666D01*
X67364761Y-128886904D01*
X67317142Y-128934523D01*
X66840952Y-127744047D02*
X66793333Y-127839285D01*
X66745714Y-127886904D01*
X66650476Y-127934523D01*
X66602857Y-127934523D01*
X66507619Y-127886904D01*
X66460000Y-127839285D01*
X66412380Y-127744047D01*
X66412380Y-127553571D01*
X66460000Y-127458333D01*
X66507619Y-127410714D01*
X66602857Y-127363095D01*
X66650476Y-127363095D01*
X66745714Y-127410714D01*
X66793333Y-127458333D01*
X66840952Y-127553571D01*
X66840952Y-127744047D01*
X66888571Y-127839285D01*
X66936190Y-127886904D01*
X67031428Y-127934523D01*
X67221904Y-127934523D01*
X67317142Y-127886904D01*
X67364761Y-127839285D01*
X67412380Y-127744047D01*
X67412380Y-127553571D01*
X67364761Y-127458333D01*
X67317142Y-127410714D01*
X67221904Y-127363095D01*
X67031428Y-127363095D01*
X66936190Y-127410714D01*
X66888571Y-127458333D01*
X66840952Y-127553571D01*
%TO.C,D37*%
X48412380Y-129839285D02*
X47412380Y-129839285D01*
X47412380Y-129601190D01*
X47460000Y-129458333D01*
X47555238Y-129363095D01*
X47650476Y-129315476D01*
X47840952Y-129267857D01*
X47983809Y-129267857D01*
X48174285Y-129315476D01*
X48269523Y-129363095D01*
X48364761Y-129458333D01*
X48412380Y-129601190D01*
X48412380Y-129839285D01*
X47412380Y-128934523D02*
X47412380Y-128315476D01*
X47793333Y-128648809D01*
X47793333Y-128505952D01*
X47840952Y-128410714D01*
X47888571Y-128363095D01*
X47983809Y-128315476D01*
X48221904Y-128315476D01*
X48317142Y-128363095D01*
X48364761Y-128410714D01*
X48412380Y-128505952D01*
X48412380Y-128791666D01*
X48364761Y-128886904D01*
X48317142Y-128934523D01*
X47412380Y-127982142D02*
X47412380Y-127315476D01*
X48412380Y-127744047D01*
%TO.C,D36*%
X266912380Y-110839285D02*
X265912380Y-110839285D01*
X265912380Y-110601190D01*
X265960000Y-110458333D01*
X266055238Y-110363095D01*
X266150476Y-110315476D01*
X266340952Y-110267857D01*
X266483809Y-110267857D01*
X266674285Y-110315476D01*
X266769523Y-110363095D01*
X266864761Y-110458333D01*
X266912380Y-110601190D01*
X266912380Y-110839285D01*
X265912380Y-109934523D02*
X265912380Y-109315476D01*
X266293333Y-109648809D01*
X266293333Y-109505952D01*
X266340952Y-109410714D01*
X266388571Y-109363095D01*
X266483809Y-109315476D01*
X266721904Y-109315476D01*
X266817142Y-109363095D01*
X266864761Y-109410714D01*
X266912380Y-109505952D01*
X266912380Y-109791666D01*
X266864761Y-109886904D01*
X266817142Y-109934523D01*
X265912380Y-108458333D02*
X265912380Y-108648809D01*
X265960000Y-108744047D01*
X266007619Y-108791666D01*
X266150476Y-108886904D01*
X266340952Y-108934523D01*
X266721904Y-108934523D01*
X266817142Y-108886904D01*
X266864761Y-108839285D01*
X266912380Y-108744047D01*
X266912380Y-108553571D01*
X266864761Y-108458333D01*
X266817142Y-108410714D01*
X266721904Y-108363095D01*
X266483809Y-108363095D01*
X266388571Y-108410714D01*
X266340952Y-108458333D01*
X266293333Y-108553571D01*
X266293333Y-108744047D01*
X266340952Y-108839285D01*
X266388571Y-108886904D01*
X266483809Y-108934523D01*
%TO.C,D35*%
X247912380Y-110839285D02*
X246912380Y-110839285D01*
X246912380Y-110601190D01*
X246960000Y-110458333D01*
X247055238Y-110363095D01*
X247150476Y-110315476D01*
X247340952Y-110267857D01*
X247483809Y-110267857D01*
X247674285Y-110315476D01*
X247769523Y-110363095D01*
X247864761Y-110458333D01*
X247912380Y-110601190D01*
X247912380Y-110839285D01*
X246912380Y-109934523D02*
X246912380Y-109315476D01*
X247293333Y-109648809D01*
X247293333Y-109505952D01*
X247340952Y-109410714D01*
X247388571Y-109363095D01*
X247483809Y-109315476D01*
X247721904Y-109315476D01*
X247817142Y-109363095D01*
X247864761Y-109410714D01*
X247912380Y-109505952D01*
X247912380Y-109791666D01*
X247864761Y-109886904D01*
X247817142Y-109934523D01*
X246912380Y-108410714D02*
X246912380Y-108886904D01*
X247388571Y-108934523D01*
X247340952Y-108886904D01*
X247293333Y-108791666D01*
X247293333Y-108553571D01*
X247340952Y-108458333D01*
X247388571Y-108410714D01*
X247483809Y-108363095D01*
X247721904Y-108363095D01*
X247817142Y-108410714D01*
X247864761Y-108458333D01*
X247912380Y-108553571D01*
X247912380Y-108791666D01*
X247864761Y-108886904D01*
X247817142Y-108934523D01*
%TO.C,D34*%
X228912380Y-110839285D02*
X227912380Y-110839285D01*
X227912380Y-110601190D01*
X227960000Y-110458333D01*
X228055238Y-110363095D01*
X228150476Y-110315476D01*
X228340952Y-110267857D01*
X228483809Y-110267857D01*
X228674285Y-110315476D01*
X228769523Y-110363095D01*
X228864761Y-110458333D01*
X228912380Y-110601190D01*
X228912380Y-110839285D01*
X227912380Y-109934523D02*
X227912380Y-109315476D01*
X228293333Y-109648809D01*
X228293333Y-109505952D01*
X228340952Y-109410714D01*
X228388571Y-109363095D01*
X228483809Y-109315476D01*
X228721904Y-109315476D01*
X228817142Y-109363095D01*
X228864761Y-109410714D01*
X228912380Y-109505952D01*
X228912380Y-109791666D01*
X228864761Y-109886904D01*
X228817142Y-109934523D01*
X228245714Y-108458333D02*
X228912380Y-108458333D01*
X227864761Y-108696428D02*
X228579047Y-108934523D01*
X228579047Y-108315476D01*
%TO.C,D33*%
X209912380Y-110839285D02*
X208912380Y-110839285D01*
X208912380Y-110601190D01*
X208960000Y-110458333D01*
X209055238Y-110363095D01*
X209150476Y-110315476D01*
X209340952Y-110267857D01*
X209483809Y-110267857D01*
X209674285Y-110315476D01*
X209769523Y-110363095D01*
X209864761Y-110458333D01*
X209912380Y-110601190D01*
X209912380Y-110839285D01*
X208912380Y-109934523D02*
X208912380Y-109315476D01*
X209293333Y-109648809D01*
X209293333Y-109505952D01*
X209340952Y-109410714D01*
X209388571Y-109363095D01*
X209483809Y-109315476D01*
X209721904Y-109315476D01*
X209817142Y-109363095D01*
X209864761Y-109410714D01*
X209912380Y-109505952D01*
X209912380Y-109791666D01*
X209864761Y-109886904D01*
X209817142Y-109934523D01*
X208912380Y-108982142D02*
X208912380Y-108363095D01*
X209293333Y-108696428D01*
X209293333Y-108553571D01*
X209340952Y-108458333D01*
X209388571Y-108410714D01*
X209483809Y-108363095D01*
X209721904Y-108363095D01*
X209817142Y-108410714D01*
X209864761Y-108458333D01*
X209912380Y-108553571D01*
X209912380Y-108839285D01*
X209864761Y-108934523D01*
X209817142Y-108982142D01*
%TO.C,D32*%
X190912380Y-110839285D02*
X189912380Y-110839285D01*
X189912380Y-110601190D01*
X189960000Y-110458333D01*
X190055238Y-110363095D01*
X190150476Y-110315476D01*
X190340952Y-110267857D01*
X190483809Y-110267857D01*
X190674285Y-110315476D01*
X190769523Y-110363095D01*
X190864761Y-110458333D01*
X190912380Y-110601190D01*
X190912380Y-110839285D01*
X189912380Y-109934523D02*
X189912380Y-109315476D01*
X190293333Y-109648809D01*
X190293333Y-109505952D01*
X190340952Y-109410714D01*
X190388571Y-109363095D01*
X190483809Y-109315476D01*
X190721904Y-109315476D01*
X190817142Y-109363095D01*
X190864761Y-109410714D01*
X190912380Y-109505952D01*
X190912380Y-109791666D01*
X190864761Y-109886904D01*
X190817142Y-109934523D01*
X190007619Y-108934523D02*
X189960000Y-108886904D01*
X189912380Y-108791666D01*
X189912380Y-108553571D01*
X189960000Y-108458333D01*
X190007619Y-108410714D01*
X190102857Y-108363095D01*
X190198095Y-108363095D01*
X190340952Y-108410714D01*
X190912380Y-108982142D01*
X190912380Y-108363095D01*
%TO.C,D31*%
X171912380Y-110839285D02*
X170912380Y-110839285D01*
X170912380Y-110601190D01*
X170960000Y-110458333D01*
X171055238Y-110363095D01*
X171150476Y-110315476D01*
X171340952Y-110267857D01*
X171483809Y-110267857D01*
X171674285Y-110315476D01*
X171769523Y-110363095D01*
X171864761Y-110458333D01*
X171912380Y-110601190D01*
X171912380Y-110839285D01*
X170912380Y-109934523D02*
X170912380Y-109315476D01*
X171293333Y-109648809D01*
X171293333Y-109505952D01*
X171340952Y-109410714D01*
X171388571Y-109363095D01*
X171483809Y-109315476D01*
X171721904Y-109315476D01*
X171817142Y-109363095D01*
X171864761Y-109410714D01*
X171912380Y-109505952D01*
X171912380Y-109791666D01*
X171864761Y-109886904D01*
X171817142Y-109934523D01*
X171912380Y-108363095D02*
X171912380Y-108934523D01*
X171912380Y-108648809D02*
X170912380Y-108648809D01*
X171055238Y-108744047D01*
X171150476Y-108839285D01*
X171198095Y-108934523D01*
%TO.C,D30*%
X133862380Y-110839285D02*
X132862380Y-110839285D01*
X132862380Y-110601190D01*
X132910000Y-110458333D01*
X133005238Y-110363095D01*
X133100476Y-110315476D01*
X133290952Y-110267857D01*
X133433809Y-110267857D01*
X133624285Y-110315476D01*
X133719523Y-110363095D01*
X133814761Y-110458333D01*
X133862380Y-110601190D01*
X133862380Y-110839285D01*
X132862380Y-109934523D02*
X132862380Y-109315476D01*
X133243333Y-109648809D01*
X133243333Y-109505952D01*
X133290952Y-109410714D01*
X133338571Y-109363095D01*
X133433809Y-109315476D01*
X133671904Y-109315476D01*
X133767142Y-109363095D01*
X133814761Y-109410714D01*
X133862380Y-109505952D01*
X133862380Y-109791666D01*
X133814761Y-109886904D01*
X133767142Y-109934523D01*
X132862380Y-108696428D02*
X132862380Y-108601190D01*
X132910000Y-108505952D01*
X132957619Y-108458333D01*
X133052857Y-108410714D01*
X133243333Y-108363095D01*
X133481428Y-108363095D01*
X133671904Y-108410714D01*
X133767142Y-108458333D01*
X133814761Y-108505952D01*
X133862380Y-108601190D01*
X133862380Y-108696428D01*
X133814761Y-108791666D01*
X133767142Y-108839285D01*
X133671904Y-108886904D01*
X133481428Y-108934523D01*
X133243333Y-108934523D01*
X133052857Y-108886904D01*
X132957619Y-108839285D01*
X132910000Y-108791666D01*
X132862380Y-108696428D01*
%TO.C,D29*%
X114862380Y-110839285D02*
X113862380Y-110839285D01*
X113862380Y-110601190D01*
X113910000Y-110458333D01*
X114005238Y-110363095D01*
X114100476Y-110315476D01*
X114290952Y-110267857D01*
X114433809Y-110267857D01*
X114624285Y-110315476D01*
X114719523Y-110363095D01*
X114814761Y-110458333D01*
X114862380Y-110601190D01*
X114862380Y-110839285D01*
X113957619Y-109886904D02*
X113910000Y-109839285D01*
X113862380Y-109744047D01*
X113862380Y-109505952D01*
X113910000Y-109410714D01*
X113957619Y-109363095D01*
X114052857Y-109315476D01*
X114148095Y-109315476D01*
X114290952Y-109363095D01*
X114862380Y-109934523D01*
X114862380Y-109315476D01*
X114862380Y-108839285D02*
X114862380Y-108648809D01*
X114814761Y-108553571D01*
X114767142Y-108505952D01*
X114624285Y-108410714D01*
X114433809Y-108363095D01*
X114052857Y-108363095D01*
X113957619Y-108410714D01*
X113910000Y-108458333D01*
X113862380Y-108553571D01*
X113862380Y-108744047D01*
X113910000Y-108839285D01*
X113957619Y-108886904D01*
X114052857Y-108934523D01*
X114290952Y-108934523D01*
X114386190Y-108886904D01*
X114433809Y-108839285D01*
X114481428Y-108744047D01*
X114481428Y-108553571D01*
X114433809Y-108458333D01*
X114386190Y-108410714D01*
X114290952Y-108363095D01*
%TO.C,D28*%
X95862380Y-110839285D02*
X94862380Y-110839285D01*
X94862380Y-110601190D01*
X94910000Y-110458333D01*
X95005238Y-110363095D01*
X95100476Y-110315476D01*
X95290952Y-110267857D01*
X95433809Y-110267857D01*
X95624285Y-110315476D01*
X95719523Y-110363095D01*
X95814761Y-110458333D01*
X95862380Y-110601190D01*
X95862380Y-110839285D01*
X94957619Y-109886904D02*
X94910000Y-109839285D01*
X94862380Y-109744047D01*
X94862380Y-109505952D01*
X94910000Y-109410714D01*
X94957619Y-109363095D01*
X95052857Y-109315476D01*
X95148095Y-109315476D01*
X95290952Y-109363095D01*
X95862380Y-109934523D01*
X95862380Y-109315476D01*
X95290952Y-108744047D02*
X95243333Y-108839285D01*
X95195714Y-108886904D01*
X95100476Y-108934523D01*
X95052857Y-108934523D01*
X94957619Y-108886904D01*
X94910000Y-108839285D01*
X94862380Y-108744047D01*
X94862380Y-108553571D01*
X94910000Y-108458333D01*
X94957619Y-108410714D01*
X95052857Y-108363095D01*
X95100476Y-108363095D01*
X95195714Y-108410714D01*
X95243333Y-108458333D01*
X95290952Y-108553571D01*
X95290952Y-108744047D01*
X95338571Y-108839285D01*
X95386190Y-108886904D01*
X95481428Y-108934523D01*
X95671904Y-108934523D01*
X95767142Y-108886904D01*
X95814761Y-108839285D01*
X95862380Y-108744047D01*
X95862380Y-108553571D01*
X95814761Y-108458333D01*
X95767142Y-108410714D01*
X95671904Y-108363095D01*
X95481428Y-108363095D01*
X95386190Y-108410714D01*
X95338571Y-108458333D01*
X95290952Y-108553571D01*
%TO.C,D27*%
X76862380Y-110839285D02*
X75862380Y-110839285D01*
X75862380Y-110601190D01*
X75910000Y-110458333D01*
X76005238Y-110363095D01*
X76100476Y-110315476D01*
X76290952Y-110267857D01*
X76433809Y-110267857D01*
X76624285Y-110315476D01*
X76719523Y-110363095D01*
X76814761Y-110458333D01*
X76862380Y-110601190D01*
X76862380Y-110839285D01*
X75957619Y-109886904D02*
X75910000Y-109839285D01*
X75862380Y-109744047D01*
X75862380Y-109505952D01*
X75910000Y-109410714D01*
X75957619Y-109363095D01*
X76052857Y-109315476D01*
X76148095Y-109315476D01*
X76290952Y-109363095D01*
X76862380Y-109934523D01*
X76862380Y-109315476D01*
X75862380Y-108982142D02*
X75862380Y-108315476D01*
X76862380Y-108744047D01*
%TO.C,D26*%
X57862380Y-110839285D02*
X56862380Y-110839285D01*
X56862380Y-110601190D01*
X56910000Y-110458333D01*
X57005238Y-110363095D01*
X57100476Y-110315476D01*
X57290952Y-110267857D01*
X57433809Y-110267857D01*
X57624285Y-110315476D01*
X57719523Y-110363095D01*
X57814761Y-110458333D01*
X57862380Y-110601190D01*
X57862380Y-110839285D01*
X56957619Y-109886904D02*
X56910000Y-109839285D01*
X56862380Y-109744047D01*
X56862380Y-109505952D01*
X56910000Y-109410714D01*
X56957619Y-109363095D01*
X57052857Y-109315476D01*
X57148095Y-109315476D01*
X57290952Y-109363095D01*
X57862380Y-109934523D01*
X57862380Y-109315476D01*
X56862380Y-108458333D02*
X56862380Y-108648809D01*
X56910000Y-108744047D01*
X56957619Y-108791666D01*
X57100476Y-108886904D01*
X57290952Y-108934523D01*
X57671904Y-108934523D01*
X57767142Y-108886904D01*
X57814761Y-108839285D01*
X57862380Y-108744047D01*
X57862380Y-108553571D01*
X57814761Y-108458333D01*
X57767142Y-108410714D01*
X57671904Y-108363095D01*
X57433809Y-108363095D01*
X57338571Y-108410714D01*
X57290952Y-108458333D01*
X57243333Y-108553571D01*
X57243333Y-108744047D01*
X57290952Y-108839285D01*
X57338571Y-108886904D01*
X57433809Y-108934523D01*
%TO.C,D25*%
X38862380Y-110839285D02*
X37862380Y-110839285D01*
X37862380Y-110601190D01*
X37910000Y-110458333D01*
X38005238Y-110363095D01*
X38100476Y-110315476D01*
X38290952Y-110267857D01*
X38433809Y-110267857D01*
X38624285Y-110315476D01*
X38719523Y-110363095D01*
X38814761Y-110458333D01*
X38862380Y-110601190D01*
X38862380Y-110839285D01*
X37957619Y-109886904D02*
X37910000Y-109839285D01*
X37862380Y-109744047D01*
X37862380Y-109505952D01*
X37910000Y-109410714D01*
X37957619Y-109363095D01*
X38052857Y-109315476D01*
X38148095Y-109315476D01*
X38290952Y-109363095D01*
X38862380Y-109934523D01*
X38862380Y-109315476D01*
X37862380Y-108410714D02*
X37862380Y-108886904D01*
X38338571Y-108934523D01*
X38290952Y-108886904D01*
X38243333Y-108791666D01*
X38243333Y-108553571D01*
X38290952Y-108458333D01*
X38338571Y-108410714D01*
X38433809Y-108363095D01*
X38671904Y-108363095D01*
X38767142Y-108410714D01*
X38814761Y-108458333D01*
X38862380Y-108553571D01*
X38862380Y-108791666D01*
X38814761Y-108886904D01*
X38767142Y-108934523D01*
%TO.C,D24*%
X262162380Y-90354285D02*
X261162380Y-90354285D01*
X261162380Y-90116190D01*
X261210000Y-89973333D01*
X261305238Y-89878095D01*
X261400476Y-89830476D01*
X261590952Y-89782857D01*
X261733809Y-89782857D01*
X261924285Y-89830476D01*
X262019523Y-89878095D01*
X262114761Y-89973333D01*
X262162380Y-90116190D01*
X262162380Y-90354285D01*
X261257619Y-89401904D02*
X261210000Y-89354285D01*
X261162380Y-89259047D01*
X261162380Y-89020952D01*
X261210000Y-88925714D01*
X261257619Y-88878095D01*
X261352857Y-88830476D01*
X261448095Y-88830476D01*
X261590952Y-88878095D01*
X262162380Y-89449523D01*
X262162380Y-88830476D01*
X261495714Y-87973333D02*
X262162380Y-87973333D01*
X261114761Y-88211428D02*
X261829047Y-88449523D01*
X261829047Y-87830476D01*
%TO.C,D23*%
X243162380Y-90354285D02*
X242162380Y-90354285D01*
X242162380Y-90116190D01*
X242210000Y-89973333D01*
X242305238Y-89878095D01*
X242400476Y-89830476D01*
X242590952Y-89782857D01*
X242733809Y-89782857D01*
X242924285Y-89830476D01*
X243019523Y-89878095D01*
X243114761Y-89973333D01*
X243162380Y-90116190D01*
X243162380Y-90354285D01*
X242257619Y-89401904D02*
X242210000Y-89354285D01*
X242162380Y-89259047D01*
X242162380Y-89020952D01*
X242210000Y-88925714D01*
X242257619Y-88878095D01*
X242352857Y-88830476D01*
X242448095Y-88830476D01*
X242590952Y-88878095D01*
X243162380Y-89449523D01*
X243162380Y-88830476D01*
X242162380Y-88497142D02*
X242162380Y-87878095D01*
X242543333Y-88211428D01*
X242543333Y-88068571D01*
X242590952Y-87973333D01*
X242638571Y-87925714D01*
X242733809Y-87878095D01*
X242971904Y-87878095D01*
X243067142Y-87925714D01*
X243114761Y-87973333D01*
X243162380Y-88068571D01*
X243162380Y-88354285D01*
X243114761Y-88449523D01*
X243067142Y-88497142D01*
%TO.C,D22*%
X224162380Y-90354285D02*
X223162380Y-90354285D01*
X223162380Y-90116190D01*
X223210000Y-89973333D01*
X223305238Y-89878095D01*
X223400476Y-89830476D01*
X223590952Y-89782857D01*
X223733809Y-89782857D01*
X223924285Y-89830476D01*
X224019523Y-89878095D01*
X224114761Y-89973333D01*
X224162380Y-90116190D01*
X224162380Y-90354285D01*
X223257619Y-89401904D02*
X223210000Y-89354285D01*
X223162380Y-89259047D01*
X223162380Y-89020952D01*
X223210000Y-88925714D01*
X223257619Y-88878095D01*
X223352857Y-88830476D01*
X223448095Y-88830476D01*
X223590952Y-88878095D01*
X224162380Y-89449523D01*
X224162380Y-88830476D01*
X223257619Y-88449523D02*
X223210000Y-88401904D01*
X223162380Y-88306666D01*
X223162380Y-88068571D01*
X223210000Y-87973333D01*
X223257619Y-87925714D01*
X223352857Y-87878095D01*
X223448095Y-87878095D01*
X223590952Y-87925714D01*
X224162380Y-88497142D01*
X224162380Y-87878095D01*
%TO.C,D21*%
X205162380Y-90354285D02*
X204162380Y-90354285D01*
X204162380Y-90116190D01*
X204210000Y-89973333D01*
X204305238Y-89878095D01*
X204400476Y-89830476D01*
X204590952Y-89782857D01*
X204733809Y-89782857D01*
X204924285Y-89830476D01*
X205019523Y-89878095D01*
X205114761Y-89973333D01*
X205162380Y-90116190D01*
X205162380Y-90354285D01*
X204257619Y-89401904D02*
X204210000Y-89354285D01*
X204162380Y-89259047D01*
X204162380Y-89020952D01*
X204210000Y-88925714D01*
X204257619Y-88878095D01*
X204352857Y-88830476D01*
X204448095Y-88830476D01*
X204590952Y-88878095D01*
X205162380Y-89449523D01*
X205162380Y-88830476D01*
X205162380Y-87878095D02*
X205162380Y-88449523D01*
X205162380Y-88163809D02*
X204162380Y-88163809D01*
X204305238Y-88259047D01*
X204400476Y-88354285D01*
X204448095Y-88449523D01*
%TO.C,D20*%
X186162380Y-90354285D02*
X185162380Y-90354285D01*
X185162380Y-90116190D01*
X185210000Y-89973333D01*
X185305238Y-89878095D01*
X185400476Y-89830476D01*
X185590952Y-89782857D01*
X185733809Y-89782857D01*
X185924285Y-89830476D01*
X186019523Y-89878095D01*
X186114761Y-89973333D01*
X186162380Y-90116190D01*
X186162380Y-90354285D01*
X185257619Y-89401904D02*
X185210000Y-89354285D01*
X185162380Y-89259047D01*
X185162380Y-89020952D01*
X185210000Y-88925714D01*
X185257619Y-88878095D01*
X185352857Y-88830476D01*
X185448095Y-88830476D01*
X185590952Y-88878095D01*
X186162380Y-89449523D01*
X186162380Y-88830476D01*
X185162380Y-88211428D02*
X185162380Y-88116190D01*
X185210000Y-88020952D01*
X185257619Y-87973333D01*
X185352857Y-87925714D01*
X185543333Y-87878095D01*
X185781428Y-87878095D01*
X185971904Y-87925714D01*
X186067142Y-87973333D01*
X186114761Y-88020952D01*
X186162380Y-88116190D01*
X186162380Y-88211428D01*
X186114761Y-88306666D01*
X186067142Y-88354285D01*
X185971904Y-88401904D01*
X185781428Y-88449523D01*
X185543333Y-88449523D01*
X185352857Y-88401904D01*
X185257619Y-88354285D01*
X185210000Y-88306666D01*
X185162380Y-88211428D01*
%TO.C,D19*%
X167162380Y-90354285D02*
X166162380Y-90354285D01*
X166162380Y-90116190D01*
X166210000Y-89973333D01*
X166305238Y-89878095D01*
X166400476Y-89830476D01*
X166590952Y-89782857D01*
X166733809Y-89782857D01*
X166924285Y-89830476D01*
X167019523Y-89878095D01*
X167114761Y-89973333D01*
X167162380Y-90116190D01*
X167162380Y-90354285D01*
X167162380Y-88830476D02*
X167162380Y-89401904D01*
X167162380Y-89116190D02*
X166162380Y-89116190D01*
X166305238Y-89211428D01*
X166400476Y-89306666D01*
X166448095Y-89401904D01*
X167162380Y-88354285D02*
X167162380Y-88163809D01*
X167114761Y-88068571D01*
X167067142Y-88020952D01*
X166924285Y-87925714D01*
X166733809Y-87878095D01*
X166352857Y-87878095D01*
X166257619Y-87925714D01*
X166210000Y-87973333D01*
X166162380Y-88068571D01*
X166162380Y-88259047D01*
X166210000Y-88354285D01*
X166257619Y-88401904D01*
X166352857Y-88449523D01*
X166590952Y-88449523D01*
X166686190Y-88401904D01*
X166733809Y-88354285D01*
X166781428Y-88259047D01*
X166781428Y-88068571D01*
X166733809Y-87973333D01*
X166686190Y-87925714D01*
X166590952Y-87878095D01*
%TO.C,D18*%
X138662380Y-90354285D02*
X137662380Y-90354285D01*
X137662380Y-90116190D01*
X137710000Y-89973333D01*
X137805238Y-89878095D01*
X137900476Y-89830476D01*
X138090952Y-89782857D01*
X138233809Y-89782857D01*
X138424285Y-89830476D01*
X138519523Y-89878095D01*
X138614761Y-89973333D01*
X138662380Y-90116190D01*
X138662380Y-90354285D01*
X138662380Y-88830476D02*
X138662380Y-89401904D01*
X138662380Y-89116190D02*
X137662380Y-89116190D01*
X137805238Y-89211428D01*
X137900476Y-89306666D01*
X137948095Y-89401904D01*
X138090952Y-88259047D02*
X138043333Y-88354285D01*
X137995714Y-88401904D01*
X137900476Y-88449523D01*
X137852857Y-88449523D01*
X137757619Y-88401904D01*
X137710000Y-88354285D01*
X137662380Y-88259047D01*
X137662380Y-88068571D01*
X137710000Y-87973333D01*
X137757619Y-87925714D01*
X137852857Y-87878095D01*
X137900476Y-87878095D01*
X137995714Y-87925714D01*
X138043333Y-87973333D01*
X138090952Y-88068571D01*
X138090952Y-88259047D01*
X138138571Y-88354285D01*
X138186190Y-88401904D01*
X138281428Y-88449523D01*
X138471904Y-88449523D01*
X138567142Y-88401904D01*
X138614761Y-88354285D01*
X138662380Y-88259047D01*
X138662380Y-88068571D01*
X138614761Y-87973333D01*
X138567142Y-87925714D01*
X138471904Y-87878095D01*
X138281428Y-87878095D01*
X138186190Y-87925714D01*
X138138571Y-87973333D01*
X138090952Y-88068571D01*
%TO.C,D17*%
X119662380Y-90354285D02*
X118662380Y-90354285D01*
X118662380Y-90116190D01*
X118710000Y-89973333D01*
X118805238Y-89878095D01*
X118900476Y-89830476D01*
X119090952Y-89782857D01*
X119233809Y-89782857D01*
X119424285Y-89830476D01*
X119519523Y-89878095D01*
X119614761Y-89973333D01*
X119662380Y-90116190D01*
X119662380Y-90354285D01*
X119662380Y-88830476D02*
X119662380Y-89401904D01*
X119662380Y-89116190D02*
X118662380Y-89116190D01*
X118805238Y-89211428D01*
X118900476Y-89306666D01*
X118948095Y-89401904D01*
X118662380Y-88497142D02*
X118662380Y-87830476D01*
X119662380Y-88259047D01*
%TO.C,D16*%
X100662380Y-90354285D02*
X99662380Y-90354285D01*
X99662380Y-90116190D01*
X99710000Y-89973333D01*
X99805238Y-89878095D01*
X99900476Y-89830476D01*
X100090952Y-89782857D01*
X100233809Y-89782857D01*
X100424285Y-89830476D01*
X100519523Y-89878095D01*
X100614761Y-89973333D01*
X100662380Y-90116190D01*
X100662380Y-90354285D01*
X100662380Y-88830476D02*
X100662380Y-89401904D01*
X100662380Y-89116190D02*
X99662380Y-89116190D01*
X99805238Y-89211428D01*
X99900476Y-89306666D01*
X99948095Y-89401904D01*
X99662380Y-87973333D02*
X99662380Y-88163809D01*
X99710000Y-88259047D01*
X99757619Y-88306666D01*
X99900476Y-88401904D01*
X100090952Y-88449523D01*
X100471904Y-88449523D01*
X100567142Y-88401904D01*
X100614761Y-88354285D01*
X100662380Y-88259047D01*
X100662380Y-88068571D01*
X100614761Y-87973333D01*
X100567142Y-87925714D01*
X100471904Y-87878095D01*
X100233809Y-87878095D01*
X100138571Y-87925714D01*
X100090952Y-87973333D01*
X100043333Y-88068571D01*
X100043333Y-88259047D01*
X100090952Y-88354285D01*
X100138571Y-88401904D01*
X100233809Y-88449523D01*
%TO.C,D15*%
X81662380Y-90354285D02*
X80662380Y-90354285D01*
X80662380Y-90116190D01*
X80710000Y-89973333D01*
X80805238Y-89878095D01*
X80900476Y-89830476D01*
X81090952Y-89782857D01*
X81233809Y-89782857D01*
X81424285Y-89830476D01*
X81519523Y-89878095D01*
X81614761Y-89973333D01*
X81662380Y-90116190D01*
X81662380Y-90354285D01*
X81662380Y-88830476D02*
X81662380Y-89401904D01*
X81662380Y-89116190D02*
X80662380Y-89116190D01*
X80805238Y-89211428D01*
X80900476Y-89306666D01*
X80948095Y-89401904D01*
X80662380Y-87925714D02*
X80662380Y-88401904D01*
X81138571Y-88449523D01*
X81090952Y-88401904D01*
X81043333Y-88306666D01*
X81043333Y-88068571D01*
X81090952Y-87973333D01*
X81138571Y-87925714D01*
X81233809Y-87878095D01*
X81471904Y-87878095D01*
X81567142Y-87925714D01*
X81614761Y-87973333D01*
X81662380Y-88068571D01*
X81662380Y-88306666D01*
X81614761Y-88401904D01*
X81567142Y-88449523D01*
%TO.C,D14*%
X62662380Y-90354285D02*
X61662380Y-90354285D01*
X61662380Y-90116190D01*
X61710000Y-89973333D01*
X61805238Y-89878095D01*
X61900476Y-89830476D01*
X62090952Y-89782857D01*
X62233809Y-89782857D01*
X62424285Y-89830476D01*
X62519523Y-89878095D01*
X62614761Y-89973333D01*
X62662380Y-90116190D01*
X62662380Y-90354285D01*
X62662380Y-88830476D02*
X62662380Y-89401904D01*
X62662380Y-89116190D02*
X61662380Y-89116190D01*
X61805238Y-89211428D01*
X61900476Y-89306666D01*
X61948095Y-89401904D01*
X61995714Y-87973333D02*
X62662380Y-87973333D01*
X61614761Y-88211428D02*
X62329047Y-88449523D01*
X62329047Y-87830476D01*
%TO.C,D13*%
X43662380Y-90354285D02*
X42662380Y-90354285D01*
X42662380Y-90116190D01*
X42710000Y-89973333D01*
X42805238Y-89878095D01*
X42900476Y-89830476D01*
X43090952Y-89782857D01*
X43233809Y-89782857D01*
X43424285Y-89830476D01*
X43519523Y-89878095D01*
X43614761Y-89973333D01*
X43662380Y-90116190D01*
X43662380Y-90354285D01*
X43662380Y-88830476D02*
X43662380Y-89401904D01*
X43662380Y-89116190D02*
X42662380Y-89116190D01*
X42805238Y-89211428D01*
X42900476Y-89306666D01*
X42948095Y-89401904D01*
X42662380Y-88497142D02*
X42662380Y-87878095D01*
X43043333Y-88211428D01*
X43043333Y-88068571D01*
X43090952Y-87973333D01*
X43138571Y-87925714D01*
X43233809Y-87878095D01*
X43471904Y-87878095D01*
X43567142Y-87925714D01*
X43614761Y-87973333D01*
X43662380Y-88068571D01*
X43662380Y-88354285D01*
X43614761Y-88449523D01*
X43567142Y-88497142D01*
%TO.C,D12*%
X257412380Y-72574285D02*
X256412380Y-72574285D01*
X256412380Y-72336190D01*
X256460000Y-72193333D01*
X256555238Y-72098095D01*
X256650476Y-72050476D01*
X256840952Y-72002857D01*
X256983809Y-72002857D01*
X257174285Y-72050476D01*
X257269523Y-72098095D01*
X257364761Y-72193333D01*
X257412380Y-72336190D01*
X257412380Y-72574285D01*
X257412380Y-71050476D02*
X257412380Y-71621904D01*
X257412380Y-71336190D02*
X256412380Y-71336190D01*
X256555238Y-71431428D01*
X256650476Y-71526666D01*
X256698095Y-71621904D01*
X256507619Y-70669523D02*
X256460000Y-70621904D01*
X256412380Y-70526666D01*
X256412380Y-70288571D01*
X256460000Y-70193333D01*
X256507619Y-70145714D01*
X256602857Y-70098095D01*
X256698095Y-70098095D01*
X256840952Y-70145714D01*
X257412380Y-70717142D01*
X257412380Y-70098095D01*
%TO.C,D11*%
X238412380Y-72574285D02*
X237412380Y-72574285D01*
X237412380Y-72336190D01*
X237460000Y-72193333D01*
X237555238Y-72098095D01*
X237650476Y-72050476D01*
X237840952Y-72002857D01*
X237983809Y-72002857D01*
X238174285Y-72050476D01*
X238269523Y-72098095D01*
X238364761Y-72193333D01*
X238412380Y-72336190D01*
X238412380Y-72574285D01*
X238412380Y-71050476D02*
X238412380Y-71621904D01*
X238412380Y-71336190D02*
X237412380Y-71336190D01*
X237555238Y-71431428D01*
X237650476Y-71526666D01*
X237698095Y-71621904D01*
X238412380Y-70098095D02*
X238412380Y-70669523D01*
X238412380Y-70383809D02*
X237412380Y-70383809D01*
X237555238Y-70479047D01*
X237650476Y-70574285D01*
X237698095Y-70669523D01*
%TO.C,D10*%
X219412380Y-72574285D02*
X218412380Y-72574285D01*
X218412380Y-72336190D01*
X218460000Y-72193333D01*
X218555238Y-72098095D01*
X218650476Y-72050476D01*
X218840952Y-72002857D01*
X218983809Y-72002857D01*
X219174285Y-72050476D01*
X219269523Y-72098095D01*
X219364761Y-72193333D01*
X219412380Y-72336190D01*
X219412380Y-72574285D01*
X219412380Y-71050476D02*
X219412380Y-71621904D01*
X219412380Y-71336190D02*
X218412380Y-71336190D01*
X218555238Y-71431428D01*
X218650476Y-71526666D01*
X218698095Y-71621904D01*
X218412380Y-70431428D02*
X218412380Y-70336190D01*
X218460000Y-70240952D01*
X218507619Y-70193333D01*
X218602857Y-70145714D01*
X218793333Y-70098095D01*
X219031428Y-70098095D01*
X219221904Y-70145714D01*
X219317142Y-70193333D01*
X219364761Y-70240952D01*
X219412380Y-70336190D01*
X219412380Y-70431428D01*
X219364761Y-70526666D01*
X219317142Y-70574285D01*
X219221904Y-70621904D01*
X219031428Y-70669523D01*
X218793333Y-70669523D01*
X218602857Y-70621904D01*
X218507619Y-70574285D01*
X218460000Y-70526666D01*
X218412380Y-70431428D01*
%TO.C,D9*%
X200412380Y-72098095D02*
X199412380Y-72098095D01*
X199412380Y-71860000D01*
X199460000Y-71717142D01*
X199555238Y-71621904D01*
X199650476Y-71574285D01*
X199840952Y-71526666D01*
X199983809Y-71526666D01*
X200174285Y-71574285D01*
X200269523Y-71621904D01*
X200364761Y-71717142D01*
X200412380Y-71860000D01*
X200412380Y-72098095D01*
X200412380Y-71050476D02*
X200412380Y-70860000D01*
X200364761Y-70764761D01*
X200317142Y-70717142D01*
X200174285Y-70621904D01*
X199983809Y-70574285D01*
X199602857Y-70574285D01*
X199507619Y-70621904D01*
X199460000Y-70669523D01*
X199412380Y-70764761D01*
X199412380Y-70955238D01*
X199460000Y-71050476D01*
X199507619Y-71098095D01*
X199602857Y-71145714D01*
X199840952Y-71145714D01*
X199936190Y-71098095D01*
X199983809Y-71050476D01*
X200031428Y-70955238D01*
X200031428Y-70764761D01*
X199983809Y-70669523D01*
X199936190Y-70621904D01*
X199840952Y-70574285D01*
%TO.C,D8*%
X181412380Y-72098095D02*
X180412380Y-72098095D01*
X180412380Y-71860000D01*
X180460000Y-71717142D01*
X180555238Y-71621904D01*
X180650476Y-71574285D01*
X180840952Y-71526666D01*
X180983809Y-71526666D01*
X181174285Y-71574285D01*
X181269523Y-71621904D01*
X181364761Y-71717142D01*
X181412380Y-71860000D01*
X181412380Y-72098095D01*
X180840952Y-70955238D02*
X180793333Y-71050476D01*
X180745714Y-71098095D01*
X180650476Y-71145714D01*
X180602857Y-71145714D01*
X180507619Y-71098095D01*
X180460000Y-71050476D01*
X180412380Y-70955238D01*
X180412380Y-70764761D01*
X180460000Y-70669523D01*
X180507619Y-70621904D01*
X180602857Y-70574285D01*
X180650476Y-70574285D01*
X180745714Y-70621904D01*
X180793333Y-70669523D01*
X180840952Y-70764761D01*
X180840952Y-70955238D01*
X180888571Y-71050476D01*
X180936190Y-71098095D01*
X181031428Y-71145714D01*
X181221904Y-71145714D01*
X181317142Y-71098095D01*
X181364761Y-71050476D01*
X181412380Y-70955238D01*
X181412380Y-70764761D01*
X181364761Y-70669523D01*
X181317142Y-70621904D01*
X181221904Y-70574285D01*
X181031428Y-70574285D01*
X180936190Y-70621904D01*
X180888571Y-70669523D01*
X180840952Y-70764761D01*
%TO.C,D7*%
X162412380Y-72098095D02*
X161412380Y-72098095D01*
X161412380Y-71860000D01*
X161460000Y-71717142D01*
X161555238Y-71621904D01*
X161650476Y-71574285D01*
X161840952Y-71526666D01*
X161983809Y-71526666D01*
X162174285Y-71574285D01*
X162269523Y-71621904D01*
X162364761Y-71717142D01*
X162412380Y-71860000D01*
X162412380Y-72098095D01*
X161412380Y-71193333D02*
X161412380Y-70526666D01*
X162412380Y-70955238D01*
%TO.C,D6*%
X143412380Y-72098095D02*
X142412380Y-72098095D01*
X142412380Y-71860000D01*
X142460000Y-71717142D01*
X142555238Y-71621904D01*
X142650476Y-71574285D01*
X142840952Y-71526666D01*
X142983809Y-71526666D01*
X143174285Y-71574285D01*
X143269523Y-71621904D01*
X143364761Y-71717142D01*
X143412380Y-71860000D01*
X143412380Y-72098095D01*
X142412380Y-70669523D02*
X142412380Y-70860000D01*
X142460000Y-70955238D01*
X142507619Y-71002857D01*
X142650476Y-71098095D01*
X142840952Y-71145714D01*
X143221904Y-71145714D01*
X143317142Y-71098095D01*
X143364761Y-71050476D01*
X143412380Y-70955238D01*
X143412380Y-70764761D01*
X143364761Y-70669523D01*
X143317142Y-70621904D01*
X143221904Y-70574285D01*
X142983809Y-70574285D01*
X142888571Y-70621904D01*
X142840952Y-70669523D01*
X142793333Y-70764761D01*
X142793333Y-70955238D01*
X142840952Y-71050476D01*
X142888571Y-71098095D01*
X142983809Y-71145714D01*
%TO.C,D5*%
X124412380Y-72098095D02*
X123412380Y-72098095D01*
X123412380Y-71860000D01*
X123460000Y-71717142D01*
X123555238Y-71621904D01*
X123650476Y-71574285D01*
X123840952Y-71526666D01*
X123983809Y-71526666D01*
X124174285Y-71574285D01*
X124269523Y-71621904D01*
X124364761Y-71717142D01*
X124412380Y-71860000D01*
X124412380Y-72098095D01*
X123412380Y-70621904D02*
X123412380Y-71098095D01*
X123888571Y-71145714D01*
X123840952Y-71098095D01*
X123793333Y-71002857D01*
X123793333Y-70764761D01*
X123840952Y-70669523D01*
X123888571Y-70621904D01*
X123983809Y-70574285D01*
X124221904Y-70574285D01*
X124317142Y-70621904D01*
X124364761Y-70669523D01*
X124412380Y-70764761D01*
X124412380Y-71002857D01*
X124364761Y-71098095D01*
X124317142Y-71145714D01*
%TO.C,D4*%
X105412380Y-72098095D02*
X104412380Y-72098095D01*
X104412380Y-71860000D01*
X104460000Y-71717142D01*
X104555238Y-71621904D01*
X104650476Y-71574285D01*
X104840952Y-71526666D01*
X104983809Y-71526666D01*
X105174285Y-71574285D01*
X105269523Y-71621904D01*
X105364761Y-71717142D01*
X105412380Y-71860000D01*
X105412380Y-72098095D01*
X104745714Y-70669523D02*
X105412380Y-70669523D01*
X104364761Y-70907619D02*
X105079047Y-71145714D01*
X105079047Y-70526666D01*
%TO.C,D3*%
X86412380Y-72098095D02*
X85412380Y-72098095D01*
X85412380Y-71860000D01*
X85460000Y-71717142D01*
X85555238Y-71621904D01*
X85650476Y-71574285D01*
X85840952Y-71526666D01*
X85983809Y-71526666D01*
X86174285Y-71574285D01*
X86269523Y-71621904D01*
X86364761Y-71717142D01*
X86412380Y-71860000D01*
X86412380Y-72098095D01*
X85412380Y-71193333D02*
X85412380Y-70574285D01*
X85793333Y-70907619D01*
X85793333Y-70764761D01*
X85840952Y-70669523D01*
X85888571Y-70621904D01*
X85983809Y-70574285D01*
X86221904Y-70574285D01*
X86317142Y-70621904D01*
X86364761Y-70669523D01*
X86412380Y-70764761D01*
X86412380Y-71050476D01*
X86364761Y-71145714D01*
X86317142Y-71193333D01*
%TO.C,D2*%
X67412380Y-72098095D02*
X66412380Y-72098095D01*
X66412380Y-71860000D01*
X66460000Y-71717142D01*
X66555238Y-71621904D01*
X66650476Y-71574285D01*
X66840952Y-71526666D01*
X66983809Y-71526666D01*
X67174285Y-71574285D01*
X67269523Y-71621904D01*
X67364761Y-71717142D01*
X67412380Y-71860000D01*
X67412380Y-72098095D01*
X66507619Y-71145714D02*
X66460000Y-71098095D01*
X66412380Y-71002857D01*
X66412380Y-70764761D01*
X66460000Y-70669523D01*
X66507619Y-70621904D01*
X66602857Y-70574285D01*
X66698095Y-70574285D01*
X66840952Y-70621904D01*
X67412380Y-71193333D01*
X67412380Y-70574285D01*
%TO.C,D1*%
X48112380Y-72098095D02*
X47112380Y-72098095D01*
X47112380Y-71860000D01*
X47160000Y-71717142D01*
X47255238Y-71621904D01*
X47350476Y-71574285D01*
X47540952Y-71526666D01*
X47683809Y-71526666D01*
X47874285Y-71574285D01*
X47969523Y-71621904D01*
X48064761Y-71717142D01*
X48112380Y-71860000D01*
X48112380Y-72098095D01*
X48112380Y-70574285D02*
X48112380Y-71145714D01*
X48112380Y-70860000D02*
X47112380Y-70860000D01*
X47255238Y-70955238D01*
X47350476Y-71050476D01*
X47398095Y-71145714D01*
%TO.C,U1*%
X22117651Y-67111904D02*
X22574794Y-67111904D01*
X22346223Y-67911904D02*
X22346223Y-67111904D01*
X22765270Y-67111904D02*
X23298604Y-67911904D01*
X23298604Y-67111904D02*
X22765270Y-67911904D01*
X23755747Y-67111904D02*
X23831937Y-67111904D01*
X23908128Y-67150000D01*
X23946223Y-67188095D01*
X23984318Y-67264285D01*
X24022413Y-67416666D01*
X24022413Y-67607142D01*
X23984318Y-67759523D01*
X23946223Y-67835714D01*
X23908128Y-67873809D01*
X23831937Y-67911904D01*
X23755747Y-67911904D01*
X23679556Y-67873809D01*
X23641461Y-67835714D01*
X23603366Y-67759523D01*
X23565270Y-67607142D01*
X23565270Y-67416666D01*
X23603366Y-67264285D01*
X23641461Y-67188095D01*
X23679556Y-67150000D01*
X23755747Y-67111904D01*
X24936699Y-67073809D02*
X24250985Y-68102380D01*
X25203366Y-67911904D02*
X25203366Y-67111904D01*
X25393842Y-67111904D01*
X25508128Y-67150000D01*
X25584318Y-67226190D01*
X25622413Y-67302380D01*
X25660508Y-67454761D01*
X25660508Y-67569047D01*
X25622413Y-67721428D01*
X25584318Y-67797619D01*
X25508128Y-67873809D01*
X25393842Y-67911904D01*
X25203366Y-67911904D01*
X25927175Y-67111904D02*
X26422413Y-67111904D01*
X26155747Y-67416666D01*
X26270032Y-67416666D01*
X26346223Y-67454761D01*
X26384318Y-67492857D01*
X26422413Y-67569047D01*
X26422413Y-67759523D01*
X26384318Y-67835714D01*
X26346223Y-67873809D01*
X26270032Y-67911904D01*
X26041461Y-67911904D01*
X25965270Y-67873809D01*
X25927175Y-67835714D01*
X21828523Y-70451904D02*
X21828523Y-69651904D01*
X22019000Y-69651904D01*
X22133285Y-69690000D01*
X22209476Y-69766190D01*
X22247571Y-69842380D01*
X22285666Y-69994761D01*
X22285666Y-70109047D01*
X22247571Y-70261428D01*
X22209476Y-70337619D01*
X22133285Y-70413809D01*
X22019000Y-70451904D01*
X21828523Y-70451904D01*
X22590428Y-69728095D02*
X22628523Y-69690000D01*
X22704714Y-69651904D01*
X22895190Y-69651904D01*
X22971380Y-69690000D01*
X23009476Y-69728095D01*
X23047571Y-69804285D01*
X23047571Y-69880476D01*
X23009476Y-69994761D01*
X22552333Y-70451904D01*
X23047571Y-70451904D01*
X21828523Y-80611904D02*
X21828523Y-79811904D01*
X22019000Y-79811904D01*
X22133285Y-79850000D01*
X22209476Y-79926190D01*
X22247571Y-80002380D01*
X22285666Y-80154761D01*
X22285666Y-80269047D01*
X22247571Y-80421428D01*
X22209476Y-80497619D01*
X22133285Y-80573809D01*
X22019000Y-80611904D01*
X21828523Y-80611904D01*
X22780904Y-79811904D02*
X22857095Y-79811904D01*
X22933285Y-79850000D01*
X22971380Y-79888095D01*
X23009476Y-79964285D01*
X23047571Y-80116666D01*
X23047571Y-80307142D01*
X23009476Y-80459523D01*
X22971380Y-80535714D01*
X22933285Y-80573809D01*
X22857095Y-80611904D01*
X22780904Y-80611904D01*
X22704714Y-80573809D01*
X22666619Y-80535714D01*
X22628523Y-80459523D01*
X22590428Y-80307142D01*
X22590428Y-80116666D01*
X22628523Y-79964285D01*
X22666619Y-79888095D01*
X22704714Y-79850000D01*
X22780904Y-79811904D01*
X21828523Y-78071904D02*
X21828523Y-77271904D01*
X22019000Y-77271904D01*
X22133285Y-77310000D01*
X22209476Y-77386190D01*
X22247571Y-77462380D01*
X22285666Y-77614761D01*
X22285666Y-77729047D01*
X22247571Y-77881428D01*
X22209476Y-77957619D01*
X22133285Y-78033809D01*
X22019000Y-78071904D01*
X21828523Y-78071904D01*
X23047571Y-78071904D02*
X22590428Y-78071904D01*
X22819000Y-78071904D02*
X22819000Y-77271904D01*
X22742809Y-77386190D01*
X22666619Y-77462380D01*
X22590428Y-77500476D01*
X21809476Y-74770000D02*
X21733285Y-74731904D01*
X21619000Y-74731904D01*
X21504714Y-74770000D01*
X21428523Y-74846190D01*
X21390428Y-74922380D01*
X21352333Y-75074761D01*
X21352333Y-75189047D01*
X21390428Y-75341428D01*
X21428523Y-75417619D01*
X21504714Y-75493809D01*
X21619000Y-75531904D01*
X21695190Y-75531904D01*
X21809476Y-75493809D01*
X21847571Y-75455714D01*
X21847571Y-75189047D01*
X21695190Y-75189047D01*
X22190428Y-75531904D02*
X22190428Y-74731904D01*
X22647571Y-75531904D01*
X22647571Y-74731904D01*
X23028523Y-75531904D02*
X23028523Y-74731904D01*
X23219000Y-74731904D01*
X23333285Y-74770000D01*
X23409476Y-74846190D01*
X23447571Y-74922380D01*
X23485666Y-75074761D01*
X23485666Y-75189047D01*
X23447571Y-75341428D01*
X23409476Y-75417619D01*
X23333285Y-75493809D01*
X23219000Y-75531904D01*
X23028523Y-75531904D01*
X21809476Y-72230000D02*
X21733285Y-72191904D01*
X21619000Y-72191904D01*
X21504714Y-72230000D01*
X21428523Y-72306190D01*
X21390428Y-72382380D01*
X21352333Y-72534761D01*
X21352333Y-72649047D01*
X21390428Y-72801428D01*
X21428523Y-72877619D01*
X21504714Y-72953809D01*
X21619000Y-72991904D01*
X21695190Y-72991904D01*
X21809476Y-72953809D01*
X21847571Y-72915714D01*
X21847571Y-72649047D01*
X21695190Y-72649047D01*
X22190428Y-72991904D02*
X22190428Y-72191904D01*
X22647571Y-72991904D01*
X22647571Y-72191904D01*
X23028523Y-72991904D02*
X23028523Y-72191904D01*
X23219000Y-72191904D01*
X23333285Y-72230000D01*
X23409476Y-72306190D01*
X23447571Y-72382380D01*
X23485666Y-72534761D01*
X23485666Y-72649047D01*
X23447571Y-72801428D01*
X23409476Y-72877619D01*
X23333285Y-72953809D01*
X23219000Y-72991904D01*
X23028523Y-72991904D01*
X21828523Y-83151904D02*
X21828523Y-82351904D01*
X22019000Y-82351904D01*
X22133285Y-82390000D01*
X22209476Y-82466190D01*
X22247571Y-82542380D01*
X22285666Y-82694761D01*
X22285666Y-82809047D01*
X22247571Y-82961428D01*
X22209476Y-83037619D01*
X22133285Y-83113809D01*
X22019000Y-83151904D01*
X21828523Y-83151904D01*
X22971380Y-82618571D02*
X22971380Y-83151904D01*
X22780904Y-82313809D02*
X22590428Y-82885238D01*
X23085666Y-82885238D01*
X22285666Y-85615714D02*
X22247571Y-85653809D01*
X22133285Y-85691904D01*
X22057095Y-85691904D01*
X21942809Y-85653809D01*
X21866619Y-85577619D01*
X21828523Y-85501428D01*
X21790428Y-85349047D01*
X21790428Y-85234761D01*
X21828523Y-85082380D01*
X21866619Y-85006190D01*
X21942809Y-84930000D01*
X22057095Y-84891904D01*
X22133285Y-84891904D01*
X22247571Y-84930000D01*
X22285666Y-84968095D01*
X22971380Y-84891904D02*
X22819000Y-84891904D01*
X22742809Y-84930000D01*
X22704714Y-84968095D01*
X22628523Y-85082380D01*
X22590428Y-85234761D01*
X22590428Y-85539523D01*
X22628523Y-85615714D01*
X22666619Y-85653809D01*
X22742809Y-85691904D01*
X22895190Y-85691904D01*
X22971380Y-85653809D01*
X23009476Y-85615714D01*
X23047571Y-85539523D01*
X23047571Y-85349047D01*
X23009476Y-85272857D01*
X22971380Y-85234761D01*
X22895190Y-85196666D01*
X22742809Y-85196666D01*
X22666619Y-85234761D01*
X22628523Y-85272857D01*
X22590428Y-85349047D01*
X21828523Y-88231904D02*
X21828523Y-87431904D01*
X22019000Y-87431904D01*
X22133285Y-87470000D01*
X22209476Y-87546190D01*
X22247571Y-87622380D01*
X22285666Y-87774761D01*
X22285666Y-87889047D01*
X22247571Y-88041428D01*
X22209476Y-88117619D01*
X22133285Y-88193809D01*
X22019000Y-88231904D01*
X21828523Y-88231904D01*
X22552333Y-87431904D02*
X23085666Y-87431904D01*
X22742809Y-88231904D01*
X21866619Y-90352857D02*
X22133285Y-90352857D01*
X22247571Y-90771904D02*
X21866619Y-90771904D01*
X21866619Y-89971904D01*
X22247571Y-89971904D01*
X22933285Y-89971904D02*
X22780904Y-89971904D01*
X22704714Y-90010000D01*
X22666619Y-90048095D01*
X22590428Y-90162380D01*
X22552333Y-90314761D01*
X22552333Y-90619523D01*
X22590428Y-90695714D01*
X22628523Y-90733809D01*
X22704714Y-90771904D01*
X22857095Y-90771904D01*
X22933285Y-90733809D01*
X22971380Y-90695714D01*
X23009476Y-90619523D01*
X23009476Y-90429047D01*
X22971380Y-90352857D01*
X22933285Y-90314761D01*
X22857095Y-90276666D01*
X22704714Y-90276666D01*
X22628523Y-90314761D01*
X22590428Y-90352857D01*
X22552333Y-90429047D01*
X22095190Y-92892857D02*
X22209476Y-92930952D01*
X22247571Y-92969047D01*
X22285666Y-93045238D01*
X22285666Y-93159523D01*
X22247571Y-93235714D01*
X22209476Y-93273809D01*
X22133285Y-93311904D01*
X21828523Y-93311904D01*
X21828523Y-92511904D01*
X22095190Y-92511904D01*
X22171380Y-92550000D01*
X22209476Y-92588095D01*
X22247571Y-92664285D01*
X22247571Y-92740476D01*
X22209476Y-92816666D01*
X22171380Y-92854761D01*
X22095190Y-92892857D01*
X21828523Y-92892857D01*
X22971380Y-92778571D02*
X22971380Y-93311904D01*
X22780904Y-92473809D02*
X22590428Y-93045238D01*
X23085666Y-93045238D01*
X22095190Y-95432857D02*
X22209476Y-95470952D01*
X22247571Y-95509047D01*
X22285666Y-95585238D01*
X22285666Y-95699523D01*
X22247571Y-95775714D01*
X22209476Y-95813809D01*
X22133285Y-95851904D01*
X21828523Y-95851904D01*
X21828523Y-95051904D01*
X22095190Y-95051904D01*
X22171380Y-95090000D01*
X22209476Y-95128095D01*
X22247571Y-95204285D01*
X22247571Y-95280476D01*
X22209476Y-95356666D01*
X22171380Y-95394761D01*
X22095190Y-95432857D01*
X21828523Y-95432857D01*
X23009476Y-95051904D02*
X22628523Y-95051904D01*
X22590428Y-95432857D01*
X22628523Y-95394761D01*
X22704714Y-95356666D01*
X22895190Y-95356666D01*
X22971380Y-95394761D01*
X23009476Y-95432857D01*
X23047571Y-95509047D01*
X23047571Y-95699523D01*
X23009476Y-95775714D01*
X22971380Y-95813809D01*
X22895190Y-95851904D01*
X22704714Y-95851904D01*
X22628523Y-95813809D01*
X22590428Y-95775714D01*
X33017190Y-95432857D02*
X33131476Y-95470952D01*
X33169571Y-95509047D01*
X33207666Y-95585238D01*
X33207666Y-95699523D01*
X33169571Y-95775714D01*
X33131476Y-95813809D01*
X33055285Y-95851904D01*
X32750523Y-95851904D01*
X32750523Y-95051904D01*
X33017190Y-95051904D01*
X33093380Y-95090000D01*
X33131476Y-95128095D01*
X33169571Y-95204285D01*
X33169571Y-95280476D01*
X33131476Y-95356666D01*
X33093380Y-95394761D01*
X33017190Y-95432857D01*
X32750523Y-95432857D01*
X33893380Y-95051904D02*
X33741000Y-95051904D01*
X33664809Y-95090000D01*
X33626714Y-95128095D01*
X33550523Y-95242380D01*
X33512428Y-95394761D01*
X33512428Y-95699523D01*
X33550523Y-95775714D01*
X33588619Y-95813809D01*
X33664809Y-95851904D01*
X33817190Y-95851904D01*
X33893380Y-95813809D01*
X33931476Y-95775714D01*
X33969571Y-95699523D01*
X33969571Y-95509047D01*
X33931476Y-95432857D01*
X33893380Y-95394761D01*
X33817190Y-95356666D01*
X33664809Y-95356666D01*
X33588619Y-95394761D01*
X33550523Y-95432857D01*
X33512428Y-95509047D01*
X33017190Y-90352857D02*
X33131476Y-90390952D01*
X33169571Y-90429047D01*
X33207666Y-90505238D01*
X33207666Y-90619523D01*
X33169571Y-90695714D01*
X33131476Y-90733809D01*
X33055285Y-90771904D01*
X32750523Y-90771904D01*
X32750523Y-89971904D01*
X33017190Y-89971904D01*
X33093380Y-90010000D01*
X33131476Y-90048095D01*
X33169571Y-90124285D01*
X33169571Y-90200476D01*
X33131476Y-90276666D01*
X33093380Y-90314761D01*
X33017190Y-90352857D01*
X32750523Y-90352857D01*
X33474333Y-89971904D02*
X33969571Y-89971904D01*
X33702904Y-90276666D01*
X33817190Y-90276666D01*
X33893380Y-90314761D01*
X33931476Y-90352857D01*
X33969571Y-90429047D01*
X33969571Y-90619523D01*
X33931476Y-90695714D01*
X33893380Y-90733809D01*
X33817190Y-90771904D01*
X33588619Y-90771904D01*
X33512428Y-90733809D01*
X33474333Y-90695714D01*
X33017190Y-87812857D02*
X33131476Y-87850952D01*
X33169571Y-87889047D01*
X33207666Y-87965238D01*
X33207666Y-88079523D01*
X33169571Y-88155714D01*
X33131476Y-88193809D01*
X33055285Y-88231904D01*
X32750523Y-88231904D01*
X32750523Y-87431904D01*
X33017190Y-87431904D01*
X33093380Y-87470000D01*
X33131476Y-87508095D01*
X33169571Y-87584285D01*
X33169571Y-87660476D01*
X33131476Y-87736666D01*
X33093380Y-87774761D01*
X33017190Y-87812857D01*
X32750523Y-87812857D01*
X33969571Y-88231904D02*
X33512428Y-88231904D01*
X33741000Y-88231904D02*
X33741000Y-87431904D01*
X33664809Y-87546190D01*
X33588619Y-87622380D01*
X33512428Y-87660476D01*
X33074333Y-77652857D02*
X32807666Y-77652857D01*
X32807666Y-78071904D02*
X32807666Y-77271904D01*
X33188619Y-77271904D01*
X33836238Y-77538571D02*
X33836238Y-78071904D01*
X33645761Y-77233809D02*
X33455285Y-77805238D01*
X33950523Y-77805238D01*
X32274333Y-74731904D02*
X32541000Y-75531904D01*
X32807666Y-74731904D01*
X33531476Y-75455714D02*
X33493380Y-75493809D01*
X33379095Y-75531904D01*
X33302904Y-75531904D01*
X33188619Y-75493809D01*
X33112428Y-75417619D01*
X33074333Y-75341428D01*
X33036238Y-75189047D01*
X33036238Y-75074761D01*
X33074333Y-74922380D01*
X33112428Y-74846190D01*
X33188619Y-74770000D01*
X33302904Y-74731904D01*
X33379095Y-74731904D01*
X33493380Y-74770000D01*
X33531476Y-74808095D01*
X34331476Y-75455714D02*
X34293380Y-75493809D01*
X34179095Y-75531904D01*
X34102904Y-75531904D01*
X33988619Y-75493809D01*
X33912428Y-75417619D01*
X33874333Y-75341428D01*
X33836238Y-75189047D01*
X33836238Y-75074761D01*
X33874333Y-74922380D01*
X33912428Y-74846190D01*
X33988619Y-74770000D01*
X34102904Y-74731904D01*
X34179095Y-74731904D01*
X34293380Y-74770000D01*
X34331476Y-74808095D01*
X33079786Y-72923809D02*
X33194072Y-72961904D01*
X33384548Y-72961904D01*
X33460739Y-72923809D01*
X33498834Y-72885714D01*
X33536929Y-72809523D01*
X33536929Y-72733333D01*
X33498834Y-72657142D01*
X33460739Y-72619047D01*
X33384548Y-72580952D01*
X33232167Y-72542857D01*
X33155977Y-72504761D01*
X33117881Y-72466666D01*
X33079786Y-72390476D01*
X33079786Y-72314285D01*
X33117881Y-72238095D01*
X33155977Y-72200000D01*
X33232167Y-72161904D01*
X33422643Y-72161904D01*
X33536929Y-72200000D01*
X33765500Y-72161904D02*
X34222643Y-72161904D01*
X33994072Y-72961904D02*
X33994072Y-72161904D01*
X32731476Y-69690000D02*
X32655285Y-69651904D01*
X32541000Y-69651904D01*
X32426714Y-69690000D01*
X32350523Y-69766190D01*
X32312428Y-69842380D01*
X32274333Y-69994761D01*
X32274333Y-70109047D01*
X32312428Y-70261428D01*
X32350523Y-70337619D01*
X32426714Y-70413809D01*
X32541000Y-70451904D01*
X32617190Y-70451904D01*
X32731476Y-70413809D01*
X32769571Y-70375714D01*
X32769571Y-70109047D01*
X32617190Y-70109047D01*
X33112428Y-70451904D02*
X33112428Y-69651904D01*
X33569571Y-70451904D01*
X33569571Y-69651904D01*
X33950523Y-70451904D02*
X33950523Y-69651904D01*
X34141000Y-69651904D01*
X34255285Y-69690000D01*
X34331476Y-69766190D01*
X34369571Y-69842380D01*
X34407666Y-69994761D01*
X34407666Y-70109047D01*
X34369571Y-70261428D01*
X34331476Y-70337619D01*
X34255285Y-70413809D01*
X34141000Y-70451904D01*
X33950523Y-70451904D01*
X32788619Y-67911904D02*
X32521952Y-67530952D01*
X32331476Y-67911904D02*
X32331476Y-67111904D01*
X32636238Y-67111904D01*
X32712428Y-67150000D01*
X32750523Y-67188095D01*
X32788619Y-67264285D01*
X32788619Y-67378571D01*
X32750523Y-67454761D01*
X32712428Y-67492857D01*
X32636238Y-67530952D01*
X32331476Y-67530952D01*
X33093380Y-67683333D02*
X33474333Y-67683333D01*
X33017190Y-67911904D02*
X33283857Y-67111904D01*
X33550523Y-67911904D01*
X33741000Y-67111904D02*
X33931476Y-67911904D01*
X34083857Y-67340476D01*
X34236238Y-67911904D01*
X34426714Y-67111904D01*
X33074333Y-80192857D02*
X32807666Y-80192857D01*
X32807666Y-80611904D02*
X32807666Y-79811904D01*
X33188619Y-79811904D01*
X33874333Y-79811904D02*
X33493380Y-79811904D01*
X33455285Y-80192857D01*
X33493380Y-80154761D01*
X33569571Y-80116666D01*
X33760047Y-80116666D01*
X33836238Y-80154761D01*
X33874333Y-80192857D01*
X33912428Y-80269047D01*
X33912428Y-80459523D01*
X33874333Y-80535714D01*
X33836238Y-80573809D01*
X33760047Y-80611904D01*
X33569571Y-80611904D01*
X33493380Y-80573809D01*
X33455285Y-80535714D01*
X33074333Y-82732857D02*
X32807666Y-82732857D01*
X32807666Y-83151904D02*
X32807666Y-82351904D01*
X33188619Y-82351904D01*
X33836238Y-82351904D02*
X33683857Y-82351904D01*
X33607666Y-82390000D01*
X33569571Y-82428095D01*
X33493380Y-82542380D01*
X33455285Y-82694761D01*
X33455285Y-82999523D01*
X33493380Y-83075714D01*
X33531476Y-83113809D01*
X33607666Y-83151904D01*
X33760047Y-83151904D01*
X33836238Y-83113809D01*
X33874333Y-83075714D01*
X33912428Y-82999523D01*
X33912428Y-82809047D01*
X33874333Y-82732857D01*
X33836238Y-82694761D01*
X33760047Y-82656666D01*
X33607666Y-82656666D01*
X33531476Y-82694761D01*
X33493380Y-82732857D01*
X33455285Y-82809047D01*
X33074333Y-85272857D02*
X32807666Y-85272857D01*
X32807666Y-85691904D02*
X32807666Y-84891904D01*
X33188619Y-84891904D01*
X33417190Y-84891904D02*
X33950523Y-84891904D01*
X33607666Y-85691904D01*
X33017190Y-92892857D02*
X33131476Y-92930952D01*
X33169571Y-92969047D01*
X33207666Y-93045238D01*
X33207666Y-93159523D01*
X33169571Y-93235714D01*
X33131476Y-93273809D01*
X33055285Y-93311904D01*
X32750523Y-93311904D01*
X32750523Y-92511904D01*
X33017190Y-92511904D01*
X33093380Y-92550000D01*
X33131476Y-92588095D01*
X33169571Y-92664285D01*
X33169571Y-92740476D01*
X33131476Y-92816666D01*
X33093380Y-92854761D01*
X33017190Y-92892857D01*
X32750523Y-92892857D01*
X33512428Y-92588095D02*
X33550523Y-92550000D01*
X33626714Y-92511904D01*
X33817190Y-92511904D01*
X33893380Y-92550000D01*
X33931476Y-92588095D01*
X33969571Y-92664285D01*
X33969571Y-92740476D01*
X33931476Y-92854761D01*
X33474333Y-93311904D01*
X33969571Y-93311904D01*
%TD*%
M02*
