%TF.GenerationSoftware,KiCad,Pcbnew,(5.1.6-0-10_14)*%
%TF.CreationDate,2020-06-17T17:50:44+08:00*%
%TF.ProjectId,Charming,43686172-6d69-46e6-972e-6b696361645f,v1.0*%
%TF.SameCoordinates,Original*%
%TF.FileFunction,Legend,Bot*%
%TF.FilePolarity,Positive*%
%FSLAX46Y46*%
G04 Gerber Fmt 4.6, Leading zero omitted, Abs format (unit mm)*
G04 Created by KiCad (PCBNEW (5.1.6-0-10_14)) date 2020-06-17 17:50:44*
%MOMM*%
%LPD*%
G01*
G04 APERTURE LIST*
%ADD10C,0.381000*%
%ADD11C,0.150000*%
G04 APERTURE END LIST*
D10*
%TO.C,U1*%
X21530000Y-66280000D02*
X18990000Y-66280000D01*
X36770000Y-63740000D02*
X18990000Y-63740000D01*
X18990000Y-63740000D02*
X18990000Y-96760000D01*
X18990000Y-96760000D02*
X36770000Y-96760000D01*
X36770000Y-96760000D02*
X36770000Y-63740000D01*
D11*
G36*
X33724635Y-72169030D02*
G01*
X33724635Y-72269030D01*
X34224635Y-72269030D01*
X34224635Y-72169030D01*
X33724635Y-72169030D01*
G37*
X33724635Y-72169030D02*
X33724635Y-72269030D01*
X34224635Y-72269030D01*
X34224635Y-72169030D01*
X33724635Y-72169030D01*
G36*
X33724635Y-72169030D02*
G01*
X33724635Y-72469030D01*
X33824635Y-72469030D01*
X33824635Y-72169030D01*
X33724635Y-72169030D01*
G37*
X33724635Y-72169030D02*
X33724635Y-72469030D01*
X33824635Y-72469030D01*
X33824635Y-72169030D01*
X33724635Y-72169030D01*
G36*
X33724635Y-72769030D02*
G01*
X33724635Y-72969030D01*
X33824635Y-72969030D01*
X33824635Y-72769030D01*
X33724635Y-72769030D01*
G37*
X33724635Y-72769030D02*
X33724635Y-72969030D01*
X33824635Y-72969030D01*
X33824635Y-72769030D01*
X33724635Y-72769030D01*
G36*
X34124635Y-72169030D02*
G01*
X34124635Y-72969030D01*
X34224635Y-72969030D01*
X34224635Y-72169030D01*
X34124635Y-72169030D01*
G37*
X34124635Y-72169030D02*
X34124635Y-72969030D01*
X34224635Y-72969030D01*
X34224635Y-72169030D01*
X34124635Y-72169030D01*
G36*
X33924635Y-72569030D02*
G01*
X33924635Y-72669030D01*
X34024635Y-72669030D01*
X34024635Y-72569030D01*
X33924635Y-72569030D01*
G37*
X33924635Y-72569030D02*
X33924635Y-72669030D01*
X34024635Y-72669030D01*
X34024635Y-72569030D01*
X33924635Y-72569030D01*
D10*
X21530000Y-66280000D02*
X21530000Y-68820000D01*
X21530000Y-68820000D02*
X18990000Y-68820000D01*
D11*
X33453333Y-72933809D02*
X33339047Y-72971904D01*
X33148571Y-72971904D01*
X33072380Y-72933809D01*
X33034285Y-72895714D01*
X32996190Y-72819523D01*
X32996190Y-72743333D01*
X33034285Y-72667142D01*
X33072380Y-72629047D01*
X33148571Y-72590952D01*
X33300952Y-72552857D01*
X33377142Y-72514761D01*
X33415238Y-72476666D01*
X33453333Y-72400476D01*
X33453333Y-72324285D01*
X33415238Y-72248095D01*
X33377142Y-72210000D01*
X33300952Y-72171904D01*
X33110476Y-72171904D01*
X32996190Y-72210000D01*
X32767619Y-72171904D02*
X32310476Y-72171904D01*
X32539047Y-72971904D02*
X32539047Y-72171904D01*
X26498604Y-67111904D02*
X26041461Y-67111904D01*
X26270032Y-67911904D02*
X26270032Y-67111904D01*
X25850985Y-67111904D02*
X25317651Y-67911904D01*
X25317651Y-67111904D02*
X25850985Y-67911904D01*
X24860508Y-67111904D02*
X24784318Y-67111904D01*
X24708128Y-67150000D01*
X24670032Y-67188095D01*
X24631937Y-67264285D01*
X24593842Y-67416666D01*
X24593842Y-67607142D01*
X24631937Y-67759523D01*
X24670032Y-67835714D01*
X24708128Y-67873809D01*
X24784318Y-67911904D01*
X24860508Y-67911904D01*
X24936699Y-67873809D01*
X24974794Y-67835714D01*
X25012889Y-67759523D01*
X25050985Y-67607142D01*
X25050985Y-67416666D01*
X25012889Y-67264285D01*
X24974794Y-67188095D01*
X24936699Y-67150000D01*
X24860508Y-67111904D01*
X23679556Y-67073809D02*
X24365270Y-68102380D01*
X23412889Y-67911904D02*
X23412889Y-67111904D01*
X23222413Y-67111904D01*
X23108128Y-67150000D01*
X23031937Y-67226190D01*
X22993842Y-67302380D01*
X22955747Y-67454761D01*
X22955747Y-67569047D01*
X22993842Y-67721428D01*
X23031937Y-67797619D01*
X23108128Y-67873809D01*
X23222413Y-67911904D01*
X23412889Y-67911904D01*
X22689080Y-67111904D02*
X22193842Y-67111904D01*
X22460508Y-67416666D01*
X22346223Y-67416666D01*
X22270032Y-67454761D01*
X22231937Y-67492857D01*
X22193842Y-67569047D01*
X22193842Y-67759523D01*
X22231937Y-67835714D01*
X22270032Y-67873809D01*
X22346223Y-67911904D01*
X22574794Y-67911904D01*
X22650985Y-67873809D01*
X22689080Y-67835714D01*
X33664809Y-92892857D02*
X33550523Y-92930952D01*
X33512428Y-92969047D01*
X33474333Y-93045238D01*
X33474333Y-93159523D01*
X33512428Y-93235714D01*
X33550523Y-93273809D01*
X33626714Y-93311904D01*
X33931476Y-93311904D01*
X33931476Y-92511904D01*
X33664809Y-92511904D01*
X33588619Y-92550000D01*
X33550523Y-92588095D01*
X33512428Y-92664285D01*
X33512428Y-92740476D01*
X33550523Y-92816666D01*
X33588619Y-92854761D01*
X33664809Y-92892857D01*
X33931476Y-92892857D01*
X33169571Y-92588095D02*
X33131476Y-92550000D01*
X33055285Y-92511904D01*
X32864809Y-92511904D01*
X32788619Y-92550000D01*
X32750523Y-92588095D01*
X32712428Y-92664285D01*
X32712428Y-92740476D01*
X32750523Y-92854761D01*
X33207666Y-93311904D01*
X32712428Y-93311904D01*
X33607666Y-85272857D02*
X33874333Y-85272857D01*
X33874333Y-85691904D02*
X33874333Y-84891904D01*
X33493380Y-84891904D01*
X33264809Y-84891904D02*
X32731476Y-84891904D01*
X33074333Y-85691904D01*
X33607666Y-82732857D02*
X33874333Y-82732857D01*
X33874333Y-83151904D02*
X33874333Y-82351904D01*
X33493380Y-82351904D01*
X32845761Y-82351904D02*
X32998142Y-82351904D01*
X33074333Y-82390000D01*
X33112428Y-82428095D01*
X33188619Y-82542380D01*
X33226714Y-82694761D01*
X33226714Y-82999523D01*
X33188619Y-83075714D01*
X33150523Y-83113809D01*
X33074333Y-83151904D01*
X32921952Y-83151904D01*
X32845761Y-83113809D01*
X32807666Y-83075714D01*
X32769571Y-82999523D01*
X32769571Y-82809047D01*
X32807666Y-82732857D01*
X32845761Y-82694761D01*
X32921952Y-82656666D01*
X33074333Y-82656666D01*
X33150523Y-82694761D01*
X33188619Y-82732857D01*
X33226714Y-82809047D01*
X33607666Y-80192857D02*
X33874333Y-80192857D01*
X33874333Y-80611904D02*
X33874333Y-79811904D01*
X33493380Y-79811904D01*
X32807666Y-79811904D02*
X33188619Y-79811904D01*
X33226714Y-80192857D01*
X33188619Y-80154761D01*
X33112428Y-80116666D01*
X32921952Y-80116666D01*
X32845761Y-80154761D01*
X32807666Y-80192857D01*
X32769571Y-80269047D01*
X32769571Y-80459523D01*
X32807666Y-80535714D01*
X32845761Y-80573809D01*
X32921952Y-80611904D01*
X33112428Y-80611904D01*
X33188619Y-80573809D01*
X33226714Y-80535714D01*
X33893380Y-67911904D02*
X34160047Y-67530952D01*
X34350523Y-67911904D02*
X34350523Y-67111904D01*
X34045761Y-67111904D01*
X33969571Y-67150000D01*
X33931476Y-67188095D01*
X33893380Y-67264285D01*
X33893380Y-67378571D01*
X33931476Y-67454761D01*
X33969571Y-67492857D01*
X34045761Y-67530952D01*
X34350523Y-67530952D01*
X33588619Y-67683333D02*
X33207666Y-67683333D01*
X33664809Y-67911904D02*
X33398142Y-67111904D01*
X33131476Y-67911904D01*
X32941000Y-67111904D02*
X32750523Y-67911904D01*
X32598142Y-67340476D01*
X32445761Y-67911904D01*
X32255285Y-67111904D01*
X33950523Y-69690000D02*
X34026714Y-69651904D01*
X34141000Y-69651904D01*
X34255285Y-69690000D01*
X34331476Y-69766190D01*
X34369571Y-69842380D01*
X34407666Y-69994761D01*
X34407666Y-70109047D01*
X34369571Y-70261428D01*
X34331476Y-70337619D01*
X34255285Y-70413809D01*
X34141000Y-70451904D01*
X34064809Y-70451904D01*
X33950523Y-70413809D01*
X33912428Y-70375714D01*
X33912428Y-70109047D01*
X34064809Y-70109047D01*
X33569571Y-70451904D02*
X33569571Y-69651904D01*
X33112428Y-70451904D01*
X33112428Y-69651904D01*
X32731476Y-70451904D02*
X32731476Y-69651904D01*
X32541000Y-69651904D01*
X32426714Y-69690000D01*
X32350523Y-69766190D01*
X32312428Y-69842380D01*
X32274333Y-69994761D01*
X32274333Y-70109047D01*
X32312428Y-70261428D01*
X32350523Y-70337619D01*
X32426714Y-70413809D01*
X32541000Y-70451904D01*
X32731476Y-70451904D01*
X34407666Y-74731904D02*
X34141000Y-75531904D01*
X33874333Y-74731904D01*
X33150523Y-75455714D02*
X33188619Y-75493809D01*
X33302904Y-75531904D01*
X33379095Y-75531904D01*
X33493380Y-75493809D01*
X33569571Y-75417619D01*
X33607666Y-75341428D01*
X33645761Y-75189047D01*
X33645761Y-75074761D01*
X33607666Y-74922380D01*
X33569571Y-74846190D01*
X33493380Y-74770000D01*
X33379095Y-74731904D01*
X33302904Y-74731904D01*
X33188619Y-74770000D01*
X33150523Y-74808095D01*
X32350523Y-75455714D02*
X32388619Y-75493809D01*
X32502904Y-75531904D01*
X32579095Y-75531904D01*
X32693380Y-75493809D01*
X32769571Y-75417619D01*
X32807666Y-75341428D01*
X32845761Y-75189047D01*
X32845761Y-75074761D01*
X32807666Y-74922380D01*
X32769571Y-74846190D01*
X32693380Y-74770000D01*
X32579095Y-74731904D01*
X32502904Y-74731904D01*
X32388619Y-74770000D01*
X32350523Y-74808095D01*
X33607666Y-77652857D02*
X33874333Y-77652857D01*
X33874333Y-78071904D02*
X33874333Y-77271904D01*
X33493380Y-77271904D01*
X32845761Y-77538571D02*
X32845761Y-78071904D01*
X33036238Y-77233809D02*
X33226714Y-77805238D01*
X32731476Y-77805238D01*
X33664809Y-87812857D02*
X33550523Y-87850952D01*
X33512428Y-87889047D01*
X33474333Y-87965238D01*
X33474333Y-88079523D01*
X33512428Y-88155714D01*
X33550523Y-88193809D01*
X33626714Y-88231904D01*
X33931476Y-88231904D01*
X33931476Y-87431904D01*
X33664809Y-87431904D01*
X33588619Y-87470000D01*
X33550523Y-87508095D01*
X33512428Y-87584285D01*
X33512428Y-87660476D01*
X33550523Y-87736666D01*
X33588619Y-87774761D01*
X33664809Y-87812857D01*
X33931476Y-87812857D01*
X32712428Y-88231904D02*
X33169571Y-88231904D01*
X32941000Y-88231904D02*
X32941000Y-87431904D01*
X33017190Y-87546190D01*
X33093380Y-87622380D01*
X33169571Y-87660476D01*
X33664809Y-90352857D02*
X33550523Y-90390952D01*
X33512428Y-90429047D01*
X33474333Y-90505238D01*
X33474333Y-90619523D01*
X33512428Y-90695714D01*
X33550523Y-90733809D01*
X33626714Y-90771904D01*
X33931476Y-90771904D01*
X33931476Y-89971904D01*
X33664809Y-89971904D01*
X33588619Y-90010000D01*
X33550523Y-90048095D01*
X33512428Y-90124285D01*
X33512428Y-90200476D01*
X33550523Y-90276666D01*
X33588619Y-90314761D01*
X33664809Y-90352857D01*
X33931476Y-90352857D01*
X33207666Y-89971904D02*
X32712428Y-89971904D01*
X32979095Y-90276666D01*
X32864809Y-90276666D01*
X32788619Y-90314761D01*
X32750523Y-90352857D01*
X32712428Y-90429047D01*
X32712428Y-90619523D01*
X32750523Y-90695714D01*
X32788619Y-90733809D01*
X32864809Y-90771904D01*
X33093380Y-90771904D01*
X33169571Y-90733809D01*
X33207666Y-90695714D01*
X33664809Y-95432857D02*
X33550523Y-95470952D01*
X33512428Y-95509047D01*
X33474333Y-95585238D01*
X33474333Y-95699523D01*
X33512428Y-95775714D01*
X33550523Y-95813809D01*
X33626714Y-95851904D01*
X33931476Y-95851904D01*
X33931476Y-95051904D01*
X33664809Y-95051904D01*
X33588619Y-95090000D01*
X33550523Y-95128095D01*
X33512428Y-95204285D01*
X33512428Y-95280476D01*
X33550523Y-95356666D01*
X33588619Y-95394761D01*
X33664809Y-95432857D01*
X33931476Y-95432857D01*
X32788619Y-95051904D02*
X32941000Y-95051904D01*
X33017190Y-95090000D01*
X33055285Y-95128095D01*
X33131476Y-95242380D01*
X33169571Y-95394761D01*
X33169571Y-95699523D01*
X33131476Y-95775714D01*
X33093380Y-95813809D01*
X33017190Y-95851904D01*
X32864809Y-95851904D01*
X32788619Y-95813809D01*
X32750523Y-95775714D01*
X32712428Y-95699523D01*
X32712428Y-95509047D01*
X32750523Y-95432857D01*
X32788619Y-95394761D01*
X32864809Y-95356666D01*
X33017190Y-95356666D01*
X33093380Y-95394761D01*
X33131476Y-95432857D01*
X33169571Y-95509047D01*
X22742809Y-95432857D02*
X22628523Y-95470952D01*
X22590428Y-95509047D01*
X22552333Y-95585238D01*
X22552333Y-95699523D01*
X22590428Y-95775714D01*
X22628523Y-95813809D01*
X22704714Y-95851904D01*
X23009476Y-95851904D01*
X23009476Y-95051904D01*
X22742809Y-95051904D01*
X22666619Y-95090000D01*
X22628523Y-95128095D01*
X22590428Y-95204285D01*
X22590428Y-95280476D01*
X22628523Y-95356666D01*
X22666619Y-95394761D01*
X22742809Y-95432857D01*
X23009476Y-95432857D01*
X21828523Y-95051904D02*
X22209476Y-95051904D01*
X22247571Y-95432857D01*
X22209476Y-95394761D01*
X22133285Y-95356666D01*
X21942809Y-95356666D01*
X21866619Y-95394761D01*
X21828523Y-95432857D01*
X21790428Y-95509047D01*
X21790428Y-95699523D01*
X21828523Y-95775714D01*
X21866619Y-95813809D01*
X21942809Y-95851904D01*
X22133285Y-95851904D01*
X22209476Y-95813809D01*
X22247571Y-95775714D01*
X22742809Y-92892857D02*
X22628523Y-92930952D01*
X22590428Y-92969047D01*
X22552333Y-93045238D01*
X22552333Y-93159523D01*
X22590428Y-93235714D01*
X22628523Y-93273809D01*
X22704714Y-93311904D01*
X23009476Y-93311904D01*
X23009476Y-92511904D01*
X22742809Y-92511904D01*
X22666619Y-92550000D01*
X22628523Y-92588095D01*
X22590428Y-92664285D01*
X22590428Y-92740476D01*
X22628523Y-92816666D01*
X22666619Y-92854761D01*
X22742809Y-92892857D01*
X23009476Y-92892857D01*
X21866619Y-92778571D02*
X21866619Y-93311904D01*
X22057095Y-92473809D02*
X22247571Y-93045238D01*
X21752333Y-93045238D01*
X22971380Y-90352857D02*
X22704714Y-90352857D01*
X22590428Y-90771904D02*
X22971380Y-90771904D01*
X22971380Y-89971904D01*
X22590428Y-89971904D01*
X21904714Y-89971904D02*
X22057095Y-89971904D01*
X22133285Y-90010000D01*
X22171380Y-90048095D01*
X22247571Y-90162380D01*
X22285666Y-90314761D01*
X22285666Y-90619523D01*
X22247571Y-90695714D01*
X22209476Y-90733809D01*
X22133285Y-90771904D01*
X21980904Y-90771904D01*
X21904714Y-90733809D01*
X21866619Y-90695714D01*
X21828523Y-90619523D01*
X21828523Y-90429047D01*
X21866619Y-90352857D01*
X21904714Y-90314761D01*
X21980904Y-90276666D01*
X22133285Y-90276666D01*
X22209476Y-90314761D01*
X22247571Y-90352857D01*
X22285666Y-90429047D01*
X23009476Y-88231904D02*
X23009476Y-87431904D01*
X22819000Y-87431904D01*
X22704714Y-87470000D01*
X22628523Y-87546190D01*
X22590428Y-87622380D01*
X22552333Y-87774761D01*
X22552333Y-87889047D01*
X22590428Y-88041428D01*
X22628523Y-88117619D01*
X22704714Y-88193809D01*
X22819000Y-88231904D01*
X23009476Y-88231904D01*
X22285666Y-87431904D02*
X21752333Y-87431904D01*
X22095190Y-88231904D01*
X22552333Y-85615714D02*
X22590428Y-85653809D01*
X22704714Y-85691904D01*
X22780904Y-85691904D01*
X22895190Y-85653809D01*
X22971380Y-85577619D01*
X23009476Y-85501428D01*
X23047571Y-85349047D01*
X23047571Y-85234761D01*
X23009476Y-85082380D01*
X22971380Y-85006190D01*
X22895190Y-84930000D01*
X22780904Y-84891904D01*
X22704714Y-84891904D01*
X22590428Y-84930000D01*
X22552333Y-84968095D01*
X21866619Y-84891904D02*
X22019000Y-84891904D01*
X22095190Y-84930000D01*
X22133285Y-84968095D01*
X22209476Y-85082380D01*
X22247571Y-85234761D01*
X22247571Y-85539523D01*
X22209476Y-85615714D01*
X22171380Y-85653809D01*
X22095190Y-85691904D01*
X21942809Y-85691904D01*
X21866619Y-85653809D01*
X21828523Y-85615714D01*
X21790428Y-85539523D01*
X21790428Y-85349047D01*
X21828523Y-85272857D01*
X21866619Y-85234761D01*
X21942809Y-85196666D01*
X22095190Y-85196666D01*
X22171380Y-85234761D01*
X22209476Y-85272857D01*
X22247571Y-85349047D01*
X23009476Y-83151904D02*
X23009476Y-82351904D01*
X22819000Y-82351904D01*
X22704714Y-82390000D01*
X22628523Y-82466190D01*
X22590428Y-82542380D01*
X22552333Y-82694761D01*
X22552333Y-82809047D01*
X22590428Y-82961428D01*
X22628523Y-83037619D01*
X22704714Y-83113809D01*
X22819000Y-83151904D01*
X23009476Y-83151904D01*
X21866619Y-82618571D02*
X21866619Y-83151904D01*
X22057095Y-82313809D02*
X22247571Y-82885238D01*
X21752333Y-82885238D01*
X23028523Y-72230000D02*
X23104714Y-72191904D01*
X23219000Y-72191904D01*
X23333285Y-72230000D01*
X23409476Y-72306190D01*
X23447571Y-72382380D01*
X23485666Y-72534761D01*
X23485666Y-72649047D01*
X23447571Y-72801428D01*
X23409476Y-72877619D01*
X23333285Y-72953809D01*
X23219000Y-72991904D01*
X23142809Y-72991904D01*
X23028523Y-72953809D01*
X22990428Y-72915714D01*
X22990428Y-72649047D01*
X23142809Y-72649047D01*
X22647571Y-72991904D02*
X22647571Y-72191904D01*
X22190428Y-72991904D01*
X22190428Y-72191904D01*
X21809476Y-72991904D02*
X21809476Y-72191904D01*
X21619000Y-72191904D01*
X21504714Y-72230000D01*
X21428523Y-72306190D01*
X21390428Y-72382380D01*
X21352333Y-72534761D01*
X21352333Y-72649047D01*
X21390428Y-72801428D01*
X21428523Y-72877619D01*
X21504714Y-72953809D01*
X21619000Y-72991904D01*
X21809476Y-72991904D01*
X23028523Y-74770000D02*
X23104714Y-74731904D01*
X23219000Y-74731904D01*
X23333285Y-74770000D01*
X23409476Y-74846190D01*
X23447571Y-74922380D01*
X23485666Y-75074761D01*
X23485666Y-75189047D01*
X23447571Y-75341428D01*
X23409476Y-75417619D01*
X23333285Y-75493809D01*
X23219000Y-75531904D01*
X23142809Y-75531904D01*
X23028523Y-75493809D01*
X22990428Y-75455714D01*
X22990428Y-75189047D01*
X23142809Y-75189047D01*
X22647571Y-75531904D02*
X22647571Y-74731904D01*
X22190428Y-75531904D01*
X22190428Y-74731904D01*
X21809476Y-75531904D02*
X21809476Y-74731904D01*
X21619000Y-74731904D01*
X21504714Y-74770000D01*
X21428523Y-74846190D01*
X21390428Y-74922380D01*
X21352333Y-75074761D01*
X21352333Y-75189047D01*
X21390428Y-75341428D01*
X21428523Y-75417619D01*
X21504714Y-75493809D01*
X21619000Y-75531904D01*
X21809476Y-75531904D01*
X23009476Y-78071904D02*
X23009476Y-77271904D01*
X22819000Y-77271904D01*
X22704714Y-77310000D01*
X22628523Y-77386190D01*
X22590428Y-77462380D01*
X22552333Y-77614761D01*
X22552333Y-77729047D01*
X22590428Y-77881428D01*
X22628523Y-77957619D01*
X22704714Y-78033809D01*
X22819000Y-78071904D01*
X23009476Y-78071904D01*
X21790428Y-78071904D02*
X22247571Y-78071904D01*
X22019000Y-78071904D02*
X22019000Y-77271904D01*
X22095190Y-77386190D01*
X22171380Y-77462380D01*
X22247571Y-77500476D01*
X23009476Y-80611904D02*
X23009476Y-79811904D01*
X22819000Y-79811904D01*
X22704714Y-79850000D01*
X22628523Y-79926190D01*
X22590428Y-80002380D01*
X22552333Y-80154761D01*
X22552333Y-80269047D01*
X22590428Y-80421428D01*
X22628523Y-80497619D01*
X22704714Y-80573809D01*
X22819000Y-80611904D01*
X23009476Y-80611904D01*
X22057095Y-79811904D02*
X21980904Y-79811904D01*
X21904714Y-79850000D01*
X21866619Y-79888095D01*
X21828523Y-79964285D01*
X21790428Y-80116666D01*
X21790428Y-80307142D01*
X21828523Y-80459523D01*
X21866619Y-80535714D01*
X21904714Y-80573809D01*
X21980904Y-80611904D01*
X22057095Y-80611904D01*
X22133285Y-80573809D01*
X22171380Y-80535714D01*
X22209476Y-80459523D01*
X22247571Y-80307142D01*
X22247571Y-80116666D01*
X22209476Y-79964285D01*
X22171380Y-79888095D01*
X22133285Y-79850000D01*
X22057095Y-79811904D01*
X23009476Y-70451904D02*
X23009476Y-69651904D01*
X22819000Y-69651904D01*
X22704714Y-69690000D01*
X22628523Y-69766190D01*
X22590428Y-69842380D01*
X22552333Y-69994761D01*
X22552333Y-70109047D01*
X22590428Y-70261428D01*
X22628523Y-70337619D01*
X22704714Y-70413809D01*
X22819000Y-70451904D01*
X23009476Y-70451904D01*
X22247571Y-69728095D02*
X22209476Y-69690000D01*
X22133285Y-69651904D01*
X21942809Y-69651904D01*
X21866619Y-69690000D01*
X21828523Y-69728095D01*
X21790428Y-69804285D01*
X21790428Y-69880476D01*
X21828523Y-69994761D01*
X22285666Y-70451904D01*
X21790428Y-70451904D01*
%TD*%
M02*
