M48
; DRILL file {KiCad (5.1.6-0-10_14)} date Wednesday, June 17, 2020 at 05:50:56 PM
; FORMAT={-:-/ absolute / inch / decimal}
; #@! TF.CreationDate,2020-06-17T17:50:56+08:00
; #@! TF.GenerationSoftware,Kicad,Pcbnew,(5.1.6-0-10_14)
; #@! TF.FileFunction,Plated,1,2,PTH
FMAT,2
INCH
T1C0.0430
T2C0.0500
%
G90
G05
T1
X0.7976Y-2.6594
X0.7976Y-2.7594
X0.7976Y-2.8594
X0.7976Y-2.9594
X0.7976Y-3.0594
X0.7976Y-3.1594
X0.7976Y-3.2594
X0.7976Y-3.3594
X0.7976Y-3.4594
X0.7976Y-3.5594
X0.7976Y-3.6594
X0.7976Y-3.7594
X1.3976Y-2.6594
X1.3976Y-2.7594
X1.3976Y-2.8594
X1.3976Y-2.9594
X1.3976Y-3.0594
X1.3976Y-3.1594
X1.3976Y-3.2594
X1.3976Y-3.3594
X1.3976Y-3.4594
X1.3976Y-3.5594
X1.3976Y-3.6594
X1.3976Y-3.7594
T2
X1.6126Y-4.5591
X1.8094Y-4.6417
X6.4748Y-3.063
X6.6717Y-3.1457
X2.7346Y-3.063
X2.9315Y-3.1457
X8.3449Y-4.5591
X8.5417Y-4.6417
X9.4669Y-3.063
X9.6638Y-3.1457
X1.9866Y-5.3071
X2.1835Y-5.3898
X4.0437Y-3.811
X4.2406Y-3.8937
X7.5969Y-4.5591
X7.7937Y-4.6417
X8.7189Y-5.3071
X8.9157Y-5.3898
X7.4098Y-3.811
X7.6067Y-3.8937
X3.2957Y-3.811
X3.4925Y-3.8937
X10.402Y-3.811
X10.5988Y-3.8937
X3.8567Y-4.5591
X4.0535Y-4.6417
X5.0722Y-5.3071
X5.2691Y-5.3898
X5.7268Y-3.063
X5.9236Y-3.1457
X1.9866Y-3.063
X2.1835Y-3.1457
X10.589Y-4.5591
X10.7858Y-4.6417
X6.8488Y-4.5591
X7.0457Y-4.6417
X7.9709Y-5.3071
X8.1677Y-5.3898
X3.4827Y-5.3071
X3.6795Y-5.3898
X2.5476Y-3.811
X2.7445Y-3.8937
X9.6539Y-3.811
X9.8508Y-3.8937
X10.215Y-5.3071
X10.4118Y-5.3898
X3.1087Y-4.5591
X3.3055Y-4.6417
X4.2307Y-5.3071
X4.4276Y-5.3898
X8.7189Y-3.063
X8.9157Y-3.1457
X4.9787Y-3.063
X5.1756Y-3.1457
X6.1008Y-5.3071
X6.2976Y-5.3898
X7.9709Y-3.063
X8.1677Y-3.1457
X9.8409Y-4.5591
X10.0378Y-4.6417
X6.6618Y-3.811
X6.8587Y-3.8937
X4.2307Y-3.063
X4.4276Y-3.1457
X5.3528Y-4.5591
X5.5496Y-4.6417
X7.1293Y-5.3071
X7.3262Y-5.3898
X5.5398Y-3.811
X5.7366Y-3.8937
X1.7996Y-3.811
X1.9965Y-3.8937
X8.9059Y-3.811
X9.1028Y-3.8937
X2.3606Y-4.5591
X2.5575Y-4.6417
X6.1008Y-4.5591
X6.2976Y-4.6417
X7.2228Y-3.063
X7.4197Y-3.1457
X3.4827Y-3.063
X3.6795Y-3.1457
X9.0929Y-4.5591
X9.2898Y-4.6417
X4.6047Y-4.5591
X4.8016Y-4.6417
X2.7346Y-5.3071
X2.9315Y-5.3898
X4.7917Y-3.811
X4.9886Y-3.8937
X10.215Y-3.063
X10.4118Y-3.1457
X9.4669Y-5.3071
X9.6638Y-5.3898
X8.1579Y-3.811
X8.3547Y-3.8937
T0
M30
