M48
; DRILL file {KiCad (5.1.6-0-10_14)} date Monday, June 22, 2020 at 10:54:46 PM
; FORMAT={-:-/ absolute / inch / decimal}
; #@! TF.CreationDate,2020-06-22T22:54:46+08:00
; #@! TF.GenerationSoftware,Kicad,Pcbnew,(5.1.6-0-10_14)
; #@! TF.FileFunction,NonPlated,1,2,NPTH
FMAT,2
INCH
T1C0.0670
T2C0.1350
%
G90
G05
T1
X3.0561Y-5.1427
X3.4892Y-5.1427
X3.4301Y-4.3947
X3.8632Y-4.3947
X2.3081Y-2.8986
X2.7411Y-2.8986
X6.2352Y-3.6467
X6.6683Y-3.6467
X8.4793Y-3.6467
X8.9124Y-3.6467
X4.1781Y-4.3947
X4.6112Y-4.3947
X1.9341Y-4.3947
X2.3671Y-4.3947
X9.0404Y-5.1427
X9.4734Y-5.1427
X2.3081Y-5.1427
X2.7411Y-5.1427
X3.0561Y-2.8986
X3.4892Y-2.8986
X1.56Y-5.1427
X1.9931Y-5.1427
X9.4144Y-4.3947
X9.8474Y-4.3947
X8.2923Y-2.8986
X8.7254Y-2.8986
X1.373Y-3.6467
X1.8061Y-3.6467
X7.5443Y-5.1427
X7.9774Y-5.1427
X6.7963Y-2.8986
X7.2293Y-2.8986
X3.8041Y-2.8986
X4.2372Y-2.8986
X5.1132Y-3.6467
X5.5463Y-3.6467
X6.7028Y-5.1427
X7.1358Y-5.1427
X4.5522Y-2.8986
X4.9852Y-2.8986
X9.9754Y-3.6467
X10.4085Y-3.6467
X7.1703Y-4.3947
X7.6033Y-4.3947
X5.6742Y-5.1427
X6.1073Y-5.1427
X8.6663Y-4.3947
X9.0994Y-4.3947
X5.3002Y-2.8986
X5.7333Y-2.8986
X9.7884Y-2.8986
X10.2215Y-2.8986
X9.0404Y-2.8986
X9.4734Y-2.8986
X7.9183Y-4.3947
X8.3514Y-4.3947
X10.1624Y-4.3947
X10.5955Y-4.3947
X5.6742Y-4.3947
X6.1073Y-4.3947
X4.3652Y-3.6467
X4.7982Y-3.6467
X3.6171Y-3.6467
X4.0502Y-3.6467
X6.0482Y-2.8986
X6.4813Y-2.8986
X6.9833Y-3.6467
X7.4163Y-3.6467
X2.8691Y-3.6467
X3.3022Y-3.6467
X7.7313Y-3.6467
X8.1644Y-3.6467
X7.5443Y-2.8986
X7.9774Y-2.8986
X6.4222Y-4.3947
X6.8553Y-4.3947
X8.2923Y-5.1427
X8.7254Y-5.1427
X3.8041Y-5.1427
X4.2372Y-5.1427
X2.1211Y-3.6467
X2.5541Y-3.6467
X9.2274Y-3.6467
X9.6604Y-3.6467
X4.6457Y-5.1427
X5.0787Y-5.1427
X1.56Y-2.8986
X1.9931Y-2.8986
X4.9262Y-4.3947
X5.3593Y-4.3947
X1.186Y-4.3947
X1.6191Y-4.3947
X2.6821Y-4.3947
X3.1152Y-4.3947
X9.7884Y-5.1427
X10.2215Y-5.1427
T2
X7.3868Y-4.3947
X5.8907Y-5.1427
X8.8829Y-4.3947
X5.5167Y-2.8986
X10.0049Y-2.8986
X9.2569Y-2.8986
X8.1348Y-4.3947
X10.3789Y-4.3947
X5.8907Y-4.3947
X4.5817Y-3.6467
X3.8337Y-3.6467
X6.2648Y-2.8986
X7.1998Y-3.6467
X3.0856Y-3.6467
X7.9478Y-3.6467
X7.7608Y-2.8986
X6.6388Y-4.3947
X8.5089Y-5.1427
X4.0207Y-5.1427
X2.3376Y-3.6467
X9.4439Y-3.6467
X4.8622Y-5.1427
X1.7766Y-2.8986
X5.1427Y-4.3947
X1.4026Y-4.3947
X2.8986Y-4.3947
X10.0049Y-5.1427
X3.2726Y-5.1427
X3.6467Y-4.3947
X2.5246Y-2.8986
X6.4518Y-3.6467
X8.6959Y-3.6467
X4.3947Y-4.3947
X2.1506Y-4.3947
X9.2569Y-5.1427
X2.5246Y-5.1427
X3.2726Y-2.8986
X1.7766Y-5.1427
X9.6309Y-4.3947
X8.5089Y-2.8986
X1.5896Y-3.6467
X7.7608Y-5.1427
X7.0128Y-2.8986
X4.0207Y-2.8986
X5.3297Y-3.6467
X6.9193Y-5.1427
X4.7687Y-2.8986
X10.1919Y-3.6467
T0
M30
