%TF.GenerationSoftware,KiCad,Pcbnew,(5.1.6-0-10_14)*%
%TF.CreationDate,2020-06-22T22:54:42+08:00*%
%TF.ProjectId,Charming,43686172-6d69-46e6-972e-6b696361645f,v1.2*%
%TF.SameCoordinates,Original*%
%TF.FileFunction,Legend,Top*%
%TF.FilePolarity,Positive*%
%FSLAX46Y46*%
G04 Gerber Fmt 4.6, Leading zero omitted, Abs format (unit mm)*
G04 Created by KiCad (PCBNEW (5.1.6-0-10_14)) date 2020-06-22 22:54:42*
%MOMM*%
%LPD*%
G01*
G04 APERTURE LIST*
%ADD10C,0.300000*%
%ADD11C,0.381000*%
%ADD12C,0.150000*%
%ADD13C,0.120000*%
%ADD14C,0.203200*%
G04 APERTURE END LIST*
D10*
X15180357Y-128610714D02*
X15100000Y-128682142D01*
X14876785Y-128753571D01*
X14733928Y-128753571D01*
X14528571Y-128682142D01*
X14403571Y-128539285D01*
X14350000Y-128396428D01*
X14314285Y-128110714D01*
X14341071Y-127896428D01*
X14448214Y-127610714D01*
X14537500Y-127467857D01*
X14698214Y-127325000D01*
X14921428Y-127253571D01*
X15064285Y-127253571D01*
X15269642Y-127325000D01*
X15332142Y-127396428D01*
X15805357Y-128753571D02*
X15992857Y-127253571D01*
X16448214Y-128753571D02*
X16546428Y-127967857D01*
X16492857Y-127825000D01*
X16358928Y-127753571D01*
X16144642Y-127753571D01*
X15992857Y-127825000D01*
X15912500Y-127896428D01*
X17805357Y-128753571D02*
X17903571Y-127967857D01*
X17850000Y-127825000D01*
X17716071Y-127753571D01*
X17430357Y-127753571D01*
X17278571Y-127825000D01*
X17814285Y-128682142D02*
X17662500Y-128753571D01*
X17305357Y-128753571D01*
X17171428Y-128682142D01*
X17117857Y-128539285D01*
X17135714Y-128396428D01*
X17225000Y-128253571D01*
X17376785Y-128182142D01*
X17733928Y-128182142D01*
X17885714Y-128110714D01*
X18519642Y-128753571D02*
X18644642Y-127753571D01*
X18608928Y-128039285D02*
X18698214Y-127896428D01*
X18778571Y-127825000D01*
X18930357Y-127753571D01*
X19073214Y-127753571D01*
X19448214Y-128753571D02*
X19573214Y-127753571D01*
X19555357Y-127896428D02*
X19635714Y-127825000D01*
X19787500Y-127753571D01*
X20001785Y-127753571D01*
X20135714Y-127825000D01*
X20189285Y-127967857D01*
X20091071Y-128753571D01*
X20189285Y-127967857D02*
X20278571Y-127825000D01*
X20430357Y-127753571D01*
X20644642Y-127753571D01*
X20778571Y-127825000D01*
X20832142Y-127967857D01*
X20733928Y-128753571D01*
X21448214Y-128753571D02*
X21573214Y-127753571D01*
X21635714Y-127253571D02*
X21555357Y-127325000D01*
X21617857Y-127396428D01*
X21698214Y-127325000D01*
X21635714Y-127253571D01*
X21617857Y-127396428D01*
X22287500Y-127753571D02*
X22162500Y-128753571D01*
X22269642Y-127896428D02*
X22350000Y-127825000D01*
X22501785Y-127753571D01*
X22716071Y-127753571D01*
X22850000Y-127825000D01*
X22903571Y-127967857D01*
X22805357Y-128753571D01*
X24287500Y-127753571D02*
X24135714Y-128967857D01*
X24046428Y-129110714D01*
X23966071Y-129182142D01*
X23814285Y-129253571D01*
X23600000Y-129253571D01*
X23466071Y-129182142D01*
X24171428Y-128682142D02*
X24019642Y-128753571D01*
X23733928Y-128753571D01*
X23600000Y-128682142D01*
X23537500Y-128610714D01*
X23483928Y-128467857D01*
X23537500Y-128039285D01*
X23626785Y-127896428D01*
X23707142Y-127825000D01*
X23858928Y-127753571D01*
X24144642Y-127753571D01*
X24278571Y-127825000D01*
X26787500Y-127753571D02*
X26662500Y-128753571D01*
X26501785Y-127182142D02*
X26010714Y-128253571D01*
X26939285Y-128253571D01*
X27921428Y-127253571D02*
X28064285Y-127253571D01*
X28198214Y-127325000D01*
X28260714Y-127396428D01*
X28314285Y-127539285D01*
X28350000Y-127825000D01*
X28305357Y-128182142D01*
X28198214Y-128467857D01*
X28108928Y-128610714D01*
X28028571Y-128682142D01*
X27876785Y-128753571D01*
X27733928Y-128753571D01*
X27600000Y-128682142D01*
X27537500Y-128610714D01*
X27483928Y-128467857D01*
X27448214Y-128182142D01*
X27492857Y-127825000D01*
X27600000Y-127539285D01*
X27689285Y-127396428D01*
X27769642Y-127325000D01*
X27921428Y-127253571D01*
X30019642Y-128753571D02*
X30207142Y-127253571D01*
X30876785Y-128753571D02*
X30341071Y-127896428D01*
X31064285Y-127253571D02*
X30100000Y-128110714D01*
X31519642Y-128753571D02*
X31644642Y-127753571D01*
X31707142Y-127253571D02*
X31626785Y-127325000D01*
X31689285Y-127396428D01*
X31769642Y-127325000D01*
X31707142Y-127253571D01*
X31689285Y-127396428D01*
X32144642Y-127753571D02*
X32716071Y-127753571D01*
X32421428Y-127253571D02*
X32260714Y-128539285D01*
X32314285Y-128682142D01*
X32448214Y-128753571D01*
X32591071Y-128753571D01*
X18519642Y-131303571D02*
X18707142Y-129803571D01*
X18635714Y-130375000D02*
X18787500Y-130303571D01*
X19073214Y-130303571D01*
X19207142Y-130375000D01*
X19269642Y-130446428D01*
X19323214Y-130589285D01*
X19269642Y-131017857D01*
X19180357Y-131160714D01*
X19100000Y-131232142D01*
X18948214Y-131303571D01*
X18662500Y-131303571D01*
X18528571Y-131232142D01*
X19858928Y-130303571D02*
X20091071Y-131303571D01*
X20573214Y-130303571D02*
X20091071Y-131303571D01*
X19903571Y-131660714D01*
X19823214Y-131732142D01*
X19671428Y-131803571D01*
X22778571Y-129803571D02*
X22644642Y-130875000D01*
X22546428Y-131089285D01*
X22385714Y-131232142D01*
X22162500Y-131303571D01*
X22019642Y-131303571D01*
X23948214Y-131303571D02*
X24046428Y-130517857D01*
X23992857Y-130375000D01*
X23858928Y-130303571D01*
X23573214Y-130303571D01*
X23421428Y-130375000D01*
X23957142Y-131232142D02*
X23805357Y-131303571D01*
X23448214Y-131303571D01*
X23314285Y-131232142D01*
X23260714Y-131089285D01*
X23278571Y-130946428D01*
X23367857Y-130803571D01*
X23519642Y-130732142D01*
X23876785Y-130732142D01*
X24028571Y-130660714D01*
X24662500Y-131303571D02*
X24787500Y-130303571D01*
X24769642Y-130446428D02*
X24850000Y-130375000D01*
X25001785Y-130303571D01*
X25216071Y-130303571D01*
X25350000Y-130375000D01*
X25403571Y-130517857D01*
X25305357Y-131303571D01*
X25403571Y-130517857D02*
X25492857Y-130375000D01*
X25644642Y-130303571D01*
X25858928Y-130303571D01*
X25992857Y-130375000D01*
X26046428Y-130517857D01*
X25948214Y-131303571D01*
X27242857Y-131232142D02*
X27091071Y-131303571D01*
X26805357Y-131303571D01*
X26671428Y-131232142D01*
X26617857Y-131089285D01*
X26689285Y-130517857D01*
X26778571Y-130375000D01*
X26930357Y-130303571D01*
X27216071Y-130303571D01*
X27350000Y-130375000D01*
X27403571Y-130517857D01*
X27385714Y-130660714D01*
X26653571Y-130803571D01*
X27885714Y-131232142D02*
X28019642Y-131303571D01*
X28305357Y-131303571D01*
X28457142Y-131232142D01*
X28546428Y-131089285D01*
X28555357Y-131017857D01*
X28501785Y-130875000D01*
X28367857Y-130803571D01*
X28153571Y-130803571D01*
X28019642Y-130732142D01*
X27966071Y-130589285D01*
X27975000Y-130517857D01*
X28064285Y-130375000D01*
X28216071Y-130303571D01*
X28430357Y-130303571D01*
X28564285Y-130375000D01*
X30242857Y-131232142D02*
X30448214Y-131303571D01*
X30805357Y-131303571D01*
X30957142Y-131232142D01*
X31037500Y-131160714D01*
X31126785Y-131017857D01*
X31144642Y-130875000D01*
X31091071Y-130732142D01*
X31028571Y-130660714D01*
X30894642Y-130589285D01*
X30617857Y-130517857D01*
X30483928Y-130446428D01*
X30421428Y-130375000D01*
X30367857Y-130232142D01*
X30385714Y-130089285D01*
X30475000Y-129946428D01*
X30555357Y-129875000D01*
X30707142Y-129803571D01*
X31064285Y-129803571D01*
X31269642Y-129875000D01*
X32376785Y-131303571D02*
X32475000Y-130517857D01*
X32421428Y-130375000D01*
X32287500Y-130303571D01*
X32001785Y-130303571D01*
X31850000Y-130375000D01*
X32385714Y-131232142D02*
X32233928Y-131303571D01*
X31876785Y-131303571D01*
X31742857Y-131232142D01*
X31689285Y-131089285D01*
X31707142Y-130946428D01*
X31796428Y-130803571D01*
X31948214Y-130732142D01*
X32305357Y-130732142D01*
X32457142Y-130660714D01*
X14733928Y-133853571D02*
X14323214Y-133139285D01*
X13876785Y-133853571D02*
X14064285Y-132353571D01*
X14635714Y-132353571D01*
X14769642Y-132425000D01*
X14832142Y-132496428D01*
X14885714Y-132639285D01*
X14858928Y-132853571D01*
X14769642Y-132996428D01*
X14689285Y-133067857D01*
X14537500Y-133139285D01*
X13966071Y-133139285D01*
X15957142Y-133782142D02*
X15805357Y-133853571D01*
X15519642Y-133853571D01*
X15385714Y-133782142D01*
X15332142Y-133639285D01*
X15403571Y-133067857D01*
X15492857Y-132925000D01*
X15644642Y-132853571D01*
X15930357Y-132853571D01*
X16064285Y-132925000D01*
X16117857Y-133067857D01*
X16100000Y-133210714D01*
X15367857Y-133353571D01*
X16644642Y-132853571D02*
X16876785Y-133853571D01*
X17358928Y-132853571D01*
X17903571Y-132496428D02*
X17983928Y-132425000D01*
X18135714Y-132353571D01*
X18492857Y-132353571D01*
X18626785Y-132425000D01*
X18689285Y-132496428D01*
X18742857Y-132639285D01*
X18724999Y-132782142D01*
X18626785Y-132996428D01*
X17662499Y-133853571D01*
X18591071Y-133853571D01*
X19314285Y-133782142D02*
X19305357Y-133853571D01*
X19216071Y-133996428D01*
X19135714Y-134067857D01*
X21707142Y-132353571D02*
X21573214Y-133425000D01*
X21474999Y-133639285D01*
X21314285Y-133782142D01*
X21091071Y-133853571D01*
X20948214Y-133853571D01*
X23001785Y-132853571D02*
X22876785Y-133853571D01*
X22358928Y-132853571D02*
X22260714Y-133639285D01*
X22314285Y-133782142D01*
X22448214Y-133853571D01*
X22662499Y-133853571D01*
X22814285Y-133782142D01*
X22894642Y-133710714D01*
X23716071Y-132853571D02*
X23591071Y-133853571D01*
X23698214Y-132996428D02*
X23778571Y-132925000D01*
X23930357Y-132853571D01*
X24144642Y-132853571D01*
X24278571Y-132925000D01*
X24332142Y-133067857D01*
X24233928Y-133853571D01*
X25528571Y-133782142D02*
X25376785Y-133853571D01*
X25091071Y-133853571D01*
X24957142Y-133782142D01*
X24903571Y-133639285D01*
X24974999Y-133067857D01*
X25064285Y-132925000D01*
X25216071Y-132853571D01*
X25501785Y-132853571D01*
X25635714Y-132925000D01*
X25689285Y-133067857D01*
X25671428Y-133210714D01*
X24939285Y-133353571D01*
X27474999Y-132496428D02*
X27555357Y-132425000D01*
X27707142Y-132353571D01*
X28064285Y-132353571D01*
X28198214Y-132425000D01*
X28260714Y-132496428D01*
X28314285Y-132639285D01*
X28296428Y-132782142D01*
X28198214Y-132996428D01*
X27233928Y-133853571D01*
X28162499Y-133853571D01*
X29278571Y-132353571D02*
X29421428Y-132353571D01*
X29555357Y-132425000D01*
X29617857Y-132496428D01*
X29671428Y-132639285D01*
X29707142Y-132925000D01*
X29662499Y-133282142D01*
X29555357Y-133567857D01*
X29466071Y-133710714D01*
X29385714Y-133782142D01*
X29233928Y-133853571D01*
X29091071Y-133853571D01*
X28957142Y-133782142D01*
X28894642Y-133710714D01*
X28841071Y-133567857D01*
X28805357Y-133282142D01*
X28849999Y-132925000D01*
X28957142Y-132639285D01*
X29046428Y-132496428D01*
X29126785Y-132425000D01*
X29278571Y-132353571D01*
X30332142Y-132496428D02*
X30412499Y-132425000D01*
X30564285Y-132353571D01*
X30921428Y-132353571D01*
X31055357Y-132425000D01*
X31117857Y-132496428D01*
X31171428Y-132639285D01*
X31153571Y-132782142D01*
X31055357Y-132996428D01*
X30091071Y-133853571D01*
X31019642Y-133853571D01*
X32135714Y-132353571D02*
X32278571Y-132353571D01*
X32412499Y-132425000D01*
X32474999Y-132496428D01*
X32528571Y-132639285D01*
X32564285Y-132925000D01*
X32519642Y-133282142D01*
X32412499Y-133567857D01*
X32323214Y-133710714D01*
X32242857Y-133782142D01*
X32091071Y-133853571D01*
X31948214Y-133853571D01*
X31814285Y-133782142D01*
X31751785Y-133710714D01*
X31698214Y-133567857D01*
X31662499Y-133282142D01*
X31707142Y-132925000D01*
X31814285Y-132639285D01*
X31903571Y-132496428D01*
X31983928Y-132425000D01*
X32135714Y-132353571D01*
D11*
%TO.C,U1*%
X12650000Y-70260000D02*
X10110000Y-70260000D01*
X10110000Y-67720000D02*
X10110000Y-70260000D01*
X27890000Y-67720000D02*
X10110000Y-67720000D01*
X27890000Y-70260000D02*
X27890000Y-67720000D01*
X12650000Y-72800000D02*
X10110000Y-72800000D01*
X12650000Y-70260000D02*
X12650000Y-72800000D01*
X27890000Y-100740000D02*
X27890000Y-70260000D01*
X10110000Y-100740000D02*
X27890000Y-100740000D01*
X10110000Y-70260000D02*
X10110000Y-100740000D01*
D12*
%TO.C,SW32*%
X194625000Y-104625000D02*
X194625000Y-105625000D01*
X193625000Y-118625000D02*
X194625000Y-118625000D01*
X194625000Y-104625000D02*
X193625000Y-104625000D01*
X194625000Y-117625000D02*
X194625000Y-118625000D01*
X180625000Y-118625000D02*
X180625000Y-117625000D01*
X181625000Y-104625000D02*
X180625000Y-104625000D01*
X180625000Y-118625000D02*
X181625000Y-118625000D01*
X180625000Y-105625000D02*
X180625000Y-104625000D01*
%TO.C,SW33*%
X213625000Y-104625000D02*
X213625000Y-105625000D01*
X212625000Y-118625000D02*
X213625000Y-118625000D01*
X213625000Y-104625000D02*
X212625000Y-104625000D01*
X213625000Y-117625000D02*
X213625000Y-118625000D01*
X199625000Y-118625000D02*
X199625000Y-117625000D01*
X200625000Y-104625000D02*
X199625000Y-104625000D01*
X199625000Y-118625000D02*
X200625000Y-118625000D01*
X199625000Y-105625000D02*
X199625000Y-104625000D01*
%TO.C,SW48*%
X261125000Y-123625000D02*
X261125000Y-124625000D01*
X260125000Y-137625000D02*
X261125000Y-137625000D01*
X261125000Y-123625000D02*
X260125000Y-123625000D01*
X261125000Y-136625000D02*
X261125000Y-137625000D01*
X247125000Y-137625000D02*
X247125000Y-136625000D01*
X248125000Y-123625000D02*
X247125000Y-123625000D01*
X247125000Y-137625000D02*
X248125000Y-137625000D01*
X247125000Y-124625000D02*
X247125000Y-123625000D01*
%TO.C,SW47*%
X242125000Y-123625000D02*
X242125000Y-124625000D01*
X241125000Y-137625000D02*
X242125000Y-137625000D01*
X242125000Y-123625000D02*
X241125000Y-123625000D01*
X242125000Y-136625000D02*
X242125000Y-137625000D01*
X228125000Y-137625000D02*
X228125000Y-136625000D01*
X229125000Y-123625000D02*
X228125000Y-123625000D01*
X228125000Y-137625000D02*
X229125000Y-137625000D01*
X228125000Y-124625000D02*
X228125000Y-123625000D01*
%TO.C,SW46*%
X223125000Y-123625000D02*
X223125000Y-124625000D01*
X222125000Y-137625000D02*
X223125000Y-137625000D01*
X223125000Y-123625000D02*
X222125000Y-123625000D01*
X223125000Y-136625000D02*
X223125000Y-137625000D01*
X209125000Y-137625000D02*
X209125000Y-136625000D01*
X210125000Y-123625000D02*
X209125000Y-123625000D01*
X209125000Y-137625000D02*
X210125000Y-137625000D01*
X209125000Y-124625000D02*
X209125000Y-123625000D01*
%TO.C,SW45*%
X204125000Y-123625000D02*
X204125000Y-124625000D01*
X203125000Y-137625000D02*
X204125000Y-137625000D01*
X204125000Y-123625000D02*
X203125000Y-123625000D01*
X204125000Y-136625000D02*
X204125000Y-137625000D01*
X190125000Y-137625000D02*
X190125000Y-136625000D01*
X191125000Y-123625000D02*
X190125000Y-123625000D01*
X190125000Y-137625000D02*
X191125000Y-137625000D01*
X190125000Y-124625000D02*
X190125000Y-123625000D01*
%TO.C,SW44*%
X182750000Y-123625000D02*
X182750000Y-124625000D01*
X181750000Y-137625000D02*
X182750000Y-137625000D01*
X182750000Y-123625000D02*
X181750000Y-123625000D01*
X182750000Y-136625000D02*
X182750000Y-137625000D01*
X168750000Y-137625000D02*
X168750000Y-136625000D01*
X169750000Y-123625000D02*
X168750000Y-123625000D01*
X168750000Y-137625000D02*
X169750000Y-137625000D01*
X168750000Y-124625000D02*
X168750000Y-123625000D01*
%TO.C,SW43*%
X156625000Y-123625000D02*
X156625000Y-124625000D01*
X155625000Y-137625000D02*
X156625000Y-137625000D01*
X156625000Y-123625000D02*
X155625000Y-123625000D01*
X156625000Y-136625000D02*
X156625000Y-137625000D01*
X142625000Y-137625000D02*
X142625000Y-136625000D01*
X143625000Y-123625000D02*
X142625000Y-123625000D01*
X142625000Y-137625000D02*
X143625000Y-137625000D01*
X142625000Y-124625000D02*
X142625000Y-123625000D01*
%TO.C,SW42*%
X156625000Y-104625000D02*
X156625000Y-105625000D01*
X155625000Y-118625000D02*
X156625000Y-118625000D01*
X156625000Y-104625000D02*
X155625000Y-104625000D01*
X156625000Y-117625000D02*
X156625000Y-118625000D01*
X142625000Y-118625000D02*
X142625000Y-117625000D01*
X143625000Y-104625000D02*
X142625000Y-104625000D01*
X142625000Y-118625000D02*
X143625000Y-118625000D01*
X142625000Y-105625000D02*
X142625000Y-104625000D01*
%TO.C,SW41*%
X130500000Y-123625000D02*
X130500000Y-124625000D01*
X129500000Y-137625000D02*
X130500000Y-137625000D01*
X130500000Y-123625000D02*
X129500000Y-123625000D01*
X130500000Y-136625000D02*
X130500000Y-137625000D01*
X116500000Y-137625000D02*
X116500000Y-136625000D01*
X117500000Y-123625000D02*
X116500000Y-123625000D01*
X116500000Y-137625000D02*
X117500000Y-137625000D01*
X116500000Y-124625000D02*
X116500000Y-123625000D01*
%TO.C,SW40*%
X109125000Y-123625000D02*
X109125000Y-124625000D01*
X108125000Y-137625000D02*
X109125000Y-137625000D01*
X109125000Y-123625000D02*
X108125000Y-123625000D01*
X109125000Y-136625000D02*
X109125000Y-137625000D01*
X95125000Y-137625000D02*
X95125000Y-136625000D01*
X96125000Y-123625000D02*
X95125000Y-123625000D01*
X95125000Y-137625000D02*
X96125000Y-137625000D01*
X95125000Y-124625000D02*
X95125000Y-123625000D01*
%TO.C,SW39*%
X90125000Y-123625000D02*
X90125000Y-124625000D01*
X89125000Y-137625000D02*
X90125000Y-137625000D01*
X90125000Y-123625000D02*
X89125000Y-123625000D01*
X90125000Y-136625000D02*
X90125000Y-137625000D01*
X76125000Y-137625000D02*
X76125000Y-136625000D01*
X77125000Y-123625000D02*
X76125000Y-123625000D01*
X76125000Y-137625000D02*
X77125000Y-137625000D01*
X76125000Y-124625000D02*
X76125000Y-123625000D01*
%TO.C,SW38*%
X71125000Y-123625000D02*
X71125000Y-124625000D01*
X70125000Y-137625000D02*
X71125000Y-137625000D01*
X71125000Y-123625000D02*
X70125000Y-123625000D01*
X71125000Y-136625000D02*
X71125000Y-137625000D01*
X57125000Y-137625000D02*
X57125000Y-136625000D01*
X58125000Y-123625000D02*
X57125000Y-123625000D01*
X57125000Y-137625000D02*
X58125000Y-137625000D01*
X57125000Y-124625000D02*
X57125000Y-123625000D01*
%TO.C,SW37*%
X52125000Y-123625000D02*
X52125000Y-124625000D01*
X51125000Y-137625000D02*
X52125000Y-137625000D01*
X52125000Y-123625000D02*
X51125000Y-123625000D01*
X52125000Y-136625000D02*
X52125000Y-137625000D01*
X38125000Y-137625000D02*
X38125000Y-136625000D01*
X39125000Y-123625000D02*
X38125000Y-123625000D01*
X38125000Y-137625000D02*
X39125000Y-137625000D01*
X38125000Y-124625000D02*
X38125000Y-123625000D01*
%TO.C,SW36*%
X270625000Y-104625000D02*
X270625000Y-105625000D01*
X269625000Y-118625000D02*
X270625000Y-118625000D01*
X270625000Y-104625000D02*
X269625000Y-104625000D01*
X270625000Y-117625000D02*
X270625000Y-118625000D01*
X256625000Y-118625000D02*
X256625000Y-117625000D01*
X257625000Y-104625000D02*
X256625000Y-104625000D01*
X256625000Y-118625000D02*
X257625000Y-118625000D01*
X256625000Y-105625000D02*
X256625000Y-104625000D01*
%TO.C,SW35*%
X251625000Y-104625000D02*
X251625000Y-105625000D01*
X250625000Y-118625000D02*
X251625000Y-118625000D01*
X251625000Y-104625000D02*
X250625000Y-104625000D01*
X251625000Y-117625000D02*
X251625000Y-118625000D01*
X237625000Y-118625000D02*
X237625000Y-117625000D01*
X238625000Y-104625000D02*
X237625000Y-104625000D01*
X237625000Y-118625000D02*
X238625000Y-118625000D01*
X237625000Y-105625000D02*
X237625000Y-104625000D01*
%TO.C,SW34*%
X232625000Y-104625000D02*
X232625000Y-105625000D01*
X231625000Y-118625000D02*
X232625000Y-118625000D01*
X232625000Y-104625000D02*
X231625000Y-104625000D01*
X232625000Y-117625000D02*
X232625000Y-118625000D01*
X218625000Y-118625000D02*
X218625000Y-117625000D01*
X219625000Y-104625000D02*
X218625000Y-104625000D01*
X218625000Y-118625000D02*
X219625000Y-118625000D01*
X218625000Y-105625000D02*
X218625000Y-104625000D01*
%TO.C,SW31*%
X175625000Y-104625000D02*
X175625000Y-105625000D01*
X174625000Y-118625000D02*
X175625000Y-118625000D01*
X175625000Y-104625000D02*
X174625000Y-104625000D01*
X175625000Y-117625000D02*
X175625000Y-118625000D01*
X161625000Y-118625000D02*
X161625000Y-117625000D01*
X162625000Y-104625000D02*
X161625000Y-104625000D01*
X161625000Y-118625000D02*
X162625000Y-118625000D01*
X161625000Y-105625000D02*
X161625000Y-104625000D01*
%TO.C,SW30*%
X137625000Y-104625000D02*
X137625000Y-105625000D01*
X136625000Y-118625000D02*
X137625000Y-118625000D01*
X137625000Y-104625000D02*
X136625000Y-104625000D01*
X137625000Y-117625000D02*
X137625000Y-118625000D01*
X123625000Y-118625000D02*
X123625000Y-117625000D01*
X124625000Y-104625000D02*
X123625000Y-104625000D01*
X123625000Y-118625000D02*
X124625000Y-118625000D01*
X123625000Y-105625000D02*
X123625000Y-104625000D01*
%TO.C,SW29*%
X118625000Y-104625000D02*
X118625000Y-105625000D01*
X117625000Y-118625000D02*
X118625000Y-118625000D01*
X118625000Y-104625000D02*
X117625000Y-104625000D01*
X118625000Y-117625000D02*
X118625000Y-118625000D01*
X104625000Y-118625000D02*
X104625000Y-117625000D01*
X105625000Y-104625000D02*
X104625000Y-104625000D01*
X104625000Y-118625000D02*
X105625000Y-118625000D01*
X104625000Y-105625000D02*
X104625000Y-104625000D01*
%TO.C,SW28*%
X99625000Y-104625000D02*
X99625000Y-105625000D01*
X98625000Y-118625000D02*
X99625000Y-118625000D01*
X99625000Y-104625000D02*
X98625000Y-104625000D01*
X99625000Y-117625000D02*
X99625000Y-118625000D01*
X85625000Y-118625000D02*
X85625000Y-117625000D01*
X86625000Y-104625000D02*
X85625000Y-104625000D01*
X85625000Y-118625000D02*
X86625000Y-118625000D01*
X85625000Y-105625000D02*
X85625000Y-104625000D01*
%TO.C,SW27*%
X80625000Y-104625000D02*
X80625000Y-105625000D01*
X79625000Y-118625000D02*
X80625000Y-118625000D01*
X80625000Y-104625000D02*
X79625000Y-104625000D01*
X80625000Y-117625000D02*
X80625000Y-118625000D01*
X66625000Y-118625000D02*
X66625000Y-117625000D01*
X67625000Y-104625000D02*
X66625000Y-104625000D01*
X66625000Y-118625000D02*
X67625000Y-118625000D01*
X66625000Y-105625000D02*
X66625000Y-104625000D01*
%TO.C,SW26*%
X61625000Y-104625000D02*
X61625000Y-105625000D01*
X60625000Y-118625000D02*
X61625000Y-118625000D01*
X61625000Y-104625000D02*
X60625000Y-104625000D01*
X61625000Y-117625000D02*
X61625000Y-118625000D01*
X47625000Y-118625000D02*
X47625000Y-117625000D01*
X48625000Y-104625000D02*
X47625000Y-104625000D01*
X47625000Y-118625000D02*
X48625000Y-118625000D01*
X47625000Y-105625000D02*
X47625000Y-104625000D01*
%TO.C,SW25*%
X42625000Y-104625000D02*
X42625000Y-105625000D01*
X41625000Y-118625000D02*
X42625000Y-118625000D01*
X42625000Y-104625000D02*
X41625000Y-104625000D01*
X42625000Y-117625000D02*
X42625000Y-118625000D01*
X28625000Y-118625000D02*
X28625000Y-117625000D01*
X29625000Y-104625000D02*
X28625000Y-104625000D01*
X28625000Y-118625000D02*
X29625000Y-118625000D01*
X28625000Y-105625000D02*
X28625000Y-104625000D01*
%TO.C,SW24*%
X265875000Y-85625000D02*
X265875000Y-86625000D01*
X264875000Y-99625000D02*
X265875000Y-99625000D01*
X265875000Y-85625000D02*
X264875000Y-85625000D01*
X265875000Y-98625000D02*
X265875000Y-99625000D01*
X251875000Y-99625000D02*
X251875000Y-98625000D01*
X252875000Y-85625000D02*
X251875000Y-85625000D01*
X251875000Y-99625000D02*
X252875000Y-99625000D01*
X251875000Y-86625000D02*
X251875000Y-85625000D01*
%TO.C,SW23*%
X246875000Y-85625000D02*
X246875000Y-86625000D01*
X245875000Y-99625000D02*
X246875000Y-99625000D01*
X246875000Y-85625000D02*
X245875000Y-85625000D01*
X246875000Y-98625000D02*
X246875000Y-99625000D01*
X232875000Y-99625000D02*
X232875000Y-98625000D01*
X233875000Y-85625000D02*
X232875000Y-85625000D01*
X232875000Y-99625000D02*
X233875000Y-99625000D01*
X232875000Y-86625000D02*
X232875000Y-85625000D01*
%TO.C,SW22*%
X227875000Y-85625000D02*
X227875000Y-86625000D01*
X226875000Y-99625000D02*
X227875000Y-99625000D01*
X227875000Y-85625000D02*
X226875000Y-85625000D01*
X227875000Y-98625000D02*
X227875000Y-99625000D01*
X213875000Y-99625000D02*
X213875000Y-98625000D01*
X214875000Y-85625000D02*
X213875000Y-85625000D01*
X213875000Y-99625000D02*
X214875000Y-99625000D01*
X213875000Y-86625000D02*
X213875000Y-85625000D01*
%TO.C,SW21*%
X208875000Y-85625000D02*
X208875000Y-86625000D01*
X207875000Y-99625000D02*
X208875000Y-99625000D01*
X208875000Y-85625000D02*
X207875000Y-85625000D01*
X208875000Y-98625000D02*
X208875000Y-99625000D01*
X194875000Y-99625000D02*
X194875000Y-98625000D01*
X195875000Y-85625000D02*
X194875000Y-85625000D01*
X194875000Y-99625000D02*
X195875000Y-99625000D01*
X194875000Y-86625000D02*
X194875000Y-85625000D01*
%TO.C,SW20*%
X189875000Y-85625000D02*
X189875000Y-86625000D01*
X188875000Y-99625000D02*
X189875000Y-99625000D01*
X189875000Y-85625000D02*
X188875000Y-85625000D01*
X189875000Y-98625000D02*
X189875000Y-99625000D01*
X175875000Y-99625000D02*
X175875000Y-98625000D01*
X176875000Y-85625000D02*
X175875000Y-85625000D01*
X175875000Y-99625000D02*
X176875000Y-99625000D01*
X175875000Y-86625000D02*
X175875000Y-85625000D01*
%TO.C,SW19*%
X170875000Y-85625000D02*
X170875000Y-86625000D01*
X169875000Y-99625000D02*
X170875000Y-99625000D01*
X170875000Y-85625000D02*
X169875000Y-85625000D01*
X170875000Y-98625000D02*
X170875000Y-99625000D01*
X156875000Y-99625000D02*
X156875000Y-98625000D01*
X157875000Y-85625000D02*
X156875000Y-85625000D01*
X156875000Y-99625000D02*
X157875000Y-99625000D01*
X156875000Y-86625000D02*
X156875000Y-85625000D01*
%TO.C,SW18*%
X142375000Y-85625000D02*
X142375000Y-86625000D01*
X141375000Y-99625000D02*
X142375000Y-99625000D01*
X142375000Y-85625000D02*
X141375000Y-85625000D01*
X142375000Y-98625000D02*
X142375000Y-99625000D01*
X128375000Y-99625000D02*
X128375000Y-98625000D01*
X129375000Y-85625000D02*
X128375000Y-85625000D01*
X128375000Y-99625000D02*
X129375000Y-99625000D01*
X128375000Y-86625000D02*
X128375000Y-85625000D01*
%TO.C,SW17*%
X123375000Y-85625000D02*
X123375000Y-86625000D01*
X122375000Y-99625000D02*
X123375000Y-99625000D01*
X123375000Y-85625000D02*
X122375000Y-85625000D01*
X123375000Y-98625000D02*
X123375000Y-99625000D01*
X109375000Y-99625000D02*
X109375000Y-98625000D01*
X110375000Y-85625000D02*
X109375000Y-85625000D01*
X109375000Y-99625000D02*
X110375000Y-99625000D01*
X109375000Y-86625000D02*
X109375000Y-85625000D01*
%TO.C,SW16*%
X104375000Y-85625000D02*
X104375000Y-86625000D01*
X103375000Y-99625000D02*
X104375000Y-99625000D01*
X104375000Y-85625000D02*
X103375000Y-85625000D01*
X104375000Y-98625000D02*
X104375000Y-99625000D01*
X90375000Y-99625000D02*
X90375000Y-98625000D01*
X91375000Y-85625000D02*
X90375000Y-85625000D01*
X90375000Y-99625000D02*
X91375000Y-99625000D01*
X90375000Y-86625000D02*
X90375000Y-85625000D01*
%TO.C,SW15*%
X85375000Y-85625000D02*
X85375000Y-86625000D01*
X84375000Y-99625000D02*
X85375000Y-99625000D01*
X85375000Y-85625000D02*
X84375000Y-85625000D01*
X85375000Y-98625000D02*
X85375000Y-99625000D01*
X71375000Y-99625000D02*
X71375000Y-98625000D01*
X72375000Y-85625000D02*
X71375000Y-85625000D01*
X71375000Y-99625000D02*
X72375000Y-99625000D01*
X71375000Y-86625000D02*
X71375000Y-85625000D01*
%TO.C,SW14*%
X66375000Y-85625000D02*
X66375000Y-86625000D01*
X65375000Y-99625000D02*
X66375000Y-99625000D01*
X66375000Y-85625000D02*
X65375000Y-85625000D01*
X66375000Y-98625000D02*
X66375000Y-99625000D01*
X52375000Y-99625000D02*
X52375000Y-98625000D01*
X53375000Y-85625000D02*
X52375000Y-85625000D01*
X52375000Y-99625000D02*
X53375000Y-99625000D01*
X52375000Y-86625000D02*
X52375000Y-85625000D01*
%TO.C,SW13*%
X47375000Y-85625000D02*
X47375000Y-86625000D01*
X46375000Y-99625000D02*
X47375000Y-99625000D01*
X47375000Y-85625000D02*
X46375000Y-85625000D01*
X47375000Y-98625000D02*
X47375000Y-99625000D01*
X33375000Y-99625000D02*
X33375000Y-98625000D01*
X34375000Y-85625000D02*
X33375000Y-85625000D01*
X33375000Y-99625000D02*
X34375000Y-99625000D01*
X33375000Y-86625000D02*
X33375000Y-85625000D01*
%TO.C,SW12*%
X261125000Y-66625000D02*
X261125000Y-67625000D01*
X260125000Y-80625000D02*
X261125000Y-80625000D01*
X261125000Y-66625000D02*
X260125000Y-66625000D01*
X261125000Y-79625000D02*
X261125000Y-80625000D01*
X247125000Y-80625000D02*
X247125000Y-79625000D01*
X248125000Y-66625000D02*
X247125000Y-66625000D01*
X247125000Y-80625000D02*
X248125000Y-80625000D01*
X247125000Y-67625000D02*
X247125000Y-66625000D01*
%TO.C,SW11*%
X242125000Y-66625000D02*
X242125000Y-67625000D01*
X241125000Y-80625000D02*
X242125000Y-80625000D01*
X242125000Y-66625000D02*
X241125000Y-66625000D01*
X242125000Y-79625000D02*
X242125000Y-80625000D01*
X228125000Y-80625000D02*
X228125000Y-79625000D01*
X229125000Y-66625000D02*
X228125000Y-66625000D01*
X228125000Y-80625000D02*
X229125000Y-80625000D01*
X228125000Y-67625000D02*
X228125000Y-66625000D01*
%TO.C,SW10*%
X223125000Y-66625000D02*
X223125000Y-67625000D01*
X222125000Y-80625000D02*
X223125000Y-80625000D01*
X223125000Y-66625000D02*
X222125000Y-66625000D01*
X223125000Y-79625000D02*
X223125000Y-80625000D01*
X209125000Y-80625000D02*
X209125000Y-79625000D01*
X210125000Y-66625000D02*
X209125000Y-66625000D01*
X209125000Y-80625000D02*
X210125000Y-80625000D01*
X209125000Y-67625000D02*
X209125000Y-66625000D01*
%TO.C,SW9*%
X204125000Y-66625000D02*
X204125000Y-67625000D01*
X203125000Y-80625000D02*
X204125000Y-80625000D01*
X204125000Y-66625000D02*
X203125000Y-66625000D01*
X204125000Y-79625000D02*
X204125000Y-80625000D01*
X190125000Y-80625000D02*
X190125000Y-79625000D01*
X191125000Y-66625000D02*
X190125000Y-66625000D01*
X190125000Y-80625000D02*
X191125000Y-80625000D01*
X190125000Y-67625000D02*
X190125000Y-66625000D01*
%TO.C,SW8*%
X185125000Y-66625000D02*
X185125000Y-67625000D01*
X184125000Y-80625000D02*
X185125000Y-80625000D01*
X185125000Y-66625000D02*
X184125000Y-66625000D01*
X185125000Y-79625000D02*
X185125000Y-80625000D01*
X171125000Y-80625000D02*
X171125000Y-79625000D01*
X172125000Y-66625000D02*
X171125000Y-66625000D01*
X171125000Y-80625000D02*
X172125000Y-80625000D01*
X171125000Y-67625000D02*
X171125000Y-66625000D01*
%TO.C,SW7*%
X166125000Y-66625000D02*
X166125000Y-67625000D01*
X165125000Y-80625000D02*
X166125000Y-80625000D01*
X166125000Y-66625000D02*
X165125000Y-66625000D01*
X166125000Y-79625000D02*
X166125000Y-80625000D01*
X152125000Y-80625000D02*
X152125000Y-79625000D01*
X153125000Y-66625000D02*
X152125000Y-66625000D01*
X152125000Y-80625000D02*
X153125000Y-80625000D01*
X152125000Y-67625000D02*
X152125000Y-66625000D01*
%TO.C,SW6*%
X147125000Y-66625000D02*
X147125000Y-67625000D01*
X146125000Y-80625000D02*
X147125000Y-80625000D01*
X147125000Y-66625000D02*
X146125000Y-66625000D01*
X147125000Y-79625000D02*
X147125000Y-80625000D01*
X133125000Y-80625000D02*
X133125000Y-79625000D01*
X134125000Y-66625000D02*
X133125000Y-66625000D01*
X133125000Y-80625000D02*
X134125000Y-80625000D01*
X133125000Y-67625000D02*
X133125000Y-66625000D01*
%TO.C,SW5*%
X128125000Y-66625000D02*
X128125000Y-67625000D01*
X127125000Y-80625000D02*
X128125000Y-80625000D01*
X128125000Y-66625000D02*
X127125000Y-66625000D01*
X128125000Y-79625000D02*
X128125000Y-80625000D01*
X114125000Y-80625000D02*
X114125000Y-79625000D01*
X115125000Y-66625000D02*
X114125000Y-66625000D01*
X114125000Y-80625000D02*
X115125000Y-80625000D01*
X114125000Y-67625000D02*
X114125000Y-66625000D01*
%TO.C,SW4*%
X109125000Y-66625000D02*
X109125000Y-67625000D01*
X108125000Y-80625000D02*
X109125000Y-80625000D01*
X109125000Y-66625000D02*
X108125000Y-66625000D01*
X109125000Y-79625000D02*
X109125000Y-80625000D01*
X95125000Y-80625000D02*
X95125000Y-79625000D01*
X96125000Y-66625000D02*
X95125000Y-66625000D01*
X95125000Y-80625000D02*
X96125000Y-80625000D01*
X95125000Y-67625000D02*
X95125000Y-66625000D01*
%TO.C,SW3*%
X90125000Y-66625000D02*
X90125000Y-67625000D01*
X89125000Y-80625000D02*
X90125000Y-80625000D01*
X90125000Y-66625000D02*
X89125000Y-66625000D01*
X90125000Y-79625000D02*
X90125000Y-80625000D01*
X76125000Y-80625000D02*
X76125000Y-79625000D01*
X77125000Y-66625000D02*
X76125000Y-66625000D01*
X76125000Y-80625000D02*
X77125000Y-80625000D01*
X76125000Y-67625000D02*
X76125000Y-66625000D01*
%TO.C,SW2*%
X71125000Y-66625000D02*
X71125000Y-67625000D01*
X70125000Y-80625000D02*
X71125000Y-80625000D01*
X71125000Y-66625000D02*
X70125000Y-66625000D01*
X71125000Y-79625000D02*
X71125000Y-80625000D01*
X57125000Y-80625000D02*
X57125000Y-79625000D01*
X58125000Y-66625000D02*
X57125000Y-66625000D01*
X57125000Y-80625000D02*
X58125000Y-80625000D01*
X57125000Y-67625000D02*
X57125000Y-66625000D01*
%TO.C,SW1*%
X52125000Y-66625000D02*
X52125000Y-67625000D01*
X51125000Y-80625000D02*
X52125000Y-80625000D01*
X52125000Y-66625000D02*
X51125000Y-66625000D01*
X52125000Y-79625000D02*
X52125000Y-80625000D01*
X38125000Y-80625000D02*
X38125000Y-79625000D01*
X39125000Y-66625000D02*
X38125000Y-66625000D01*
X38125000Y-80625000D02*
X39125000Y-80625000D01*
X38125000Y-67625000D02*
X38125000Y-66625000D01*
D13*
%TO.C,D48*%
X256375000Y-126875000D02*
X252475000Y-126875000D01*
X256375000Y-124875000D02*
X252475000Y-124875000D01*
X256375000Y-126875000D02*
X256375000Y-124875000D01*
%TO.C,D47*%
X237375000Y-126875000D02*
X233475000Y-126875000D01*
X237375000Y-124875000D02*
X233475000Y-124875000D01*
X237375000Y-126875000D02*
X237375000Y-124875000D01*
%TO.C,D46*%
X218375000Y-126875000D02*
X214475000Y-126875000D01*
X218375000Y-124875000D02*
X214475000Y-124875000D01*
X218375000Y-126875000D02*
X218375000Y-124875000D01*
%TO.C,D45*%
X199375000Y-126875000D02*
X195475000Y-126875000D01*
X199375000Y-124875000D02*
X195475000Y-124875000D01*
X199375000Y-126875000D02*
X199375000Y-124875000D01*
%TO.C,D44*%
X178000000Y-126875000D02*
X174100000Y-126875000D01*
X178000000Y-124875000D02*
X174100000Y-124875000D01*
X178000000Y-126875000D02*
X178000000Y-124875000D01*
%TO.C,D43*%
X151875000Y-126875000D02*
X147975000Y-126875000D01*
X151875000Y-124875000D02*
X147975000Y-124875000D01*
X151875000Y-126875000D02*
X151875000Y-124875000D01*
%TO.C,D42*%
X151875000Y-107875000D02*
X147975000Y-107875000D01*
X151875000Y-105875000D02*
X147975000Y-105875000D01*
X151875000Y-107875000D02*
X151875000Y-105875000D01*
%TO.C,D41*%
X125750000Y-126875000D02*
X121850000Y-126875000D01*
X125750000Y-124875000D02*
X121850000Y-124875000D01*
X125750000Y-126875000D02*
X125750000Y-124875000D01*
%TO.C,D40*%
X104375000Y-126875000D02*
X100475000Y-126875000D01*
X104375000Y-124875000D02*
X100475000Y-124875000D01*
X104375000Y-126875000D02*
X104375000Y-124875000D01*
%TO.C,D39*%
X85375000Y-126875000D02*
X81475000Y-126875000D01*
X85375000Y-124875000D02*
X81475000Y-124875000D01*
X85375000Y-126875000D02*
X85375000Y-124875000D01*
%TO.C,D38*%
X66375000Y-126875000D02*
X62475000Y-126875000D01*
X66375000Y-124875000D02*
X62475000Y-124875000D01*
X66375000Y-126875000D02*
X66375000Y-124875000D01*
%TO.C,D37*%
X47375000Y-126875000D02*
X43475000Y-126875000D01*
X47375000Y-124875000D02*
X43475000Y-124875000D01*
X47375000Y-126875000D02*
X47375000Y-124875000D01*
%TO.C,D36*%
X265875000Y-107875000D02*
X261975000Y-107875000D01*
X265875000Y-105875000D02*
X261975000Y-105875000D01*
X265875000Y-107875000D02*
X265875000Y-105875000D01*
%TO.C,D35*%
X246875000Y-107875000D02*
X242975000Y-107875000D01*
X246875000Y-105875000D02*
X242975000Y-105875000D01*
X246875000Y-107875000D02*
X246875000Y-105875000D01*
%TO.C,D34*%
X227875000Y-107875000D02*
X223975000Y-107875000D01*
X227875000Y-105875000D02*
X223975000Y-105875000D01*
X227875000Y-107875000D02*
X227875000Y-105875000D01*
%TO.C,D33*%
X208875000Y-107875000D02*
X204975000Y-107875000D01*
X208875000Y-105875000D02*
X204975000Y-105875000D01*
X208875000Y-107875000D02*
X208875000Y-105875000D01*
%TO.C,D32*%
X189875000Y-107875000D02*
X185975000Y-107875000D01*
X189875000Y-105875000D02*
X185975000Y-105875000D01*
X189875000Y-107875000D02*
X189875000Y-105875000D01*
%TO.C,D31*%
X170875000Y-107875000D02*
X166975000Y-107875000D01*
X170875000Y-105875000D02*
X166975000Y-105875000D01*
X170875000Y-107875000D02*
X170875000Y-105875000D01*
%TO.C,D30*%
X132875000Y-107875000D02*
X128975000Y-107875000D01*
X132875000Y-105875000D02*
X128975000Y-105875000D01*
X132875000Y-107875000D02*
X132875000Y-105875000D01*
%TO.C,D29*%
X113875000Y-107875000D02*
X109975000Y-107875000D01*
X113875000Y-105875000D02*
X109975000Y-105875000D01*
X113875000Y-107875000D02*
X113875000Y-105875000D01*
%TO.C,D28*%
X94875000Y-107875000D02*
X90975000Y-107875000D01*
X94875000Y-105875000D02*
X90975000Y-105875000D01*
X94875000Y-107875000D02*
X94875000Y-105875000D01*
%TO.C,D27*%
X75875000Y-107875000D02*
X71975000Y-107875000D01*
X75875000Y-105875000D02*
X71975000Y-105875000D01*
X75875000Y-107875000D02*
X75875000Y-105875000D01*
%TO.C,D26*%
X56875000Y-107875000D02*
X52975000Y-107875000D01*
X56875000Y-105875000D02*
X52975000Y-105875000D01*
X56875000Y-107875000D02*
X56875000Y-105875000D01*
%TO.C,D25*%
X37875000Y-107875000D02*
X33975000Y-107875000D01*
X37875000Y-105875000D02*
X33975000Y-105875000D01*
X37875000Y-107875000D02*
X37875000Y-105875000D01*
%TO.C,D24*%
X261125000Y-88875000D02*
X257225000Y-88875000D01*
X261125000Y-86875000D02*
X257225000Y-86875000D01*
X261125000Y-88875000D02*
X261125000Y-86875000D01*
%TO.C,D23*%
X242125000Y-88875000D02*
X238225000Y-88875000D01*
X242125000Y-86875000D02*
X238225000Y-86875000D01*
X242125000Y-88875000D02*
X242125000Y-86875000D01*
%TO.C,D22*%
X223125000Y-88875000D02*
X219225000Y-88875000D01*
X223125000Y-86875000D02*
X219225000Y-86875000D01*
X223125000Y-88875000D02*
X223125000Y-86875000D01*
%TO.C,D21*%
X204125000Y-88875000D02*
X200225000Y-88875000D01*
X204125000Y-86875000D02*
X200225000Y-86875000D01*
X204125000Y-88875000D02*
X204125000Y-86875000D01*
%TO.C,D20*%
X185125000Y-88875000D02*
X181225000Y-88875000D01*
X185125000Y-86875000D02*
X181225000Y-86875000D01*
X185125000Y-88875000D02*
X185125000Y-86875000D01*
%TO.C,D19*%
X166125000Y-88875000D02*
X162225000Y-88875000D01*
X166125000Y-86875000D02*
X162225000Y-86875000D01*
X166125000Y-88875000D02*
X166125000Y-86875000D01*
%TO.C,D18*%
X137625000Y-88875000D02*
X133725000Y-88875000D01*
X137625000Y-86875000D02*
X133725000Y-86875000D01*
X137625000Y-88875000D02*
X137625000Y-86875000D01*
%TO.C,D17*%
X118625000Y-88875000D02*
X114725000Y-88875000D01*
X118625000Y-86875000D02*
X114725000Y-86875000D01*
X118625000Y-88875000D02*
X118625000Y-86875000D01*
%TO.C,D16*%
X99625000Y-88875000D02*
X95725000Y-88875000D01*
X99625000Y-86875000D02*
X95725000Y-86875000D01*
X99625000Y-88875000D02*
X99625000Y-86875000D01*
%TO.C,D15*%
X80625000Y-88875000D02*
X76725000Y-88875000D01*
X80625000Y-86875000D02*
X76725000Y-86875000D01*
X80625000Y-88875000D02*
X80625000Y-86875000D01*
%TO.C,D14*%
X61625000Y-88875000D02*
X57725000Y-88875000D01*
X61625000Y-86875000D02*
X57725000Y-86875000D01*
X61625000Y-88875000D02*
X61625000Y-86875000D01*
%TO.C,D13*%
X42625000Y-88875000D02*
X38725000Y-88875000D01*
X42625000Y-86875000D02*
X38725000Y-86875000D01*
X42625000Y-88875000D02*
X42625000Y-86875000D01*
%TO.C,D12*%
X256375000Y-69875000D02*
X252475000Y-69875000D01*
X256375000Y-67875000D02*
X252475000Y-67875000D01*
X256375000Y-69875000D02*
X256375000Y-67875000D01*
%TO.C,D11*%
X237375000Y-69875000D02*
X233475000Y-69875000D01*
X237375000Y-67875000D02*
X233475000Y-67875000D01*
X237375000Y-69875000D02*
X237375000Y-67875000D01*
%TO.C,D10*%
X218375000Y-69875000D02*
X214475000Y-69875000D01*
X218375000Y-67875000D02*
X214475000Y-67875000D01*
X218375000Y-69875000D02*
X218375000Y-67875000D01*
%TO.C,D9*%
X199375000Y-69875000D02*
X195475000Y-69875000D01*
X199375000Y-67875000D02*
X195475000Y-67875000D01*
X199375000Y-69875000D02*
X199375000Y-67875000D01*
%TO.C,D8*%
X180375000Y-69875000D02*
X176475000Y-69875000D01*
X180375000Y-67875000D02*
X176475000Y-67875000D01*
X180375000Y-69875000D02*
X180375000Y-67875000D01*
%TO.C,D7*%
X161375000Y-69875000D02*
X157475000Y-69875000D01*
X161375000Y-67875000D02*
X157475000Y-67875000D01*
X161375000Y-69875000D02*
X161375000Y-67875000D01*
%TO.C,D6*%
X142375000Y-69875000D02*
X138475000Y-69875000D01*
X142375000Y-67875000D02*
X138475000Y-67875000D01*
X142375000Y-69875000D02*
X142375000Y-67875000D01*
%TO.C,D5*%
X123375000Y-69875000D02*
X119475000Y-69875000D01*
X123375000Y-67875000D02*
X119475000Y-67875000D01*
X123375000Y-69875000D02*
X123375000Y-67875000D01*
%TO.C,D4*%
X104375000Y-69875000D02*
X100475000Y-69875000D01*
X104375000Y-67875000D02*
X100475000Y-67875000D01*
X104375000Y-69875000D02*
X104375000Y-67875000D01*
%TO.C,D3*%
X85375000Y-69875000D02*
X81475000Y-69875000D01*
X85375000Y-67875000D02*
X81475000Y-67875000D01*
X85375000Y-69875000D02*
X85375000Y-67875000D01*
%TO.C,D2*%
X66375000Y-69875000D02*
X62475000Y-69875000D01*
X66375000Y-67875000D02*
X62475000Y-67875000D01*
X66375000Y-69875000D02*
X66375000Y-67875000D01*
%TO.C,D1*%
X47375000Y-69875000D02*
X43475000Y-69875000D01*
X47375000Y-67875000D02*
X43475000Y-67875000D01*
X47375000Y-69875000D02*
X47375000Y-67875000D01*
%TO.C,U1*%
D14*
X17831857Y-83586523D02*
X17831857Y-84614619D01*
X17904428Y-84735571D01*
X17977000Y-84796047D01*
X18122142Y-84856523D01*
X18412428Y-84856523D01*
X18557571Y-84796047D01*
X18630142Y-84735571D01*
X18702714Y-84614619D01*
X18702714Y-83586523D01*
X20226714Y-84856523D02*
X19355857Y-84856523D01*
X19791285Y-84856523D02*
X19791285Y-83586523D01*
X19646142Y-83767952D01*
X19501000Y-83888904D01*
X19355857Y-83949380D01*
X14384714Y-103652523D02*
X14384714Y-102382523D01*
X14965285Y-102382523D01*
X15110428Y-102443000D01*
X15182999Y-102503476D01*
X15255571Y-102624428D01*
X15255571Y-102805857D01*
X15182999Y-102926809D01*
X15110428Y-102987285D01*
X14965285Y-103047761D01*
X14384714Y-103047761D01*
X15908714Y-103652523D02*
X15908714Y-102805857D01*
X15908714Y-103047761D02*
X15981285Y-102926809D01*
X16053857Y-102866333D01*
X16198999Y-102805857D01*
X16344142Y-102805857D01*
X17069857Y-103652523D02*
X16924714Y-103592047D01*
X16852142Y-103531571D01*
X16779571Y-103410619D01*
X16779571Y-103047761D01*
X16852142Y-102926809D01*
X16924714Y-102866333D01*
X17069857Y-102805857D01*
X17287571Y-102805857D01*
X17432714Y-102866333D01*
X17505285Y-102926809D01*
X17577857Y-103047761D01*
X17577857Y-103410619D01*
X17505285Y-103531571D01*
X17432714Y-103592047D01*
X17287571Y-103652523D01*
X17069857Y-103652523D01*
X18231000Y-103652523D02*
X18231000Y-102382523D01*
X18739000Y-103289666D01*
X19247000Y-102382523D01*
X19247000Y-103652523D01*
X19972714Y-103652523D02*
X19972714Y-102805857D01*
X19972714Y-102382523D02*
X19900142Y-102443000D01*
X19972714Y-102503476D01*
X20045285Y-102443000D01*
X19972714Y-102382523D01*
X19972714Y-102503476D01*
X21351571Y-103592047D02*
X21206428Y-103652523D01*
X20916142Y-103652523D01*
X20771000Y-103592047D01*
X20698428Y-103531571D01*
X20625857Y-103410619D01*
X20625857Y-103047761D01*
X20698428Y-102926809D01*
X20771000Y-102866333D01*
X20916142Y-102805857D01*
X21206428Y-102805857D01*
X21351571Y-102866333D01*
X22004714Y-103652523D02*
X22004714Y-102805857D01*
X22004714Y-103047761D02*
X22077285Y-102926809D01*
X22149857Y-102866333D01*
X22295000Y-102805857D01*
X22440142Y-102805857D01*
X23165857Y-103652523D02*
X23020714Y-103592047D01*
X22948142Y-103531571D01*
X22875571Y-103410619D01*
X22875571Y-103047761D01*
X22948142Y-102926809D01*
X23020714Y-102866333D01*
X23165857Y-102805857D01*
X23383571Y-102805857D01*
X23528714Y-102866333D01*
X23601285Y-102926809D01*
X23673857Y-103047761D01*
X23673857Y-103410619D01*
X23601285Y-103531571D01*
X23528714Y-103592047D01*
X23383571Y-103652523D01*
X23165857Y-103652523D01*
D12*
X13237651Y-71091904D02*
X13694794Y-71091904D01*
X13466223Y-71891904D02*
X13466223Y-71091904D01*
X13885270Y-71091904D02*
X14418604Y-71891904D01*
X14418604Y-71091904D02*
X13885270Y-71891904D01*
X14875747Y-71091904D02*
X14951937Y-71091904D01*
X15028128Y-71130000D01*
X15066223Y-71168095D01*
X15104318Y-71244285D01*
X15142413Y-71396666D01*
X15142413Y-71587142D01*
X15104318Y-71739523D01*
X15066223Y-71815714D01*
X15028128Y-71853809D01*
X14951937Y-71891904D01*
X14875747Y-71891904D01*
X14799556Y-71853809D01*
X14761461Y-71815714D01*
X14723366Y-71739523D01*
X14685270Y-71587142D01*
X14685270Y-71396666D01*
X14723366Y-71244285D01*
X14761461Y-71168095D01*
X14799556Y-71130000D01*
X14875747Y-71091904D01*
X16056699Y-71053809D02*
X15370985Y-72082380D01*
X16323366Y-71891904D02*
X16323366Y-71091904D01*
X16513842Y-71091904D01*
X16628128Y-71130000D01*
X16704318Y-71206190D01*
X16742413Y-71282380D01*
X16780508Y-71434761D01*
X16780508Y-71549047D01*
X16742413Y-71701428D01*
X16704318Y-71777619D01*
X16628128Y-71853809D01*
X16513842Y-71891904D01*
X16323366Y-71891904D01*
X17047175Y-71091904D02*
X17542413Y-71091904D01*
X17275747Y-71396666D01*
X17390032Y-71396666D01*
X17466223Y-71434761D01*
X17504318Y-71472857D01*
X17542413Y-71549047D01*
X17542413Y-71739523D01*
X17504318Y-71815714D01*
X17466223Y-71853809D01*
X17390032Y-71891904D01*
X17161461Y-71891904D01*
X17085270Y-71853809D01*
X17047175Y-71815714D01*
X13237651Y-71091904D02*
X13694794Y-71091904D01*
X13466223Y-71891904D02*
X13466223Y-71091904D01*
X13885270Y-71091904D02*
X14418604Y-71891904D01*
X14418604Y-71091904D02*
X13885270Y-71891904D01*
X14875747Y-71091904D02*
X14951937Y-71091904D01*
X15028128Y-71130000D01*
X15066223Y-71168095D01*
X15104318Y-71244285D01*
X15142413Y-71396666D01*
X15142413Y-71587142D01*
X15104318Y-71739523D01*
X15066223Y-71815714D01*
X15028128Y-71853809D01*
X14951937Y-71891904D01*
X14875747Y-71891904D01*
X14799556Y-71853809D01*
X14761461Y-71815714D01*
X14723366Y-71739523D01*
X14685270Y-71587142D01*
X14685270Y-71396666D01*
X14723366Y-71244285D01*
X14761461Y-71168095D01*
X14799556Y-71130000D01*
X14875747Y-71091904D01*
X16056699Y-71053809D02*
X15370985Y-72082380D01*
X16323366Y-71891904D02*
X16323366Y-71091904D01*
X16513842Y-71091904D01*
X16628128Y-71130000D01*
X16704318Y-71206190D01*
X16742413Y-71282380D01*
X16780508Y-71434761D01*
X16780508Y-71549047D01*
X16742413Y-71701428D01*
X16704318Y-71777619D01*
X16628128Y-71853809D01*
X16513842Y-71891904D01*
X16323366Y-71891904D01*
X17047175Y-71091904D02*
X17542413Y-71091904D01*
X17275747Y-71396666D01*
X17390032Y-71396666D01*
X17466223Y-71434761D01*
X17504318Y-71472857D01*
X17542413Y-71549047D01*
X17542413Y-71739523D01*
X17504318Y-71815714D01*
X17466223Y-71853809D01*
X17390032Y-71891904D01*
X17161461Y-71891904D01*
X17085270Y-71853809D01*
X17047175Y-71815714D01*
X12948523Y-74431904D02*
X12948523Y-73631904D01*
X13139000Y-73631904D01*
X13253285Y-73670000D01*
X13329476Y-73746190D01*
X13367571Y-73822380D01*
X13405666Y-73974761D01*
X13405666Y-74089047D01*
X13367571Y-74241428D01*
X13329476Y-74317619D01*
X13253285Y-74393809D01*
X13139000Y-74431904D01*
X12948523Y-74431904D01*
X13710428Y-73708095D02*
X13748523Y-73670000D01*
X13824714Y-73631904D01*
X14015190Y-73631904D01*
X14091380Y-73670000D01*
X14129476Y-73708095D01*
X14167571Y-73784285D01*
X14167571Y-73860476D01*
X14129476Y-73974761D01*
X13672333Y-74431904D01*
X14167571Y-74431904D01*
X12948523Y-84591904D02*
X12948523Y-83791904D01*
X13139000Y-83791904D01*
X13253285Y-83830000D01*
X13329476Y-83906190D01*
X13367571Y-83982380D01*
X13405666Y-84134761D01*
X13405666Y-84249047D01*
X13367571Y-84401428D01*
X13329476Y-84477619D01*
X13253285Y-84553809D01*
X13139000Y-84591904D01*
X12948523Y-84591904D01*
X13900904Y-83791904D02*
X13977095Y-83791904D01*
X14053285Y-83830000D01*
X14091380Y-83868095D01*
X14129476Y-83944285D01*
X14167571Y-84096666D01*
X14167571Y-84287142D01*
X14129476Y-84439523D01*
X14091380Y-84515714D01*
X14053285Y-84553809D01*
X13977095Y-84591904D01*
X13900904Y-84591904D01*
X13824714Y-84553809D01*
X13786619Y-84515714D01*
X13748523Y-84439523D01*
X13710428Y-84287142D01*
X13710428Y-84096666D01*
X13748523Y-83944285D01*
X13786619Y-83868095D01*
X13824714Y-83830000D01*
X13900904Y-83791904D01*
X12948523Y-82051904D02*
X12948523Y-81251904D01*
X13139000Y-81251904D01*
X13253285Y-81290000D01*
X13329476Y-81366190D01*
X13367571Y-81442380D01*
X13405666Y-81594761D01*
X13405666Y-81709047D01*
X13367571Y-81861428D01*
X13329476Y-81937619D01*
X13253285Y-82013809D01*
X13139000Y-82051904D01*
X12948523Y-82051904D01*
X14167571Y-82051904D02*
X13710428Y-82051904D01*
X13939000Y-82051904D02*
X13939000Y-81251904D01*
X13862809Y-81366190D01*
X13786619Y-81442380D01*
X13710428Y-81480476D01*
X12929476Y-78750000D02*
X12853285Y-78711904D01*
X12739000Y-78711904D01*
X12624714Y-78750000D01*
X12548523Y-78826190D01*
X12510428Y-78902380D01*
X12472333Y-79054761D01*
X12472333Y-79169047D01*
X12510428Y-79321428D01*
X12548523Y-79397619D01*
X12624714Y-79473809D01*
X12739000Y-79511904D01*
X12815190Y-79511904D01*
X12929476Y-79473809D01*
X12967571Y-79435714D01*
X12967571Y-79169047D01*
X12815190Y-79169047D01*
X13310428Y-79511904D02*
X13310428Y-78711904D01*
X13767571Y-79511904D01*
X13767571Y-78711904D01*
X14148523Y-79511904D02*
X14148523Y-78711904D01*
X14339000Y-78711904D01*
X14453285Y-78750000D01*
X14529476Y-78826190D01*
X14567571Y-78902380D01*
X14605666Y-79054761D01*
X14605666Y-79169047D01*
X14567571Y-79321428D01*
X14529476Y-79397619D01*
X14453285Y-79473809D01*
X14339000Y-79511904D01*
X14148523Y-79511904D01*
X12929476Y-76210000D02*
X12853285Y-76171904D01*
X12739000Y-76171904D01*
X12624714Y-76210000D01*
X12548523Y-76286190D01*
X12510428Y-76362380D01*
X12472333Y-76514761D01*
X12472333Y-76629047D01*
X12510428Y-76781428D01*
X12548523Y-76857619D01*
X12624714Y-76933809D01*
X12739000Y-76971904D01*
X12815190Y-76971904D01*
X12929476Y-76933809D01*
X12967571Y-76895714D01*
X12967571Y-76629047D01*
X12815190Y-76629047D01*
X13310428Y-76971904D02*
X13310428Y-76171904D01*
X13767571Y-76971904D01*
X13767571Y-76171904D01*
X14148523Y-76971904D02*
X14148523Y-76171904D01*
X14339000Y-76171904D01*
X14453285Y-76210000D01*
X14529476Y-76286190D01*
X14567571Y-76362380D01*
X14605666Y-76514761D01*
X14605666Y-76629047D01*
X14567571Y-76781428D01*
X14529476Y-76857619D01*
X14453285Y-76933809D01*
X14339000Y-76971904D01*
X14148523Y-76971904D01*
X12948523Y-87131904D02*
X12948523Y-86331904D01*
X13139000Y-86331904D01*
X13253285Y-86370000D01*
X13329476Y-86446190D01*
X13367571Y-86522380D01*
X13405666Y-86674761D01*
X13405666Y-86789047D01*
X13367571Y-86941428D01*
X13329476Y-87017619D01*
X13253285Y-87093809D01*
X13139000Y-87131904D01*
X12948523Y-87131904D01*
X14091380Y-86598571D02*
X14091380Y-87131904D01*
X13900904Y-86293809D02*
X13710428Y-86865238D01*
X14205666Y-86865238D01*
X13405666Y-89595714D02*
X13367571Y-89633809D01*
X13253285Y-89671904D01*
X13177095Y-89671904D01*
X13062809Y-89633809D01*
X12986619Y-89557619D01*
X12948523Y-89481428D01*
X12910428Y-89329047D01*
X12910428Y-89214761D01*
X12948523Y-89062380D01*
X12986619Y-88986190D01*
X13062809Y-88910000D01*
X13177095Y-88871904D01*
X13253285Y-88871904D01*
X13367571Y-88910000D01*
X13405666Y-88948095D01*
X14091380Y-88871904D02*
X13939000Y-88871904D01*
X13862809Y-88910000D01*
X13824714Y-88948095D01*
X13748523Y-89062380D01*
X13710428Y-89214761D01*
X13710428Y-89519523D01*
X13748523Y-89595714D01*
X13786619Y-89633809D01*
X13862809Y-89671904D01*
X14015190Y-89671904D01*
X14091380Y-89633809D01*
X14129476Y-89595714D01*
X14167571Y-89519523D01*
X14167571Y-89329047D01*
X14129476Y-89252857D01*
X14091380Y-89214761D01*
X14015190Y-89176666D01*
X13862809Y-89176666D01*
X13786619Y-89214761D01*
X13748523Y-89252857D01*
X13710428Y-89329047D01*
X12948523Y-92211904D02*
X12948523Y-91411904D01*
X13139000Y-91411904D01*
X13253285Y-91450000D01*
X13329476Y-91526190D01*
X13367571Y-91602380D01*
X13405666Y-91754761D01*
X13405666Y-91869047D01*
X13367571Y-92021428D01*
X13329476Y-92097619D01*
X13253285Y-92173809D01*
X13139000Y-92211904D01*
X12948523Y-92211904D01*
X13672333Y-91411904D02*
X14205666Y-91411904D01*
X13862809Y-92211904D01*
X12986619Y-94332857D02*
X13253285Y-94332857D01*
X13367571Y-94751904D02*
X12986619Y-94751904D01*
X12986619Y-93951904D01*
X13367571Y-93951904D01*
X14053285Y-93951904D02*
X13900904Y-93951904D01*
X13824714Y-93990000D01*
X13786619Y-94028095D01*
X13710428Y-94142380D01*
X13672333Y-94294761D01*
X13672333Y-94599523D01*
X13710428Y-94675714D01*
X13748523Y-94713809D01*
X13824714Y-94751904D01*
X13977095Y-94751904D01*
X14053285Y-94713809D01*
X14091380Y-94675714D01*
X14129476Y-94599523D01*
X14129476Y-94409047D01*
X14091380Y-94332857D01*
X14053285Y-94294761D01*
X13977095Y-94256666D01*
X13824714Y-94256666D01*
X13748523Y-94294761D01*
X13710428Y-94332857D01*
X13672333Y-94409047D01*
X13215190Y-96872857D02*
X13329476Y-96910952D01*
X13367571Y-96949047D01*
X13405666Y-97025238D01*
X13405666Y-97139523D01*
X13367571Y-97215714D01*
X13329476Y-97253809D01*
X13253285Y-97291904D01*
X12948523Y-97291904D01*
X12948523Y-96491904D01*
X13215190Y-96491904D01*
X13291380Y-96530000D01*
X13329476Y-96568095D01*
X13367571Y-96644285D01*
X13367571Y-96720476D01*
X13329476Y-96796666D01*
X13291380Y-96834761D01*
X13215190Y-96872857D01*
X12948523Y-96872857D01*
X14091380Y-96758571D02*
X14091380Y-97291904D01*
X13900904Y-96453809D02*
X13710428Y-97025238D01*
X14205666Y-97025238D01*
X13215190Y-99412857D02*
X13329476Y-99450952D01*
X13367571Y-99489047D01*
X13405666Y-99565238D01*
X13405666Y-99679523D01*
X13367571Y-99755714D01*
X13329476Y-99793809D01*
X13253285Y-99831904D01*
X12948523Y-99831904D01*
X12948523Y-99031904D01*
X13215190Y-99031904D01*
X13291380Y-99070000D01*
X13329476Y-99108095D01*
X13367571Y-99184285D01*
X13367571Y-99260476D01*
X13329476Y-99336666D01*
X13291380Y-99374761D01*
X13215190Y-99412857D01*
X12948523Y-99412857D01*
X14129476Y-99031904D02*
X13748523Y-99031904D01*
X13710428Y-99412857D01*
X13748523Y-99374761D01*
X13824714Y-99336666D01*
X14015190Y-99336666D01*
X14091380Y-99374761D01*
X14129476Y-99412857D01*
X14167571Y-99489047D01*
X14167571Y-99679523D01*
X14129476Y-99755714D01*
X14091380Y-99793809D01*
X14015190Y-99831904D01*
X13824714Y-99831904D01*
X13748523Y-99793809D01*
X13710428Y-99755714D01*
X24137190Y-99412857D02*
X24251476Y-99450952D01*
X24289571Y-99489047D01*
X24327666Y-99565238D01*
X24327666Y-99679523D01*
X24289571Y-99755714D01*
X24251476Y-99793809D01*
X24175285Y-99831904D01*
X23870523Y-99831904D01*
X23870523Y-99031904D01*
X24137190Y-99031904D01*
X24213380Y-99070000D01*
X24251476Y-99108095D01*
X24289571Y-99184285D01*
X24289571Y-99260476D01*
X24251476Y-99336666D01*
X24213380Y-99374761D01*
X24137190Y-99412857D01*
X23870523Y-99412857D01*
X25013380Y-99031904D02*
X24861000Y-99031904D01*
X24784809Y-99070000D01*
X24746714Y-99108095D01*
X24670523Y-99222380D01*
X24632428Y-99374761D01*
X24632428Y-99679523D01*
X24670523Y-99755714D01*
X24708619Y-99793809D01*
X24784809Y-99831904D01*
X24937190Y-99831904D01*
X25013380Y-99793809D01*
X25051476Y-99755714D01*
X25089571Y-99679523D01*
X25089571Y-99489047D01*
X25051476Y-99412857D01*
X25013380Y-99374761D01*
X24937190Y-99336666D01*
X24784809Y-99336666D01*
X24708619Y-99374761D01*
X24670523Y-99412857D01*
X24632428Y-99489047D01*
X24137190Y-96872857D02*
X24251476Y-96910952D01*
X24289571Y-96949047D01*
X24327666Y-97025238D01*
X24327666Y-97139523D01*
X24289571Y-97215714D01*
X24251476Y-97253809D01*
X24175285Y-97291904D01*
X23870523Y-97291904D01*
X23870523Y-96491904D01*
X24137190Y-96491904D01*
X24213380Y-96530000D01*
X24251476Y-96568095D01*
X24289571Y-96644285D01*
X24289571Y-96720476D01*
X24251476Y-96796666D01*
X24213380Y-96834761D01*
X24137190Y-96872857D01*
X23870523Y-96872857D01*
X24632428Y-96568095D02*
X24670523Y-96530000D01*
X24746714Y-96491904D01*
X24937190Y-96491904D01*
X25013380Y-96530000D01*
X25051476Y-96568095D01*
X25089571Y-96644285D01*
X25089571Y-96720476D01*
X25051476Y-96834761D01*
X24594333Y-97291904D01*
X25089571Y-97291904D01*
X24137190Y-94332857D02*
X24251476Y-94370952D01*
X24289571Y-94409047D01*
X24327666Y-94485238D01*
X24327666Y-94599523D01*
X24289571Y-94675714D01*
X24251476Y-94713809D01*
X24175285Y-94751904D01*
X23870523Y-94751904D01*
X23870523Y-93951904D01*
X24137190Y-93951904D01*
X24213380Y-93990000D01*
X24251476Y-94028095D01*
X24289571Y-94104285D01*
X24289571Y-94180476D01*
X24251476Y-94256666D01*
X24213380Y-94294761D01*
X24137190Y-94332857D01*
X23870523Y-94332857D01*
X24594333Y-93951904D02*
X25089571Y-93951904D01*
X24822904Y-94256666D01*
X24937190Y-94256666D01*
X25013380Y-94294761D01*
X25051476Y-94332857D01*
X25089571Y-94409047D01*
X25089571Y-94599523D01*
X25051476Y-94675714D01*
X25013380Y-94713809D01*
X24937190Y-94751904D01*
X24708619Y-94751904D01*
X24632428Y-94713809D01*
X24594333Y-94675714D01*
X24137190Y-91792857D02*
X24251476Y-91830952D01*
X24289571Y-91869047D01*
X24327666Y-91945238D01*
X24327666Y-92059523D01*
X24289571Y-92135714D01*
X24251476Y-92173809D01*
X24175285Y-92211904D01*
X23870523Y-92211904D01*
X23870523Y-91411904D01*
X24137190Y-91411904D01*
X24213380Y-91450000D01*
X24251476Y-91488095D01*
X24289571Y-91564285D01*
X24289571Y-91640476D01*
X24251476Y-91716666D01*
X24213380Y-91754761D01*
X24137190Y-91792857D01*
X23870523Y-91792857D01*
X25089571Y-92211904D02*
X24632428Y-92211904D01*
X24861000Y-92211904D02*
X24861000Y-91411904D01*
X24784809Y-91526190D01*
X24708619Y-91602380D01*
X24632428Y-91640476D01*
X24194333Y-89252857D02*
X23927666Y-89252857D01*
X23927666Y-89671904D02*
X23927666Y-88871904D01*
X24308619Y-88871904D01*
X24537190Y-88871904D02*
X25070523Y-88871904D01*
X24727666Y-89671904D01*
X24194333Y-86712857D02*
X23927666Y-86712857D01*
X23927666Y-87131904D02*
X23927666Y-86331904D01*
X24308619Y-86331904D01*
X24956238Y-86331904D02*
X24803857Y-86331904D01*
X24727666Y-86370000D01*
X24689571Y-86408095D01*
X24613380Y-86522380D01*
X24575285Y-86674761D01*
X24575285Y-86979523D01*
X24613380Y-87055714D01*
X24651476Y-87093809D01*
X24727666Y-87131904D01*
X24880047Y-87131904D01*
X24956238Y-87093809D01*
X24994333Y-87055714D01*
X25032428Y-86979523D01*
X25032428Y-86789047D01*
X24994333Y-86712857D01*
X24956238Y-86674761D01*
X24880047Y-86636666D01*
X24727666Y-86636666D01*
X24651476Y-86674761D01*
X24613380Y-86712857D01*
X24575285Y-86789047D01*
X24194333Y-84172857D02*
X23927666Y-84172857D01*
X23927666Y-84591904D02*
X23927666Y-83791904D01*
X24308619Y-83791904D01*
X24994333Y-83791904D02*
X24613380Y-83791904D01*
X24575285Y-84172857D01*
X24613380Y-84134761D01*
X24689571Y-84096666D01*
X24880047Y-84096666D01*
X24956238Y-84134761D01*
X24994333Y-84172857D01*
X25032428Y-84249047D01*
X25032428Y-84439523D01*
X24994333Y-84515714D01*
X24956238Y-84553809D01*
X24880047Y-84591904D01*
X24689571Y-84591904D01*
X24613380Y-84553809D01*
X24575285Y-84515714D01*
X24194333Y-81632857D02*
X23927666Y-81632857D01*
X23927666Y-82051904D02*
X23927666Y-81251904D01*
X24308619Y-81251904D01*
X24956238Y-81518571D02*
X24956238Y-82051904D01*
X24765761Y-81213809D02*
X24575285Y-81785238D01*
X25070523Y-81785238D01*
X23394333Y-78711904D02*
X23661000Y-79511904D01*
X23927666Y-78711904D01*
X24651476Y-79435714D02*
X24613380Y-79473809D01*
X24499095Y-79511904D01*
X24422904Y-79511904D01*
X24308619Y-79473809D01*
X24232428Y-79397619D01*
X24194333Y-79321428D01*
X24156238Y-79169047D01*
X24156238Y-79054761D01*
X24194333Y-78902380D01*
X24232428Y-78826190D01*
X24308619Y-78750000D01*
X24422904Y-78711904D01*
X24499095Y-78711904D01*
X24613380Y-78750000D01*
X24651476Y-78788095D01*
X25451476Y-79435714D02*
X25413380Y-79473809D01*
X25299095Y-79511904D01*
X25222904Y-79511904D01*
X25108619Y-79473809D01*
X25032428Y-79397619D01*
X24994333Y-79321428D01*
X24956238Y-79169047D01*
X24956238Y-79054761D01*
X24994333Y-78902380D01*
X25032428Y-78826190D01*
X25108619Y-78750000D01*
X25222904Y-78711904D01*
X25299095Y-78711904D01*
X25413380Y-78750000D01*
X25451476Y-78788095D01*
X24022904Y-76844904D02*
X23756238Y-76463952D01*
X23565761Y-76844904D02*
X23565761Y-76044904D01*
X23870523Y-76044904D01*
X23946714Y-76083000D01*
X23984809Y-76121095D01*
X24022904Y-76197285D01*
X24022904Y-76311571D01*
X23984809Y-76387761D01*
X23946714Y-76425857D01*
X23870523Y-76463952D01*
X23565761Y-76463952D01*
X24327666Y-76806809D02*
X24441952Y-76844904D01*
X24632428Y-76844904D01*
X24708619Y-76806809D01*
X24746714Y-76768714D01*
X24784809Y-76692523D01*
X24784809Y-76616333D01*
X24746714Y-76540142D01*
X24708619Y-76502047D01*
X24632428Y-76463952D01*
X24480047Y-76425857D01*
X24403857Y-76387761D01*
X24365761Y-76349666D01*
X24327666Y-76273476D01*
X24327666Y-76197285D01*
X24365761Y-76121095D01*
X24403857Y-76083000D01*
X24480047Y-76044904D01*
X24670523Y-76044904D01*
X24784809Y-76083000D01*
X25013380Y-76044904D02*
X25470523Y-76044904D01*
X25241952Y-76844904D02*
X25241952Y-76044904D01*
X23851476Y-73670000D02*
X23775285Y-73631904D01*
X23661000Y-73631904D01*
X23546714Y-73670000D01*
X23470523Y-73746190D01*
X23432428Y-73822380D01*
X23394333Y-73974761D01*
X23394333Y-74089047D01*
X23432428Y-74241428D01*
X23470523Y-74317619D01*
X23546714Y-74393809D01*
X23661000Y-74431904D01*
X23737190Y-74431904D01*
X23851476Y-74393809D01*
X23889571Y-74355714D01*
X23889571Y-74089047D01*
X23737190Y-74089047D01*
X24232428Y-74431904D02*
X24232428Y-73631904D01*
X24689571Y-74431904D01*
X24689571Y-73631904D01*
X25070523Y-74431904D02*
X25070523Y-73631904D01*
X25261000Y-73631904D01*
X25375285Y-73670000D01*
X25451476Y-73746190D01*
X25489571Y-73822380D01*
X25527666Y-73974761D01*
X25527666Y-74089047D01*
X25489571Y-74241428D01*
X25451476Y-74317619D01*
X25375285Y-74393809D01*
X25261000Y-74431904D01*
X25070523Y-74431904D01*
X23908619Y-71891904D02*
X23641952Y-71510952D01*
X23451476Y-71891904D02*
X23451476Y-71091904D01*
X23756238Y-71091904D01*
X23832428Y-71130000D01*
X23870523Y-71168095D01*
X23908619Y-71244285D01*
X23908619Y-71358571D01*
X23870523Y-71434761D01*
X23832428Y-71472857D01*
X23756238Y-71510952D01*
X23451476Y-71510952D01*
X24213380Y-71663333D02*
X24594333Y-71663333D01*
X24137190Y-71891904D02*
X24403857Y-71091904D01*
X24670523Y-71891904D01*
X24861000Y-71091904D02*
X25051476Y-71891904D01*
X25203857Y-71320476D01*
X25356238Y-71891904D01*
X25546714Y-71091904D01*
X23908619Y-71891904D02*
X23641952Y-71510952D01*
X23451476Y-71891904D02*
X23451476Y-71091904D01*
X23756238Y-71091904D01*
X23832428Y-71130000D01*
X23870523Y-71168095D01*
X23908619Y-71244285D01*
X23908619Y-71358571D01*
X23870523Y-71434761D01*
X23832428Y-71472857D01*
X23756238Y-71510952D01*
X23451476Y-71510952D01*
X24213380Y-71663333D02*
X24594333Y-71663333D01*
X24137190Y-71891904D02*
X24403857Y-71091904D01*
X24670523Y-71891904D01*
X24861000Y-71091904D02*
X25051476Y-71891904D01*
X25203857Y-71320476D01*
X25356238Y-71891904D01*
X25546714Y-71091904D01*
X23851476Y-73670000D02*
X23775285Y-73631904D01*
X23661000Y-73631904D01*
X23546714Y-73670000D01*
X23470523Y-73746190D01*
X23432428Y-73822380D01*
X23394333Y-73974761D01*
X23394333Y-74089047D01*
X23432428Y-74241428D01*
X23470523Y-74317619D01*
X23546714Y-74393809D01*
X23661000Y-74431904D01*
X23737190Y-74431904D01*
X23851476Y-74393809D01*
X23889571Y-74355714D01*
X23889571Y-74089047D01*
X23737190Y-74089047D01*
X24232428Y-74431904D02*
X24232428Y-73631904D01*
X24689571Y-74431904D01*
X24689571Y-73631904D01*
X25070523Y-74431904D02*
X25070523Y-73631904D01*
X25261000Y-73631904D01*
X25375285Y-73670000D01*
X25451476Y-73746190D01*
X25489571Y-73822380D01*
X25527666Y-73974761D01*
X25527666Y-74089047D01*
X25489571Y-74241428D01*
X25451476Y-74317619D01*
X25375285Y-74393809D01*
X25261000Y-74431904D01*
X25070523Y-74431904D01*
X23394333Y-78711904D02*
X23661000Y-79511904D01*
X23927666Y-78711904D01*
X24651476Y-79435714D02*
X24613380Y-79473809D01*
X24499095Y-79511904D01*
X24422904Y-79511904D01*
X24308619Y-79473809D01*
X24232428Y-79397619D01*
X24194333Y-79321428D01*
X24156238Y-79169047D01*
X24156238Y-79054761D01*
X24194333Y-78902380D01*
X24232428Y-78826190D01*
X24308619Y-78750000D01*
X24422904Y-78711904D01*
X24499095Y-78711904D01*
X24613380Y-78750000D01*
X24651476Y-78788095D01*
X25451476Y-79435714D02*
X25413380Y-79473809D01*
X25299095Y-79511904D01*
X25222904Y-79511904D01*
X25108619Y-79473809D01*
X25032428Y-79397619D01*
X24994333Y-79321428D01*
X24956238Y-79169047D01*
X24956238Y-79054761D01*
X24994333Y-78902380D01*
X25032428Y-78826190D01*
X25108619Y-78750000D01*
X25222904Y-78711904D01*
X25299095Y-78711904D01*
X25413380Y-78750000D01*
X25451476Y-78788095D01*
X24194333Y-81632857D02*
X23927666Y-81632857D01*
X23927666Y-82051904D02*
X23927666Y-81251904D01*
X24308619Y-81251904D01*
X24956238Y-81518571D02*
X24956238Y-82051904D01*
X24765761Y-81213809D02*
X24575285Y-81785238D01*
X25070523Y-81785238D01*
X24194333Y-84172857D02*
X23927666Y-84172857D01*
X23927666Y-84591904D02*
X23927666Y-83791904D01*
X24308619Y-83791904D01*
X24994333Y-83791904D02*
X24613380Y-83791904D01*
X24575285Y-84172857D01*
X24613380Y-84134761D01*
X24689571Y-84096666D01*
X24880047Y-84096666D01*
X24956238Y-84134761D01*
X24994333Y-84172857D01*
X25032428Y-84249047D01*
X25032428Y-84439523D01*
X24994333Y-84515714D01*
X24956238Y-84553809D01*
X24880047Y-84591904D01*
X24689571Y-84591904D01*
X24613380Y-84553809D01*
X24575285Y-84515714D01*
X24194333Y-86712857D02*
X23927666Y-86712857D01*
X23927666Y-87131904D02*
X23927666Y-86331904D01*
X24308619Y-86331904D01*
X24956238Y-86331904D02*
X24803857Y-86331904D01*
X24727666Y-86370000D01*
X24689571Y-86408095D01*
X24613380Y-86522380D01*
X24575285Y-86674761D01*
X24575285Y-86979523D01*
X24613380Y-87055714D01*
X24651476Y-87093809D01*
X24727666Y-87131904D01*
X24880047Y-87131904D01*
X24956238Y-87093809D01*
X24994333Y-87055714D01*
X25032428Y-86979523D01*
X25032428Y-86789047D01*
X24994333Y-86712857D01*
X24956238Y-86674761D01*
X24880047Y-86636666D01*
X24727666Y-86636666D01*
X24651476Y-86674761D01*
X24613380Y-86712857D01*
X24575285Y-86789047D01*
X24194333Y-89252857D02*
X23927666Y-89252857D01*
X23927666Y-89671904D02*
X23927666Y-88871904D01*
X24308619Y-88871904D01*
X24537190Y-88871904D02*
X25070523Y-88871904D01*
X24727666Y-89671904D01*
X24137190Y-91792857D02*
X24251476Y-91830952D01*
X24289571Y-91869047D01*
X24327666Y-91945238D01*
X24327666Y-92059523D01*
X24289571Y-92135714D01*
X24251476Y-92173809D01*
X24175285Y-92211904D01*
X23870523Y-92211904D01*
X23870523Y-91411904D01*
X24137190Y-91411904D01*
X24213380Y-91450000D01*
X24251476Y-91488095D01*
X24289571Y-91564285D01*
X24289571Y-91640476D01*
X24251476Y-91716666D01*
X24213380Y-91754761D01*
X24137190Y-91792857D01*
X23870523Y-91792857D01*
X25089571Y-92211904D02*
X24632428Y-92211904D01*
X24861000Y-92211904D02*
X24861000Y-91411904D01*
X24784809Y-91526190D01*
X24708619Y-91602380D01*
X24632428Y-91640476D01*
X24137190Y-94332857D02*
X24251476Y-94370952D01*
X24289571Y-94409047D01*
X24327666Y-94485238D01*
X24327666Y-94599523D01*
X24289571Y-94675714D01*
X24251476Y-94713809D01*
X24175285Y-94751904D01*
X23870523Y-94751904D01*
X23870523Y-93951904D01*
X24137190Y-93951904D01*
X24213380Y-93990000D01*
X24251476Y-94028095D01*
X24289571Y-94104285D01*
X24289571Y-94180476D01*
X24251476Y-94256666D01*
X24213380Y-94294761D01*
X24137190Y-94332857D01*
X23870523Y-94332857D01*
X24594333Y-93951904D02*
X25089571Y-93951904D01*
X24822904Y-94256666D01*
X24937190Y-94256666D01*
X25013380Y-94294761D01*
X25051476Y-94332857D01*
X25089571Y-94409047D01*
X25089571Y-94599523D01*
X25051476Y-94675714D01*
X25013380Y-94713809D01*
X24937190Y-94751904D01*
X24708619Y-94751904D01*
X24632428Y-94713809D01*
X24594333Y-94675714D01*
X24137190Y-96872857D02*
X24251476Y-96910952D01*
X24289571Y-96949047D01*
X24327666Y-97025238D01*
X24327666Y-97139523D01*
X24289571Y-97215714D01*
X24251476Y-97253809D01*
X24175285Y-97291904D01*
X23870523Y-97291904D01*
X23870523Y-96491904D01*
X24137190Y-96491904D01*
X24213380Y-96530000D01*
X24251476Y-96568095D01*
X24289571Y-96644285D01*
X24289571Y-96720476D01*
X24251476Y-96796666D01*
X24213380Y-96834761D01*
X24137190Y-96872857D01*
X23870523Y-96872857D01*
X24632428Y-96568095D02*
X24670523Y-96530000D01*
X24746714Y-96491904D01*
X24937190Y-96491904D01*
X25013380Y-96530000D01*
X25051476Y-96568095D01*
X25089571Y-96644285D01*
X25089571Y-96720476D01*
X25051476Y-96834761D01*
X24594333Y-97291904D01*
X25089571Y-97291904D01*
X24137190Y-99412857D02*
X24251476Y-99450952D01*
X24289571Y-99489047D01*
X24327666Y-99565238D01*
X24327666Y-99679523D01*
X24289571Y-99755714D01*
X24251476Y-99793809D01*
X24175285Y-99831904D01*
X23870523Y-99831904D01*
X23870523Y-99031904D01*
X24137190Y-99031904D01*
X24213380Y-99070000D01*
X24251476Y-99108095D01*
X24289571Y-99184285D01*
X24289571Y-99260476D01*
X24251476Y-99336666D01*
X24213380Y-99374761D01*
X24137190Y-99412857D01*
X23870523Y-99412857D01*
X25013380Y-99031904D02*
X24861000Y-99031904D01*
X24784809Y-99070000D01*
X24746714Y-99108095D01*
X24670523Y-99222380D01*
X24632428Y-99374761D01*
X24632428Y-99679523D01*
X24670523Y-99755714D01*
X24708619Y-99793809D01*
X24784809Y-99831904D01*
X24937190Y-99831904D01*
X25013380Y-99793809D01*
X25051476Y-99755714D01*
X25089571Y-99679523D01*
X25089571Y-99489047D01*
X25051476Y-99412857D01*
X25013380Y-99374761D01*
X24937190Y-99336666D01*
X24784809Y-99336666D01*
X24708619Y-99374761D01*
X24670523Y-99412857D01*
X24632428Y-99489047D01*
X13215190Y-99412857D02*
X13329476Y-99450952D01*
X13367571Y-99489047D01*
X13405666Y-99565238D01*
X13405666Y-99679523D01*
X13367571Y-99755714D01*
X13329476Y-99793809D01*
X13253285Y-99831904D01*
X12948523Y-99831904D01*
X12948523Y-99031904D01*
X13215190Y-99031904D01*
X13291380Y-99070000D01*
X13329476Y-99108095D01*
X13367571Y-99184285D01*
X13367571Y-99260476D01*
X13329476Y-99336666D01*
X13291380Y-99374761D01*
X13215190Y-99412857D01*
X12948523Y-99412857D01*
X14129476Y-99031904D02*
X13748523Y-99031904D01*
X13710428Y-99412857D01*
X13748523Y-99374761D01*
X13824714Y-99336666D01*
X14015190Y-99336666D01*
X14091380Y-99374761D01*
X14129476Y-99412857D01*
X14167571Y-99489047D01*
X14167571Y-99679523D01*
X14129476Y-99755714D01*
X14091380Y-99793809D01*
X14015190Y-99831904D01*
X13824714Y-99831904D01*
X13748523Y-99793809D01*
X13710428Y-99755714D01*
X13215190Y-96872857D02*
X13329476Y-96910952D01*
X13367571Y-96949047D01*
X13405666Y-97025238D01*
X13405666Y-97139523D01*
X13367571Y-97215714D01*
X13329476Y-97253809D01*
X13253285Y-97291904D01*
X12948523Y-97291904D01*
X12948523Y-96491904D01*
X13215190Y-96491904D01*
X13291380Y-96530000D01*
X13329476Y-96568095D01*
X13367571Y-96644285D01*
X13367571Y-96720476D01*
X13329476Y-96796666D01*
X13291380Y-96834761D01*
X13215190Y-96872857D01*
X12948523Y-96872857D01*
X14091380Y-96758571D02*
X14091380Y-97291904D01*
X13900904Y-96453809D02*
X13710428Y-97025238D01*
X14205666Y-97025238D01*
X12986619Y-94332857D02*
X13253285Y-94332857D01*
X13367571Y-94751904D02*
X12986619Y-94751904D01*
X12986619Y-93951904D01*
X13367571Y-93951904D01*
X14053285Y-93951904D02*
X13900904Y-93951904D01*
X13824714Y-93990000D01*
X13786619Y-94028095D01*
X13710428Y-94142380D01*
X13672333Y-94294761D01*
X13672333Y-94599523D01*
X13710428Y-94675714D01*
X13748523Y-94713809D01*
X13824714Y-94751904D01*
X13977095Y-94751904D01*
X14053285Y-94713809D01*
X14091380Y-94675714D01*
X14129476Y-94599523D01*
X14129476Y-94409047D01*
X14091380Y-94332857D01*
X14053285Y-94294761D01*
X13977095Y-94256666D01*
X13824714Y-94256666D01*
X13748523Y-94294761D01*
X13710428Y-94332857D01*
X13672333Y-94409047D01*
X12948523Y-92211904D02*
X12948523Y-91411904D01*
X13139000Y-91411904D01*
X13253285Y-91450000D01*
X13329476Y-91526190D01*
X13367571Y-91602380D01*
X13405666Y-91754761D01*
X13405666Y-91869047D01*
X13367571Y-92021428D01*
X13329476Y-92097619D01*
X13253285Y-92173809D01*
X13139000Y-92211904D01*
X12948523Y-92211904D01*
X13672333Y-91411904D02*
X14205666Y-91411904D01*
X13862809Y-92211904D01*
X13405666Y-89595714D02*
X13367571Y-89633809D01*
X13253285Y-89671904D01*
X13177095Y-89671904D01*
X13062809Y-89633809D01*
X12986619Y-89557619D01*
X12948523Y-89481428D01*
X12910428Y-89329047D01*
X12910428Y-89214761D01*
X12948523Y-89062380D01*
X12986619Y-88986190D01*
X13062809Y-88910000D01*
X13177095Y-88871904D01*
X13253285Y-88871904D01*
X13367571Y-88910000D01*
X13405666Y-88948095D01*
X14091380Y-88871904D02*
X13939000Y-88871904D01*
X13862809Y-88910000D01*
X13824714Y-88948095D01*
X13748523Y-89062380D01*
X13710428Y-89214761D01*
X13710428Y-89519523D01*
X13748523Y-89595714D01*
X13786619Y-89633809D01*
X13862809Y-89671904D01*
X14015190Y-89671904D01*
X14091380Y-89633809D01*
X14129476Y-89595714D01*
X14167571Y-89519523D01*
X14167571Y-89329047D01*
X14129476Y-89252857D01*
X14091380Y-89214761D01*
X14015190Y-89176666D01*
X13862809Y-89176666D01*
X13786619Y-89214761D01*
X13748523Y-89252857D01*
X13710428Y-89329047D01*
X12948523Y-87131904D02*
X12948523Y-86331904D01*
X13139000Y-86331904D01*
X13253285Y-86370000D01*
X13329476Y-86446190D01*
X13367571Y-86522380D01*
X13405666Y-86674761D01*
X13405666Y-86789047D01*
X13367571Y-86941428D01*
X13329476Y-87017619D01*
X13253285Y-87093809D01*
X13139000Y-87131904D01*
X12948523Y-87131904D01*
X14091380Y-86598571D02*
X14091380Y-87131904D01*
X13900904Y-86293809D02*
X13710428Y-86865238D01*
X14205666Y-86865238D01*
X12929476Y-76210000D02*
X12853285Y-76171904D01*
X12739000Y-76171904D01*
X12624714Y-76210000D01*
X12548523Y-76286190D01*
X12510428Y-76362380D01*
X12472333Y-76514761D01*
X12472333Y-76629047D01*
X12510428Y-76781428D01*
X12548523Y-76857619D01*
X12624714Y-76933809D01*
X12739000Y-76971904D01*
X12815190Y-76971904D01*
X12929476Y-76933809D01*
X12967571Y-76895714D01*
X12967571Y-76629047D01*
X12815190Y-76629047D01*
X13310428Y-76971904D02*
X13310428Y-76171904D01*
X13767571Y-76971904D01*
X13767571Y-76171904D01*
X14148523Y-76971904D02*
X14148523Y-76171904D01*
X14339000Y-76171904D01*
X14453285Y-76210000D01*
X14529476Y-76286190D01*
X14567571Y-76362380D01*
X14605666Y-76514761D01*
X14605666Y-76629047D01*
X14567571Y-76781428D01*
X14529476Y-76857619D01*
X14453285Y-76933809D01*
X14339000Y-76971904D01*
X14148523Y-76971904D01*
X12929476Y-78750000D02*
X12853285Y-78711904D01*
X12739000Y-78711904D01*
X12624714Y-78750000D01*
X12548523Y-78826190D01*
X12510428Y-78902380D01*
X12472333Y-79054761D01*
X12472333Y-79169047D01*
X12510428Y-79321428D01*
X12548523Y-79397619D01*
X12624714Y-79473809D01*
X12739000Y-79511904D01*
X12815190Y-79511904D01*
X12929476Y-79473809D01*
X12967571Y-79435714D01*
X12967571Y-79169047D01*
X12815190Y-79169047D01*
X13310428Y-79511904D02*
X13310428Y-78711904D01*
X13767571Y-79511904D01*
X13767571Y-78711904D01*
X14148523Y-79511904D02*
X14148523Y-78711904D01*
X14339000Y-78711904D01*
X14453285Y-78750000D01*
X14529476Y-78826190D01*
X14567571Y-78902380D01*
X14605666Y-79054761D01*
X14605666Y-79169047D01*
X14567571Y-79321428D01*
X14529476Y-79397619D01*
X14453285Y-79473809D01*
X14339000Y-79511904D01*
X14148523Y-79511904D01*
X12948523Y-82051904D02*
X12948523Y-81251904D01*
X13139000Y-81251904D01*
X13253285Y-81290000D01*
X13329476Y-81366190D01*
X13367571Y-81442380D01*
X13405666Y-81594761D01*
X13405666Y-81709047D01*
X13367571Y-81861428D01*
X13329476Y-81937619D01*
X13253285Y-82013809D01*
X13139000Y-82051904D01*
X12948523Y-82051904D01*
X14167571Y-82051904D02*
X13710428Y-82051904D01*
X13939000Y-82051904D02*
X13939000Y-81251904D01*
X13862809Y-81366190D01*
X13786619Y-81442380D01*
X13710428Y-81480476D01*
X12948523Y-84591904D02*
X12948523Y-83791904D01*
X13139000Y-83791904D01*
X13253285Y-83830000D01*
X13329476Y-83906190D01*
X13367571Y-83982380D01*
X13405666Y-84134761D01*
X13405666Y-84249047D01*
X13367571Y-84401428D01*
X13329476Y-84477619D01*
X13253285Y-84553809D01*
X13139000Y-84591904D01*
X12948523Y-84591904D01*
X13900904Y-83791904D02*
X13977095Y-83791904D01*
X14053285Y-83830000D01*
X14091380Y-83868095D01*
X14129476Y-83944285D01*
X14167571Y-84096666D01*
X14167571Y-84287142D01*
X14129476Y-84439523D01*
X14091380Y-84515714D01*
X14053285Y-84553809D01*
X13977095Y-84591904D01*
X13900904Y-84591904D01*
X13824714Y-84553809D01*
X13786619Y-84515714D01*
X13748523Y-84439523D01*
X13710428Y-84287142D01*
X13710428Y-84096666D01*
X13748523Y-83944285D01*
X13786619Y-83868095D01*
X13824714Y-83830000D01*
X13900904Y-83791904D01*
X12948523Y-74431904D02*
X12948523Y-73631904D01*
X13139000Y-73631904D01*
X13253285Y-73670000D01*
X13329476Y-73746190D01*
X13367571Y-73822380D01*
X13405666Y-73974761D01*
X13405666Y-74089047D01*
X13367571Y-74241428D01*
X13329476Y-74317619D01*
X13253285Y-74393809D01*
X13139000Y-74431904D01*
X12948523Y-74431904D01*
X13710428Y-73708095D02*
X13748523Y-73670000D01*
X13824714Y-73631904D01*
X14015190Y-73631904D01*
X14091380Y-73670000D01*
X14129476Y-73708095D01*
X14167571Y-73784285D01*
X14167571Y-73860476D01*
X14129476Y-73974761D01*
X13672333Y-74431904D01*
X14167571Y-74431904D01*
%TO.C,SW32*%
X185815476Y-103774761D02*
X185958333Y-103822380D01*
X186196428Y-103822380D01*
X186291666Y-103774761D01*
X186339285Y-103727142D01*
X186386904Y-103631904D01*
X186386904Y-103536666D01*
X186339285Y-103441428D01*
X186291666Y-103393809D01*
X186196428Y-103346190D01*
X186005952Y-103298571D01*
X185910714Y-103250952D01*
X185863095Y-103203333D01*
X185815476Y-103108095D01*
X185815476Y-103012857D01*
X185863095Y-102917619D01*
X185910714Y-102870000D01*
X186005952Y-102822380D01*
X186244047Y-102822380D01*
X186386904Y-102870000D01*
X186720238Y-102822380D02*
X186958333Y-103822380D01*
X187148809Y-103108095D01*
X187339285Y-103822380D01*
X187577380Y-102822380D01*
X187863095Y-102822380D02*
X188482142Y-102822380D01*
X188148809Y-103203333D01*
X188291666Y-103203333D01*
X188386904Y-103250952D01*
X188434523Y-103298571D01*
X188482142Y-103393809D01*
X188482142Y-103631904D01*
X188434523Y-103727142D01*
X188386904Y-103774761D01*
X188291666Y-103822380D01*
X188005952Y-103822380D01*
X187910714Y-103774761D01*
X187863095Y-103727142D01*
X188863095Y-102917619D02*
X188910714Y-102870000D01*
X189005952Y-102822380D01*
X189244047Y-102822380D01*
X189339285Y-102870000D01*
X189386904Y-102917619D01*
X189434523Y-103012857D01*
X189434523Y-103108095D01*
X189386904Y-103250952D01*
X188815476Y-103822380D01*
X189434523Y-103822380D01*
%TO.C,SW33*%
X204815476Y-103774761D02*
X204958333Y-103822380D01*
X205196428Y-103822380D01*
X205291666Y-103774761D01*
X205339285Y-103727142D01*
X205386904Y-103631904D01*
X205386904Y-103536666D01*
X205339285Y-103441428D01*
X205291666Y-103393809D01*
X205196428Y-103346190D01*
X205005952Y-103298571D01*
X204910714Y-103250952D01*
X204863095Y-103203333D01*
X204815476Y-103108095D01*
X204815476Y-103012857D01*
X204863095Y-102917619D01*
X204910714Y-102870000D01*
X205005952Y-102822380D01*
X205244047Y-102822380D01*
X205386904Y-102870000D01*
X205720238Y-102822380D02*
X205958333Y-103822380D01*
X206148809Y-103108095D01*
X206339285Y-103822380D01*
X206577380Y-102822380D01*
X206863095Y-102822380D02*
X207482142Y-102822380D01*
X207148809Y-103203333D01*
X207291666Y-103203333D01*
X207386904Y-103250952D01*
X207434523Y-103298571D01*
X207482142Y-103393809D01*
X207482142Y-103631904D01*
X207434523Y-103727142D01*
X207386904Y-103774761D01*
X207291666Y-103822380D01*
X207005952Y-103822380D01*
X206910714Y-103774761D01*
X206863095Y-103727142D01*
X207815476Y-102822380D02*
X208434523Y-102822380D01*
X208101190Y-103203333D01*
X208244047Y-103203333D01*
X208339285Y-103250952D01*
X208386904Y-103298571D01*
X208434523Y-103393809D01*
X208434523Y-103631904D01*
X208386904Y-103727142D01*
X208339285Y-103774761D01*
X208244047Y-103822380D01*
X207958333Y-103822380D01*
X207863095Y-103774761D01*
X207815476Y-103727142D01*
%TO.C,SW48*%
X252315476Y-122774761D02*
X252458333Y-122822380D01*
X252696428Y-122822380D01*
X252791666Y-122774761D01*
X252839285Y-122727142D01*
X252886904Y-122631904D01*
X252886904Y-122536666D01*
X252839285Y-122441428D01*
X252791666Y-122393809D01*
X252696428Y-122346190D01*
X252505952Y-122298571D01*
X252410714Y-122250952D01*
X252363095Y-122203333D01*
X252315476Y-122108095D01*
X252315476Y-122012857D01*
X252363095Y-121917619D01*
X252410714Y-121870000D01*
X252505952Y-121822380D01*
X252744047Y-121822380D01*
X252886904Y-121870000D01*
X253220238Y-121822380D02*
X253458333Y-122822380D01*
X253648809Y-122108095D01*
X253839285Y-122822380D01*
X254077380Y-121822380D01*
X254886904Y-122155714D02*
X254886904Y-122822380D01*
X254648809Y-121774761D02*
X254410714Y-122489047D01*
X255029761Y-122489047D01*
X255553571Y-122250952D02*
X255458333Y-122203333D01*
X255410714Y-122155714D01*
X255363095Y-122060476D01*
X255363095Y-122012857D01*
X255410714Y-121917619D01*
X255458333Y-121870000D01*
X255553571Y-121822380D01*
X255744047Y-121822380D01*
X255839285Y-121870000D01*
X255886904Y-121917619D01*
X255934523Y-122012857D01*
X255934523Y-122060476D01*
X255886904Y-122155714D01*
X255839285Y-122203333D01*
X255744047Y-122250952D01*
X255553571Y-122250952D01*
X255458333Y-122298571D01*
X255410714Y-122346190D01*
X255363095Y-122441428D01*
X255363095Y-122631904D01*
X255410714Y-122727142D01*
X255458333Y-122774761D01*
X255553571Y-122822380D01*
X255744047Y-122822380D01*
X255839285Y-122774761D01*
X255886904Y-122727142D01*
X255934523Y-122631904D01*
X255934523Y-122441428D01*
X255886904Y-122346190D01*
X255839285Y-122298571D01*
X255744047Y-122250952D01*
%TO.C,SW47*%
X233315476Y-122774761D02*
X233458333Y-122822380D01*
X233696428Y-122822380D01*
X233791666Y-122774761D01*
X233839285Y-122727142D01*
X233886904Y-122631904D01*
X233886904Y-122536666D01*
X233839285Y-122441428D01*
X233791666Y-122393809D01*
X233696428Y-122346190D01*
X233505952Y-122298571D01*
X233410714Y-122250952D01*
X233363095Y-122203333D01*
X233315476Y-122108095D01*
X233315476Y-122012857D01*
X233363095Y-121917619D01*
X233410714Y-121870000D01*
X233505952Y-121822380D01*
X233744047Y-121822380D01*
X233886904Y-121870000D01*
X234220238Y-121822380D02*
X234458333Y-122822380D01*
X234648809Y-122108095D01*
X234839285Y-122822380D01*
X235077380Y-121822380D01*
X235886904Y-122155714D02*
X235886904Y-122822380D01*
X235648809Y-121774761D02*
X235410714Y-122489047D01*
X236029761Y-122489047D01*
X236315476Y-121822380D02*
X236982142Y-121822380D01*
X236553571Y-122822380D01*
%TO.C,SW46*%
X214315476Y-122774761D02*
X214458333Y-122822380D01*
X214696428Y-122822380D01*
X214791666Y-122774761D01*
X214839285Y-122727142D01*
X214886904Y-122631904D01*
X214886904Y-122536666D01*
X214839285Y-122441428D01*
X214791666Y-122393809D01*
X214696428Y-122346190D01*
X214505952Y-122298571D01*
X214410714Y-122250952D01*
X214363095Y-122203333D01*
X214315476Y-122108095D01*
X214315476Y-122012857D01*
X214363095Y-121917619D01*
X214410714Y-121870000D01*
X214505952Y-121822380D01*
X214744047Y-121822380D01*
X214886904Y-121870000D01*
X215220238Y-121822380D02*
X215458333Y-122822380D01*
X215648809Y-122108095D01*
X215839285Y-122822380D01*
X216077380Y-121822380D01*
X216886904Y-122155714D02*
X216886904Y-122822380D01*
X216648809Y-121774761D02*
X216410714Y-122489047D01*
X217029761Y-122489047D01*
X217839285Y-121822380D02*
X217648809Y-121822380D01*
X217553571Y-121870000D01*
X217505952Y-121917619D01*
X217410714Y-122060476D01*
X217363095Y-122250952D01*
X217363095Y-122631904D01*
X217410714Y-122727142D01*
X217458333Y-122774761D01*
X217553571Y-122822380D01*
X217744047Y-122822380D01*
X217839285Y-122774761D01*
X217886904Y-122727142D01*
X217934523Y-122631904D01*
X217934523Y-122393809D01*
X217886904Y-122298571D01*
X217839285Y-122250952D01*
X217744047Y-122203333D01*
X217553571Y-122203333D01*
X217458333Y-122250952D01*
X217410714Y-122298571D01*
X217363095Y-122393809D01*
%TO.C,SW45*%
X195315476Y-122774761D02*
X195458333Y-122822380D01*
X195696428Y-122822380D01*
X195791666Y-122774761D01*
X195839285Y-122727142D01*
X195886904Y-122631904D01*
X195886904Y-122536666D01*
X195839285Y-122441428D01*
X195791666Y-122393809D01*
X195696428Y-122346190D01*
X195505952Y-122298571D01*
X195410714Y-122250952D01*
X195363095Y-122203333D01*
X195315476Y-122108095D01*
X195315476Y-122012857D01*
X195363095Y-121917619D01*
X195410714Y-121870000D01*
X195505952Y-121822380D01*
X195744047Y-121822380D01*
X195886904Y-121870000D01*
X196220238Y-121822380D02*
X196458333Y-122822380D01*
X196648809Y-122108095D01*
X196839285Y-122822380D01*
X197077380Y-121822380D01*
X197886904Y-122155714D02*
X197886904Y-122822380D01*
X197648809Y-121774761D02*
X197410714Y-122489047D01*
X198029761Y-122489047D01*
X198886904Y-121822380D02*
X198410714Y-121822380D01*
X198363095Y-122298571D01*
X198410714Y-122250952D01*
X198505952Y-122203333D01*
X198744047Y-122203333D01*
X198839285Y-122250952D01*
X198886904Y-122298571D01*
X198934523Y-122393809D01*
X198934523Y-122631904D01*
X198886904Y-122727142D01*
X198839285Y-122774761D01*
X198744047Y-122822380D01*
X198505952Y-122822380D01*
X198410714Y-122774761D01*
X198363095Y-122727142D01*
%TO.C,SW44*%
X173940476Y-122774761D02*
X174083333Y-122822380D01*
X174321428Y-122822380D01*
X174416666Y-122774761D01*
X174464285Y-122727142D01*
X174511904Y-122631904D01*
X174511904Y-122536666D01*
X174464285Y-122441428D01*
X174416666Y-122393809D01*
X174321428Y-122346190D01*
X174130952Y-122298571D01*
X174035714Y-122250952D01*
X173988095Y-122203333D01*
X173940476Y-122108095D01*
X173940476Y-122012857D01*
X173988095Y-121917619D01*
X174035714Y-121870000D01*
X174130952Y-121822380D01*
X174369047Y-121822380D01*
X174511904Y-121870000D01*
X174845238Y-121822380D02*
X175083333Y-122822380D01*
X175273809Y-122108095D01*
X175464285Y-122822380D01*
X175702380Y-121822380D01*
X176511904Y-122155714D02*
X176511904Y-122822380D01*
X176273809Y-121774761D02*
X176035714Y-122489047D01*
X176654761Y-122489047D01*
X177464285Y-122155714D02*
X177464285Y-122822380D01*
X177226190Y-121774761D02*
X176988095Y-122489047D01*
X177607142Y-122489047D01*
%TO.C,SW43*%
X147815476Y-122774761D02*
X147958333Y-122822380D01*
X148196428Y-122822380D01*
X148291666Y-122774761D01*
X148339285Y-122727142D01*
X148386904Y-122631904D01*
X148386904Y-122536666D01*
X148339285Y-122441428D01*
X148291666Y-122393809D01*
X148196428Y-122346190D01*
X148005952Y-122298571D01*
X147910714Y-122250952D01*
X147863095Y-122203333D01*
X147815476Y-122108095D01*
X147815476Y-122012857D01*
X147863095Y-121917619D01*
X147910714Y-121870000D01*
X148005952Y-121822380D01*
X148244047Y-121822380D01*
X148386904Y-121870000D01*
X148720238Y-121822380D02*
X148958333Y-122822380D01*
X149148809Y-122108095D01*
X149339285Y-122822380D01*
X149577380Y-121822380D01*
X150386904Y-122155714D02*
X150386904Y-122822380D01*
X150148809Y-121774761D02*
X149910714Y-122489047D01*
X150529761Y-122489047D01*
X150815476Y-121822380D02*
X151434523Y-121822380D01*
X151101190Y-122203333D01*
X151244047Y-122203333D01*
X151339285Y-122250952D01*
X151386904Y-122298571D01*
X151434523Y-122393809D01*
X151434523Y-122631904D01*
X151386904Y-122727142D01*
X151339285Y-122774761D01*
X151244047Y-122822380D01*
X150958333Y-122822380D01*
X150863095Y-122774761D01*
X150815476Y-122727142D01*
%TO.C,SW42*%
X147815476Y-103774761D02*
X147958333Y-103822380D01*
X148196428Y-103822380D01*
X148291666Y-103774761D01*
X148339285Y-103727142D01*
X148386904Y-103631904D01*
X148386904Y-103536666D01*
X148339285Y-103441428D01*
X148291666Y-103393809D01*
X148196428Y-103346190D01*
X148005952Y-103298571D01*
X147910714Y-103250952D01*
X147863095Y-103203333D01*
X147815476Y-103108095D01*
X147815476Y-103012857D01*
X147863095Y-102917619D01*
X147910714Y-102870000D01*
X148005952Y-102822380D01*
X148244047Y-102822380D01*
X148386904Y-102870000D01*
X148720238Y-102822380D02*
X148958333Y-103822380D01*
X149148809Y-103108095D01*
X149339285Y-103822380D01*
X149577380Y-102822380D01*
X150386904Y-103155714D02*
X150386904Y-103822380D01*
X150148809Y-102774761D02*
X149910714Y-103489047D01*
X150529761Y-103489047D01*
X150863095Y-102917619D02*
X150910714Y-102870000D01*
X151005952Y-102822380D01*
X151244047Y-102822380D01*
X151339285Y-102870000D01*
X151386904Y-102917619D01*
X151434523Y-103012857D01*
X151434523Y-103108095D01*
X151386904Y-103250952D01*
X150815476Y-103822380D01*
X151434523Y-103822380D01*
%TO.C,SW41*%
X121690476Y-122774761D02*
X121833333Y-122822380D01*
X122071428Y-122822380D01*
X122166666Y-122774761D01*
X122214285Y-122727142D01*
X122261904Y-122631904D01*
X122261904Y-122536666D01*
X122214285Y-122441428D01*
X122166666Y-122393809D01*
X122071428Y-122346190D01*
X121880952Y-122298571D01*
X121785714Y-122250952D01*
X121738095Y-122203333D01*
X121690476Y-122108095D01*
X121690476Y-122012857D01*
X121738095Y-121917619D01*
X121785714Y-121870000D01*
X121880952Y-121822380D01*
X122119047Y-121822380D01*
X122261904Y-121870000D01*
X122595238Y-121822380D02*
X122833333Y-122822380D01*
X123023809Y-122108095D01*
X123214285Y-122822380D01*
X123452380Y-121822380D01*
X124261904Y-122155714D02*
X124261904Y-122822380D01*
X124023809Y-121774761D02*
X123785714Y-122489047D01*
X124404761Y-122489047D01*
X125309523Y-122822380D02*
X124738095Y-122822380D01*
X125023809Y-122822380D02*
X125023809Y-121822380D01*
X124928571Y-121965238D01*
X124833333Y-122060476D01*
X124738095Y-122108095D01*
%TO.C,SW40*%
X100315476Y-122774761D02*
X100458333Y-122822380D01*
X100696428Y-122822380D01*
X100791666Y-122774761D01*
X100839285Y-122727142D01*
X100886904Y-122631904D01*
X100886904Y-122536666D01*
X100839285Y-122441428D01*
X100791666Y-122393809D01*
X100696428Y-122346190D01*
X100505952Y-122298571D01*
X100410714Y-122250952D01*
X100363095Y-122203333D01*
X100315476Y-122108095D01*
X100315476Y-122012857D01*
X100363095Y-121917619D01*
X100410714Y-121870000D01*
X100505952Y-121822380D01*
X100744047Y-121822380D01*
X100886904Y-121870000D01*
X101220238Y-121822380D02*
X101458333Y-122822380D01*
X101648809Y-122108095D01*
X101839285Y-122822380D01*
X102077380Y-121822380D01*
X102886904Y-122155714D02*
X102886904Y-122822380D01*
X102648809Y-121774761D02*
X102410714Y-122489047D01*
X103029761Y-122489047D01*
X103601190Y-121822380D02*
X103696428Y-121822380D01*
X103791666Y-121870000D01*
X103839285Y-121917619D01*
X103886904Y-122012857D01*
X103934523Y-122203333D01*
X103934523Y-122441428D01*
X103886904Y-122631904D01*
X103839285Y-122727142D01*
X103791666Y-122774761D01*
X103696428Y-122822380D01*
X103601190Y-122822380D01*
X103505952Y-122774761D01*
X103458333Y-122727142D01*
X103410714Y-122631904D01*
X103363095Y-122441428D01*
X103363095Y-122203333D01*
X103410714Y-122012857D01*
X103458333Y-121917619D01*
X103505952Y-121870000D01*
X103601190Y-121822380D01*
%TO.C,SW39*%
X81315476Y-122774761D02*
X81458333Y-122822380D01*
X81696428Y-122822380D01*
X81791666Y-122774761D01*
X81839285Y-122727142D01*
X81886904Y-122631904D01*
X81886904Y-122536666D01*
X81839285Y-122441428D01*
X81791666Y-122393809D01*
X81696428Y-122346190D01*
X81505952Y-122298571D01*
X81410714Y-122250952D01*
X81363095Y-122203333D01*
X81315476Y-122108095D01*
X81315476Y-122012857D01*
X81363095Y-121917619D01*
X81410714Y-121870000D01*
X81505952Y-121822380D01*
X81744047Y-121822380D01*
X81886904Y-121870000D01*
X82220238Y-121822380D02*
X82458333Y-122822380D01*
X82648809Y-122108095D01*
X82839285Y-122822380D01*
X83077380Y-121822380D01*
X83363095Y-121822380D02*
X83982142Y-121822380D01*
X83648809Y-122203333D01*
X83791666Y-122203333D01*
X83886904Y-122250952D01*
X83934523Y-122298571D01*
X83982142Y-122393809D01*
X83982142Y-122631904D01*
X83934523Y-122727142D01*
X83886904Y-122774761D01*
X83791666Y-122822380D01*
X83505952Y-122822380D01*
X83410714Y-122774761D01*
X83363095Y-122727142D01*
X84458333Y-122822380D02*
X84648809Y-122822380D01*
X84744047Y-122774761D01*
X84791666Y-122727142D01*
X84886904Y-122584285D01*
X84934523Y-122393809D01*
X84934523Y-122012857D01*
X84886904Y-121917619D01*
X84839285Y-121870000D01*
X84744047Y-121822380D01*
X84553571Y-121822380D01*
X84458333Y-121870000D01*
X84410714Y-121917619D01*
X84363095Y-122012857D01*
X84363095Y-122250952D01*
X84410714Y-122346190D01*
X84458333Y-122393809D01*
X84553571Y-122441428D01*
X84744047Y-122441428D01*
X84839285Y-122393809D01*
X84886904Y-122346190D01*
X84934523Y-122250952D01*
%TO.C,SW38*%
X62315476Y-122774761D02*
X62458333Y-122822380D01*
X62696428Y-122822380D01*
X62791666Y-122774761D01*
X62839285Y-122727142D01*
X62886904Y-122631904D01*
X62886904Y-122536666D01*
X62839285Y-122441428D01*
X62791666Y-122393809D01*
X62696428Y-122346190D01*
X62505952Y-122298571D01*
X62410714Y-122250952D01*
X62363095Y-122203333D01*
X62315476Y-122108095D01*
X62315476Y-122012857D01*
X62363095Y-121917619D01*
X62410714Y-121870000D01*
X62505952Y-121822380D01*
X62744047Y-121822380D01*
X62886904Y-121870000D01*
X63220238Y-121822380D02*
X63458333Y-122822380D01*
X63648809Y-122108095D01*
X63839285Y-122822380D01*
X64077380Y-121822380D01*
X64363095Y-121822380D02*
X64982142Y-121822380D01*
X64648809Y-122203333D01*
X64791666Y-122203333D01*
X64886904Y-122250952D01*
X64934523Y-122298571D01*
X64982142Y-122393809D01*
X64982142Y-122631904D01*
X64934523Y-122727142D01*
X64886904Y-122774761D01*
X64791666Y-122822380D01*
X64505952Y-122822380D01*
X64410714Y-122774761D01*
X64363095Y-122727142D01*
X65553571Y-122250952D02*
X65458333Y-122203333D01*
X65410714Y-122155714D01*
X65363095Y-122060476D01*
X65363095Y-122012857D01*
X65410714Y-121917619D01*
X65458333Y-121870000D01*
X65553571Y-121822380D01*
X65744047Y-121822380D01*
X65839285Y-121870000D01*
X65886904Y-121917619D01*
X65934523Y-122012857D01*
X65934523Y-122060476D01*
X65886904Y-122155714D01*
X65839285Y-122203333D01*
X65744047Y-122250952D01*
X65553571Y-122250952D01*
X65458333Y-122298571D01*
X65410714Y-122346190D01*
X65363095Y-122441428D01*
X65363095Y-122631904D01*
X65410714Y-122727142D01*
X65458333Y-122774761D01*
X65553571Y-122822380D01*
X65744047Y-122822380D01*
X65839285Y-122774761D01*
X65886904Y-122727142D01*
X65934523Y-122631904D01*
X65934523Y-122441428D01*
X65886904Y-122346190D01*
X65839285Y-122298571D01*
X65744047Y-122250952D01*
%TO.C,SW37*%
X43315476Y-122774761D02*
X43458333Y-122822380D01*
X43696428Y-122822380D01*
X43791666Y-122774761D01*
X43839285Y-122727142D01*
X43886904Y-122631904D01*
X43886904Y-122536666D01*
X43839285Y-122441428D01*
X43791666Y-122393809D01*
X43696428Y-122346190D01*
X43505952Y-122298571D01*
X43410714Y-122250952D01*
X43363095Y-122203333D01*
X43315476Y-122108095D01*
X43315476Y-122012857D01*
X43363095Y-121917619D01*
X43410714Y-121870000D01*
X43505952Y-121822380D01*
X43744047Y-121822380D01*
X43886904Y-121870000D01*
X44220238Y-121822380D02*
X44458333Y-122822380D01*
X44648809Y-122108095D01*
X44839285Y-122822380D01*
X45077380Y-121822380D01*
X45363095Y-121822380D02*
X45982142Y-121822380D01*
X45648809Y-122203333D01*
X45791666Y-122203333D01*
X45886904Y-122250952D01*
X45934523Y-122298571D01*
X45982142Y-122393809D01*
X45982142Y-122631904D01*
X45934523Y-122727142D01*
X45886904Y-122774761D01*
X45791666Y-122822380D01*
X45505952Y-122822380D01*
X45410714Y-122774761D01*
X45363095Y-122727142D01*
X46315476Y-121822380D02*
X46982142Y-121822380D01*
X46553571Y-122822380D01*
%TO.C,SW36*%
X261815476Y-103774761D02*
X261958333Y-103822380D01*
X262196428Y-103822380D01*
X262291666Y-103774761D01*
X262339285Y-103727142D01*
X262386904Y-103631904D01*
X262386904Y-103536666D01*
X262339285Y-103441428D01*
X262291666Y-103393809D01*
X262196428Y-103346190D01*
X262005952Y-103298571D01*
X261910714Y-103250952D01*
X261863095Y-103203333D01*
X261815476Y-103108095D01*
X261815476Y-103012857D01*
X261863095Y-102917619D01*
X261910714Y-102870000D01*
X262005952Y-102822380D01*
X262244047Y-102822380D01*
X262386904Y-102870000D01*
X262720238Y-102822380D02*
X262958333Y-103822380D01*
X263148809Y-103108095D01*
X263339285Y-103822380D01*
X263577380Y-102822380D01*
X263863095Y-102822380D02*
X264482142Y-102822380D01*
X264148809Y-103203333D01*
X264291666Y-103203333D01*
X264386904Y-103250952D01*
X264434523Y-103298571D01*
X264482142Y-103393809D01*
X264482142Y-103631904D01*
X264434523Y-103727142D01*
X264386904Y-103774761D01*
X264291666Y-103822380D01*
X264005952Y-103822380D01*
X263910714Y-103774761D01*
X263863095Y-103727142D01*
X265339285Y-102822380D02*
X265148809Y-102822380D01*
X265053571Y-102870000D01*
X265005952Y-102917619D01*
X264910714Y-103060476D01*
X264863095Y-103250952D01*
X264863095Y-103631904D01*
X264910714Y-103727142D01*
X264958333Y-103774761D01*
X265053571Y-103822380D01*
X265244047Y-103822380D01*
X265339285Y-103774761D01*
X265386904Y-103727142D01*
X265434523Y-103631904D01*
X265434523Y-103393809D01*
X265386904Y-103298571D01*
X265339285Y-103250952D01*
X265244047Y-103203333D01*
X265053571Y-103203333D01*
X264958333Y-103250952D01*
X264910714Y-103298571D01*
X264863095Y-103393809D01*
%TO.C,SW35*%
X242815476Y-103774761D02*
X242958333Y-103822380D01*
X243196428Y-103822380D01*
X243291666Y-103774761D01*
X243339285Y-103727142D01*
X243386904Y-103631904D01*
X243386904Y-103536666D01*
X243339285Y-103441428D01*
X243291666Y-103393809D01*
X243196428Y-103346190D01*
X243005952Y-103298571D01*
X242910714Y-103250952D01*
X242863095Y-103203333D01*
X242815476Y-103108095D01*
X242815476Y-103012857D01*
X242863095Y-102917619D01*
X242910714Y-102870000D01*
X243005952Y-102822380D01*
X243244047Y-102822380D01*
X243386904Y-102870000D01*
X243720238Y-102822380D02*
X243958333Y-103822380D01*
X244148809Y-103108095D01*
X244339285Y-103822380D01*
X244577380Y-102822380D01*
X244863095Y-102822380D02*
X245482142Y-102822380D01*
X245148809Y-103203333D01*
X245291666Y-103203333D01*
X245386904Y-103250952D01*
X245434523Y-103298571D01*
X245482142Y-103393809D01*
X245482142Y-103631904D01*
X245434523Y-103727142D01*
X245386904Y-103774761D01*
X245291666Y-103822380D01*
X245005952Y-103822380D01*
X244910714Y-103774761D01*
X244863095Y-103727142D01*
X246386904Y-102822380D02*
X245910714Y-102822380D01*
X245863095Y-103298571D01*
X245910714Y-103250952D01*
X246005952Y-103203333D01*
X246244047Y-103203333D01*
X246339285Y-103250952D01*
X246386904Y-103298571D01*
X246434523Y-103393809D01*
X246434523Y-103631904D01*
X246386904Y-103727142D01*
X246339285Y-103774761D01*
X246244047Y-103822380D01*
X246005952Y-103822380D01*
X245910714Y-103774761D01*
X245863095Y-103727142D01*
%TO.C,SW34*%
X223815476Y-103774761D02*
X223958333Y-103822380D01*
X224196428Y-103822380D01*
X224291666Y-103774761D01*
X224339285Y-103727142D01*
X224386904Y-103631904D01*
X224386904Y-103536666D01*
X224339285Y-103441428D01*
X224291666Y-103393809D01*
X224196428Y-103346190D01*
X224005952Y-103298571D01*
X223910714Y-103250952D01*
X223863095Y-103203333D01*
X223815476Y-103108095D01*
X223815476Y-103012857D01*
X223863095Y-102917619D01*
X223910714Y-102870000D01*
X224005952Y-102822380D01*
X224244047Y-102822380D01*
X224386904Y-102870000D01*
X224720238Y-102822380D02*
X224958333Y-103822380D01*
X225148809Y-103108095D01*
X225339285Y-103822380D01*
X225577380Y-102822380D01*
X225863095Y-102822380D02*
X226482142Y-102822380D01*
X226148809Y-103203333D01*
X226291666Y-103203333D01*
X226386904Y-103250952D01*
X226434523Y-103298571D01*
X226482142Y-103393809D01*
X226482142Y-103631904D01*
X226434523Y-103727142D01*
X226386904Y-103774761D01*
X226291666Y-103822380D01*
X226005952Y-103822380D01*
X225910714Y-103774761D01*
X225863095Y-103727142D01*
X227339285Y-103155714D02*
X227339285Y-103822380D01*
X227101190Y-102774761D02*
X226863095Y-103489047D01*
X227482142Y-103489047D01*
%TO.C,SW31*%
X166815476Y-103774761D02*
X166958333Y-103822380D01*
X167196428Y-103822380D01*
X167291666Y-103774761D01*
X167339285Y-103727142D01*
X167386904Y-103631904D01*
X167386904Y-103536666D01*
X167339285Y-103441428D01*
X167291666Y-103393809D01*
X167196428Y-103346190D01*
X167005952Y-103298571D01*
X166910714Y-103250952D01*
X166863095Y-103203333D01*
X166815476Y-103108095D01*
X166815476Y-103012857D01*
X166863095Y-102917619D01*
X166910714Y-102870000D01*
X167005952Y-102822380D01*
X167244047Y-102822380D01*
X167386904Y-102870000D01*
X167720238Y-102822380D02*
X167958333Y-103822380D01*
X168148809Y-103108095D01*
X168339285Y-103822380D01*
X168577380Y-102822380D01*
X168863095Y-102822380D02*
X169482142Y-102822380D01*
X169148809Y-103203333D01*
X169291666Y-103203333D01*
X169386904Y-103250952D01*
X169434523Y-103298571D01*
X169482142Y-103393809D01*
X169482142Y-103631904D01*
X169434523Y-103727142D01*
X169386904Y-103774761D01*
X169291666Y-103822380D01*
X169005952Y-103822380D01*
X168910714Y-103774761D01*
X168863095Y-103727142D01*
X170434523Y-103822380D02*
X169863095Y-103822380D01*
X170148809Y-103822380D02*
X170148809Y-102822380D01*
X170053571Y-102965238D01*
X169958333Y-103060476D01*
X169863095Y-103108095D01*
%TO.C,SW30*%
X128815476Y-103774761D02*
X128958333Y-103822380D01*
X129196428Y-103822380D01*
X129291666Y-103774761D01*
X129339285Y-103727142D01*
X129386904Y-103631904D01*
X129386904Y-103536666D01*
X129339285Y-103441428D01*
X129291666Y-103393809D01*
X129196428Y-103346190D01*
X129005952Y-103298571D01*
X128910714Y-103250952D01*
X128863095Y-103203333D01*
X128815476Y-103108095D01*
X128815476Y-103012857D01*
X128863095Y-102917619D01*
X128910714Y-102870000D01*
X129005952Y-102822380D01*
X129244047Y-102822380D01*
X129386904Y-102870000D01*
X129720238Y-102822380D02*
X129958333Y-103822380D01*
X130148809Y-103108095D01*
X130339285Y-103822380D01*
X130577380Y-102822380D01*
X130863095Y-102822380D02*
X131482142Y-102822380D01*
X131148809Y-103203333D01*
X131291666Y-103203333D01*
X131386904Y-103250952D01*
X131434523Y-103298571D01*
X131482142Y-103393809D01*
X131482142Y-103631904D01*
X131434523Y-103727142D01*
X131386904Y-103774761D01*
X131291666Y-103822380D01*
X131005952Y-103822380D01*
X130910714Y-103774761D01*
X130863095Y-103727142D01*
X132101190Y-102822380D02*
X132196428Y-102822380D01*
X132291666Y-102870000D01*
X132339285Y-102917619D01*
X132386904Y-103012857D01*
X132434523Y-103203333D01*
X132434523Y-103441428D01*
X132386904Y-103631904D01*
X132339285Y-103727142D01*
X132291666Y-103774761D01*
X132196428Y-103822380D01*
X132101190Y-103822380D01*
X132005952Y-103774761D01*
X131958333Y-103727142D01*
X131910714Y-103631904D01*
X131863095Y-103441428D01*
X131863095Y-103203333D01*
X131910714Y-103012857D01*
X131958333Y-102917619D01*
X132005952Y-102870000D01*
X132101190Y-102822380D01*
%TO.C,SW29*%
X109815476Y-103774761D02*
X109958333Y-103822380D01*
X110196428Y-103822380D01*
X110291666Y-103774761D01*
X110339285Y-103727142D01*
X110386904Y-103631904D01*
X110386904Y-103536666D01*
X110339285Y-103441428D01*
X110291666Y-103393809D01*
X110196428Y-103346190D01*
X110005952Y-103298571D01*
X109910714Y-103250952D01*
X109863095Y-103203333D01*
X109815476Y-103108095D01*
X109815476Y-103012857D01*
X109863095Y-102917619D01*
X109910714Y-102870000D01*
X110005952Y-102822380D01*
X110244047Y-102822380D01*
X110386904Y-102870000D01*
X110720238Y-102822380D02*
X110958333Y-103822380D01*
X111148809Y-103108095D01*
X111339285Y-103822380D01*
X111577380Y-102822380D01*
X111910714Y-102917619D02*
X111958333Y-102870000D01*
X112053571Y-102822380D01*
X112291666Y-102822380D01*
X112386904Y-102870000D01*
X112434523Y-102917619D01*
X112482142Y-103012857D01*
X112482142Y-103108095D01*
X112434523Y-103250952D01*
X111863095Y-103822380D01*
X112482142Y-103822380D01*
X112958333Y-103822380D02*
X113148809Y-103822380D01*
X113244047Y-103774761D01*
X113291666Y-103727142D01*
X113386904Y-103584285D01*
X113434523Y-103393809D01*
X113434523Y-103012857D01*
X113386904Y-102917619D01*
X113339285Y-102870000D01*
X113244047Y-102822380D01*
X113053571Y-102822380D01*
X112958333Y-102870000D01*
X112910714Y-102917619D01*
X112863095Y-103012857D01*
X112863095Y-103250952D01*
X112910714Y-103346190D01*
X112958333Y-103393809D01*
X113053571Y-103441428D01*
X113244047Y-103441428D01*
X113339285Y-103393809D01*
X113386904Y-103346190D01*
X113434523Y-103250952D01*
%TO.C,SW28*%
X90815476Y-103774761D02*
X90958333Y-103822380D01*
X91196428Y-103822380D01*
X91291666Y-103774761D01*
X91339285Y-103727142D01*
X91386904Y-103631904D01*
X91386904Y-103536666D01*
X91339285Y-103441428D01*
X91291666Y-103393809D01*
X91196428Y-103346190D01*
X91005952Y-103298571D01*
X90910714Y-103250952D01*
X90863095Y-103203333D01*
X90815476Y-103108095D01*
X90815476Y-103012857D01*
X90863095Y-102917619D01*
X90910714Y-102870000D01*
X91005952Y-102822380D01*
X91244047Y-102822380D01*
X91386904Y-102870000D01*
X91720238Y-102822380D02*
X91958333Y-103822380D01*
X92148809Y-103108095D01*
X92339285Y-103822380D01*
X92577380Y-102822380D01*
X92910714Y-102917619D02*
X92958333Y-102870000D01*
X93053571Y-102822380D01*
X93291666Y-102822380D01*
X93386904Y-102870000D01*
X93434523Y-102917619D01*
X93482142Y-103012857D01*
X93482142Y-103108095D01*
X93434523Y-103250952D01*
X92863095Y-103822380D01*
X93482142Y-103822380D01*
X94053571Y-103250952D02*
X93958333Y-103203333D01*
X93910714Y-103155714D01*
X93863095Y-103060476D01*
X93863095Y-103012857D01*
X93910714Y-102917619D01*
X93958333Y-102870000D01*
X94053571Y-102822380D01*
X94244047Y-102822380D01*
X94339285Y-102870000D01*
X94386904Y-102917619D01*
X94434523Y-103012857D01*
X94434523Y-103060476D01*
X94386904Y-103155714D01*
X94339285Y-103203333D01*
X94244047Y-103250952D01*
X94053571Y-103250952D01*
X93958333Y-103298571D01*
X93910714Y-103346190D01*
X93863095Y-103441428D01*
X93863095Y-103631904D01*
X93910714Y-103727142D01*
X93958333Y-103774761D01*
X94053571Y-103822380D01*
X94244047Y-103822380D01*
X94339285Y-103774761D01*
X94386904Y-103727142D01*
X94434523Y-103631904D01*
X94434523Y-103441428D01*
X94386904Y-103346190D01*
X94339285Y-103298571D01*
X94244047Y-103250952D01*
%TO.C,SW27*%
X71815476Y-103774761D02*
X71958333Y-103822380D01*
X72196428Y-103822380D01*
X72291666Y-103774761D01*
X72339285Y-103727142D01*
X72386904Y-103631904D01*
X72386904Y-103536666D01*
X72339285Y-103441428D01*
X72291666Y-103393809D01*
X72196428Y-103346190D01*
X72005952Y-103298571D01*
X71910714Y-103250952D01*
X71863095Y-103203333D01*
X71815476Y-103108095D01*
X71815476Y-103012857D01*
X71863095Y-102917619D01*
X71910714Y-102870000D01*
X72005952Y-102822380D01*
X72244047Y-102822380D01*
X72386904Y-102870000D01*
X72720238Y-102822380D02*
X72958333Y-103822380D01*
X73148809Y-103108095D01*
X73339285Y-103822380D01*
X73577380Y-102822380D01*
X73910714Y-102917619D02*
X73958333Y-102870000D01*
X74053571Y-102822380D01*
X74291666Y-102822380D01*
X74386904Y-102870000D01*
X74434523Y-102917619D01*
X74482142Y-103012857D01*
X74482142Y-103108095D01*
X74434523Y-103250952D01*
X73863095Y-103822380D01*
X74482142Y-103822380D01*
X74815476Y-102822380D02*
X75482142Y-102822380D01*
X75053571Y-103822380D01*
%TO.C,SW26*%
X52815476Y-103774761D02*
X52958333Y-103822380D01*
X53196428Y-103822380D01*
X53291666Y-103774761D01*
X53339285Y-103727142D01*
X53386904Y-103631904D01*
X53386904Y-103536666D01*
X53339285Y-103441428D01*
X53291666Y-103393809D01*
X53196428Y-103346190D01*
X53005952Y-103298571D01*
X52910714Y-103250952D01*
X52863095Y-103203333D01*
X52815476Y-103108095D01*
X52815476Y-103012857D01*
X52863095Y-102917619D01*
X52910714Y-102870000D01*
X53005952Y-102822380D01*
X53244047Y-102822380D01*
X53386904Y-102870000D01*
X53720238Y-102822380D02*
X53958333Y-103822380D01*
X54148809Y-103108095D01*
X54339285Y-103822380D01*
X54577380Y-102822380D01*
X54910714Y-102917619D02*
X54958333Y-102870000D01*
X55053571Y-102822380D01*
X55291666Y-102822380D01*
X55386904Y-102870000D01*
X55434523Y-102917619D01*
X55482142Y-103012857D01*
X55482142Y-103108095D01*
X55434523Y-103250952D01*
X54863095Y-103822380D01*
X55482142Y-103822380D01*
X56339285Y-102822380D02*
X56148809Y-102822380D01*
X56053571Y-102870000D01*
X56005952Y-102917619D01*
X55910714Y-103060476D01*
X55863095Y-103250952D01*
X55863095Y-103631904D01*
X55910714Y-103727142D01*
X55958333Y-103774761D01*
X56053571Y-103822380D01*
X56244047Y-103822380D01*
X56339285Y-103774761D01*
X56386904Y-103727142D01*
X56434523Y-103631904D01*
X56434523Y-103393809D01*
X56386904Y-103298571D01*
X56339285Y-103250952D01*
X56244047Y-103203333D01*
X56053571Y-103203333D01*
X55958333Y-103250952D01*
X55910714Y-103298571D01*
X55863095Y-103393809D01*
%TO.C,SW25*%
X33815476Y-103774761D02*
X33958333Y-103822380D01*
X34196428Y-103822380D01*
X34291666Y-103774761D01*
X34339285Y-103727142D01*
X34386904Y-103631904D01*
X34386904Y-103536666D01*
X34339285Y-103441428D01*
X34291666Y-103393809D01*
X34196428Y-103346190D01*
X34005952Y-103298571D01*
X33910714Y-103250952D01*
X33863095Y-103203333D01*
X33815476Y-103108095D01*
X33815476Y-103012857D01*
X33863095Y-102917619D01*
X33910714Y-102870000D01*
X34005952Y-102822380D01*
X34244047Y-102822380D01*
X34386904Y-102870000D01*
X34720238Y-102822380D02*
X34958333Y-103822380D01*
X35148809Y-103108095D01*
X35339285Y-103822380D01*
X35577380Y-102822380D01*
X35910714Y-102917619D02*
X35958333Y-102870000D01*
X36053571Y-102822380D01*
X36291666Y-102822380D01*
X36386904Y-102870000D01*
X36434523Y-102917619D01*
X36482142Y-103012857D01*
X36482142Y-103108095D01*
X36434523Y-103250952D01*
X35863095Y-103822380D01*
X36482142Y-103822380D01*
X37386904Y-102822380D02*
X36910714Y-102822380D01*
X36863095Y-103298571D01*
X36910714Y-103250952D01*
X37005952Y-103203333D01*
X37244047Y-103203333D01*
X37339285Y-103250952D01*
X37386904Y-103298571D01*
X37434523Y-103393809D01*
X37434523Y-103631904D01*
X37386904Y-103727142D01*
X37339285Y-103774761D01*
X37244047Y-103822380D01*
X37005952Y-103822380D01*
X36910714Y-103774761D01*
X36863095Y-103727142D01*
%TO.C,SW24*%
X257065476Y-84774761D02*
X257208333Y-84822380D01*
X257446428Y-84822380D01*
X257541666Y-84774761D01*
X257589285Y-84727142D01*
X257636904Y-84631904D01*
X257636904Y-84536666D01*
X257589285Y-84441428D01*
X257541666Y-84393809D01*
X257446428Y-84346190D01*
X257255952Y-84298571D01*
X257160714Y-84250952D01*
X257113095Y-84203333D01*
X257065476Y-84108095D01*
X257065476Y-84012857D01*
X257113095Y-83917619D01*
X257160714Y-83870000D01*
X257255952Y-83822380D01*
X257494047Y-83822380D01*
X257636904Y-83870000D01*
X257970238Y-83822380D02*
X258208333Y-84822380D01*
X258398809Y-84108095D01*
X258589285Y-84822380D01*
X258827380Y-83822380D01*
X259160714Y-83917619D02*
X259208333Y-83870000D01*
X259303571Y-83822380D01*
X259541666Y-83822380D01*
X259636904Y-83870000D01*
X259684523Y-83917619D01*
X259732142Y-84012857D01*
X259732142Y-84108095D01*
X259684523Y-84250952D01*
X259113095Y-84822380D01*
X259732142Y-84822380D01*
X260589285Y-84155714D02*
X260589285Y-84822380D01*
X260351190Y-83774761D02*
X260113095Y-84489047D01*
X260732142Y-84489047D01*
%TO.C,SW23*%
X238065476Y-84774761D02*
X238208333Y-84822380D01*
X238446428Y-84822380D01*
X238541666Y-84774761D01*
X238589285Y-84727142D01*
X238636904Y-84631904D01*
X238636904Y-84536666D01*
X238589285Y-84441428D01*
X238541666Y-84393809D01*
X238446428Y-84346190D01*
X238255952Y-84298571D01*
X238160714Y-84250952D01*
X238113095Y-84203333D01*
X238065476Y-84108095D01*
X238065476Y-84012857D01*
X238113095Y-83917619D01*
X238160714Y-83870000D01*
X238255952Y-83822380D01*
X238494047Y-83822380D01*
X238636904Y-83870000D01*
X238970238Y-83822380D02*
X239208333Y-84822380D01*
X239398809Y-84108095D01*
X239589285Y-84822380D01*
X239827380Y-83822380D01*
X240160714Y-83917619D02*
X240208333Y-83870000D01*
X240303571Y-83822380D01*
X240541666Y-83822380D01*
X240636904Y-83870000D01*
X240684523Y-83917619D01*
X240732142Y-84012857D01*
X240732142Y-84108095D01*
X240684523Y-84250952D01*
X240113095Y-84822380D01*
X240732142Y-84822380D01*
X241065476Y-83822380D02*
X241684523Y-83822380D01*
X241351190Y-84203333D01*
X241494047Y-84203333D01*
X241589285Y-84250952D01*
X241636904Y-84298571D01*
X241684523Y-84393809D01*
X241684523Y-84631904D01*
X241636904Y-84727142D01*
X241589285Y-84774761D01*
X241494047Y-84822380D01*
X241208333Y-84822380D01*
X241113095Y-84774761D01*
X241065476Y-84727142D01*
%TO.C,SW22*%
X219065476Y-84774761D02*
X219208333Y-84822380D01*
X219446428Y-84822380D01*
X219541666Y-84774761D01*
X219589285Y-84727142D01*
X219636904Y-84631904D01*
X219636904Y-84536666D01*
X219589285Y-84441428D01*
X219541666Y-84393809D01*
X219446428Y-84346190D01*
X219255952Y-84298571D01*
X219160714Y-84250952D01*
X219113095Y-84203333D01*
X219065476Y-84108095D01*
X219065476Y-84012857D01*
X219113095Y-83917619D01*
X219160714Y-83870000D01*
X219255952Y-83822380D01*
X219494047Y-83822380D01*
X219636904Y-83870000D01*
X219970238Y-83822380D02*
X220208333Y-84822380D01*
X220398809Y-84108095D01*
X220589285Y-84822380D01*
X220827380Y-83822380D01*
X221160714Y-83917619D02*
X221208333Y-83870000D01*
X221303571Y-83822380D01*
X221541666Y-83822380D01*
X221636904Y-83870000D01*
X221684523Y-83917619D01*
X221732142Y-84012857D01*
X221732142Y-84108095D01*
X221684523Y-84250952D01*
X221113095Y-84822380D01*
X221732142Y-84822380D01*
X222113095Y-83917619D02*
X222160714Y-83870000D01*
X222255952Y-83822380D01*
X222494047Y-83822380D01*
X222589285Y-83870000D01*
X222636904Y-83917619D01*
X222684523Y-84012857D01*
X222684523Y-84108095D01*
X222636904Y-84250952D01*
X222065476Y-84822380D01*
X222684523Y-84822380D01*
%TO.C,SW21*%
X200065476Y-84774761D02*
X200208333Y-84822380D01*
X200446428Y-84822380D01*
X200541666Y-84774761D01*
X200589285Y-84727142D01*
X200636904Y-84631904D01*
X200636904Y-84536666D01*
X200589285Y-84441428D01*
X200541666Y-84393809D01*
X200446428Y-84346190D01*
X200255952Y-84298571D01*
X200160714Y-84250952D01*
X200113095Y-84203333D01*
X200065476Y-84108095D01*
X200065476Y-84012857D01*
X200113095Y-83917619D01*
X200160714Y-83870000D01*
X200255952Y-83822380D01*
X200494047Y-83822380D01*
X200636904Y-83870000D01*
X200970238Y-83822380D02*
X201208333Y-84822380D01*
X201398809Y-84108095D01*
X201589285Y-84822380D01*
X201827380Y-83822380D01*
X202160714Y-83917619D02*
X202208333Y-83870000D01*
X202303571Y-83822380D01*
X202541666Y-83822380D01*
X202636904Y-83870000D01*
X202684523Y-83917619D01*
X202732142Y-84012857D01*
X202732142Y-84108095D01*
X202684523Y-84250952D01*
X202113095Y-84822380D01*
X202732142Y-84822380D01*
X203684523Y-84822380D02*
X203113095Y-84822380D01*
X203398809Y-84822380D02*
X203398809Y-83822380D01*
X203303571Y-83965238D01*
X203208333Y-84060476D01*
X203113095Y-84108095D01*
%TO.C,SW20*%
X181065476Y-84774761D02*
X181208333Y-84822380D01*
X181446428Y-84822380D01*
X181541666Y-84774761D01*
X181589285Y-84727142D01*
X181636904Y-84631904D01*
X181636904Y-84536666D01*
X181589285Y-84441428D01*
X181541666Y-84393809D01*
X181446428Y-84346190D01*
X181255952Y-84298571D01*
X181160714Y-84250952D01*
X181113095Y-84203333D01*
X181065476Y-84108095D01*
X181065476Y-84012857D01*
X181113095Y-83917619D01*
X181160714Y-83870000D01*
X181255952Y-83822380D01*
X181494047Y-83822380D01*
X181636904Y-83870000D01*
X181970238Y-83822380D02*
X182208333Y-84822380D01*
X182398809Y-84108095D01*
X182589285Y-84822380D01*
X182827380Y-83822380D01*
X183160714Y-83917619D02*
X183208333Y-83870000D01*
X183303571Y-83822380D01*
X183541666Y-83822380D01*
X183636904Y-83870000D01*
X183684523Y-83917619D01*
X183732142Y-84012857D01*
X183732142Y-84108095D01*
X183684523Y-84250952D01*
X183113095Y-84822380D01*
X183732142Y-84822380D01*
X184351190Y-83822380D02*
X184446428Y-83822380D01*
X184541666Y-83870000D01*
X184589285Y-83917619D01*
X184636904Y-84012857D01*
X184684523Y-84203333D01*
X184684523Y-84441428D01*
X184636904Y-84631904D01*
X184589285Y-84727142D01*
X184541666Y-84774761D01*
X184446428Y-84822380D01*
X184351190Y-84822380D01*
X184255952Y-84774761D01*
X184208333Y-84727142D01*
X184160714Y-84631904D01*
X184113095Y-84441428D01*
X184113095Y-84203333D01*
X184160714Y-84012857D01*
X184208333Y-83917619D01*
X184255952Y-83870000D01*
X184351190Y-83822380D01*
%TO.C,SW19*%
X162065476Y-84774761D02*
X162208333Y-84822380D01*
X162446428Y-84822380D01*
X162541666Y-84774761D01*
X162589285Y-84727142D01*
X162636904Y-84631904D01*
X162636904Y-84536666D01*
X162589285Y-84441428D01*
X162541666Y-84393809D01*
X162446428Y-84346190D01*
X162255952Y-84298571D01*
X162160714Y-84250952D01*
X162113095Y-84203333D01*
X162065476Y-84108095D01*
X162065476Y-84012857D01*
X162113095Y-83917619D01*
X162160714Y-83870000D01*
X162255952Y-83822380D01*
X162494047Y-83822380D01*
X162636904Y-83870000D01*
X162970238Y-83822380D02*
X163208333Y-84822380D01*
X163398809Y-84108095D01*
X163589285Y-84822380D01*
X163827380Y-83822380D01*
X164732142Y-84822380D02*
X164160714Y-84822380D01*
X164446428Y-84822380D02*
X164446428Y-83822380D01*
X164351190Y-83965238D01*
X164255952Y-84060476D01*
X164160714Y-84108095D01*
X165208333Y-84822380D02*
X165398809Y-84822380D01*
X165494047Y-84774761D01*
X165541666Y-84727142D01*
X165636904Y-84584285D01*
X165684523Y-84393809D01*
X165684523Y-84012857D01*
X165636904Y-83917619D01*
X165589285Y-83870000D01*
X165494047Y-83822380D01*
X165303571Y-83822380D01*
X165208333Y-83870000D01*
X165160714Y-83917619D01*
X165113095Y-84012857D01*
X165113095Y-84250952D01*
X165160714Y-84346190D01*
X165208333Y-84393809D01*
X165303571Y-84441428D01*
X165494047Y-84441428D01*
X165589285Y-84393809D01*
X165636904Y-84346190D01*
X165684523Y-84250952D01*
%TO.C,SW18*%
X133565476Y-84774761D02*
X133708333Y-84822380D01*
X133946428Y-84822380D01*
X134041666Y-84774761D01*
X134089285Y-84727142D01*
X134136904Y-84631904D01*
X134136904Y-84536666D01*
X134089285Y-84441428D01*
X134041666Y-84393809D01*
X133946428Y-84346190D01*
X133755952Y-84298571D01*
X133660714Y-84250952D01*
X133613095Y-84203333D01*
X133565476Y-84108095D01*
X133565476Y-84012857D01*
X133613095Y-83917619D01*
X133660714Y-83870000D01*
X133755952Y-83822380D01*
X133994047Y-83822380D01*
X134136904Y-83870000D01*
X134470238Y-83822380D02*
X134708333Y-84822380D01*
X134898809Y-84108095D01*
X135089285Y-84822380D01*
X135327380Y-83822380D01*
X136232142Y-84822380D02*
X135660714Y-84822380D01*
X135946428Y-84822380D02*
X135946428Y-83822380D01*
X135851190Y-83965238D01*
X135755952Y-84060476D01*
X135660714Y-84108095D01*
X136803571Y-84250952D02*
X136708333Y-84203333D01*
X136660714Y-84155714D01*
X136613095Y-84060476D01*
X136613095Y-84012857D01*
X136660714Y-83917619D01*
X136708333Y-83870000D01*
X136803571Y-83822380D01*
X136994047Y-83822380D01*
X137089285Y-83870000D01*
X137136904Y-83917619D01*
X137184523Y-84012857D01*
X137184523Y-84060476D01*
X137136904Y-84155714D01*
X137089285Y-84203333D01*
X136994047Y-84250952D01*
X136803571Y-84250952D01*
X136708333Y-84298571D01*
X136660714Y-84346190D01*
X136613095Y-84441428D01*
X136613095Y-84631904D01*
X136660714Y-84727142D01*
X136708333Y-84774761D01*
X136803571Y-84822380D01*
X136994047Y-84822380D01*
X137089285Y-84774761D01*
X137136904Y-84727142D01*
X137184523Y-84631904D01*
X137184523Y-84441428D01*
X137136904Y-84346190D01*
X137089285Y-84298571D01*
X136994047Y-84250952D01*
%TO.C,SW17*%
X114565476Y-84774761D02*
X114708333Y-84822380D01*
X114946428Y-84822380D01*
X115041666Y-84774761D01*
X115089285Y-84727142D01*
X115136904Y-84631904D01*
X115136904Y-84536666D01*
X115089285Y-84441428D01*
X115041666Y-84393809D01*
X114946428Y-84346190D01*
X114755952Y-84298571D01*
X114660714Y-84250952D01*
X114613095Y-84203333D01*
X114565476Y-84108095D01*
X114565476Y-84012857D01*
X114613095Y-83917619D01*
X114660714Y-83870000D01*
X114755952Y-83822380D01*
X114994047Y-83822380D01*
X115136904Y-83870000D01*
X115470238Y-83822380D02*
X115708333Y-84822380D01*
X115898809Y-84108095D01*
X116089285Y-84822380D01*
X116327380Y-83822380D01*
X117232142Y-84822380D02*
X116660714Y-84822380D01*
X116946428Y-84822380D02*
X116946428Y-83822380D01*
X116851190Y-83965238D01*
X116755952Y-84060476D01*
X116660714Y-84108095D01*
X117565476Y-83822380D02*
X118232142Y-83822380D01*
X117803571Y-84822380D01*
%TO.C,SW16*%
X95565476Y-84774761D02*
X95708333Y-84822380D01*
X95946428Y-84822380D01*
X96041666Y-84774761D01*
X96089285Y-84727142D01*
X96136904Y-84631904D01*
X96136904Y-84536666D01*
X96089285Y-84441428D01*
X96041666Y-84393809D01*
X95946428Y-84346190D01*
X95755952Y-84298571D01*
X95660714Y-84250952D01*
X95613095Y-84203333D01*
X95565476Y-84108095D01*
X95565476Y-84012857D01*
X95613095Y-83917619D01*
X95660714Y-83870000D01*
X95755952Y-83822380D01*
X95994047Y-83822380D01*
X96136904Y-83870000D01*
X96470238Y-83822380D02*
X96708333Y-84822380D01*
X96898809Y-84108095D01*
X97089285Y-84822380D01*
X97327380Y-83822380D01*
X98232142Y-84822380D02*
X97660714Y-84822380D01*
X97946428Y-84822380D02*
X97946428Y-83822380D01*
X97851190Y-83965238D01*
X97755952Y-84060476D01*
X97660714Y-84108095D01*
X99089285Y-83822380D02*
X98898809Y-83822380D01*
X98803571Y-83870000D01*
X98755952Y-83917619D01*
X98660714Y-84060476D01*
X98613095Y-84250952D01*
X98613095Y-84631904D01*
X98660714Y-84727142D01*
X98708333Y-84774761D01*
X98803571Y-84822380D01*
X98994047Y-84822380D01*
X99089285Y-84774761D01*
X99136904Y-84727142D01*
X99184523Y-84631904D01*
X99184523Y-84393809D01*
X99136904Y-84298571D01*
X99089285Y-84250952D01*
X98994047Y-84203333D01*
X98803571Y-84203333D01*
X98708333Y-84250952D01*
X98660714Y-84298571D01*
X98613095Y-84393809D01*
%TO.C,SW15*%
X76565476Y-84774761D02*
X76708333Y-84822380D01*
X76946428Y-84822380D01*
X77041666Y-84774761D01*
X77089285Y-84727142D01*
X77136904Y-84631904D01*
X77136904Y-84536666D01*
X77089285Y-84441428D01*
X77041666Y-84393809D01*
X76946428Y-84346190D01*
X76755952Y-84298571D01*
X76660714Y-84250952D01*
X76613095Y-84203333D01*
X76565476Y-84108095D01*
X76565476Y-84012857D01*
X76613095Y-83917619D01*
X76660714Y-83870000D01*
X76755952Y-83822380D01*
X76994047Y-83822380D01*
X77136904Y-83870000D01*
X77470238Y-83822380D02*
X77708333Y-84822380D01*
X77898809Y-84108095D01*
X78089285Y-84822380D01*
X78327380Y-83822380D01*
X79232142Y-84822380D02*
X78660714Y-84822380D01*
X78946428Y-84822380D02*
X78946428Y-83822380D01*
X78851190Y-83965238D01*
X78755952Y-84060476D01*
X78660714Y-84108095D01*
X80136904Y-83822380D02*
X79660714Y-83822380D01*
X79613095Y-84298571D01*
X79660714Y-84250952D01*
X79755952Y-84203333D01*
X79994047Y-84203333D01*
X80089285Y-84250952D01*
X80136904Y-84298571D01*
X80184523Y-84393809D01*
X80184523Y-84631904D01*
X80136904Y-84727142D01*
X80089285Y-84774761D01*
X79994047Y-84822380D01*
X79755952Y-84822380D01*
X79660714Y-84774761D01*
X79613095Y-84727142D01*
%TO.C,SW14*%
X57565476Y-84774761D02*
X57708333Y-84822380D01*
X57946428Y-84822380D01*
X58041666Y-84774761D01*
X58089285Y-84727142D01*
X58136904Y-84631904D01*
X58136904Y-84536666D01*
X58089285Y-84441428D01*
X58041666Y-84393809D01*
X57946428Y-84346190D01*
X57755952Y-84298571D01*
X57660714Y-84250952D01*
X57613095Y-84203333D01*
X57565476Y-84108095D01*
X57565476Y-84012857D01*
X57613095Y-83917619D01*
X57660714Y-83870000D01*
X57755952Y-83822380D01*
X57994047Y-83822380D01*
X58136904Y-83870000D01*
X58470238Y-83822380D02*
X58708333Y-84822380D01*
X58898809Y-84108095D01*
X59089285Y-84822380D01*
X59327380Y-83822380D01*
X60232142Y-84822380D02*
X59660714Y-84822380D01*
X59946428Y-84822380D02*
X59946428Y-83822380D01*
X59851190Y-83965238D01*
X59755952Y-84060476D01*
X59660714Y-84108095D01*
X61089285Y-84155714D02*
X61089285Y-84822380D01*
X60851190Y-83774761D02*
X60613095Y-84489047D01*
X61232142Y-84489047D01*
%TO.C,SW13*%
X38565476Y-84774761D02*
X38708333Y-84822380D01*
X38946428Y-84822380D01*
X39041666Y-84774761D01*
X39089285Y-84727142D01*
X39136904Y-84631904D01*
X39136904Y-84536666D01*
X39089285Y-84441428D01*
X39041666Y-84393809D01*
X38946428Y-84346190D01*
X38755952Y-84298571D01*
X38660714Y-84250952D01*
X38613095Y-84203333D01*
X38565476Y-84108095D01*
X38565476Y-84012857D01*
X38613095Y-83917619D01*
X38660714Y-83870000D01*
X38755952Y-83822380D01*
X38994047Y-83822380D01*
X39136904Y-83870000D01*
X39470238Y-83822380D02*
X39708333Y-84822380D01*
X39898809Y-84108095D01*
X40089285Y-84822380D01*
X40327380Y-83822380D01*
X41232142Y-84822380D02*
X40660714Y-84822380D01*
X40946428Y-84822380D02*
X40946428Y-83822380D01*
X40851190Y-83965238D01*
X40755952Y-84060476D01*
X40660714Y-84108095D01*
X41565476Y-83822380D02*
X42184523Y-83822380D01*
X41851190Y-84203333D01*
X41994047Y-84203333D01*
X42089285Y-84250952D01*
X42136904Y-84298571D01*
X42184523Y-84393809D01*
X42184523Y-84631904D01*
X42136904Y-84727142D01*
X42089285Y-84774761D01*
X41994047Y-84822380D01*
X41708333Y-84822380D01*
X41613095Y-84774761D01*
X41565476Y-84727142D01*
%TO.C,SW12*%
X252315476Y-65774761D02*
X252458333Y-65822380D01*
X252696428Y-65822380D01*
X252791666Y-65774761D01*
X252839285Y-65727142D01*
X252886904Y-65631904D01*
X252886904Y-65536666D01*
X252839285Y-65441428D01*
X252791666Y-65393809D01*
X252696428Y-65346190D01*
X252505952Y-65298571D01*
X252410714Y-65250952D01*
X252363095Y-65203333D01*
X252315476Y-65108095D01*
X252315476Y-65012857D01*
X252363095Y-64917619D01*
X252410714Y-64870000D01*
X252505952Y-64822380D01*
X252744047Y-64822380D01*
X252886904Y-64870000D01*
X253220238Y-64822380D02*
X253458333Y-65822380D01*
X253648809Y-65108095D01*
X253839285Y-65822380D01*
X254077380Y-64822380D01*
X254982142Y-65822380D02*
X254410714Y-65822380D01*
X254696428Y-65822380D02*
X254696428Y-64822380D01*
X254601190Y-64965238D01*
X254505952Y-65060476D01*
X254410714Y-65108095D01*
X255363095Y-64917619D02*
X255410714Y-64870000D01*
X255505952Y-64822380D01*
X255744047Y-64822380D01*
X255839285Y-64870000D01*
X255886904Y-64917619D01*
X255934523Y-65012857D01*
X255934523Y-65108095D01*
X255886904Y-65250952D01*
X255315476Y-65822380D01*
X255934523Y-65822380D01*
%TO.C,SW11*%
X233315476Y-65774761D02*
X233458333Y-65822380D01*
X233696428Y-65822380D01*
X233791666Y-65774761D01*
X233839285Y-65727142D01*
X233886904Y-65631904D01*
X233886904Y-65536666D01*
X233839285Y-65441428D01*
X233791666Y-65393809D01*
X233696428Y-65346190D01*
X233505952Y-65298571D01*
X233410714Y-65250952D01*
X233363095Y-65203333D01*
X233315476Y-65108095D01*
X233315476Y-65012857D01*
X233363095Y-64917619D01*
X233410714Y-64870000D01*
X233505952Y-64822380D01*
X233744047Y-64822380D01*
X233886904Y-64870000D01*
X234220238Y-64822380D02*
X234458333Y-65822380D01*
X234648809Y-65108095D01*
X234839285Y-65822380D01*
X235077380Y-64822380D01*
X235982142Y-65822380D02*
X235410714Y-65822380D01*
X235696428Y-65822380D02*
X235696428Y-64822380D01*
X235601190Y-64965238D01*
X235505952Y-65060476D01*
X235410714Y-65108095D01*
X236934523Y-65822380D02*
X236363095Y-65822380D01*
X236648809Y-65822380D02*
X236648809Y-64822380D01*
X236553571Y-64965238D01*
X236458333Y-65060476D01*
X236363095Y-65108095D01*
%TO.C,SW10*%
X214315476Y-65774761D02*
X214458333Y-65822380D01*
X214696428Y-65822380D01*
X214791666Y-65774761D01*
X214839285Y-65727142D01*
X214886904Y-65631904D01*
X214886904Y-65536666D01*
X214839285Y-65441428D01*
X214791666Y-65393809D01*
X214696428Y-65346190D01*
X214505952Y-65298571D01*
X214410714Y-65250952D01*
X214363095Y-65203333D01*
X214315476Y-65108095D01*
X214315476Y-65012857D01*
X214363095Y-64917619D01*
X214410714Y-64870000D01*
X214505952Y-64822380D01*
X214744047Y-64822380D01*
X214886904Y-64870000D01*
X215220238Y-64822380D02*
X215458333Y-65822380D01*
X215648809Y-65108095D01*
X215839285Y-65822380D01*
X216077380Y-64822380D01*
X216982142Y-65822380D02*
X216410714Y-65822380D01*
X216696428Y-65822380D02*
X216696428Y-64822380D01*
X216601190Y-64965238D01*
X216505952Y-65060476D01*
X216410714Y-65108095D01*
X217601190Y-64822380D02*
X217696428Y-64822380D01*
X217791666Y-64870000D01*
X217839285Y-64917619D01*
X217886904Y-65012857D01*
X217934523Y-65203333D01*
X217934523Y-65441428D01*
X217886904Y-65631904D01*
X217839285Y-65727142D01*
X217791666Y-65774761D01*
X217696428Y-65822380D01*
X217601190Y-65822380D01*
X217505952Y-65774761D01*
X217458333Y-65727142D01*
X217410714Y-65631904D01*
X217363095Y-65441428D01*
X217363095Y-65203333D01*
X217410714Y-65012857D01*
X217458333Y-64917619D01*
X217505952Y-64870000D01*
X217601190Y-64822380D01*
%TO.C,SW9*%
X195791666Y-65774761D02*
X195934523Y-65822380D01*
X196172619Y-65822380D01*
X196267857Y-65774761D01*
X196315476Y-65727142D01*
X196363095Y-65631904D01*
X196363095Y-65536666D01*
X196315476Y-65441428D01*
X196267857Y-65393809D01*
X196172619Y-65346190D01*
X195982142Y-65298571D01*
X195886904Y-65250952D01*
X195839285Y-65203333D01*
X195791666Y-65108095D01*
X195791666Y-65012857D01*
X195839285Y-64917619D01*
X195886904Y-64870000D01*
X195982142Y-64822380D01*
X196220238Y-64822380D01*
X196363095Y-64870000D01*
X196696428Y-64822380D02*
X196934523Y-65822380D01*
X197125000Y-65108095D01*
X197315476Y-65822380D01*
X197553571Y-64822380D01*
X197982142Y-65822380D02*
X198172619Y-65822380D01*
X198267857Y-65774761D01*
X198315476Y-65727142D01*
X198410714Y-65584285D01*
X198458333Y-65393809D01*
X198458333Y-65012857D01*
X198410714Y-64917619D01*
X198363095Y-64870000D01*
X198267857Y-64822380D01*
X198077380Y-64822380D01*
X197982142Y-64870000D01*
X197934523Y-64917619D01*
X197886904Y-65012857D01*
X197886904Y-65250952D01*
X197934523Y-65346190D01*
X197982142Y-65393809D01*
X198077380Y-65441428D01*
X198267857Y-65441428D01*
X198363095Y-65393809D01*
X198410714Y-65346190D01*
X198458333Y-65250952D01*
%TO.C,SW8*%
X176791666Y-65774761D02*
X176934523Y-65822380D01*
X177172619Y-65822380D01*
X177267857Y-65774761D01*
X177315476Y-65727142D01*
X177363095Y-65631904D01*
X177363095Y-65536666D01*
X177315476Y-65441428D01*
X177267857Y-65393809D01*
X177172619Y-65346190D01*
X176982142Y-65298571D01*
X176886904Y-65250952D01*
X176839285Y-65203333D01*
X176791666Y-65108095D01*
X176791666Y-65012857D01*
X176839285Y-64917619D01*
X176886904Y-64870000D01*
X176982142Y-64822380D01*
X177220238Y-64822380D01*
X177363095Y-64870000D01*
X177696428Y-64822380D02*
X177934523Y-65822380D01*
X178125000Y-65108095D01*
X178315476Y-65822380D01*
X178553571Y-64822380D01*
X179077380Y-65250952D02*
X178982142Y-65203333D01*
X178934523Y-65155714D01*
X178886904Y-65060476D01*
X178886904Y-65012857D01*
X178934523Y-64917619D01*
X178982142Y-64870000D01*
X179077380Y-64822380D01*
X179267857Y-64822380D01*
X179363095Y-64870000D01*
X179410714Y-64917619D01*
X179458333Y-65012857D01*
X179458333Y-65060476D01*
X179410714Y-65155714D01*
X179363095Y-65203333D01*
X179267857Y-65250952D01*
X179077380Y-65250952D01*
X178982142Y-65298571D01*
X178934523Y-65346190D01*
X178886904Y-65441428D01*
X178886904Y-65631904D01*
X178934523Y-65727142D01*
X178982142Y-65774761D01*
X179077380Y-65822380D01*
X179267857Y-65822380D01*
X179363095Y-65774761D01*
X179410714Y-65727142D01*
X179458333Y-65631904D01*
X179458333Y-65441428D01*
X179410714Y-65346190D01*
X179363095Y-65298571D01*
X179267857Y-65250952D01*
%TO.C,SW7*%
X157791666Y-65774761D02*
X157934523Y-65822380D01*
X158172619Y-65822380D01*
X158267857Y-65774761D01*
X158315476Y-65727142D01*
X158363095Y-65631904D01*
X158363095Y-65536666D01*
X158315476Y-65441428D01*
X158267857Y-65393809D01*
X158172619Y-65346190D01*
X157982142Y-65298571D01*
X157886904Y-65250952D01*
X157839285Y-65203333D01*
X157791666Y-65108095D01*
X157791666Y-65012857D01*
X157839285Y-64917619D01*
X157886904Y-64870000D01*
X157982142Y-64822380D01*
X158220238Y-64822380D01*
X158363095Y-64870000D01*
X158696428Y-64822380D02*
X158934523Y-65822380D01*
X159125000Y-65108095D01*
X159315476Y-65822380D01*
X159553571Y-64822380D01*
X159839285Y-64822380D02*
X160505952Y-64822380D01*
X160077380Y-65822380D01*
%TO.C,SW6*%
X138791666Y-65774761D02*
X138934523Y-65822380D01*
X139172619Y-65822380D01*
X139267857Y-65774761D01*
X139315476Y-65727142D01*
X139363095Y-65631904D01*
X139363095Y-65536666D01*
X139315476Y-65441428D01*
X139267857Y-65393809D01*
X139172619Y-65346190D01*
X138982142Y-65298571D01*
X138886904Y-65250952D01*
X138839285Y-65203333D01*
X138791666Y-65108095D01*
X138791666Y-65012857D01*
X138839285Y-64917619D01*
X138886904Y-64870000D01*
X138982142Y-64822380D01*
X139220238Y-64822380D01*
X139363095Y-64870000D01*
X139696428Y-64822380D02*
X139934523Y-65822380D01*
X140125000Y-65108095D01*
X140315476Y-65822380D01*
X140553571Y-64822380D01*
X141363095Y-64822380D02*
X141172619Y-64822380D01*
X141077380Y-64870000D01*
X141029761Y-64917619D01*
X140934523Y-65060476D01*
X140886904Y-65250952D01*
X140886904Y-65631904D01*
X140934523Y-65727142D01*
X140982142Y-65774761D01*
X141077380Y-65822380D01*
X141267857Y-65822380D01*
X141363095Y-65774761D01*
X141410714Y-65727142D01*
X141458333Y-65631904D01*
X141458333Y-65393809D01*
X141410714Y-65298571D01*
X141363095Y-65250952D01*
X141267857Y-65203333D01*
X141077380Y-65203333D01*
X140982142Y-65250952D01*
X140934523Y-65298571D01*
X140886904Y-65393809D01*
%TO.C,SW5*%
X119791666Y-65774761D02*
X119934523Y-65822380D01*
X120172619Y-65822380D01*
X120267857Y-65774761D01*
X120315476Y-65727142D01*
X120363095Y-65631904D01*
X120363095Y-65536666D01*
X120315476Y-65441428D01*
X120267857Y-65393809D01*
X120172619Y-65346190D01*
X119982142Y-65298571D01*
X119886904Y-65250952D01*
X119839285Y-65203333D01*
X119791666Y-65108095D01*
X119791666Y-65012857D01*
X119839285Y-64917619D01*
X119886904Y-64870000D01*
X119982142Y-64822380D01*
X120220238Y-64822380D01*
X120363095Y-64870000D01*
X120696428Y-64822380D02*
X120934523Y-65822380D01*
X121125000Y-65108095D01*
X121315476Y-65822380D01*
X121553571Y-64822380D01*
X122410714Y-64822380D02*
X121934523Y-64822380D01*
X121886904Y-65298571D01*
X121934523Y-65250952D01*
X122029761Y-65203333D01*
X122267857Y-65203333D01*
X122363095Y-65250952D01*
X122410714Y-65298571D01*
X122458333Y-65393809D01*
X122458333Y-65631904D01*
X122410714Y-65727142D01*
X122363095Y-65774761D01*
X122267857Y-65822380D01*
X122029761Y-65822380D01*
X121934523Y-65774761D01*
X121886904Y-65727142D01*
%TO.C,SW4*%
X100791666Y-65774761D02*
X100934523Y-65822380D01*
X101172619Y-65822380D01*
X101267857Y-65774761D01*
X101315476Y-65727142D01*
X101363095Y-65631904D01*
X101363095Y-65536666D01*
X101315476Y-65441428D01*
X101267857Y-65393809D01*
X101172619Y-65346190D01*
X100982142Y-65298571D01*
X100886904Y-65250952D01*
X100839285Y-65203333D01*
X100791666Y-65108095D01*
X100791666Y-65012857D01*
X100839285Y-64917619D01*
X100886904Y-64870000D01*
X100982142Y-64822380D01*
X101220238Y-64822380D01*
X101363095Y-64870000D01*
X101696428Y-64822380D02*
X101934523Y-65822380D01*
X102125000Y-65108095D01*
X102315476Y-65822380D01*
X102553571Y-64822380D01*
X103363095Y-65155714D02*
X103363095Y-65822380D01*
X103125000Y-64774761D02*
X102886904Y-65489047D01*
X103505952Y-65489047D01*
%TO.C,SW3*%
X81791666Y-65774761D02*
X81934523Y-65822380D01*
X82172619Y-65822380D01*
X82267857Y-65774761D01*
X82315476Y-65727142D01*
X82363095Y-65631904D01*
X82363095Y-65536666D01*
X82315476Y-65441428D01*
X82267857Y-65393809D01*
X82172619Y-65346190D01*
X81982142Y-65298571D01*
X81886904Y-65250952D01*
X81839285Y-65203333D01*
X81791666Y-65108095D01*
X81791666Y-65012857D01*
X81839285Y-64917619D01*
X81886904Y-64870000D01*
X81982142Y-64822380D01*
X82220238Y-64822380D01*
X82363095Y-64870000D01*
X82696428Y-64822380D02*
X82934523Y-65822380D01*
X83125000Y-65108095D01*
X83315476Y-65822380D01*
X83553571Y-64822380D01*
X83839285Y-64822380D02*
X84458333Y-64822380D01*
X84125000Y-65203333D01*
X84267857Y-65203333D01*
X84363095Y-65250952D01*
X84410714Y-65298571D01*
X84458333Y-65393809D01*
X84458333Y-65631904D01*
X84410714Y-65727142D01*
X84363095Y-65774761D01*
X84267857Y-65822380D01*
X83982142Y-65822380D01*
X83886904Y-65774761D01*
X83839285Y-65727142D01*
%TO.C,SW2*%
X62791666Y-65774761D02*
X62934523Y-65822380D01*
X63172619Y-65822380D01*
X63267857Y-65774761D01*
X63315476Y-65727142D01*
X63363095Y-65631904D01*
X63363095Y-65536666D01*
X63315476Y-65441428D01*
X63267857Y-65393809D01*
X63172619Y-65346190D01*
X62982142Y-65298571D01*
X62886904Y-65250952D01*
X62839285Y-65203333D01*
X62791666Y-65108095D01*
X62791666Y-65012857D01*
X62839285Y-64917619D01*
X62886904Y-64870000D01*
X62982142Y-64822380D01*
X63220238Y-64822380D01*
X63363095Y-64870000D01*
X63696428Y-64822380D02*
X63934523Y-65822380D01*
X64125000Y-65108095D01*
X64315476Y-65822380D01*
X64553571Y-64822380D01*
X64886904Y-64917619D02*
X64934523Y-64870000D01*
X65029761Y-64822380D01*
X65267857Y-64822380D01*
X65363095Y-64870000D01*
X65410714Y-64917619D01*
X65458333Y-65012857D01*
X65458333Y-65108095D01*
X65410714Y-65250952D01*
X64839285Y-65822380D01*
X65458333Y-65822380D01*
%TO.C,SW1*%
X43791666Y-65774761D02*
X43934523Y-65822380D01*
X44172619Y-65822380D01*
X44267857Y-65774761D01*
X44315476Y-65727142D01*
X44363095Y-65631904D01*
X44363095Y-65536666D01*
X44315476Y-65441428D01*
X44267857Y-65393809D01*
X44172619Y-65346190D01*
X43982142Y-65298571D01*
X43886904Y-65250952D01*
X43839285Y-65203333D01*
X43791666Y-65108095D01*
X43791666Y-65012857D01*
X43839285Y-64917619D01*
X43886904Y-64870000D01*
X43982142Y-64822380D01*
X44220238Y-64822380D01*
X44363095Y-64870000D01*
X44696428Y-64822380D02*
X44934523Y-65822380D01*
X45125000Y-65108095D01*
X45315476Y-65822380D01*
X45553571Y-64822380D01*
X46458333Y-65822380D02*
X45886904Y-65822380D01*
X46172619Y-65822380D02*
X46172619Y-64822380D01*
X46077380Y-64965238D01*
X45982142Y-65060476D01*
X45886904Y-65108095D01*
%TO.C,D48*%
X252910714Y-128327380D02*
X252910714Y-127327380D01*
X253148809Y-127327380D01*
X253291666Y-127375000D01*
X253386904Y-127470238D01*
X253434523Y-127565476D01*
X253482142Y-127755952D01*
X253482142Y-127898809D01*
X253434523Y-128089285D01*
X253386904Y-128184523D01*
X253291666Y-128279761D01*
X253148809Y-128327380D01*
X252910714Y-128327380D01*
X254339285Y-127660714D02*
X254339285Y-128327380D01*
X254101190Y-127279761D02*
X253863095Y-127994047D01*
X254482142Y-127994047D01*
X255005952Y-127755952D02*
X254910714Y-127708333D01*
X254863095Y-127660714D01*
X254815476Y-127565476D01*
X254815476Y-127517857D01*
X254863095Y-127422619D01*
X254910714Y-127375000D01*
X255005952Y-127327380D01*
X255196428Y-127327380D01*
X255291666Y-127375000D01*
X255339285Y-127422619D01*
X255386904Y-127517857D01*
X255386904Y-127565476D01*
X255339285Y-127660714D01*
X255291666Y-127708333D01*
X255196428Y-127755952D01*
X255005952Y-127755952D01*
X254910714Y-127803571D01*
X254863095Y-127851190D01*
X254815476Y-127946428D01*
X254815476Y-128136904D01*
X254863095Y-128232142D01*
X254910714Y-128279761D01*
X255005952Y-128327380D01*
X255196428Y-128327380D01*
X255291666Y-128279761D01*
X255339285Y-128232142D01*
X255386904Y-128136904D01*
X255386904Y-127946428D01*
X255339285Y-127851190D01*
X255291666Y-127803571D01*
X255196428Y-127755952D01*
%TO.C,D47*%
X233910714Y-128327380D02*
X233910714Y-127327380D01*
X234148809Y-127327380D01*
X234291666Y-127375000D01*
X234386904Y-127470238D01*
X234434523Y-127565476D01*
X234482142Y-127755952D01*
X234482142Y-127898809D01*
X234434523Y-128089285D01*
X234386904Y-128184523D01*
X234291666Y-128279761D01*
X234148809Y-128327380D01*
X233910714Y-128327380D01*
X235339285Y-127660714D02*
X235339285Y-128327380D01*
X235101190Y-127279761D02*
X234863095Y-127994047D01*
X235482142Y-127994047D01*
X235767857Y-127327380D02*
X236434523Y-127327380D01*
X236005952Y-128327380D01*
%TO.C,D46*%
X214910714Y-128327380D02*
X214910714Y-127327380D01*
X215148809Y-127327380D01*
X215291666Y-127375000D01*
X215386904Y-127470238D01*
X215434523Y-127565476D01*
X215482142Y-127755952D01*
X215482142Y-127898809D01*
X215434523Y-128089285D01*
X215386904Y-128184523D01*
X215291666Y-128279761D01*
X215148809Y-128327380D01*
X214910714Y-128327380D01*
X216339285Y-127660714D02*
X216339285Y-128327380D01*
X216101190Y-127279761D02*
X215863095Y-127994047D01*
X216482142Y-127994047D01*
X217291666Y-127327380D02*
X217101190Y-127327380D01*
X217005952Y-127375000D01*
X216958333Y-127422619D01*
X216863095Y-127565476D01*
X216815476Y-127755952D01*
X216815476Y-128136904D01*
X216863095Y-128232142D01*
X216910714Y-128279761D01*
X217005952Y-128327380D01*
X217196428Y-128327380D01*
X217291666Y-128279761D01*
X217339285Y-128232142D01*
X217386904Y-128136904D01*
X217386904Y-127898809D01*
X217339285Y-127803571D01*
X217291666Y-127755952D01*
X217196428Y-127708333D01*
X217005952Y-127708333D01*
X216910714Y-127755952D01*
X216863095Y-127803571D01*
X216815476Y-127898809D01*
%TO.C,D45*%
X195910714Y-128327380D02*
X195910714Y-127327380D01*
X196148809Y-127327380D01*
X196291666Y-127375000D01*
X196386904Y-127470238D01*
X196434523Y-127565476D01*
X196482142Y-127755952D01*
X196482142Y-127898809D01*
X196434523Y-128089285D01*
X196386904Y-128184523D01*
X196291666Y-128279761D01*
X196148809Y-128327380D01*
X195910714Y-128327380D01*
X197339285Y-127660714D02*
X197339285Y-128327380D01*
X197101190Y-127279761D02*
X196863095Y-127994047D01*
X197482142Y-127994047D01*
X198339285Y-127327380D02*
X197863095Y-127327380D01*
X197815476Y-127803571D01*
X197863095Y-127755952D01*
X197958333Y-127708333D01*
X198196428Y-127708333D01*
X198291666Y-127755952D01*
X198339285Y-127803571D01*
X198386904Y-127898809D01*
X198386904Y-128136904D01*
X198339285Y-128232142D01*
X198291666Y-128279761D01*
X198196428Y-128327380D01*
X197958333Y-128327380D01*
X197863095Y-128279761D01*
X197815476Y-128232142D01*
%TO.C,D44*%
X174535714Y-128327380D02*
X174535714Y-127327380D01*
X174773809Y-127327380D01*
X174916666Y-127375000D01*
X175011904Y-127470238D01*
X175059523Y-127565476D01*
X175107142Y-127755952D01*
X175107142Y-127898809D01*
X175059523Y-128089285D01*
X175011904Y-128184523D01*
X174916666Y-128279761D01*
X174773809Y-128327380D01*
X174535714Y-128327380D01*
X175964285Y-127660714D02*
X175964285Y-128327380D01*
X175726190Y-127279761D02*
X175488095Y-127994047D01*
X176107142Y-127994047D01*
X176916666Y-127660714D02*
X176916666Y-128327380D01*
X176678571Y-127279761D02*
X176440476Y-127994047D01*
X177059523Y-127994047D01*
%TO.C,D43*%
X148410714Y-128327380D02*
X148410714Y-127327380D01*
X148648809Y-127327380D01*
X148791666Y-127375000D01*
X148886904Y-127470238D01*
X148934523Y-127565476D01*
X148982142Y-127755952D01*
X148982142Y-127898809D01*
X148934523Y-128089285D01*
X148886904Y-128184523D01*
X148791666Y-128279761D01*
X148648809Y-128327380D01*
X148410714Y-128327380D01*
X149839285Y-127660714D02*
X149839285Y-128327380D01*
X149601190Y-127279761D02*
X149363095Y-127994047D01*
X149982142Y-127994047D01*
X150267857Y-127327380D02*
X150886904Y-127327380D01*
X150553571Y-127708333D01*
X150696428Y-127708333D01*
X150791666Y-127755952D01*
X150839285Y-127803571D01*
X150886904Y-127898809D01*
X150886904Y-128136904D01*
X150839285Y-128232142D01*
X150791666Y-128279761D01*
X150696428Y-128327380D01*
X150410714Y-128327380D01*
X150315476Y-128279761D01*
X150267857Y-128232142D01*
%TO.C,D42*%
X148410714Y-109327380D02*
X148410714Y-108327380D01*
X148648809Y-108327380D01*
X148791666Y-108375000D01*
X148886904Y-108470238D01*
X148934523Y-108565476D01*
X148982142Y-108755952D01*
X148982142Y-108898809D01*
X148934523Y-109089285D01*
X148886904Y-109184523D01*
X148791666Y-109279761D01*
X148648809Y-109327380D01*
X148410714Y-109327380D01*
X149839285Y-108660714D02*
X149839285Y-109327380D01*
X149601190Y-108279761D02*
X149363095Y-108994047D01*
X149982142Y-108994047D01*
X150315476Y-108422619D02*
X150363095Y-108375000D01*
X150458333Y-108327380D01*
X150696428Y-108327380D01*
X150791666Y-108375000D01*
X150839285Y-108422619D01*
X150886904Y-108517857D01*
X150886904Y-108613095D01*
X150839285Y-108755952D01*
X150267857Y-109327380D01*
X150886904Y-109327380D01*
%TO.C,D41*%
X122285714Y-128327380D02*
X122285714Y-127327380D01*
X122523809Y-127327380D01*
X122666666Y-127375000D01*
X122761904Y-127470238D01*
X122809523Y-127565476D01*
X122857142Y-127755952D01*
X122857142Y-127898809D01*
X122809523Y-128089285D01*
X122761904Y-128184523D01*
X122666666Y-128279761D01*
X122523809Y-128327380D01*
X122285714Y-128327380D01*
X123714285Y-127660714D02*
X123714285Y-128327380D01*
X123476190Y-127279761D02*
X123238095Y-127994047D01*
X123857142Y-127994047D01*
X124761904Y-128327380D02*
X124190476Y-128327380D01*
X124476190Y-128327380D02*
X124476190Y-127327380D01*
X124380952Y-127470238D01*
X124285714Y-127565476D01*
X124190476Y-127613095D01*
%TO.C,D40*%
X100910714Y-128327380D02*
X100910714Y-127327380D01*
X101148809Y-127327380D01*
X101291666Y-127375000D01*
X101386904Y-127470238D01*
X101434523Y-127565476D01*
X101482142Y-127755952D01*
X101482142Y-127898809D01*
X101434523Y-128089285D01*
X101386904Y-128184523D01*
X101291666Y-128279761D01*
X101148809Y-128327380D01*
X100910714Y-128327380D01*
X102339285Y-127660714D02*
X102339285Y-128327380D01*
X102101190Y-127279761D02*
X101863095Y-127994047D01*
X102482142Y-127994047D01*
X103053571Y-127327380D02*
X103148809Y-127327380D01*
X103244047Y-127375000D01*
X103291666Y-127422619D01*
X103339285Y-127517857D01*
X103386904Y-127708333D01*
X103386904Y-127946428D01*
X103339285Y-128136904D01*
X103291666Y-128232142D01*
X103244047Y-128279761D01*
X103148809Y-128327380D01*
X103053571Y-128327380D01*
X102958333Y-128279761D01*
X102910714Y-128232142D01*
X102863095Y-128136904D01*
X102815476Y-127946428D01*
X102815476Y-127708333D01*
X102863095Y-127517857D01*
X102910714Y-127422619D01*
X102958333Y-127375000D01*
X103053571Y-127327380D01*
%TO.C,D39*%
X81910714Y-128327380D02*
X81910714Y-127327380D01*
X82148809Y-127327380D01*
X82291666Y-127375000D01*
X82386904Y-127470238D01*
X82434523Y-127565476D01*
X82482142Y-127755952D01*
X82482142Y-127898809D01*
X82434523Y-128089285D01*
X82386904Y-128184523D01*
X82291666Y-128279761D01*
X82148809Y-128327380D01*
X81910714Y-128327380D01*
X82815476Y-127327380D02*
X83434523Y-127327380D01*
X83101190Y-127708333D01*
X83244047Y-127708333D01*
X83339285Y-127755952D01*
X83386904Y-127803571D01*
X83434523Y-127898809D01*
X83434523Y-128136904D01*
X83386904Y-128232142D01*
X83339285Y-128279761D01*
X83244047Y-128327380D01*
X82958333Y-128327380D01*
X82863095Y-128279761D01*
X82815476Y-128232142D01*
X83910714Y-128327380D02*
X84101190Y-128327380D01*
X84196428Y-128279761D01*
X84244047Y-128232142D01*
X84339285Y-128089285D01*
X84386904Y-127898809D01*
X84386904Y-127517857D01*
X84339285Y-127422619D01*
X84291666Y-127375000D01*
X84196428Y-127327380D01*
X84005952Y-127327380D01*
X83910714Y-127375000D01*
X83863095Y-127422619D01*
X83815476Y-127517857D01*
X83815476Y-127755952D01*
X83863095Y-127851190D01*
X83910714Y-127898809D01*
X84005952Y-127946428D01*
X84196428Y-127946428D01*
X84291666Y-127898809D01*
X84339285Y-127851190D01*
X84386904Y-127755952D01*
%TO.C,D38*%
X62910714Y-128327380D02*
X62910714Y-127327380D01*
X63148809Y-127327380D01*
X63291666Y-127375000D01*
X63386904Y-127470238D01*
X63434523Y-127565476D01*
X63482142Y-127755952D01*
X63482142Y-127898809D01*
X63434523Y-128089285D01*
X63386904Y-128184523D01*
X63291666Y-128279761D01*
X63148809Y-128327380D01*
X62910714Y-128327380D01*
X63815476Y-127327380D02*
X64434523Y-127327380D01*
X64101190Y-127708333D01*
X64244047Y-127708333D01*
X64339285Y-127755952D01*
X64386904Y-127803571D01*
X64434523Y-127898809D01*
X64434523Y-128136904D01*
X64386904Y-128232142D01*
X64339285Y-128279761D01*
X64244047Y-128327380D01*
X63958333Y-128327380D01*
X63863095Y-128279761D01*
X63815476Y-128232142D01*
X65005952Y-127755952D02*
X64910714Y-127708333D01*
X64863095Y-127660714D01*
X64815476Y-127565476D01*
X64815476Y-127517857D01*
X64863095Y-127422619D01*
X64910714Y-127375000D01*
X65005952Y-127327380D01*
X65196428Y-127327380D01*
X65291666Y-127375000D01*
X65339285Y-127422619D01*
X65386904Y-127517857D01*
X65386904Y-127565476D01*
X65339285Y-127660714D01*
X65291666Y-127708333D01*
X65196428Y-127755952D01*
X65005952Y-127755952D01*
X64910714Y-127803571D01*
X64863095Y-127851190D01*
X64815476Y-127946428D01*
X64815476Y-128136904D01*
X64863095Y-128232142D01*
X64910714Y-128279761D01*
X65005952Y-128327380D01*
X65196428Y-128327380D01*
X65291666Y-128279761D01*
X65339285Y-128232142D01*
X65386904Y-128136904D01*
X65386904Y-127946428D01*
X65339285Y-127851190D01*
X65291666Y-127803571D01*
X65196428Y-127755952D01*
%TO.C,D37*%
X43910714Y-128327380D02*
X43910714Y-127327380D01*
X44148809Y-127327380D01*
X44291666Y-127375000D01*
X44386904Y-127470238D01*
X44434523Y-127565476D01*
X44482142Y-127755952D01*
X44482142Y-127898809D01*
X44434523Y-128089285D01*
X44386904Y-128184523D01*
X44291666Y-128279761D01*
X44148809Y-128327380D01*
X43910714Y-128327380D01*
X44815476Y-127327380D02*
X45434523Y-127327380D01*
X45101190Y-127708333D01*
X45244047Y-127708333D01*
X45339285Y-127755952D01*
X45386904Y-127803571D01*
X45434523Y-127898809D01*
X45434523Y-128136904D01*
X45386904Y-128232142D01*
X45339285Y-128279761D01*
X45244047Y-128327380D01*
X44958333Y-128327380D01*
X44863095Y-128279761D01*
X44815476Y-128232142D01*
X45767857Y-127327380D02*
X46434523Y-127327380D01*
X46005952Y-128327380D01*
%TO.C,D36*%
X262410714Y-109327380D02*
X262410714Y-108327380D01*
X262648809Y-108327380D01*
X262791666Y-108375000D01*
X262886904Y-108470238D01*
X262934523Y-108565476D01*
X262982142Y-108755952D01*
X262982142Y-108898809D01*
X262934523Y-109089285D01*
X262886904Y-109184523D01*
X262791666Y-109279761D01*
X262648809Y-109327380D01*
X262410714Y-109327380D01*
X263315476Y-108327380D02*
X263934523Y-108327380D01*
X263601190Y-108708333D01*
X263744047Y-108708333D01*
X263839285Y-108755952D01*
X263886904Y-108803571D01*
X263934523Y-108898809D01*
X263934523Y-109136904D01*
X263886904Y-109232142D01*
X263839285Y-109279761D01*
X263744047Y-109327380D01*
X263458333Y-109327380D01*
X263363095Y-109279761D01*
X263315476Y-109232142D01*
X264791666Y-108327380D02*
X264601190Y-108327380D01*
X264505952Y-108375000D01*
X264458333Y-108422619D01*
X264363095Y-108565476D01*
X264315476Y-108755952D01*
X264315476Y-109136904D01*
X264363095Y-109232142D01*
X264410714Y-109279761D01*
X264505952Y-109327380D01*
X264696428Y-109327380D01*
X264791666Y-109279761D01*
X264839285Y-109232142D01*
X264886904Y-109136904D01*
X264886904Y-108898809D01*
X264839285Y-108803571D01*
X264791666Y-108755952D01*
X264696428Y-108708333D01*
X264505952Y-108708333D01*
X264410714Y-108755952D01*
X264363095Y-108803571D01*
X264315476Y-108898809D01*
%TO.C,D35*%
X243410714Y-109327380D02*
X243410714Y-108327380D01*
X243648809Y-108327380D01*
X243791666Y-108375000D01*
X243886904Y-108470238D01*
X243934523Y-108565476D01*
X243982142Y-108755952D01*
X243982142Y-108898809D01*
X243934523Y-109089285D01*
X243886904Y-109184523D01*
X243791666Y-109279761D01*
X243648809Y-109327380D01*
X243410714Y-109327380D01*
X244315476Y-108327380D02*
X244934523Y-108327380D01*
X244601190Y-108708333D01*
X244744047Y-108708333D01*
X244839285Y-108755952D01*
X244886904Y-108803571D01*
X244934523Y-108898809D01*
X244934523Y-109136904D01*
X244886904Y-109232142D01*
X244839285Y-109279761D01*
X244744047Y-109327380D01*
X244458333Y-109327380D01*
X244363095Y-109279761D01*
X244315476Y-109232142D01*
X245839285Y-108327380D02*
X245363095Y-108327380D01*
X245315476Y-108803571D01*
X245363095Y-108755952D01*
X245458333Y-108708333D01*
X245696428Y-108708333D01*
X245791666Y-108755952D01*
X245839285Y-108803571D01*
X245886904Y-108898809D01*
X245886904Y-109136904D01*
X245839285Y-109232142D01*
X245791666Y-109279761D01*
X245696428Y-109327380D01*
X245458333Y-109327380D01*
X245363095Y-109279761D01*
X245315476Y-109232142D01*
%TO.C,D34*%
X224410714Y-109327380D02*
X224410714Y-108327380D01*
X224648809Y-108327380D01*
X224791666Y-108375000D01*
X224886904Y-108470238D01*
X224934523Y-108565476D01*
X224982142Y-108755952D01*
X224982142Y-108898809D01*
X224934523Y-109089285D01*
X224886904Y-109184523D01*
X224791666Y-109279761D01*
X224648809Y-109327380D01*
X224410714Y-109327380D01*
X225315476Y-108327380D02*
X225934523Y-108327380D01*
X225601190Y-108708333D01*
X225744047Y-108708333D01*
X225839285Y-108755952D01*
X225886904Y-108803571D01*
X225934523Y-108898809D01*
X225934523Y-109136904D01*
X225886904Y-109232142D01*
X225839285Y-109279761D01*
X225744047Y-109327380D01*
X225458333Y-109327380D01*
X225363095Y-109279761D01*
X225315476Y-109232142D01*
X226791666Y-108660714D02*
X226791666Y-109327380D01*
X226553571Y-108279761D02*
X226315476Y-108994047D01*
X226934523Y-108994047D01*
%TO.C,D33*%
X205410714Y-109327380D02*
X205410714Y-108327380D01*
X205648809Y-108327380D01*
X205791666Y-108375000D01*
X205886904Y-108470238D01*
X205934523Y-108565476D01*
X205982142Y-108755952D01*
X205982142Y-108898809D01*
X205934523Y-109089285D01*
X205886904Y-109184523D01*
X205791666Y-109279761D01*
X205648809Y-109327380D01*
X205410714Y-109327380D01*
X206315476Y-108327380D02*
X206934523Y-108327380D01*
X206601190Y-108708333D01*
X206744047Y-108708333D01*
X206839285Y-108755952D01*
X206886904Y-108803571D01*
X206934523Y-108898809D01*
X206934523Y-109136904D01*
X206886904Y-109232142D01*
X206839285Y-109279761D01*
X206744047Y-109327380D01*
X206458333Y-109327380D01*
X206363095Y-109279761D01*
X206315476Y-109232142D01*
X207267857Y-108327380D02*
X207886904Y-108327380D01*
X207553571Y-108708333D01*
X207696428Y-108708333D01*
X207791666Y-108755952D01*
X207839285Y-108803571D01*
X207886904Y-108898809D01*
X207886904Y-109136904D01*
X207839285Y-109232142D01*
X207791666Y-109279761D01*
X207696428Y-109327380D01*
X207410714Y-109327380D01*
X207315476Y-109279761D01*
X207267857Y-109232142D01*
%TO.C,D32*%
X186410714Y-109327380D02*
X186410714Y-108327380D01*
X186648809Y-108327380D01*
X186791666Y-108375000D01*
X186886904Y-108470238D01*
X186934523Y-108565476D01*
X186982142Y-108755952D01*
X186982142Y-108898809D01*
X186934523Y-109089285D01*
X186886904Y-109184523D01*
X186791666Y-109279761D01*
X186648809Y-109327380D01*
X186410714Y-109327380D01*
X187315476Y-108327380D02*
X187934523Y-108327380D01*
X187601190Y-108708333D01*
X187744047Y-108708333D01*
X187839285Y-108755952D01*
X187886904Y-108803571D01*
X187934523Y-108898809D01*
X187934523Y-109136904D01*
X187886904Y-109232142D01*
X187839285Y-109279761D01*
X187744047Y-109327380D01*
X187458333Y-109327380D01*
X187363095Y-109279761D01*
X187315476Y-109232142D01*
X188315476Y-108422619D02*
X188363095Y-108375000D01*
X188458333Y-108327380D01*
X188696428Y-108327380D01*
X188791666Y-108375000D01*
X188839285Y-108422619D01*
X188886904Y-108517857D01*
X188886904Y-108613095D01*
X188839285Y-108755952D01*
X188267857Y-109327380D01*
X188886904Y-109327380D01*
%TO.C,D31*%
X167410714Y-109327380D02*
X167410714Y-108327380D01*
X167648809Y-108327380D01*
X167791666Y-108375000D01*
X167886904Y-108470238D01*
X167934523Y-108565476D01*
X167982142Y-108755952D01*
X167982142Y-108898809D01*
X167934523Y-109089285D01*
X167886904Y-109184523D01*
X167791666Y-109279761D01*
X167648809Y-109327380D01*
X167410714Y-109327380D01*
X168315476Y-108327380D02*
X168934523Y-108327380D01*
X168601190Y-108708333D01*
X168744047Y-108708333D01*
X168839285Y-108755952D01*
X168886904Y-108803571D01*
X168934523Y-108898809D01*
X168934523Y-109136904D01*
X168886904Y-109232142D01*
X168839285Y-109279761D01*
X168744047Y-109327380D01*
X168458333Y-109327380D01*
X168363095Y-109279761D01*
X168315476Y-109232142D01*
X169886904Y-109327380D02*
X169315476Y-109327380D01*
X169601190Y-109327380D02*
X169601190Y-108327380D01*
X169505952Y-108470238D01*
X169410714Y-108565476D01*
X169315476Y-108613095D01*
%TO.C,D30*%
X129410714Y-109327380D02*
X129410714Y-108327380D01*
X129648809Y-108327380D01*
X129791666Y-108375000D01*
X129886904Y-108470238D01*
X129934523Y-108565476D01*
X129982142Y-108755952D01*
X129982142Y-108898809D01*
X129934523Y-109089285D01*
X129886904Y-109184523D01*
X129791666Y-109279761D01*
X129648809Y-109327380D01*
X129410714Y-109327380D01*
X130315476Y-108327380D02*
X130934523Y-108327380D01*
X130601190Y-108708333D01*
X130744047Y-108708333D01*
X130839285Y-108755952D01*
X130886904Y-108803571D01*
X130934523Y-108898809D01*
X130934523Y-109136904D01*
X130886904Y-109232142D01*
X130839285Y-109279761D01*
X130744047Y-109327380D01*
X130458333Y-109327380D01*
X130363095Y-109279761D01*
X130315476Y-109232142D01*
X131553571Y-108327380D02*
X131648809Y-108327380D01*
X131744047Y-108375000D01*
X131791666Y-108422619D01*
X131839285Y-108517857D01*
X131886904Y-108708333D01*
X131886904Y-108946428D01*
X131839285Y-109136904D01*
X131791666Y-109232142D01*
X131744047Y-109279761D01*
X131648809Y-109327380D01*
X131553571Y-109327380D01*
X131458333Y-109279761D01*
X131410714Y-109232142D01*
X131363095Y-109136904D01*
X131315476Y-108946428D01*
X131315476Y-108708333D01*
X131363095Y-108517857D01*
X131410714Y-108422619D01*
X131458333Y-108375000D01*
X131553571Y-108327380D01*
%TO.C,D29*%
X110410714Y-109327380D02*
X110410714Y-108327380D01*
X110648809Y-108327380D01*
X110791666Y-108375000D01*
X110886904Y-108470238D01*
X110934523Y-108565476D01*
X110982142Y-108755952D01*
X110982142Y-108898809D01*
X110934523Y-109089285D01*
X110886904Y-109184523D01*
X110791666Y-109279761D01*
X110648809Y-109327380D01*
X110410714Y-109327380D01*
X111363095Y-108422619D02*
X111410714Y-108375000D01*
X111505952Y-108327380D01*
X111744047Y-108327380D01*
X111839285Y-108375000D01*
X111886904Y-108422619D01*
X111934523Y-108517857D01*
X111934523Y-108613095D01*
X111886904Y-108755952D01*
X111315476Y-109327380D01*
X111934523Y-109327380D01*
X112410714Y-109327380D02*
X112601190Y-109327380D01*
X112696428Y-109279761D01*
X112744047Y-109232142D01*
X112839285Y-109089285D01*
X112886904Y-108898809D01*
X112886904Y-108517857D01*
X112839285Y-108422619D01*
X112791666Y-108375000D01*
X112696428Y-108327380D01*
X112505952Y-108327380D01*
X112410714Y-108375000D01*
X112363095Y-108422619D01*
X112315476Y-108517857D01*
X112315476Y-108755952D01*
X112363095Y-108851190D01*
X112410714Y-108898809D01*
X112505952Y-108946428D01*
X112696428Y-108946428D01*
X112791666Y-108898809D01*
X112839285Y-108851190D01*
X112886904Y-108755952D01*
%TO.C,D28*%
X91410714Y-109327380D02*
X91410714Y-108327380D01*
X91648809Y-108327380D01*
X91791666Y-108375000D01*
X91886904Y-108470238D01*
X91934523Y-108565476D01*
X91982142Y-108755952D01*
X91982142Y-108898809D01*
X91934523Y-109089285D01*
X91886904Y-109184523D01*
X91791666Y-109279761D01*
X91648809Y-109327380D01*
X91410714Y-109327380D01*
X92363095Y-108422619D02*
X92410714Y-108375000D01*
X92505952Y-108327380D01*
X92744047Y-108327380D01*
X92839285Y-108375000D01*
X92886904Y-108422619D01*
X92934523Y-108517857D01*
X92934523Y-108613095D01*
X92886904Y-108755952D01*
X92315476Y-109327380D01*
X92934523Y-109327380D01*
X93505952Y-108755952D02*
X93410714Y-108708333D01*
X93363095Y-108660714D01*
X93315476Y-108565476D01*
X93315476Y-108517857D01*
X93363095Y-108422619D01*
X93410714Y-108375000D01*
X93505952Y-108327380D01*
X93696428Y-108327380D01*
X93791666Y-108375000D01*
X93839285Y-108422619D01*
X93886904Y-108517857D01*
X93886904Y-108565476D01*
X93839285Y-108660714D01*
X93791666Y-108708333D01*
X93696428Y-108755952D01*
X93505952Y-108755952D01*
X93410714Y-108803571D01*
X93363095Y-108851190D01*
X93315476Y-108946428D01*
X93315476Y-109136904D01*
X93363095Y-109232142D01*
X93410714Y-109279761D01*
X93505952Y-109327380D01*
X93696428Y-109327380D01*
X93791666Y-109279761D01*
X93839285Y-109232142D01*
X93886904Y-109136904D01*
X93886904Y-108946428D01*
X93839285Y-108851190D01*
X93791666Y-108803571D01*
X93696428Y-108755952D01*
%TO.C,D27*%
X72410714Y-109327380D02*
X72410714Y-108327380D01*
X72648809Y-108327380D01*
X72791666Y-108375000D01*
X72886904Y-108470238D01*
X72934523Y-108565476D01*
X72982142Y-108755952D01*
X72982142Y-108898809D01*
X72934523Y-109089285D01*
X72886904Y-109184523D01*
X72791666Y-109279761D01*
X72648809Y-109327380D01*
X72410714Y-109327380D01*
X73363095Y-108422619D02*
X73410714Y-108375000D01*
X73505952Y-108327380D01*
X73744047Y-108327380D01*
X73839285Y-108375000D01*
X73886904Y-108422619D01*
X73934523Y-108517857D01*
X73934523Y-108613095D01*
X73886904Y-108755952D01*
X73315476Y-109327380D01*
X73934523Y-109327380D01*
X74267857Y-108327380D02*
X74934523Y-108327380D01*
X74505952Y-109327380D01*
%TO.C,D26*%
X53410714Y-109327380D02*
X53410714Y-108327380D01*
X53648809Y-108327380D01*
X53791666Y-108375000D01*
X53886904Y-108470238D01*
X53934523Y-108565476D01*
X53982142Y-108755952D01*
X53982142Y-108898809D01*
X53934523Y-109089285D01*
X53886904Y-109184523D01*
X53791666Y-109279761D01*
X53648809Y-109327380D01*
X53410714Y-109327380D01*
X54363095Y-108422619D02*
X54410714Y-108375000D01*
X54505952Y-108327380D01*
X54744047Y-108327380D01*
X54839285Y-108375000D01*
X54886904Y-108422619D01*
X54934523Y-108517857D01*
X54934523Y-108613095D01*
X54886904Y-108755952D01*
X54315476Y-109327380D01*
X54934523Y-109327380D01*
X55791666Y-108327380D02*
X55601190Y-108327380D01*
X55505952Y-108375000D01*
X55458333Y-108422619D01*
X55363095Y-108565476D01*
X55315476Y-108755952D01*
X55315476Y-109136904D01*
X55363095Y-109232142D01*
X55410714Y-109279761D01*
X55505952Y-109327380D01*
X55696428Y-109327380D01*
X55791666Y-109279761D01*
X55839285Y-109232142D01*
X55886904Y-109136904D01*
X55886904Y-108898809D01*
X55839285Y-108803571D01*
X55791666Y-108755952D01*
X55696428Y-108708333D01*
X55505952Y-108708333D01*
X55410714Y-108755952D01*
X55363095Y-108803571D01*
X55315476Y-108898809D01*
%TO.C,D25*%
X34410714Y-109327380D02*
X34410714Y-108327380D01*
X34648809Y-108327380D01*
X34791666Y-108375000D01*
X34886904Y-108470238D01*
X34934523Y-108565476D01*
X34982142Y-108755952D01*
X34982142Y-108898809D01*
X34934523Y-109089285D01*
X34886904Y-109184523D01*
X34791666Y-109279761D01*
X34648809Y-109327380D01*
X34410714Y-109327380D01*
X35363095Y-108422619D02*
X35410714Y-108375000D01*
X35505952Y-108327380D01*
X35744047Y-108327380D01*
X35839285Y-108375000D01*
X35886904Y-108422619D01*
X35934523Y-108517857D01*
X35934523Y-108613095D01*
X35886904Y-108755952D01*
X35315476Y-109327380D01*
X35934523Y-109327380D01*
X36839285Y-108327380D02*
X36363095Y-108327380D01*
X36315476Y-108803571D01*
X36363095Y-108755952D01*
X36458333Y-108708333D01*
X36696428Y-108708333D01*
X36791666Y-108755952D01*
X36839285Y-108803571D01*
X36886904Y-108898809D01*
X36886904Y-109136904D01*
X36839285Y-109232142D01*
X36791666Y-109279761D01*
X36696428Y-109327380D01*
X36458333Y-109327380D01*
X36363095Y-109279761D01*
X36315476Y-109232142D01*
%TO.C,D24*%
X257660714Y-90327380D02*
X257660714Y-89327380D01*
X257898809Y-89327380D01*
X258041666Y-89375000D01*
X258136904Y-89470238D01*
X258184523Y-89565476D01*
X258232142Y-89755952D01*
X258232142Y-89898809D01*
X258184523Y-90089285D01*
X258136904Y-90184523D01*
X258041666Y-90279761D01*
X257898809Y-90327380D01*
X257660714Y-90327380D01*
X258613095Y-89422619D02*
X258660714Y-89375000D01*
X258755952Y-89327380D01*
X258994047Y-89327380D01*
X259089285Y-89375000D01*
X259136904Y-89422619D01*
X259184523Y-89517857D01*
X259184523Y-89613095D01*
X259136904Y-89755952D01*
X258565476Y-90327380D01*
X259184523Y-90327380D01*
X260041666Y-89660714D02*
X260041666Y-90327380D01*
X259803571Y-89279761D02*
X259565476Y-89994047D01*
X260184523Y-89994047D01*
%TO.C,D23*%
X238660714Y-90327380D02*
X238660714Y-89327380D01*
X238898809Y-89327380D01*
X239041666Y-89375000D01*
X239136904Y-89470238D01*
X239184523Y-89565476D01*
X239232142Y-89755952D01*
X239232142Y-89898809D01*
X239184523Y-90089285D01*
X239136904Y-90184523D01*
X239041666Y-90279761D01*
X238898809Y-90327380D01*
X238660714Y-90327380D01*
X239613095Y-89422619D02*
X239660714Y-89375000D01*
X239755952Y-89327380D01*
X239994047Y-89327380D01*
X240089285Y-89375000D01*
X240136904Y-89422619D01*
X240184523Y-89517857D01*
X240184523Y-89613095D01*
X240136904Y-89755952D01*
X239565476Y-90327380D01*
X240184523Y-90327380D01*
X240517857Y-89327380D02*
X241136904Y-89327380D01*
X240803571Y-89708333D01*
X240946428Y-89708333D01*
X241041666Y-89755952D01*
X241089285Y-89803571D01*
X241136904Y-89898809D01*
X241136904Y-90136904D01*
X241089285Y-90232142D01*
X241041666Y-90279761D01*
X240946428Y-90327380D01*
X240660714Y-90327380D01*
X240565476Y-90279761D01*
X240517857Y-90232142D01*
%TO.C,D22*%
X219660714Y-90327380D02*
X219660714Y-89327380D01*
X219898809Y-89327380D01*
X220041666Y-89375000D01*
X220136904Y-89470238D01*
X220184523Y-89565476D01*
X220232142Y-89755952D01*
X220232142Y-89898809D01*
X220184523Y-90089285D01*
X220136904Y-90184523D01*
X220041666Y-90279761D01*
X219898809Y-90327380D01*
X219660714Y-90327380D01*
X220613095Y-89422619D02*
X220660714Y-89375000D01*
X220755952Y-89327380D01*
X220994047Y-89327380D01*
X221089285Y-89375000D01*
X221136904Y-89422619D01*
X221184523Y-89517857D01*
X221184523Y-89613095D01*
X221136904Y-89755952D01*
X220565476Y-90327380D01*
X221184523Y-90327380D01*
X221565476Y-89422619D02*
X221613095Y-89375000D01*
X221708333Y-89327380D01*
X221946428Y-89327380D01*
X222041666Y-89375000D01*
X222089285Y-89422619D01*
X222136904Y-89517857D01*
X222136904Y-89613095D01*
X222089285Y-89755952D01*
X221517857Y-90327380D01*
X222136904Y-90327380D01*
%TO.C,D21*%
X200660714Y-90327380D02*
X200660714Y-89327380D01*
X200898809Y-89327380D01*
X201041666Y-89375000D01*
X201136904Y-89470238D01*
X201184523Y-89565476D01*
X201232142Y-89755952D01*
X201232142Y-89898809D01*
X201184523Y-90089285D01*
X201136904Y-90184523D01*
X201041666Y-90279761D01*
X200898809Y-90327380D01*
X200660714Y-90327380D01*
X201613095Y-89422619D02*
X201660714Y-89375000D01*
X201755952Y-89327380D01*
X201994047Y-89327380D01*
X202089285Y-89375000D01*
X202136904Y-89422619D01*
X202184523Y-89517857D01*
X202184523Y-89613095D01*
X202136904Y-89755952D01*
X201565476Y-90327380D01*
X202184523Y-90327380D01*
X203136904Y-90327380D02*
X202565476Y-90327380D01*
X202851190Y-90327380D02*
X202851190Y-89327380D01*
X202755952Y-89470238D01*
X202660714Y-89565476D01*
X202565476Y-89613095D01*
%TO.C,D20*%
X181660714Y-90327380D02*
X181660714Y-89327380D01*
X181898809Y-89327380D01*
X182041666Y-89375000D01*
X182136904Y-89470238D01*
X182184523Y-89565476D01*
X182232142Y-89755952D01*
X182232142Y-89898809D01*
X182184523Y-90089285D01*
X182136904Y-90184523D01*
X182041666Y-90279761D01*
X181898809Y-90327380D01*
X181660714Y-90327380D01*
X182613095Y-89422619D02*
X182660714Y-89375000D01*
X182755952Y-89327380D01*
X182994047Y-89327380D01*
X183089285Y-89375000D01*
X183136904Y-89422619D01*
X183184523Y-89517857D01*
X183184523Y-89613095D01*
X183136904Y-89755952D01*
X182565476Y-90327380D01*
X183184523Y-90327380D01*
X183803571Y-89327380D02*
X183898809Y-89327380D01*
X183994047Y-89375000D01*
X184041666Y-89422619D01*
X184089285Y-89517857D01*
X184136904Y-89708333D01*
X184136904Y-89946428D01*
X184089285Y-90136904D01*
X184041666Y-90232142D01*
X183994047Y-90279761D01*
X183898809Y-90327380D01*
X183803571Y-90327380D01*
X183708333Y-90279761D01*
X183660714Y-90232142D01*
X183613095Y-90136904D01*
X183565476Y-89946428D01*
X183565476Y-89708333D01*
X183613095Y-89517857D01*
X183660714Y-89422619D01*
X183708333Y-89375000D01*
X183803571Y-89327380D01*
%TO.C,D19*%
X162660714Y-90327380D02*
X162660714Y-89327380D01*
X162898809Y-89327380D01*
X163041666Y-89375000D01*
X163136904Y-89470238D01*
X163184523Y-89565476D01*
X163232142Y-89755952D01*
X163232142Y-89898809D01*
X163184523Y-90089285D01*
X163136904Y-90184523D01*
X163041666Y-90279761D01*
X162898809Y-90327380D01*
X162660714Y-90327380D01*
X164184523Y-90327380D02*
X163613095Y-90327380D01*
X163898809Y-90327380D02*
X163898809Y-89327380D01*
X163803571Y-89470238D01*
X163708333Y-89565476D01*
X163613095Y-89613095D01*
X164660714Y-90327380D02*
X164851190Y-90327380D01*
X164946428Y-90279761D01*
X164994047Y-90232142D01*
X165089285Y-90089285D01*
X165136904Y-89898809D01*
X165136904Y-89517857D01*
X165089285Y-89422619D01*
X165041666Y-89375000D01*
X164946428Y-89327380D01*
X164755952Y-89327380D01*
X164660714Y-89375000D01*
X164613095Y-89422619D01*
X164565476Y-89517857D01*
X164565476Y-89755952D01*
X164613095Y-89851190D01*
X164660714Y-89898809D01*
X164755952Y-89946428D01*
X164946428Y-89946428D01*
X165041666Y-89898809D01*
X165089285Y-89851190D01*
X165136904Y-89755952D01*
%TO.C,D18*%
X134160714Y-90327380D02*
X134160714Y-89327380D01*
X134398809Y-89327380D01*
X134541666Y-89375000D01*
X134636904Y-89470238D01*
X134684523Y-89565476D01*
X134732142Y-89755952D01*
X134732142Y-89898809D01*
X134684523Y-90089285D01*
X134636904Y-90184523D01*
X134541666Y-90279761D01*
X134398809Y-90327380D01*
X134160714Y-90327380D01*
X135684523Y-90327380D02*
X135113095Y-90327380D01*
X135398809Y-90327380D02*
X135398809Y-89327380D01*
X135303571Y-89470238D01*
X135208333Y-89565476D01*
X135113095Y-89613095D01*
X136255952Y-89755952D02*
X136160714Y-89708333D01*
X136113095Y-89660714D01*
X136065476Y-89565476D01*
X136065476Y-89517857D01*
X136113095Y-89422619D01*
X136160714Y-89375000D01*
X136255952Y-89327380D01*
X136446428Y-89327380D01*
X136541666Y-89375000D01*
X136589285Y-89422619D01*
X136636904Y-89517857D01*
X136636904Y-89565476D01*
X136589285Y-89660714D01*
X136541666Y-89708333D01*
X136446428Y-89755952D01*
X136255952Y-89755952D01*
X136160714Y-89803571D01*
X136113095Y-89851190D01*
X136065476Y-89946428D01*
X136065476Y-90136904D01*
X136113095Y-90232142D01*
X136160714Y-90279761D01*
X136255952Y-90327380D01*
X136446428Y-90327380D01*
X136541666Y-90279761D01*
X136589285Y-90232142D01*
X136636904Y-90136904D01*
X136636904Y-89946428D01*
X136589285Y-89851190D01*
X136541666Y-89803571D01*
X136446428Y-89755952D01*
%TO.C,D17*%
X115160714Y-90327380D02*
X115160714Y-89327380D01*
X115398809Y-89327380D01*
X115541666Y-89375000D01*
X115636904Y-89470238D01*
X115684523Y-89565476D01*
X115732142Y-89755952D01*
X115732142Y-89898809D01*
X115684523Y-90089285D01*
X115636904Y-90184523D01*
X115541666Y-90279761D01*
X115398809Y-90327380D01*
X115160714Y-90327380D01*
X116684523Y-90327380D02*
X116113095Y-90327380D01*
X116398809Y-90327380D02*
X116398809Y-89327380D01*
X116303571Y-89470238D01*
X116208333Y-89565476D01*
X116113095Y-89613095D01*
X117017857Y-89327380D02*
X117684523Y-89327380D01*
X117255952Y-90327380D01*
%TO.C,D16*%
X96160714Y-90327380D02*
X96160714Y-89327380D01*
X96398809Y-89327380D01*
X96541666Y-89375000D01*
X96636904Y-89470238D01*
X96684523Y-89565476D01*
X96732142Y-89755952D01*
X96732142Y-89898809D01*
X96684523Y-90089285D01*
X96636904Y-90184523D01*
X96541666Y-90279761D01*
X96398809Y-90327380D01*
X96160714Y-90327380D01*
X97684523Y-90327380D02*
X97113095Y-90327380D01*
X97398809Y-90327380D02*
X97398809Y-89327380D01*
X97303571Y-89470238D01*
X97208333Y-89565476D01*
X97113095Y-89613095D01*
X98541666Y-89327380D02*
X98351190Y-89327380D01*
X98255952Y-89375000D01*
X98208333Y-89422619D01*
X98113095Y-89565476D01*
X98065476Y-89755952D01*
X98065476Y-90136904D01*
X98113095Y-90232142D01*
X98160714Y-90279761D01*
X98255952Y-90327380D01*
X98446428Y-90327380D01*
X98541666Y-90279761D01*
X98589285Y-90232142D01*
X98636904Y-90136904D01*
X98636904Y-89898809D01*
X98589285Y-89803571D01*
X98541666Y-89755952D01*
X98446428Y-89708333D01*
X98255952Y-89708333D01*
X98160714Y-89755952D01*
X98113095Y-89803571D01*
X98065476Y-89898809D01*
%TO.C,D15*%
X77160714Y-90327380D02*
X77160714Y-89327380D01*
X77398809Y-89327380D01*
X77541666Y-89375000D01*
X77636904Y-89470238D01*
X77684523Y-89565476D01*
X77732142Y-89755952D01*
X77732142Y-89898809D01*
X77684523Y-90089285D01*
X77636904Y-90184523D01*
X77541666Y-90279761D01*
X77398809Y-90327380D01*
X77160714Y-90327380D01*
X78684523Y-90327380D02*
X78113095Y-90327380D01*
X78398809Y-90327380D02*
X78398809Y-89327380D01*
X78303571Y-89470238D01*
X78208333Y-89565476D01*
X78113095Y-89613095D01*
X79589285Y-89327380D02*
X79113095Y-89327380D01*
X79065476Y-89803571D01*
X79113095Y-89755952D01*
X79208333Y-89708333D01*
X79446428Y-89708333D01*
X79541666Y-89755952D01*
X79589285Y-89803571D01*
X79636904Y-89898809D01*
X79636904Y-90136904D01*
X79589285Y-90232142D01*
X79541666Y-90279761D01*
X79446428Y-90327380D01*
X79208333Y-90327380D01*
X79113095Y-90279761D01*
X79065476Y-90232142D01*
%TO.C,D14*%
X58160714Y-90327380D02*
X58160714Y-89327380D01*
X58398809Y-89327380D01*
X58541666Y-89375000D01*
X58636904Y-89470238D01*
X58684523Y-89565476D01*
X58732142Y-89755952D01*
X58732142Y-89898809D01*
X58684523Y-90089285D01*
X58636904Y-90184523D01*
X58541666Y-90279761D01*
X58398809Y-90327380D01*
X58160714Y-90327380D01*
X59684523Y-90327380D02*
X59113095Y-90327380D01*
X59398809Y-90327380D02*
X59398809Y-89327380D01*
X59303571Y-89470238D01*
X59208333Y-89565476D01*
X59113095Y-89613095D01*
X60541666Y-89660714D02*
X60541666Y-90327380D01*
X60303571Y-89279761D02*
X60065476Y-89994047D01*
X60684523Y-89994047D01*
%TO.C,D13*%
X39160714Y-90327380D02*
X39160714Y-89327380D01*
X39398809Y-89327380D01*
X39541666Y-89375000D01*
X39636904Y-89470238D01*
X39684523Y-89565476D01*
X39732142Y-89755952D01*
X39732142Y-89898809D01*
X39684523Y-90089285D01*
X39636904Y-90184523D01*
X39541666Y-90279761D01*
X39398809Y-90327380D01*
X39160714Y-90327380D01*
X40684523Y-90327380D02*
X40113095Y-90327380D01*
X40398809Y-90327380D02*
X40398809Y-89327380D01*
X40303571Y-89470238D01*
X40208333Y-89565476D01*
X40113095Y-89613095D01*
X41017857Y-89327380D02*
X41636904Y-89327380D01*
X41303571Y-89708333D01*
X41446428Y-89708333D01*
X41541666Y-89755952D01*
X41589285Y-89803571D01*
X41636904Y-89898809D01*
X41636904Y-90136904D01*
X41589285Y-90232142D01*
X41541666Y-90279761D01*
X41446428Y-90327380D01*
X41160714Y-90327380D01*
X41065476Y-90279761D01*
X41017857Y-90232142D01*
%TO.C,D12*%
X252910714Y-71327380D02*
X252910714Y-70327380D01*
X253148809Y-70327380D01*
X253291666Y-70375000D01*
X253386904Y-70470238D01*
X253434523Y-70565476D01*
X253482142Y-70755952D01*
X253482142Y-70898809D01*
X253434523Y-71089285D01*
X253386904Y-71184523D01*
X253291666Y-71279761D01*
X253148809Y-71327380D01*
X252910714Y-71327380D01*
X254434523Y-71327380D02*
X253863095Y-71327380D01*
X254148809Y-71327380D02*
X254148809Y-70327380D01*
X254053571Y-70470238D01*
X253958333Y-70565476D01*
X253863095Y-70613095D01*
X254815476Y-70422619D02*
X254863095Y-70375000D01*
X254958333Y-70327380D01*
X255196428Y-70327380D01*
X255291666Y-70375000D01*
X255339285Y-70422619D01*
X255386904Y-70517857D01*
X255386904Y-70613095D01*
X255339285Y-70755952D01*
X254767857Y-71327380D01*
X255386904Y-71327380D01*
%TO.C,D11*%
X233910714Y-71327380D02*
X233910714Y-70327380D01*
X234148809Y-70327380D01*
X234291666Y-70375000D01*
X234386904Y-70470238D01*
X234434523Y-70565476D01*
X234482142Y-70755952D01*
X234482142Y-70898809D01*
X234434523Y-71089285D01*
X234386904Y-71184523D01*
X234291666Y-71279761D01*
X234148809Y-71327380D01*
X233910714Y-71327380D01*
X235434523Y-71327380D02*
X234863095Y-71327380D01*
X235148809Y-71327380D02*
X235148809Y-70327380D01*
X235053571Y-70470238D01*
X234958333Y-70565476D01*
X234863095Y-70613095D01*
X236386904Y-71327380D02*
X235815476Y-71327380D01*
X236101190Y-71327380D02*
X236101190Y-70327380D01*
X236005952Y-70470238D01*
X235910714Y-70565476D01*
X235815476Y-70613095D01*
%TO.C,D10*%
X214910714Y-71327380D02*
X214910714Y-70327380D01*
X215148809Y-70327380D01*
X215291666Y-70375000D01*
X215386904Y-70470238D01*
X215434523Y-70565476D01*
X215482142Y-70755952D01*
X215482142Y-70898809D01*
X215434523Y-71089285D01*
X215386904Y-71184523D01*
X215291666Y-71279761D01*
X215148809Y-71327380D01*
X214910714Y-71327380D01*
X216434523Y-71327380D02*
X215863095Y-71327380D01*
X216148809Y-71327380D02*
X216148809Y-70327380D01*
X216053571Y-70470238D01*
X215958333Y-70565476D01*
X215863095Y-70613095D01*
X217053571Y-70327380D02*
X217148809Y-70327380D01*
X217244047Y-70375000D01*
X217291666Y-70422619D01*
X217339285Y-70517857D01*
X217386904Y-70708333D01*
X217386904Y-70946428D01*
X217339285Y-71136904D01*
X217291666Y-71232142D01*
X217244047Y-71279761D01*
X217148809Y-71327380D01*
X217053571Y-71327380D01*
X216958333Y-71279761D01*
X216910714Y-71232142D01*
X216863095Y-71136904D01*
X216815476Y-70946428D01*
X216815476Y-70708333D01*
X216863095Y-70517857D01*
X216910714Y-70422619D01*
X216958333Y-70375000D01*
X217053571Y-70327380D01*
%TO.C,D9*%
X196386904Y-71327380D02*
X196386904Y-70327380D01*
X196625000Y-70327380D01*
X196767857Y-70375000D01*
X196863095Y-70470238D01*
X196910714Y-70565476D01*
X196958333Y-70755952D01*
X196958333Y-70898809D01*
X196910714Y-71089285D01*
X196863095Y-71184523D01*
X196767857Y-71279761D01*
X196625000Y-71327380D01*
X196386904Y-71327380D01*
X197434523Y-71327380D02*
X197625000Y-71327380D01*
X197720238Y-71279761D01*
X197767857Y-71232142D01*
X197863095Y-71089285D01*
X197910714Y-70898809D01*
X197910714Y-70517857D01*
X197863095Y-70422619D01*
X197815476Y-70375000D01*
X197720238Y-70327380D01*
X197529761Y-70327380D01*
X197434523Y-70375000D01*
X197386904Y-70422619D01*
X197339285Y-70517857D01*
X197339285Y-70755952D01*
X197386904Y-70851190D01*
X197434523Y-70898809D01*
X197529761Y-70946428D01*
X197720238Y-70946428D01*
X197815476Y-70898809D01*
X197863095Y-70851190D01*
X197910714Y-70755952D01*
%TO.C,D8*%
X177386904Y-71327380D02*
X177386904Y-70327380D01*
X177625000Y-70327380D01*
X177767857Y-70375000D01*
X177863095Y-70470238D01*
X177910714Y-70565476D01*
X177958333Y-70755952D01*
X177958333Y-70898809D01*
X177910714Y-71089285D01*
X177863095Y-71184523D01*
X177767857Y-71279761D01*
X177625000Y-71327380D01*
X177386904Y-71327380D01*
X178529761Y-70755952D02*
X178434523Y-70708333D01*
X178386904Y-70660714D01*
X178339285Y-70565476D01*
X178339285Y-70517857D01*
X178386904Y-70422619D01*
X178434523Y-70375000D01*
X178529761Y-70327380D01*
X178720238Y-70327380D01*
X178815476Y-70375000D01*
X178863095Y-70422619D01*
X178910714Y-70517857D01*
X178910714Y-70565476D01*
X178863095Y-70660714D01*
X178815476Y-70708333D01*
X178720238Y-70755952D01*
X178529761Y-70755952D01*
X178434523Y-70803571D01*
X178386904Y-70851190D01*
X178339285Y-70946428D01*
X178339285Y-71136904D01*
X178386904Y-71232142D01*
X178434523Y-71279761D01*
X178529761Y-71327380D01*
X178720238Y-71327380D01*
X178815476Y-71279761D01*
X178863095Y-71232142D01*
X178910714Y-71136904D01*
X178910714Y-70946428D01*
X178863095Y-70851190D01*
X178815476Y-70803571D01*
X178720238Y-70755952D01*
%TO.C,D7*%
X158386904Y-71327380D02*
X158386904Y-70327380D01*
X158625000Y-70327380D01*
X158767857Y-70375000D01*
X158863095Y-70470238D01*
X158910714Y-70565476D01*
X158958333Y-70755952D01*
X158958333Y-70898809D01*
X158910714Y-71089285D01*
X158863095Y-71184523D01*
X158767857Y-71279761D01*
X158625000Y-71327380D01*
X158386904Y-71327380D01*
X159291666Y-70327380D02*
X159958333Y-70327380D01*
X159529761Y-71327380D01*
%TO.C,D6*%
X139386904Y-71327380D02*
X139386904Y-70327380D01*
X139625000Y-70327380D01*
X139767857Y-70375000D01*
X139863095Y-70470238D01*
X139910714Y-70565476D01*
X139958333Y-70755952D01*
X139958333Y-70898809D01*
X139910714Y-71089285D01*
X139863095Y-71184523D01*
X139767857Y-71279761D01*
X139625000Y-71327380D01*
X139386904Y-71327380D01*
X140815476Y-70327380D02*
X140625000Y-70327380D01*
X140529761Y-70375000D01*
X140482142Y-70422619D01*
X140386904Y-70565476D01*
X140339285Y-70755952D01*
X140339285Y-71136904D01*
X140386904Y-71232142D01*
X140434523Y-71279761D01*
X140529761Y-71327380D01*
X140720238Y-71327380D01*
X140815476Y-71279761D01*
X140863095Y-71232142D01*
X140910714Y-71136904D01*
X140910714Y-70898809D01*
X140863095Y-70803571D01*
X140815476Y-70755952D01*
X140720238Y-70708333D01*
X140529761Y-70708333D01*
X140434523Y-70755952D01*
X140386904Y-70803571D01*
X140339285Y-70898809D01*
%TO.C,D5*%
X120386904Y-71327380D02*
X120386904Y-70327380D01*
X120625000Y-70327380D01*
X120767857Y-70375000D01*
X120863095Y-70470238D01*
X120910714Y-70565476D01*
X120958333Y-70755952D01*
X120958333Y-70898809D01*
X120910714Y-71089285D01*
X120863095Y-71184523D01*
X120767857Y-71279761D01*
X120625000Y-71327380D01*
X120386904Y-71327380D01*
X121863095Y-70327380D02*
X121386904Y-70327380D01*
X121339285Y-70803571D01*
X121386904Y-70755952D01*
X121482142Y-70708333D01*
X121720238Y-70708333D01*
X121815476Y-70755952D01*
X121863095Y-70803571D01*
X121910714Y-70898809D01*
X121910714Y-71136904D01*
X121863095Y-71232142D01*
X121815476Y-71279761D01*
X121720238Y-71327380D01*
X121482142Y-71327380D01*
X121386904Y-71279761D01*
X121339285Y-71232142D01*
%TO.C,D4*%
X101386904Y-71327380D02*
X101386904Y-70327380D01*
X101625000Y-70327380D01*
X101767857Y-70375000D01*
X101863095Y-70470238D01*
X101910714Y-70565476D01*
X101958333Y-70755952D01*
X101958333Y-70898809D01*
X101910714Y-71089285D01*
X101863095Y-71184523D01*
X101767857Y-71279761D01*
X101625000Y-71327380D01*
X101386904Y-71327380D01*
X102815476Y-70660714D02*
X102815476Y-71327380D01*
X102577380Y-70279761D02*
X102339285Y-70994047D01*
X102958333Y-70994047D01*
%TO.C,D3*%
X82386904Y-71327380D02*
X82386904Y-70327380D01*
X82625000Y-70327380D01*
X82767857Y-70375000D01*
X82863095Y-70470238D01*
X82910714Y-70565476D01*
X82958333Y-70755952D01*
X82958333Y-70898809D01*
X82910714Y-71089285D01*
X82863095Y-71184523D01*
X82767857Y-71279761D01*
X82625000Y-71327380D01*
X82386904Y-71327380D01*
X83291666Y-70327380D02*
X83910714Y-70327380D01*
X83577380Y-70708333D01*
X83720238Y-70708333D01*
X83815476Y-70755952D01*
X83863095Y-70803571D01*
X83910714Y-70898809D01*
X83910714Y-71136904D01*
X83863095Y-71232142D01*
X83815476Y-71279761D01*
X83720238Y-71327380D01*
X83434523Y-71327380D01*
X83339285Y-71279761D01*
X83291666Y-71232142D01*
%TO.C,D2*%
X63386904Y-71327380D02*
X63386904Y-70327380D01*
X63625000Y-70327380D01*
X63767857Y-70375000D01*
X63863095Y-70470238D01*
X63910714Y-70565476D01*
X63958333Y-70755952D01*
X63958333Y-70898809D01*
X63910714Y-71089285D01*
X63863095Y-71184523D01*
X63767857Y-71279761D01*
X63625000Y-71327380D01*
X63386904Y-71327380D01*
X64339285Y-70422619D02*
X64386904Y-70375000D01*
X64482142Y-70327380D01*
X64720238Y-70327380D01*
X64815476Y-70375000D01*
X64863095Y-70422619D01*
X64910714Y-70517857D01*
X64910714Y-70613095D01*
X64863095Y-70755952D01*
X64291666Y-71327380D01*
X64910714Y-71327380D01*
%TO.C,D1*%
X44386904Y-71327380D02*
X44386904Y-70327380D01*
X44625000Y-70327380D01*
X44767857Y-70375000D01*
X44863095Y-70470238D01*
X44910714Y-70565476D01*
X44958333Y-70755952D01*
X44958333Y-70898809D01*
X44910714Y-71089285D01*
X44863095Y-71184523D01*
X44767857Y-71279761D01*
X44625000Y-71327380D01*
X44386904Y-71327380D01*
X45910714Y-71327380D02*
X45339285Y-71327380D01*
X45625000Y-71327380D02*
X45625000Y-70327380D01*
X45529761Y-70470238D01*
X45434523Y-70565476D01*
X45339285Y-70613095D01*
%TD*%
M02*
