%TF.GenerationSoftware,KiCad,Pcbnew,(5.1.6-0-10_14)*%
%TF.CreationDate,2020-06-17T17:50:44+08:00*%
%TF.ProjectId,Charming,43686172-6d69-46e6-972e-6b696361645f,v1.0*%
%TF.SameCoordinates,Original*%
%TF.FileFunction,Copper,L1,Top*%
%TF.FilePolarity,Positive*%
%FSLAX46Y46*%
G04 Gerber Fmt 4.6, Leading zero omitted, Abs format (unit mm)*
G04 Created by KiCad (PCBNEW (5.1.6-0-10_14)) date 2020-06-17 17:50:44*
%MOMM*%
%LPD*%
G01*
G04 APERTURE LIST*
%TA.AperFunction,ComponentPad*%
%ADD10C,2.032000*%
%TD*%
%TA.AperFunction,SMDPad,CuDef*%
%ADD11R,1.200000X0.900000*%
%TD*%
%TA.AperFunction,ComponentPad*%
%ADD12C,1.752600*%
%TD*%
%TA.AperFunction,ComponentPad*%
%ADD13R,1.752600X1.752600*%
%TD*%
%TA.AperFunction,Conductor*%
%ADD14C,0.250000*%
%TD*%
G04 APERTURE END LIST*
D10*
%TO.P,SW48,1*%
%TO.N,col11*%
X264460000Y-136900000D03*
%TO.P,SW48,2*%
%TO.N,Net-(D48-Pad2)*%
X259460000Y-134800000D03*
%TD*%
%TO.P,SW47,1*%
%TO.N,col10*%
X245460000Y-136900000D03*
%TO.P,SW47,2*%
%TO.N,Net-(D47-Pad2)*%
X240460000Y-134800000D03*
%TD*%
%TO.P,SW46,1*%
%TO.N,col9*%
X226460000Y-136900000D03*
%TO.P,SW46,2*%
%TO.N,Net-(D46-Pad2)*%
X221460000Y-134800000D03*
%TD*%
%TO.P,SW45,1*%
%TO.N,col8*%
X207460000Y-136900000D03*
%TO.P,SW45,2*%
%TO.N,Net-(D45-Pad2)*%
X202460000Y-134800000D03*
%TD*%
%TO.P,SW44,1*%
%TO.N,col7*%
X186085000Y-136900000D03*
%TO.P,SW44,2*%
%TO.N,Net-(D44-Pad2)*%
X181085000Y-134800000D03*
%TD*%
%TO.P,SW43,1*%
%TO.N,col6*%
X159960000Y-136900000D03*
%TO.P,SW43,2*%
%TO.N,Net-(D43-Pad2)*%
X154960000Y-134800000D03*
%TD*%
%TO.P,SW42,1*%
%TO.N,col5*%
X159960000Y-117900000D03*
%TO.P,SW42,2*%
%TO.N,Net-(D42-Pad2)*%
X154960000Y-115800000D03*
%TD*%
%TO.P,SW41,1*%
%TO.N,col4*%
X133835000Y-136900000D03*
%TO.P,SW41,2*%
%TO.N,Net-(D41-Pad2)*%
X128835000Y-134800000D03*
%TD*%
%TO.P,SW40,1*%
%TO.N,col3*%
X112460000Y-136900000D03*
%TO.P,SW40,2*%
%TO.N,Net-(D40-Pad2)*%
X107460000Y-134800000D03*
%TD*%
%TO.P,SW39,1*%
%TO.N,col2*%
X93460000Y-136900000D03*
%TO.P,SW39,2*%
%TO.N,Net-(D39-Pad2)*%
X88460000Y-134800000D03*
%TD*%
%TO.P,SW38,1*%
%TO.N,col1*%
X74460000Y-136900000D03*
%TO.P,SW38,2*%
%TO.N,Net-(D38-Pad2)*%
X69460000Y-134800000D03*
%TD*%
%TO.P,SW37,1*%
%TO.N,col0*%
X55460000Y-136900000D03*
%TO.P,SW37,2*%
%TO.N,Net-(D37-Pad2)*%
X50460000Y-134800000D03*
%TD*%
%TO.P,SW36,1*%
%TO.N,col11*%
X273960000Y-117900000D03*
%TO.P,SW36,2*%
%TO.N,Net-(D36-Pad2)*%
X268960000Y-115800000D03*
%TD*%
%TO.P,SW35,1*%
%TO.N,col10*%
X254960000Y-117900000D03*
%TO.P,SW35,2*%
%TO.N,Net-(D35-Pad2)*%
X249960000Y-115800000D03*
%TD*%
%TO.P,SW34,1*%
%TO.N,col9*%
X235960000Y-117900000D03*
%TO.P,SW34,2*%
%TO.N,Net-(D34-Pad2)*%
X230960000Y-115800000D03*
%TD*%
%TO.P,SW33,1*%
%TO.N,col8*%
X216960000Y-117900000D03*
%TO.P,SW33,2*%
%TO.N,Net-(D33-Pad2)*%
X211960000Y-115800000D03*
%TD*%
%TO.P,SW32,1*%
%TO.N,col7*%
X197960000Y-117900000D03*
%TO.P,SW32,2*%
%TO.N,Net-(D32-Pad2)*%
X192960000Y-115800000D03*
%TD*%
%TO.P,SW31,1*%
%TO.N,col6*%
X178960000Y-117900000D03*
%TO.P,SW31,2*%
%TO.N,Net-(D31-Pad2)*%
X173960000Y-115800000D03*
%TD*%
%TO.P,SW30,1*%
%TO.N,col5*%
X140960000Y-117900000D03*
%TO.P,SW30,2*%
%TO.N,Net-(D30-Pad2)*%
X135960000Y-115800000D03*
%TD*%
%TO.P,SW29,1*%
%TO.N,col4*%
X121960000Y-117900000D03*
%TO.P,SW29,2*%
%TO.N,Net-(D29-Pad2)*%
X116960000Y-115800000D03*
%TD*%
%TO.P,SW28,1*%
%TO.N,col3*%
X102960000Y-117900000D03*
%TO.P,SW28,2*%
%TO.N,Net-(D28-Pad2)*%
X97960000Y-115800000D03*
%TD*%
%TO.P,SW27,1*%
%TO.N,col2*%
X83960000Y-117900000D03*
%TO.P,SW27,2*%
%TO.N,Net-(D27-Pad2)*%
X78960000Y-115800000D03*
%TD*%
%TO.P,SW26,1*%
%TO.N,col1*%
X64960000Y-117900000D03*
%TO.P,SW26,2*%
%TO.N,Net-(D26-Pad2)*%
X59960000Y-115800000D03*
%TD*%
%TO.P,SW25,1*%
%TO.N,col0*%
X45960000Y-117900000D03*
%TO.P,SW25,2*%
%TO.N,Net-(D25-Pad2)*%
X40960000Y-115800000D03*
%TD*%
%TO.P,SW24,1*%
%TO.N,col11*%
X269210000Y-98900000D03*
%TO.P,SW24,2*%
%TO.N,Net-(D24-Pad2)*%
X264210000Y-96800000D03*
%TD*%
%TO.P,SW23,1*%
%TO.N,col10*%
X250210000Y-98900000D03*
%TO.P,SW23,2*%
%TO.N,Net-(D23-Pad2)*%
X245210000Y-96800000D03*
%TD*%
%TO.P,SW22,1*%
%TO.N,col9*%
X231210000Y-98900000D03*
%TO.P,SW22,2*%
%TO.N,Net-(D22-Pad2)*%
X226210000Y-96800000D03*
%TD*%
%TO.P,SW21,1*%
%TO.N,col8*%
X212210000Y-98900000D03*
%TO.P,SW21,2*%
%TO.N,Net-(D21-Pad2)*%
X207210000Y-96800000D03*
%TD*%
%TO.P,SW20,1*%
%TO.N,col7*%
X193210000Y-98900000D03*
%TO.P,SW20,2*%
%TO.N,Net-(D20-Pad2)*%
X188210000Y-96800000D03*
%TD*%
%TO.P,SW19,1*%
%TO.N,col6*%
X174210000Y-98900000D03*
%TO.P,SW19,2*%
%TO.N,Net-(D19-Pad2)*%
X169210000Y-96800000D03*
%TD*%
%TO.P,SW18,1*%
%TO.N,col5*%
X145710000Y-98900000D03*
%TO.P,SW18,2*%
%TO.N,Net-(D18-Pad2)*%
X140710000Y-96800000D03*
%TD*%
%TO.P,SW17,1*%
%TO.N,col4*%
X126710000Y-98900000D03*
%TO.P,SW17,2*%
%TO.N,Net-(D17-Pad2)*%
X121710000Y-96800000D03*
%TD*%
%TO.P,SW16,1*%
%TO.N,col3*%
X107710000Y-98900000D03*
%TO.P,SW16,2*%
%TO.N,Net-(D16-Pad2)*%
X102710000Y-96800000D03*
%TD*%
%TO.P,SW15,1*%
%TO.N,col2*%
X88710000Y-98900000D03*
%TO.P,SW15,2*%
%TO.N,Net-(D15-Pad2)*%
X83710000Y-96800000D03*
%TD*%
%TO.P,SW14,1*%
%TO.N,col1*%
X69710000Y-98900000D03*
%TO.P,SW14,2*%
%TO.N,Net-(D14-Pad2)*%
X64710000Y-96800000D03*
%TD*%
%TO.P,SW13,1*%
%TO.N,col0*%
X50710000Y-98900000D03*
%TO.P,SW13,2*%
%TO.N,Net-(D13-Pad2)*%
X45710000Y-96800000D03*
%TD*%
%TO.P,SW12,1*%
%TO.N,col11*%
X264460000Y-79900000D03*
%TO.P,SW12,2*%
%TO.N,Net-(D12-Pad2)*%
X259460000Y-77800000D03*
%TD*%
%TO.P,SW11,1*%
%TO.N,col10*%
X245460000Y-79900000D03*
%TO.P,SW11,2*%
%TO.N,Net-(D11-Pad2)*%
X240460000Y-77800000D03*
%TD*%
%TO.P,SW10,1*%
%TO.N,col9*%
X226460000Y-79900000D03*
%TO.P,SW10,2*%
%TO.N,Net-(D10-Pad2)*%
X221460000Y-77800000D03*
%TD*%
%TO.P,SW9,1*%
%TO.N,col8*%
X207460000Y-79900000D03*
%TO.P,SW9,2*%
%TO.N,Net-(D9-Pad2)*%
X202460000Y-77800000D03*
%TD*%
%TO.P,SW8,1*%
%TO.N,col7*%
X188460000Y-79900000D03*
%TO.P,SW8,2*%
%TO.N,Net-(D8-Pad2)*%
X183460000Y-77800000D03*
%TD*%
%TO.P,SW7,1*%
%TO.N,col6*%
X169460000Y-79900000D03*
%TO.P,SW7,2*%
%TO.N,Net-(D7-Pad2)*%
X164460000Y-77800000D03*
%TD*%
%TO.P,SW6,1*%
%TO.N,col5*%
X150460000Y-79900000D03*
%TO.P,SW6,2*%
%TO.N,Net-(D6-Pad2)*%
X145460000Y-77800000D03*
%TD*%
%TO.P,SW5,1*%
%TO.N,col4*%
X131460000Y-79900000D03*
%TO.P,SW5,2*%
%TO.N,Net-(D5-Pad2)*%
X126460000Y-77800000D03*
%TD*%
%TO.P,SW4,1*%
%TO.N,col3*%
X112460000Y-79900000D03*
%TO.P,SW4,2*%
%TO.N,Net-(D4-Pad2)*%
X107460000Y-77800000D03*
%TD*%
%TO.P,SW3,1*%
%TO.N,col2*%
X93460000Y-79900000D03*
%TO.P,SW3,2*%
%TO.N,Net-(D3-Pad2)*%
X88460000Y-77800000D03*
%TD*%
%TO.P,SW2,1*%
%TO.N,col1*%
X74460000Y-79900000D03*
%TO.P,SW2,2*%
%TO.N,Net-(D2-Pad2)*%
X69460000Y-77800000D03*
%TD*%
%TO.P,SW1,1*%
%TO.N,col0*%
X55460000Y-79900000D03*
%TO.P,SW1,2*%
%TO.N,Net-(D1-Pad2)*%
X50460000Y-77800000D03*
%TD*%
D11*
%TO.P,D48,2*%
%TO.N,Net-(D48-Pad2)*%
X254960000Y-130275000D03*
%TO.P,D48,1*%
%TO.N,row3*%
X254960000Y-126975000D03*
%TD*%
%TO.P,D47,2*%
%TO.N,Net-(D47-Pad2)*%
X235960000Y-130275000D03*
%TO.P,D47,1*%
%TO.N,row3*%
X235960000Y-126975000D03*
%TD*%
%TO.P,D46,2*%
%TO.N,Net-(D46-Pad2)*%
X216960000Y-130275000D03*
%TO.P,D46,1*%
%TO.N,row3*%
X216960000Y-126975000D03*
%TD*%
%TO.P,D45,2*%
%TO.N,Net-(D45-Pad2)*%
X197960000Y-130275000D03*
%TO.P,D45,1*%
%TO.N,row3*%
X197960000Y-126975000D03*
%TD*%
%TO.P,D44,2*%
%TO.N,Net-(D44-Pad2)*%
X176585000Y-130275000D03*
%TO.P,D44,1*%
%TO.N,row3*%
X176585000Y-126975000D03*
%TD*%
%TO.P,D43,2*%
%TO.N,Net-(D43-Pad2)*%
X150460000Y-130275000D03*
%TO.P,D43,1*%
%TO.N,row3*%
X150460000Y-126975000D03*
%TD*%
%TO.P,D42,2*%
%TO.N,Net-(D42-Pad2)*%
X150460000Y-116700000D03*
%TO.P,D42,1*%
%TO.N,row3*%
X150460000Y-120000000D03*
%TD*%
%TO.P,D41,2*%
%TO.N,Net-(D41-Pad2)*%
X121960000Y-130275000D03*
%TO.P,D41,1*%
%TO.N,row3*%
X121960000Y-126975000D03*
%TD*%
%TO.P,D40,2*%
%TO.N,Net-(D40-Pad2)*%
X102960000Y-130275000D03*
%TO.P,D40,1*%
%TO.N,row3*%
X102960000Y-126975000D03*
%TD*%
%TO.P,D39,2*%
%TO.N,Net-(D39-Pad2)*%
X83960000Y-130275000D03*
%TO.P,D39,1*%
%TO.N,row3*%
X83960000Y-126975000D03*
%TD*%
%TO.P,D38,2*%
%TO.N,Net-(D38-Pad2)*%
X64960000Y-130275000D03*
%TO.P,D38,1*%
%TO.N,row3*%
X64960000Y-126975000D03*
%TD*%
%TO.P,D37,2*%
%TO.N,Net-(D37-Pad2)*%
X45960000Y-130275000D03*
%TO.P,D37,1*%
%TO.N,row3*%
X45960000Y-126975000D03*
%TD*%
%TO.P,D36,2*%
%TO.N,Net-(D36-Pad2)*%
X264460000Y-111275000D03*
%TO.P,D36,1*%
%TO.N,row2*%
X264460000Y-107975000D03*
%TD*%
%TO.P,D35,2*%
%TO.N,Net-(D35-Pad2)*%
X245460000Y-111275000D03*
%TO.P,D35,1*%
%TO.N,row2*%
X245460000Y-107975000D03*
%TD*%
%TO.P,D34,2*%
%TO.N,Net-(D34-Pad2)*%
X226460000Y-111275000D03*
%TO.P,D34,1*%
%TO.N,row2*%
X226460000Y-107975000D03*
%TD*%
%TO.P,D33,2*%
%TO.N,Net-(D33-Pad2)*%
X207460000Y-111275000D03*
%TO.P,D33,1*%
%TO.N,row2*%
X207460000Y-107975000D03*
%TD*%
%TO.P,D32,2*%
%TO.N,Net-(D32-Pad2)*%
X188460000Y-111275000D03*
%TO.P,D32,1*%
%TO.N,row2*%
X188460000Y-107975000D03*
%TD*%
%TO.P,D31,2*%
%TO.N,Net-(D31-Pad2)*%
X169460000Y-111275000D03*
%TO.P,D31,1*%
%TO.N,row2*%
X169460000Y-107975000D03*
%TD*%
%TO.P,D30,2*%
%TO.N,Net-(D30-Pad2)*%
X131410000Y-111275000D03*
%TO.P,D30,1*%
%TO.N,row2*%
X131410000Y-107975000D03*
%TD*%
%TO.P,D29,2*%
%TO.N,Net-(D29-Pad2)*%
X112410000Y-111275000D03*
%TO.P,D29,1*%
%TO.N,row2*%
X112410000Y-107975000D03*
%TD*%
%TO.P,D28,2*%
%TO.N,Net-(D28-Pad2)*%
X93410000Y-111275000D03*
%TO.P,D28,1*%
%TO.N,row2*%
X93410000Y-107975000D03*
%TD*%
%TO.P,D27,2*%
%TO.N,Net-(D27-Pad2)*%
X74410000Y-111275000D03*
%TO.P,D27,1*%
%TO.N,row2*%
X74410000Y-107975000D03*
%TD*%
%TO.P,D26,2*%
%TO.N,Net-(D26-Pad2)*%
X55410000Y-111275000D03*
%TO.P,D26,1*%
%TO.N,row2*%
X55410000Y-107975000D03*
%TD*%
%TO.P,D25,2*%
%TO.N,Net-(D25-Pad2)*%
X36410000Y-111275000D03*
%TO.P,D25,1*%
%TO.N,row2*%
X36410000Y-107975000D03*
%TD*%
%TO.P,D24,2*%
%TO.N,Net-(D24-Pad2)*%
X259710000Y-90790000D03*
%TO.P,D24,1*%
%TO.N,row1*%
X259710000Y-87490000D03*
%TD*%
%TO.P,D23,2*%
%TO.N,Net-(D23-Pad2)*%
X240710000Y-90790000D03*
%TO.P,D23,1*%
%TO.N,row1*%
X240710000Y-87490000D03*
%TD*%
%TO.P,D22,2*%
%TO.N,Net-(D22-Pad2)*%
X221710000Y-90790000D03*
%TO.P,D22,1*%
%TO.N,row1*%
X221710000Y-87490000D03*
%TD*%
%TO.P,D21,2*%
%TO.N,Net-(D21-Pad2)*%
X202710000Y-90790000D03*
%TO.P,D21,1*%
%TO.N,row1*%
X202710000Y-87490000D03*
%TD*%
%TO.P,D20,2*%
%TO.N,Net-(D20-Pad2)*%
X183710000Y-90790000D03*
%TO.P,D20,1*%
%TO.N,row1*%
X183710000Y-87490000D03*
%TD*%
%TO.P,D19,2*%
%TO.N,Net-(D19-Pad2)*%
X164710000Y-90790000D03*
%TO.P,D19,1*%
%TO.N,row1*%
X164710000Y-87490000D03*
%TD*%
%TO.P,D18,2*%
%TO.N,Net-(D18-Pad2)*%
X136210000Y-90790000D03*
%TO.P,D18,1*%
%TO.N,row1*%
X136210000Y-87490000D03*
%TD*%
%TO.P,D17,2*%
%TO.N,Net-(D17-Pad2)*%
X117210000Y-90790000D03*
%TO.P,D17,1*%
%TO.N,row1*%
X117210000Y-87490000D03*
%TD*%
%TO.P,D16,2*%
%TO.N,Net-(D16-Pad2)*%
X98210000Y-90790000D03*
%TO.P,D16,1*%
%TO.N,row1*%
X98210000Y-87490000D03*
%TD*%
%TO.P,D15,2*%
%TO.N,Net-(D15-Pad2)*%
X79210000Y-90790000D03*
%TO.P,D15,1*%
%TO.N,row1*%
X79210000Y-87490000D03*
%TD*%
%TO.P,D14,2*%
%TO.N,Net-(D14-Pad2)*%
X60210000Y-90790000D03*
%TO.P,D14,1*%
%TO.N,row1*%
X60210000Y-87490000D03*
%TD*%
%TO.P,D13,2*%
%TO.N,Net-(D13-Pad2)*%
X41210000Y-90790000D03*
%TO.P,D13,1*%
%TO.N,row1*%
X41210000Y-87490000D03*
%TD*%
%TO.P,D12,2*%
%TO.N,Net-(D12-Pad2)*%
X254960000Y-73010000D03*
%TO.P,D12,1*%
%TO.N,row0*%
X254960000Y-69710000D03*
%TD*%
%TO.P,D11,2*%
%TO.N,Net-(D11-Pad2)*%
X235960000Y-73010000D03*
%TO.P,D11,1*%
%TO.N,row0*%
X235960000Y-69710000D03*
%TD*%
%TO.P,D10,2*%
%TO.N,Net-(D10-Pad2)*%
X216960000Y-73010000D03*
%TO.P,D10,1*%
%TO.N,row0*%
X216960000Y-69710000D03*
%TD*%
%TO.P,D9,2*%
%TO.N,Net-(D9-Pad2)*%
X197960000Y-73010000D03*
%TO.P,D9,1*%
%TO.N,row0*%
X197960000Y-69710000D03*
%TD*%
%TO.P,D8,2*%
%TO.N,Net-(D8-Pad2)*%
X178960000Y-73010000D03*
%TO.P,D8,1*%
%TO.N,row0*%
X178960000Y-69710000D03*
%TD*%
%TO.P,D7,2*%
%TO.N,Net-(D7-Pad2)*%
X159960000Y-73010000D03*
%TO.P,D7,1*%
%TO.N,row0*%
X159960000Y-69710000D03*
%TD*%
%TO.P,D6,2*%
%TO.N,Net-(D6-Pad2)*%
X140960000Y-73010000D03*
%TO.P,D6,1*%
%TO.N,row0*%
X140960000Y-69710000D03*
%TD*%
%TO.P,D5,2*%
%TO.N,Net-(D5-Pad2)*%
X121960000Y-73010000D03*
%TO.P,D5,1*%
%TO.N,row0*%
X121960000Y-69710000D03*
%TD*%
%TO.P,D4,2*%
%TO.N,Net-(D4-Pad2)*%
X102960000Y-73010000D03*
%TO.P,D4,1*%
%TO.N,row0*%
X102960000Y-69710000D03*
%TD*%
%TO.P,D3,2*%
%TO.N,Net-(D3-Pad2)*%
X83960000Y-73010000D03*
%TO.P,D3,1*%
%TO.N,row0*%
X83960000Y-69710000D03*
%TD*%
%TO.P,D2,2*%
%TO.N,Net-(D2-Pad2)*%
X64960000Y-73010000D03*
%TO.P,D2,1*%
%TO.N,row0*%
X64960000Y-69710000D03*
%TD*%
%TO.P,D1,2*%
%TO.N,Net-(D1-Pad2)*%
X45660000Y-73010000D03*
%TO.P,D1,1*%
%TO.N,row0*%
X45660000Y-69710000D03*
%TD*%
D12*
%TO.P,U1,24*%
%TO.N,Net-(U1-Pad24)*%
X35500000Y-67550000D03*
%TO.P,U1,12*%
%TO.N,row3*%
X20260000Y-95490000D03*
%TO.P,U1,23*%
%TO.N,GND*%
X35500000Y-70090000D03*
%TO.P,U1,22*%
%TO.N,Net-(U1-Pad22)*%
X35500000Y-72630000D03*
%TO.P,U1,21*%
%TO.N,VCC*%
X35500000Y-75170000D03*
%TO.P,U1,20*%
%TO.N,row0*%
X35500000Y-77710000D03*
%TO.P,U1,19*%
%TO.N,row1*%
X35500000Y-80250000D03*
%TO.P,U1,18*%
%TO.N,col0*%
X35500000Y-82790000D03*
%TO.P,U1,17*%
%TO.N,col1*%
X35500000Y-85330000D03*
%TO.P,U1,16*%
%TO.N,col2*%
X35500000Y-87870000D03*
%TO.P,U1,15*%
%TO.N,col3*%
X35500000Y-90410000D03*
%TO.P,U1,14*%
%TO.N,col4*%
X35500000Y-92950000D03*
%TO.P,U1,13*%
%TO.N,col5*%
X35500000Y-95490000D03*
%TO.P,U1,11*%
%TO.N,row2*%
X20260000Y-92950000D03*
%TO.P,U1,10*%
%TO.N,col6*%
X20260000Y-90410000D03*
%TO.P,U1,9*%
%TO.N,col7*%
X20260000Y-87870000D03*
%TO.P,U1,8*%
%TO.N,col8*%
X20260000Y-85330000D03*
%TO.P,U1,7*%
%TO.N,col9*%
X20260000Y-82790000D03*
%TO.P,U1,6*%
%TO.N,col10*%
X20260000Y-80250000D03*
%TO.P,U1,5*%
%TO.N,col11*%
X20260000Y-77710000D03*
%TO.P,U1,4*%
%TO.N,GND*%
X20260000Y-75170000D03*
%TO.P,U1,3*%
X20260000Y-72630000D03*
%TO.P,U1,2*%
%TO.N,Net-(U1-Pad2)*%
X20260000Y-70090000D03*
D13*
%TO.P,U1,1*%
%TO.N,Net-(U1-Pad1)*%
X20260000Y-67550000D03*
%TD*%
D14*
%TO.N,Net-(D1-Pad2)*%
X45660000Y-73010000D02*
X45660000Y-73785300D01*
X45660000Y-73785300D02*
X46445300Y-73785300D01*
X46445300Y-73785300D02*
X50460000Y-77800000D01*
%TO.N,row0*%
X45660000Y-69710000D02*
X64960000Y-69710000D01*
X35500000Y-77710000D02*
X43500000Y-69710000D01*
X43500000Y-69710000D02*
X45660000Y-69710000D01*
X235960000Y-69710000D02*
X254960000Y-69710000D01*
X216960000Y-69710000D02*
X235960000Y-69710000D01*
X197960000Y-69710000D02*
X216960000Y-69710000D01*
X178960000Y-69710000D02*
X197960000Y-69710000D01*
X159960000Y-69710000D02*
X178960000Y-69710000D01*
X140960000Y-69710000D02*
X159960000Y-69710000D01*
X121960000Y-69710000D02*
X140960000Y-69710000D01*
X102960000Y-69710000D02*
X121960000Y-69710000D01*
X83960000Y-69710000D02*
X102960000Y-69710000D01*
X64960000Y-69710000D02*
X83960000Y-69710000D01*
%TO.N,Net-(D2-Pad2)*%
X64960000Y-73010000D02*
X64960000Y-73785300D01*
X64960000Y-73785300D02*
X65445300Y-73785300D01*
X65445300Y-73785300D02*
X69460000Y-77800000D01*
%TO.N,row1*%
X35500000Y-80250000D02*
X41210000Y-85960000D01*
X41210000Y-85960000D02*
X41210000Y-87490000D01*
X41210000Y-87490000D02*
X59284700Y-87490000D01*
X60210000Y-87490000D02*
X59284700Y-87490000D01*
X117210000Y-87490000D02*
X136210000Y-87490000D01*
X98210000Y-87490000D02*
X117210000Y-87490000D01*
X240710000Y-87490000D02*
X259710000Y-87490000D01*
X221710000Y-87490000D02*
X240710000Y-87490000D01*
X202710000Y-87490000D02*
X221710000Y-87490000D01*
X183710000Y-87490000D02*
X202710000Y-87490000D01*
X164710000Y-87490000D02*
X183710000Y-87490000D01*
X136210000Y-87490000D02*
X164710000Y-87490000D01*
X79210000Y-87490000D02*
X98210000Y-87490000D01*
X60210000Y-87490000D02*
X79210000Y-87490000D01*
%TO.N,Net-(D3-Pad2)*%
X83960000Y-73010000D02*
X83960000Y-73785300D01*
X83960000Y-73785300D02*
X84445300Y-73785300D01*
X84445300Y-73785300D02*
X88460000Y-77800000D01*
%TO.N,Net-(D4-Pad2)*%
X102960000Y-73010000D02*
X102960000Y-73785300D01*
X102960000Y-73785300D02*
X103445300Y-73785300D01*
X103445300Y-73785300D02*
X107460000Y-77800000D01*
%TO.N,col0*%
X50710000Y-98900000D02*
X49035800Y-100574200D01*
X49035800Y-100574200D02*
X49035800Y-114824200D01*
X49035800Y-114824200D02*
X45960000Y-117900000D01*
%TO.N,col1*%
X69710000Y-98900000D02*
X68035800Y-100574200D01*
X68035800Y-100574200D02*
X68035800Y-114824200D01*
X68035800Y-114824200D02*
X64960000Y-117900000D01*
%TO.N,GND*%
X20260000Y-72630000D02*
X22800000Y-70090000D01*
X22800000Y-70090000D02*
X35500000Y-70090000D01*
%TO.N,row2*%
X55410000Y-107975000D02*
X55410000Y-108750300D01*
X36410000Y-107975000D02*
X36410000Y-109676800D01*
X36410000Y-109676800D02*
X40272200Y-113539000D01*
X40272200Y-113539000D02*
X40653000Y-113539000D01*
X40653000Y-113539000D02*
X44434400Y-117320400D01*
X44434400Y-117320400D02*
X44434400Y-118281700D01*
X44434400Y-118281700D02*
X45441400Y-119288700D01*
X45441400Y-119288700D02*
X46528100Y-119288700D01*
X46528100Y-119288700D02*
X53710500Y-112106300D01*
X53710500Y-112106300D02*
X53710500Y-110449800D01*
X53710500Y-110449800D02*
X55410000Y-108750300D01*
X20260000Y-92950000D02*
X35285000Y-107975000D01*
X35285000Y-107975000D02*
X36410000Y-107975000D01*
X55410000Y-107975000D02*
X57850200Y-107975000D01*
X57850200Y-107975000D02*
X68268700Y-97556500D01*
X68268700Y-97556500D02*
X70334600Y-97556500D01*
X70334600Y-97556500D02*
X74410000Y-101631900D01*
X74410000Y-101631900D02*
X74410000Y-107975000D01*
X226460000Y-107975000D02*
X245460000Y-107975000D01*
X207460000Y-107975000D02*
X226460000Y-107975000D01*
X188460000Y-107975000D02*
X207460000Y-107975000D01*
X169460000Y-107975000D02*
X188460000Y-107975000D01*
X131410000Y-107975000D02*
X169460000Y-107975000D01*
X93410000Y-107975000D02*
X112410000Y-107975000D01*
X74410000Y-107975000D02*
X93410000Y-107975000D01*
X264460000Y-107975000D02*
X263534700Y-107975000D01*
X245460000Y-107587300D02*
X263147000Y-107587300D01*
X263147000Y-107587300D02*
X263534700Y-107975000D01*
X245460000Y-107975000D02*
X245460000Y-107587300D01*
X112410000Y-107975000D02*
X131410000Y-107975000D01*
%TO.N,row3*%
X83960000Y-126975000D02*
X102960000Y-126975000D01*
X64960000Y-126975000D02*
X83960000Y-126975000D01*
X64960000Y-126975000D02*
X64034700Y-126975000D01*
X45960000Y-126587300D02*
X63647000Y-126587300D01*
X63647000Y-126587300D02*
X64034700Y-126975000D01*
X45960000Y-126587300D02*
X45960000Y-126199700D01*
X45960000Y-126975000D02*
X45960000Y-126587300D01*
X20260000Y-95490000D02*
X20260000Y-100499700D01*
X20260000Y-100499700D02*
X45960000Y-126199700D01*
X176585000Y-126975000D02*
X197960000Y-126975000D01*
X150460000Y-126975000D02*
X176585000Y-126975000D01*
X150460000Y-126975000D02*
X150460000Y-120775300D01*
X150460000Y-120000000D02*
X150460000Y-120775300D01*
X121960000Y-126975000D02*
X150460000Y-126975000D01*
X102960000Y-126975000D02*
X121034700Y-126975000D01*
X121960000Y-126975000D02*
X121034700Y-126975000D01*
X235960000Y-126975000D02*
X254960000Y-126975000D01*
X216960000Y-126975000D02*
X235960000Y-126975000D01*
X197960000Y-126975000D02*
X216960000Y-126975000D01*
%TO.N,Net-(D5-Pad2)*%
X121960000Y-73010000D02*
X121960000Y-73785300D01*
X121960000Y-73785300D02*
X122445300Y-73785300D01*
X122445300Y-73785300D02*
X126460000Y-77800000D01*
%TO.N,Net-(D6-Pad2)*%
X140960000Y-73010000D02*
X140960000Y-73785300D01*
X140960000Y-73785300D02*
X141445300Y-73785300D01*
X141445300Y-73785300D02*
X145460000Y-77800000D01*
%TO.N,Net-(D7-Pad2)*%
X159960000Y-73010000D02*
X159960000Y-73785300D01*
X159960000Y-73785300D02*
X160445300Y-73785300D01*
X160445300Y-73785300D02*
X164460000Y-77800000D01*
%TO.N,Net-(D8-Pad2)*%
X178960000Y-73010000D02*
X178960000Y-73785300D01*
X178960000Y-73785300D02*
X179445300Y-73785300D01*
X179445300Y-73785300D02*
X183460000Y-77800000D01*
%TO.N,Net-(D9-Pad2)*%
X197960000Y-73010000D02*
X197960000Y-73785300D01*
X197960000Y-73785300D02*
X198445300Y-73785300D01*
X198445300Y-73785300D02*
X202460000Y-77800000D01*
%TO.N,Net-(D10-Pad2)*%
X216960000Y-73010000D02*
X216960000Y-73785300D01*
X216960000Y-73785300D02*
X217445300Y-73785300D01*
X217445300Y-73785300D02*
X221460000Y-77800000D01*
%TO.N,Net-(D11-Pad2)*%
X235960000Y-73010000D02*
X235960000Y-73785300D01*
X235960000Y-73785300D02*
X236445300Y-73785300D01*
X236445300Y-73785300D02*
X240460000Y-77800000D01*
%TO.N,Net-(D12-Pad2)*%
X254960000Y-73010000D02*
X254960000Y-73785300D01*
X254960000Y-73785300D02*
X255445300Y-73785300D01*
X255445300Y-73785300D02*
X259460000Y-77800000D01*
%TO.N,Net-(D13-Pad2)*%
X41210000Y-90790000D02*
X41210000Y-91565300D01*
X41210000Y-91565300D02*
X45710000Y-96065300D01*
X45710000Y-96065300D02*
X45710000Y-96800000D01*
%TO.N,Net-(D14-Pad2)*%
X60210000Y-90790000D02*
X60210000Y-91565300D01*
X60210000Y-91565300D02*
X64710000Y-96065300D01*
X64710000Y-96065300D02*
X64710000Y-96800000D01*
%TO.N,Net-(D15-Pad2)*%
X79210000Y-90790000D02*
X79210000Y-91565300D01*
X79210000Y-91565300D02*
X83710000Y-96065300D01*
X83710000Y-96065300D02*
X83710000Y-96800000D01*
%TO.N,Net-(D16-Pad2)*%
X98210000Y-90790000D02*
X98210000Y-91565300D01*
X98210000Y-91565300D02*
X102710000Y-96065300D01*
X102710000Y-96065300D02*
X102710000Y-96800000D01*
%TO.N,Net-(D17-Pad2)*%
X117210000Y-90790000D02*
X117210000Y-91565300D01*
X117210000Y-91565300D02*
X121710000Y-96065300D01*
X121710000Y-96065300D02*
X121710000Y-96800000D01*
%TO.N,Net-(D18-Pad2)*%
X136210000Y-90790000D02*
X136210000Y-91565300D01*
X136210000Y-91565300D02*
X140710000Y-96065300D01*
X140710000Y-96065300D02*
X140710000Y-96800000D01*
%TO.N,Net-(D19-Pad2)*%
X164710000Y-90790000D02*
X164710000Y-91565300D01*
X164710000Y-91565300D02*
X169210000Y-96065300D01*
X169210000Y-96065300D02*
X169210000Y-96800000D01*
%TO.N,Net-(D20-Pad2)*%
X183710000Y-90790000D02*
X183710000Y-91565300D01*
X183710000Y-91565300D02*
X188210000Y-96065300D01*
X188210000Y-96065300D02*
X188210000Y-96800000D01*
%TO.N,Net-(D21-Pad2)*%
X202710000Y-90790000D02*
X202710000Y-91565300D01*
X202710000Y-91565300D02*
X207210000Y-96065300D01*
X207210000Y-96065300D02*
X207210000Y-96800000D01*
%TO.N,Net-(D22-Pad2)*%
X221710000Y-90790000D02*
X221710000Y-91565300D01*
X221710000Y-91565300D02*
X226210000Y-96065300D01*
X226210000Y-96065300D02*
X226210000Y-96800000D01*
%TO.N,Net-(D23-Pad2)*%
X240710000Y-90790000D02*
X240710000Y-91565300D01*
X240710000Y-91565300D02*
X245210000Y-96065300D01*
X245210000Y-96065300D02*
X245210000Y-96800000D01*
%TO.N,Net-(D24-Pad2)*%
X259710000Y-90790000D02*
X259710000Y-91565300D01*
X259710000Y-91565300D02*
X264210000Y-96065300D01*
X264210000Y-96065300D02*
X264210000Y-96800000D01*
%TO.N,Net-(D25-Pad2)*%
X36410000Y-111275000D02*
X36410000Y-112050300D01*
X36410000Y-112050300D02*
X37210300Y-112050300D01*
X37210300Y-112050300D02*
X40960000Y-115800000D01*
%TO.N,Net-(D26-Pad2)*%
X55410000Y-111275000D02*
X55410000Y-112050300D01*
X55410000Y-112050300D02*
X56210300Y-112050300D01*
X56210300Y-112050300D02*
X59960000Y-115800000D01*
%TO.N,Net-(D27-Pad2)*%
X74410000Y-111275000D02*
X74410000Y-112050300D01*
X74410000Y-112050300D02*
X75210300Y-112050300D01*
X75210300Y-112050300D02*
X78960000Y-115800000D01*
%TO.N,Net-(D28-Pad2)*%
X93410000Y-111275000D02*
X93410000Y-112050300D01*
X93410000Y-112050300D02*
X94210300Y-112050300D01*
X94210300Y-112050300D02*
X97960000Y-115800000D01*
%TO.N,Net-(D29-Pad2)*%
X112410000Y-111275000D02*
X112410000Y-112050300D01*
X112410000Y-112050300D02*
X113210300Y-112050300D01*
X113210300Y-112050300D02*
X116960000Y-115800000D01*
%TO.N,Net-(D30-Pad2)*%
X131410000Y-111275000D02*
X131410000Y-112050300D01*
X131410000Y-112050300D02*
X132210300Y-112050300D01*
X132210300Y-112050300D02*
X135960000Y-115800000D01*
%TO.N,Net-(D31-Pad2)*%
X169460000Y-111275000D02*
X169460000Y-112050300D01*
X169460000Y-112050300D02*
X170210300Y-112050300D01*
X170210300Y-112050300D02*
X173960000Y-115800000D01*
%TO.N,Net-(D32-Pad2)*%
X188460000Y-111275000D02*
X188460000Y-112050300D01*
X188460000Y-112050300D02*
X189210300Y-112050300D01*
X189210300Y-112050300D02*
X192960000Y-115800000D01*
%TO.N,Net-(D33-Pad2)*%
X207460000Y-111275000D02*
X207460000Y-112050300D01*
X207460000Y-112050300D02*
X208210300Y-112050300D01*
X208210300Y-112050300D02*
X211960000Y-115800000D01*
%TO.N,Net-(D34-Pad2)*%
X226460000Y-111275000D02*
X226460000Y-112050300D01*
X226460000Y-112050300D02*
X227210300Y-112050300D01*
X227210300Y-112050300D02*
X230960000Y-115800000D01*
%TO.N,Net-(D35-Pad2)*%
X245460000Y-111275000D02*
X245460000Y-112050300D01*
X245460000Y-112050300D02*
X246210300Y-112050300D01*
X246210300Y-112050300D02*
X249960000Y-115800000D01*
%TO.N,Net-(D36-Pad2)*%
X264460000Y-111275000D02*
X264460000Y-112050300D01*
X264460000Y-112050300D02*
X265210300Y-112050300D01*
X265210300Y-112050300D02*
X268960000Y-115800000D01*
%TO.N,Net-(D37-Pad2)*%
X45960000Y-130275000D02*
X45960000Y-131050300D01*
X45960000Y-131050300D02*
X46710300Y-131050300D01*
X46710300Y-131050300D02*
X50460000Y-134800000D01*
%TO.N,Net-(D38-Pad2)*%
X64960000Y-130275000D02*
X64960000Y-131050300D01*
X64960000Y-131050300D02*
X65710300Y-131050300D01*
X65710300Y-131050300D02*
X69460000Y-134800000D01*
%TO.N,Net-(D39-Pad2)*%
X83960000Y-130275000D02*
X83960000Y-131050300D01*
X83960000Y-131050300D02*
X84710300Y-131050300D01*
X84710300Y-131050300D02*
X88460000Y-134800000D01*
%TO.N,Net-(D40-Pad2)*%
X102960000Y-130275000D02*
X102960000Y-131050300D01*
X102960000Y-131050300D02*
X103710300Y-131050300D01*
X103710300Y-131050300D02*
X107460000Y-134800000D01*
%TO.N,Net-(D41-Pad2)*%
X121960000Y-130275000D02*
X124310000Y-130275000D01*
X124310000Y-130275000D02*
X128835000Y-134800000D01*
%TO.N,Net-(D42-Pad2)*%
X150460000Y-116700000D02*
X154060000Y-116700000D01*
X154060000Y-116700000D02*
X154960000Y-115800000D01*
%TO.N,Net-(D43-Pad2)*%
X150460000Y-130275000D02*
X150460000Y-131050300D01*
X150460000Y-131050300D02*
X151210300Y-131050300D01*
X151210300Y-131050300D02*
X154960000Y-134800000D01*
%TO.N,Net-(D44-Pad2)*%
X176585000Y-130275000D02*
X176585000Y-131050300D01*
X176585000Y-131050300D02*
X177335300Y-131050300D01*
X177335300Y-131050300D02*
X181085000Y-134800000D01*
%TO.N,Net-(D45-Pad2)*%
X197960000Y-130275000D02*
X197960000Y-131050300D01*
X197960000Y-131050300D02*
X198710300Y-131050300D01*
X198710300Y-131050300D02*
X202460000Y-134800000D01*
%TO.N,Net-(D46-Pad2)*%
X216960000Y-130275000D02*
X216960000Y-131050300D01*
X216960000Y-131050300D02*
X217710300Y-131050300D01*
X217710300Y-131050300D02*
X221460000Y-134800000D01*
%TO.N,Net-(D47-Pad2)*%
X235960000Y-130275000D02*
X235960000Y-131050300D01*
X235960000Y-131050300D02*
X236710300Y-131050300D01*
X236710300Y-131050300D02*
X240460000Y-134800000D01*
%TO.N,Net-(D48-Pad2)*%
X254960000Y-130275000D02*
X254960000Y-131050300D01*
X254960000Y-131050300D02*
X255710300Y-131050300D01*
X255710300Y-131050300D02*
X259460000Y-134800000D01*
%TO.N,col3*%
X35500000Y-90410000D02*
X35898400Y-90011600D01*
X35898400Y-90011600D02*
X93158700Y-90011600D01*
X93158700Y-90011600D02*
X102047100Y-98900000D01*
X102047100Y-98900000D02*
X107710000Y-98900000D01*
%TO.N,col4*%
X35500000Y-92950000D02*
X40723400Y-98173400D01*
X40723400Y-98173400D02*
X48272300Y-98173400D01*
X48272300Y-98173400D02*
X49390000Y-97055700D01*
X49390000Y-97055700D02*
X61006900Y-97055700D01*
X61006900Y-97055700D02*
X62108800Y-98157600D01*
X62108800Y-98157600D02*
X65716400Y-98157600D01*
X65716400Y-98157600D02*
X67269300Y-96604700D01*
X67269300Y-96604700D02*
X73401200Y-96604700D01*
X73401200Y-96604700D02*
X77046900Y-100250400D01*
X77046900Y-100250400D02*
X125359600Y-100250400D01*
X125359600Y-100250400D02*
X126710000Y-98900000D01*
%TO.N,col5*%
X35500000Y-95490000D02*
X38633800Y-98623800D01*
X38633800Y-98623800D02*
X48777000Y-98623800D01*
X48777000Y-98623800D02*
X49894700Y-97506100D01*
X49894700Y-97506100D02*
X57554300Y-97506100D01*
X57554300Y-97506100D02*
X58659800Y-98611600D01*
X58659800Y-98611600D02*
X66576600Y-98611600D01*
X66576600Y-98611600D02*
X68133100Y-97055100D01*
X68133100Y-97055100D02*
X70875300Y-97055100D01*
X70875300Y-97055100D02*
X74521400Y-100701200D01*
X74521400Y-100701200D02*
X143908800Y-100701200D01*
X143908800Y-100701200D02*
X145710000Y-98900000D01*
%TO.N,col6*%
X20260000Y-90410000D02*
X21468800Y-89201200D01*
X21468800Y-89201200D02*
X159235100Y-89201200D01*
X159235100Y-89201200D02*
X168933900Y-98900000D01*
X168933900Y-98900000D02*
X174210000Y-98900000D01*
%TO.N,col8*%
X20260000Y-85330000D02*
X21461700Y-86531700D01*
X21461700Y-86531700D02*
X36759400Y-86531700D01*
X36759400Y-86531700D02*
X38493100Y-88265400D01*
X38493100Y-88265400D02*
X172420100Y-88265400D01*
X172420100Y-88265400D02*
X182296100Y-98141400D01*
X182296100Y-98141400D02*
X190953500Y-98141400D01*
X190953500Y-98141400D02*
X191583100Y-97511800D01*
X191583100Y-97511800D02*
X205545700Y-97511800D01*
X205545700Y-97511800D02*
X206933900Y-98900000D01*
X206933900Y-98900000D02*
X212210000Y-98900000D01*
%TO.N,col9*%
X20260000Y-82790000D02*
X24010500Y-79039500D01*
X24010500Y-79039500D02*
X39458500Y-79039500D01*
X39458500Y-79039500D02*
X41678300Y-81259300D01*
X41678300Y-81259300D02*
X225100700Y-81259300D01*
X225100700Y-81259300D02*
X226460000Y-79900000D01*
%TD*%
M02*
